# This file uses centimeters as units for non-parametric coordinates.

mtllib api_gateway.mtl
g default
v 0.069207 0.000000 0.000000
v 0.824432 0.000000 -0.116188
v 0.069207 0.757279 0.000000
v 0.824432 0.511887 -0.116188
v 0.069207 0.757279 -0.474961
v 0.824432 0.511887 -0.358772
v 0.069207 0.000000 -0.474961
v 0.824432 0.000000 -0.358772
v -0.069207 0.000000 0.000000
v -0.824432 0.000000 -0.116188
v -0.069207 0.757279 0.000000
v -0.824432 0.511887 -0.116188
v -0.069207 0.757279 -0.474961
v -0.824432 0.511887 -0.358772
v -0.069207 0.000000 -0.474961
v -0.824432 0.000000 -0.358772
vt 0.591678 0.548235
vt 0.415556 0.547556
vt 0.415545 0.592512
vt 0.394244 0.592565
vt 0.482748 0.547685
vt 0.524520 0.547900
vt 0.524219 0.614456
vt 0.482495 0.614253
vt 0.513670 0.684191
vt 0.492353 0.684086
vt 0.412296 0.526521
vt 0.476519 0.506383
vt 0.394220 0.547600
vt 0.591459 0.593220
vt 0.590790 0.115943
vt 0.590499 0.182507
vt 0.523556 0.160754
vt 0.523630 0.115806
vt 0.632218 0.182730
vt 0.621635 0.252450
vt 0.600321 0.252334
vt 0.632554 0.116181
vt 0.699702 0.116552
vt 0.699460 0.161531
vt 0.584605 0.074705
vt 0.520358 0.094705
vt 0.502235 0.160712
vt 0.502321 0.115787
vn 0.152056 0.000000 0.988372
vn 0.152056 0.000000 0.988372
vn 0.152056 0.000000 0.988372
vn 0.152056 0.000000 0.988372
vn 0.309022 0.951055 0.000000
vn 0.309022 0.951055 0.000000
vn 0.309022 0.951055 0.000000
vn 0.309022 0.951055 0.000000
vn 0.152058 0.000000 -0.988372
vn 0.152058 0.000000 -0.988372
vn 0.152058 0.000000 -0.988372
vn 0.152058 0.000000 -0.988372
vn 0.000000 -1.000000 0.000000
vn 0.000000 -1.000000 0.000000
vn 0.000000 -1.000000 0.000000
vn 0.000000 -1.000000 0.000000
vn 1.000000 0.000000 0.000000
vn 1.000000 0.000000 0.000000
vn 1.000000 0.000000 0.000000
vn 1.000000 0.000000 0.000000
vn -1.000000 0.000000 0.000000
vn -1.000000 0.000000 0.000000
vn -1.000000 0.000000 0.000000
vn -1.000000 0.000000 0.000000
vn -0.152056 0.000000 0.988372
vn -0.152056 0.000000 0.988372
vn -0.152056 0.000000 0.988372
vn -0.152056 0.000000 0.988372
vn -0.309022 0.951055 0.000000
vn -0.309022 0.951055 0.000000
vn -0.309022 0.951055 0.000000
vn -0.309022 0.951055 0.000000
vn -0.152058 0.000000 -0.988372
vn -0.152058 0.000000 -0.988372
vn -0.152058 0.000000 -0.988372
vn -0.152058 0.000000 -0.988372
vn -0.000000 -1.000000 0.000000
vn -0.000000 -1.000000 0.000000
vn -0.000000 -1.000000 0.000000
vn -0.000000 -1.000000 0.000000
vn -1.000000 0.000000 0.000000
vn -1.000000 0.000000 0.000000
vn -1.000000 0.000000 0.000000
vn -1.000000 0.000000 0.000000
vn 1.000000 0.000000 0.000000
vn 1.000000 0.000000 0.000000
vn 1.000000 0.000000 0.000000
vn 1.000000 0.000000 0.000000
s off
g api_gateway V1
usemtl initialShadingGroup
f 1/6/1 2/1/2 4/14/3 3/7/4
f 3/7/5 4/9/6 6/10/7 5/8/8
f 5/8/9 6/3/10 8/2/11 7/5/12
f 7/5/13 8/2/14 2/11/15 1/12/16
f 2/13/17 8/2/18 6/3/19 4/4/20
f 7/5/21 1/6/22 3/7/23 5/8/24
f 9/15/25 11/16/26 12/17/27 10/18/28
f 11/16/29 13/19/30 14/20/31 12/21/32
f 13/19/33 15/22/34 16/23/35 14/24/36
f 15/25/37 9/15/38 10/18/39 16/26/40
f 10/18/41 12/17/42 14/27/43 16/28/44
f 15/22/45 13/19/46 11/16/47 9/15/48
