# This file uses centimeters as units for non-parametric coordinates.

mtllib autoscaling.mtl
g default
v -1.250000 -0.014929 -0.750000
v -1.250000 -0.014929 0.750000
v -1.250000 0.014929 -0.750000
v -1.250000 0.014929 0.750000
v 1.250000 0.014929 -0.750000
v 1.250000 0.014929 0.750000
v 1.250000 -0.014929 -0.750000
v 1.250000 -0.014929 0.750000
v -1.250000 0.014929 0.000000
v 1.250000 0.014929 0.000000
v 1.250000 -0.014929 0.000000
v -1.250000 -0.014929 0.000000
v -1.250000 0.014929 0.500000
v 1.250000 0.014929 0.500000
v 1.250000 -0.014929 0.500000
v -1.250000 -0.014929 0.500000
v -1.250000 0.014929 -0.500000
v 1.250000 0.014929 -0.500000
v 1.250000 -0.014929 -0.500000
v -1.250000 -0.014929 -0.500000
v 1.453995 0.014929 0.000000
v 1.453995 -0.014929 0.000000
v 1.453995 0.014929 0.500000
v 1.453995 -0.014929 0.500000
v 1.453995 0.014929 -0.500000
v 1.453995 -0.014929 -0.500000
v -1.453995 -0.014929 0.000000
v -1.453995 0.014929 0.000000
v -1.453995 -0.014929 0.500000
v -1.453995 0.014929 0.500000
v -1.453995 -0.014929 -0.500000
v -1.453995 0.014929 -0.500000
v 1.748581 0.014929 0.000000
v 1.748581 -0.014929 0.000000
v -1.748581 -0.014929 0.000000
v -1.748581 0.014929 0.000000
v 1.453995 0.014929 0.989465
v 1.453995 -0.014929 0.989465
v 1.453995 0.014929 -0.989465
v 1.453995 -0.014929 -0.989465
v -1.453995 -0.014929 0.989465
v -1.453995 0.014929 0.989465
v -1.453995 -0.014929 -0.989465
v -1.453995 0.014929 -0.989465
vt 0.982176 0.018801
vt 0.981735 0.105585
vt 0.980699 0.105580
vt 0.981139 0.018796
vt 0.927588 0.105275
vt 0.928026 0.018495
vt 0.929062 0.018500
vt 0.928624 0.105280
vt 0.962661 0.139304
vt 0.961624 0.139304
vt 0.961624 0.132221
vt 0.962661 0.132221
vt 0.926900 0.139304
vt 0.925863 0.139304
vt 0.925863 0.132221
vt 0.926900 0.132221
vt 0.961624 0.226113
vt 0.962660 0.226113
vt 0.962660 0.233197
vt 0.961624 0.233197
vt 0.925863 0.226113
vt 0.926900 0.226113
vt 0.926900 0.233197
vt 0.925863 0.233197
vt 0.937739 0.018545
vt 0.937301 0.105324
vt 0.955108 0.018665
vt 0.954655 0.105411
vt 0.937807 0.011394
vt 0.955161 0.011615
vt 0.972462 0.018751
vt 0.972022 0.105536
vt 0.954602 0.112448
vt 0.937269 0.112410
vt 0.955171 0.001460
vt 0.972454 0.011681
vt 0.972014 0.112697
vt 0.954587 0.122549
vt 0.920863 0.011055
vt 0.920524 0.112571
vt 0.989278 0.011672
vt 0.988850 0.113230
vt 0.918219 0.139304
vt 0.918219 0.226113
vt 0.944262 0.139304
vt 0.944262 0.226113
vt 0.944262 0.132221
vt 0.944262 0.233197
vt 0.944262 0.121992
vt 0.970305 0.139304
vt 0.970305 0.226113
vt 0.944262 0.243426
vt 0.909904 0.132221
vt 0.909904 0.233197
vt 0.978620 0.132221
vt 0.978620 0.233197
vt 0.929067 0.017464
vt 0.937744 0.017508
vt 0.937296 0.106361
vt 0.928619 0.106316
vt 0.972016 0.106572
vt 0.980693 0.106616
vt 0.972468 0.017715
vt 0.981145 0.017759
vt 0.988870 0.114264
vt 0.954955 0.123521
vt 0.920406 0.113606
vt 0.989353 0.010632
vt 0.954803 0.000488
vt 0.920906 0.010022
vt 0.972026 0.111648
vt 0.989090 0.112235
vt 0.937274 0.111375
vt 0.920357 0.111547
vt 0.972410 0.012714
vt 0.989325 0.012710
vt 0.937857 0.012433
vt 0.920783 0.012084
vt 0.955779 0.000628
vt 0.953979 0.123382
vn -1.000000 0.000000 0.000000
vn -1.000000 0.000000 0.000000
vn -1.000000 0.000000 0.000000
vn -1.000000 0.000000 0.000000
vn 0.000000 1.000000 0.000000
vn 0.000000 1.000000 0.000000
vn 0.000000 1.000000 0.000000
vn 0.000000 1.000000 0.000000
vn 1.000000 0.000000 0.000000
vn 1.000000 0.000000 0.000000
vn 1.000000 0.000000 0.000000
vn 1.000000 0.000000 0.000000
vn 0.000000 -1.000000 0.000000
vn 0.000000 -1.000000 0.000000
vn 0.000000 -1.000000 0.000000
vn 0.000000 -1.000000 0.000000
vn 0.000000 0.000000 1.000000
vn 0.000000 0.000000 1.000000
vn 0.000000 0.000000 1.000000
vn 0.000000 0.000000 1.000000
vn 0.000000 0.000000 -1.000000
vn 0.000000 0.000000 -1.000000
vn 0.000000 0.000000 -1.000000
vn 0.000000 0.000000 -1.000000
vn 0.000000 1.000000 0.000000
vn 0.000000 1.000000 0.000000
vn 0.000000 1.000000 0.000000
vn 0.000000 1.000000 0.000000
vn 0.000000 -1.000000 0.000000
vn 0.000000 -1.000000 0.000000
vn 0.000000 -1.000000 0.000000
vn 0.000000 -1.000000 0.000000
vn 0.000000 1.000000 0.000000
vn 0.000000 1.000000 0.000000
vn 1.000000 0.000000 0.000000
vn 1.000000 0.000000 0.000000
vn 1.000000 0.000000 0.000000
vn 1.000000 0.000000 0.000000
vn 0.000000 -1.000000 0.000000
vn 0.000000 -1.000000 0.000000
vn -1.000000 0.000000 0.000000
vn -1.000000 0.000000 0.000000
vn -1.000000 0.000000 0.000000
vn -1.000000 0.000000 0.000000
vn -0.000000 1.000000 0.000000
vn -0.000000 1.000000 0.000000
vn 0.000000 0.000000 1.000000
vn 0.000000 0.000000 1.000000
vn 0.000000 0.000000 1.000000
vn 0.000000 0.000000 1.000000
vn 0.000000 -1.000000 0.000000
vn 0.000000 -1.000000 0.000000
vn 0.000000 0.000000 -1.000000
vn 0.000000 0.000000 -1.000000
vn 0.000000 0.000000 -1.000000
vn 0.000000 0.000000 -1.000000
vn -0.000000 1.000000 0.000000
vn 0.000000 -1.000000 0.000000
vn 0.000000 -1.000000 0.000000
vn 0.000000 -1.000000 0.000000
vn 0.000000 0.000000 1.000000
vn 0.000000 0.000000 1.000000
vn 0.000000 0.000000 1.000000
vn 0.000000 0.000000 1.000000
vn 0.000000 1.000000 0.000000
vn 0.000000 1.000000 0.000000
vn 0.000000 0.000000 -1.000000
vn 0.000000 0.000000 -1.000000
vn 0.000000 0.000000 -1.000000
vn 0.000000 0.000000 -1.000000
vn 0.000000 -1.000000 0.000000
vn 0.000000 1.000000 0.000000
vn -0.000000 1.000000 0.000000
vn 0.958425 0.000000 0.285345
vn 0.958425 0.000000 0.285345
vn 0.958425 0.000000 0.285345
vn 0.958425 0.000000 0.285345
vn 0.000000 -1.000000 0.000000
vn 0.958425 0.000000 -0.285345
vn 0.958425 0.000000 -0.285345
vn 0.958425 0.000000 -0.285345
vn 0.958425 0.000000 -0.285345
vn 0.000000 -1.000000 0.000000
vn -0.958425 0.000000 0.285345
vn -0.958425 0.000000 0.285345
vn -0.958425 0.000000 0.285345
vn -0.958425 0.000000 0.285345
vn 0.000000 1.000000 0.000000
vn -0.958425 0.000000 -0.285345
vn -0.958425 0.000000 -0.285345
vn -0.958425 0.000000 -0.285345
vn -0.958425 0.000000 -0.285345
vn -1.000000 0.000000 0.000000
vn -1.000000 0.000000 0.000000
vn -1.000000 0.000000 0.000000
vn -1.000000 0.000000 0.000000
vn 0.000000 -1.000000 0.000000
vn -0.000000 1.000000 0.000000
vn -1.000000 0.000000 0.000000
vn -1.000000 0.000000 0.000000
vn -1.000000 0.000000 0.000000
vn -1.000000 0.000000 0.000000
vn -0.000000 1.000000 0.000000
vn 0.000000 -1.000000 0.000000
vn 1.000000 0.000000 0.000000
vn 1.000000 0.000000 0.000000
vn 1.000000 0.000000 0.000000
vn 1.000000 0.000000 0.000000
vn 0.000000 1.000000 0.000000
vn 0.000000 -1.000000 0.000000
vn 1.000000 0.000000 0.000000
vn 1.000000 0.000000 0.000000
vn 1.000000 0.000000 0.000000
vn 1.000000 0.000000 0.000000
vn 0.000000 -1.000000 0.000000
vn 0.000000 1.000000 0.000000
s off
g autoscaling V1
usemtl initialShadingGroup
f 1/57/1 20/58/2 17/25/3 3/7/4
s 1
f 3/7/5 17/25/6 18/26/7 5/8/8
s off
f 5/8/9 18/26/10 19/59/11 7/60/12
s 2
f 7/43/13 19/13/14 20/22/15 1/44/16
s off
f 2/1/17 8/2/18 6/3/19 4/4/20
f 7/5/21 1/6/22 3/7/23 5/8/24
s 1
f 9/27/25 13/31/26 14/32/27 10/28/28
s 2
f 12/46/29 11/45/30 15/10/31 16/17/32
s 1
f 13/31/26 4/4/33 6/3/34 14/32/27
s off
f 15/61/35 14/32/36 6/3/37 8/62/38
s 2
f 16/17/32 15/10/31 8/50/39 2/51/40
s off
f 13/31/41 16/63/42 2/64/43 4/4/44
s 1
f 17/25/6 9/27/25 10/28/28 18/26/7
s 2
f 20/22/15 19/13/14 11/45/30 12/46/29
s 1
f 10/28/28 14/32/27 23/37/45 21/33/46
s off
f 14/9/47 15/10/48 24/11/49 23/12/50
s 2
f 15/10/31 11/45/30 22/47/51 24/11/52
s off
f 19/13/53 18/14/54 25/15/55 26/16/56
s 1
f 18/26/7 10/28/28 21/33/46 25/34/57
s 2
f 11/45/30 19/13/14 26/16/58 22/47/51
f 12/46/29 16/17/32 29/20/59 27/48/60
s off
f 16/17/61 13/18/62 30/19/63 29/20/64
s 1
f 13/31/26 9/27/25 28/30/65 30/36/66
s off
f 17/21/67 20/22/68 31/23/69 32/24/70
s 2
f 20/22/15 12/46/29 27/48/60 31/23/71
s 1
f 9/27/25 17/25/6 32/29/72 28/30/65
f 21/33/46 23/37/45 33/38/73
s off
f 37/42/74 38/65/75 34/66/76 33/38/77
s 2
f 24/11/52 22/47/51 34/49/78
s off
f 40/67/79 39/40/80 33/38/81 34/80/82
s 1
f 25/34/57 21/33/46 33/38/73
s 2
f 22/47/51 26/16/58 34/49/78
f 27/48/60 29/20/59 35/52/83
s off
f 41/68/84 42/41/85 36/35/86 35/79/87
s 1
f 30/36/66 28/30/65 36/35/88
s off
f 44/39/89 43/70/90 35/69/91 36/35/92
s 2
f 31/23/71 27/48/60 35/52/83
s 1
f 28/30/65 32/29/72 36/35/88
s off
f 23/37/93 24/71/94 38/72/95 37/42/96
s 2
f 24/11/52 34/49/78 38/55/97
s 1
f 33/38/73 23/37/45 37/42/98
s off
f 26/73/99 25/34/100 39/40/101 40/74/102
s 1
f 25/34/57 33/38/73 39/40/103
s 2
f 34/49/78 26/16/58 40/53/104
s off
f 29/75/105 30/36/106 42/41/107 41/76/108
s 1
f 30/36/66 36/35/88 42/41/109
s 2
f 35/52/83 29/20/59 41/56/110
s off
f 32/29/111 31/77/112 43/78/113 44/39/114
s 2
f 31/23/71 35/52/83 43/54/115
s 1
f 36/35/88 32/29/72 44/39/116
