# This file uses centimeters as units for non-parametric coordinates.

mtllib customer_gateway.mtl
g default
v 0.069207 0.000000 0.000000
v 0.824432 0.000000 -0.116188
v 0.069207 0.757279 0.000000
v 0.824432 0.511887 -0.116188
v 0.069207 0.757279 -0.474961
v 0.824432 0.511887 -0.358772
v 0.069207 0.000000 -0.474961
v 0.824432 0.000000 -0.358772
v 0.000000 0.000000 0.000000
v -0.755224 0.000000 -0.116188
v 0.000000 0.757279 0.000000
v -0.755224 0.511887 -0.116188
v 0.000000 0.757279 -0.474961
v -0.755224 0.511887 -0.358772
v 0.000000 0.000000 -0.474961
v -0.755224 0.000000 -0.358772
vt 0.291599 0.573344
vt 0.312905 0.573330
vt 0.312969 0.618256
vt 0.291646 0.618293
vt 0.230676 0.532225
vt 0.224425 0.573479
vt 0.224650 0.640037
vt 0.182920 0.640155
vt 0.214597 0.709842
vt 0.193283 0.709891
vt 0.115472 0.573974
vt 0.115766 0.618902
vt 0.182690 0.573582
vt 0.294800 0.552265
vt 0.600714 0.613923
vt 0.600731 0.680439
vt 0.533595 0.658885
vt 0.533594 0.613918
vt 0.642465 0.680434
vt 0.632251 0.750197
vt 0.610940 0.750196
vt 0.642419 0.613874
vt 0.709557 0.613888
vt 0.709503 0.658825
vt 0.648724 0.572600
vt 0.712862 0.592867
vt 0.730860 0.613891
vt 0.730822 0.658870
vn 0.152056 0.000000 0.988372
vn 0.152056 0.000000 0.988372
vn 0.152056 0.000000 0.988372
vn 0.152056 0.000000 0.988372
vn 0.309022 0.951055 0.000000
vn 0.309022 0.951055 0.000000
vn 0.309022 0.951055 0.000000
vn 0.309022 0.951055 0.000000
vn 0.152058 0.000000 -0.988372
vn 0.152058 0.000000 -0.988372
vn 0.152058 0.000000 -0.988372
vn 0.152058 0.000000 -0.988372
vn 0.000000 -1.000000 0.000000
vn 0.000000 -1.000000 0.000000
vn 0.000000 -1.000000 0.000000
vn 0.000000 -1.000000 0.000000
vn 1.000000 0.000000 0.000000
vn 1.000000 0.000000 0.000000
vn 1.000000 0.000000 0.000000
vn 1.000000 0.000000 0.000000
vn -1.000000 0.000000 0.000000
vn -1.000000 0.000000 0.000000
vn -1.000000 0.000000 0.000000
vn -1.000000 0.000000 0.000000
vn -0.152056 0.000000 0.988372
vn -0.152056 0.000000 0.988372
vn -0.152056 0.000000 0.988372
vn -0.152056 0.000000 0.988372
vn -0.309022 0.951055 0.000000
vn -0.309022 0.951055 0.000000
vn -0.309022 0.951055 0.000000
vn -0.309022 0.951055 0.000000
vn -0.152058 0.000000 -0.988372
vn -0.152058 0.000000 -0.988372
vn -0.152058 0.000000 -0.988372
vn -0.152058 0.000000 -0.988372
vn -0.000000 -1.000000 0.000000
vn -0.000000 -1.000000 0.000000
vn -0.000000 -1.000000 0.000000
vn -0.000000 -1.000000 0.000000
vn -1.000000 0.000000 0.000000
vn -1.000000 0.000000 0.000000
vn -1.000000 0.000000 0.000000
vn -1.000000 0.000000 0.000000
vn 1.000000 0.000000 0.000000
vn 1.000000 0.000000 0.000000
vn 1.000000 0.000000 0.000000
vn 1.000000 0.000000 0.000000
s off
g customer_gateway V1
usemtl initialShadingGroup
f 1/6/1 2/1/2 4/4/3 3/7/4
f 3/7/5 4/9/6 6/10/7 5/8/8
f 5/8/9 6/12/10 8/11/11 7/13/12
f 7/5/13 8/14/14 2/1/15 1/6/16
f 2/1/17 8/2/18 6/3/19 4/4/20
f 7/13/21 1/6/22 3/7/23 5/8/24
f 9/15/25 11/16/26 12/17/27 10/18/28
f 11/16/29 13/19/30 14/20/31 12/21/32
f 13/19/33 15/22/34 16/23/35 14/24/36
f 15/22/37 9/25/38 10/26/39 16/23/40
f 10/27/41 12/28/42 14/24/43 16/23/44
f 15/22/45 13/19/46 11/16/47 9/15/48
