# This file uses centimeters as units for non-parametric coordinates.

mtllib ec2.mtl
g default
v -1.000000 0.000000 0.000000
v 0.000000 0.000000 0.000000
v -1.000000 0.501548 0.000000
v 0.000000 0.501548 0.000000
v -1.000000 0.501548 -1.000000
v 0.000000 0.501548 -1.000000
v -1.000000 0.000000 -1.000000
v 0.000000 0.000000 -1.000000
vt 0.366494 0.410345
vt 0.366494 0.316963
vt 0.413330 0.316963
vt 0.413330 0.410345
vt 0.273112 0.316963
vt 0.273112 0.410345
vt 0.226276 0.410345
vt 0.226276 0.316963
vt 0.132894 0.410345
vt 0.132894 0.316963
vt 0.226276 0.457181
vt 0.132894 0.457181
vt 0.132894 0.270127
vt 0.226276 0.270127
vn 0.000000 0.000000 1.000000
vn 0.000000 0.000000 1.000000
vn 0.000000 0.000000 1.000000
vn 0.000000 0.000000 1.000000
vn 0.000000 1.000000 0.000000
vn 0.000000 1.000000 0.000000
vn 0.000000 1.000000 0.000000
vn 0.000000 1.000000 0.000000
vn 0.000000 0.000000 -1.000000
vn 0.000000 0.000000 -1.000000
vn 0.000000 0.000000 -1.000000
vn 0.000000 0.000000 -1.000000
vn 0.000000 -1.000000 0.000000
vn 0.000000 -1.000000 0.000000
vn 0.000000 -1.000000 0.000000
vn 0.000000 -1.000000 0.000000
vn 1.000000 0.000000 0.000000
vn 1.000000 0.000000 0.000000
vn 1.000000 0.000000 0.000000
vn 1.000000 0.000000 0.000000
vn -1.000000 0.000000 0.000000
vn -1.000000 0.000000 0.000000
vn -1.000000 0.000000 0.000000
vn -1.000000 0.000000 0.000000
s off
g ec2 V1
usemtl initialShadingGroup
f 1/11/1 2/12/2 4/9/3 3/7/4
f 3/7/5 4/9/6 6/10/7 5/8/8
f 5/8/9 6/10/10 8/13/11 7/14/12
f 7/5/13 8/2/14 2/1/15 1/6/16
f 2/1/17 8/2/18 6/3/19 4/4/20
f 7/5/21 1/6/22 3/7/23 5/8/24
