# This file uses centimeters as units for non-parametric coordinates.

mtllib efs.mtl
g default
v -1.000000 0.000000 -0.130307
v -0.869693 0.000000 0.000000
v -0.860452 0.120266 -0.139548
v 0.000000 0.000000 -0.130307
v -0.130307 0.000000 0.000000
v -0.139548 0.120266 -0.139548
v -0.860452 0.120266 -0.860452
v -1.000000 0.000000 -0.869693
v -0.869693 0.000000 -1.000000
v -0.139548 0.120266 -0.860452
v 0.000000 0.000000 -0.869693
v -0.130307 0.000000 -1.000000
vt 0.881792 0.837712
vt 0.881555 0.783777
vt 0.935368 0.783662
vt 0.935363 0.837597
vt 0.868339 0.839057
vt 0.868092 0.782490
vt 0.880206 0.770316
vt 0.936659 0.770194
vt 0.948821 0.838884
vt 0.948825 0.782317
vt 0.936579 0.851059
vt 0.880634 0.851179
vt 0.946354 0.860817
vt 0.946353 0.916304
vt 0.936571 0.926104
vt 0.880964 0.926224
vt 0.871140 0.916466
vt 0.870901 0.860979
vn 0.000000 0.757502 0.652833
vn 0.000000 0.757502 0.652833
vn 0.000000 0.757502 0.652833
vn 0.000000 0.757502 0.652833
vn 0.000000 0.757502 -0.652833
vn 0.000000 0.757502 -0.652833
vn 0.000000 0.757502 -0.652833
vn 0.000000 0.757502 -0.652833
vn 0.652833 0.757502 0.000000
vn 0.652833 0.757502 0.000000
vn 0.652833 0.757502 0.000000
vn 0.652833 0.757502 0.000000
vn -0.652833 0.757502 0.000000
vn -0.652833 0.757502 0.000000
vn -0.652833 0.757502 0.000000
vn -0.652833 0.757502 0.000000
vn 0.000000 1.000000 0.000000
vn 0.000000 1.000000 0.000000
vn 0.000000 1.000000 0.000000
vn 0.000000 1.000000 0.000000
vn 0.000000 -1.000000 0.000000
vn 0.000000 -1.000000 0.000000
vn 0.000000 -1.000000 0.000000
vn 0.000000 -1.000000 0.000000
vn 0.000000 -1.000000 0.000000
vn 0.000000 -1.000000 0.000000
vn 0.000000 -1.000000 0.000000
vn 0.000000 -1.000000 0.000000
vn -0.532203 0.658423 0.532203
vn -0.532203 0.658423 0.532203
vn -0.532203 0.658423 0.532203
vn 0.532203 0.658423 0.532203
vn 0.532203 0.658423 0.532203
vn 0.532203 0.658423 0.532203
vn -0.532203 0.658423 -0.532203
vn -0.532203 0.658423 -0.532203
vn -0.532203 0.658423 -0.532203
vn 0.532203 0.658422 -0.532203
vn 0.532203 0.658422 -0.532203
vn 0.532203 0.658422 -0.532203
s off
g efs V1
usemtl initialShadingGroup
f 3/1/1 2/5/2 5/6/3 6/2/4
f 9/9/5 7/4/6 10/3/7 12/10/8
f 6/2/9 4/7/10 11/8/11 10/3/12
f 7/4/13 8/11/14 1/12/15 3/1/16
f 3/1/17 6/2/18 10/3/19 7/4/20
f 8/11/21 9/13/22 12/14/23 11/15/24 4/16/25 5/17/26 2/18/27 1/12/28
f 1/12/29 2/5/30 3/1/31
f 5/6/32 4/7/33 6/2/34
f 7/4/35 9/9/36 8/11/37
f 10/3/38 11/8/39 12/10/40
