# This file uses centimeters as units for non-parametric coordinates.

mtllib elasticsearch.mtl
g default
v -1.000000 0.000000 0.000000
v 0.000000 0.000000 0.000000
v -1.000000 0.000000 -1.000000
v 0.000000 0.000000 -1.000000
v -0.750000 1.000000 0.000000
v -0.250000 1.000000 0.000000
v -0.750000 1.000000 -1.000000
v -0.250000 1.000000 -1.000000
v -1.000000 0.750000 0.000000
v 0.000000 0.750000 0.000000
v -1.000000 1.000000 -0.250000
v -1.000000 1.000000 -0.750000
v 0.000000 1.000000 -0.250000
v 0.000000 1.000000 -0.750000
v -1.000000 0.750000 -1.000000
v 0.000000 0.750000 -1.000000
vt 0.736904 0.799758
vt 0.685677 0.799007
vt 0.698672 0.786387
vt 0.724285 0.786764
vt 0.736341 0.838178
vt 0.685114 0.837427
vt 0.681246 0.781444
vt 0.741848 0.782332
vt 0.686808 0.722164
vt 0.738035 0.722920
vt 0.725039 0.735538
vt 0.699425 0.735160
vt 0.687376 0.683743
vt 0.738603 0.684501
vt 0.742463 0.740484
vt 0.681862 0.739589
vt 0.788319 0.787705
vt 0.789072 0.736478
vt 0.840299 0.737232
vt 0.839545 0.788459
vt 0.737657 0.748533
vt 0.686429 0.747778
vt 0.737280 0.774146
vt 0.686054 0.773392
vt 0.673060 0.786011
vt 0.673810 0.734784
vt 0.634640 0.785450
vt 0.635389 0.734223
vt 0.749899 0.787141
vt 0.750652 0.735914
vn 0.000000 -1.000000 0.000000
vn 0.000000 -1.000000 0.000000
vn 0.000000 -1.000000 0.000000
vn 0.000000 -1.000000 0.000000
vn -0.577350 0.577350 0.577350
vn -0.577350 0.577350 0.577350
vn -0.577350 0.577350 0.577350
vn 0.577350 0.577350 0.577350
vn 0.577350 0.577350 0.577350
vn 0.577350 0.577350 0.577350
vn -0.577350 0.577350 -0.577350
vn -0.577350 0.577350 -0.577350
vn -0.577350 0.577350 -0.577350
vn 0.000000 0.000000 1.000000
vn 0.000000 0.000000 1.000000
vn 0.000000 0.000000 1.000000
vn 0.000000 0.000000 1.000000
vn 0.577350 0.577350 -0.577350
vn 0.577350 0.577350 -0.577350
vn 0.577350 0.577350 -0.577350
vn -1.000000 0.000000 0.000000
vn -1.000000 0.000000 0.000000
vn -1.000000 0.000000 0.000000
vn -1.000000 0.000000 0.000000
vn 1.000000 0.000000 0.000000
vn 1.000000 0.000000 0.000000
vn 1.000000 0.000000 0.000000
vn 1.000000 0.000000 0.000000
vn 0.000000 0.000000 -1.000000
vn 0.000000 0.000000 -1.000000
vn 0.000000 0.000000 -1.000000
vn 0.000000 0.000000 -1.000000
vn 0.000000 1.000000 0.000000
vn 0.000000 1.000000 0.000000
vn 0.000000 1.000000 0.000000
vn 0.000000 1.000000 0.000000
vn 0.000000 0.000000 1.000000
vn 0.000000 0.000000 1.000000
vn 1.000000 0.000000 0.000000
vn 1.000000 0.000000 0.000000
vn 0.000000 0.000000 -1.000000
vn 0.000000 0.000000 -1.000000
vn -1.000000 0.000000 0.000000
vn -1.000000 0.000000 0.000000
vn 0.000000 1.000000 0.000000
vn 0.000000 1.000000 0.000000
vn 0.000000 1.000000 0.000000
vn 0.000000 1.000000 0.000000
s off
g elasticsearch V1
usemtl initialShadingGroup
f 3/17/1 4/18/2 2/19/3 1/20/4
f 11/3/5 9/2/6 5/7/7
f 10/9/8 13/12/9 6/16/10
f 15/1/11 12/4/12 7/8/13
s 1
f 9/25/14 10/26/15 6/22/16 5/24/17
s off
f 14/11/18 16/10/19 8/15/20
s 2
f 15/1/21 9/2/22 11/3/23 12/4/24
s 3
f 10/9/25 16/10/26 14/11/27 13/12/28
s 4
f 15/29/29 7/23/30 8/21/31 16/30/32
s 5
f 8/21/33 6/22/34 13/12/35 14/11/36
s 1
f 1/27/37 2/28/38 10/26/15 9/25/14
s 3
f 2/13/39 4/14/40 16/10/26 10/9/25
s 4
f 15/29/29 16/30/32 4/18/41 3/17/42
s 2
f 3/5/43 1/6/44 9/2/22 15/1/21
s 5
f 7/23/45 5/24/46 6/22/34 8/21/33
f 11/3/47 5/24/46 7/23/45 12/4/48
