# This file uses centimeters as units for non-parametric coordinates.

mtllib nat_gateway.mtl
g default
v 0.069207 0.000000 0.000000
v 0.824432 0.000000 -0.116188
v 0.069207 0.757279 0.000000
v 0.824432 0.511887 -0.116188
v 0.069207 0.757279 -0.474961
v 0.824432 0.511887 -0.358772
v 0.069207 0.000000 -0.474961
v 0.824432 0.000000 -0.358772
v -0.069207 0.000000 0.000000
v -0.824432 0.000000 -0.116188
v -0.069207 0.757279 0.000000
v -0.824432 0.511887 -0.116188
v -0.069207 0.757279 -0.474961
v -0.824432 0.511887 -0.358772
v -0.069207 0.000000 -0.474961
v -0.824432 0.000000 -0.358772
vt 0.709548 0.476978
vt 0.730851 0.476967
vt 0.730913 0.521883
vt 0.709594 0.521916
vt 0.648615 0.435865
vt 0.642419 0.477091
vt 0.642608 0.543634
vt 0.600874 0.543743
vt 0.632547 0.613424
vt 0.611236 0.613472
vt 0.712829 0.455884
vt 0.533692 0.522319
vt 0.533594 0.477348
vt 0.600714 0.477200
vt 0.597687 0.261313
vt 0.597506 0.327864
vt 0.530528 0.306143
vt 0.530534 0.261204
vt 0.639245 0.327972
vt 0.628886 0.397711
vt 0.607571 0.397665
vt 0.639400 0.261420
vt 0.706531 0.261566
vt 0.706434 0.306543
vt 0.591485 0.220080
vt 0.527253 0.240106
vt 0.509231 0.306196
vt 0.509204 0.261246
vn 0.152056 0.000000 0.988372
vn 0.152056 0.000000 0.988372
vn 0.152056 0.000000 0.988372
vn 0.152056 0.000000 0.988372
vn 0.309022 0.951055 0.000000
vn 0.309022 0.951055 0.000000
vn 0.309022 0.951055 0.000000
vn 0.309022 0.951055 0.000000
vn 0.152058 0.000000 -0.988372
vn 0.152058 0.000000 -0.988372
vn 0.152058 0.000000 -0.988372
vn 0.152058 0.000000 -0.988372
vn 0.000000 -1.000000 0.000000
vn 0.000000 -1.000000 0.000000
vn 0.000000 -1.000000 0.000000
vn 0.000000 -1.000000 0.000000
vn 1.000000 0.000000 0.000000
vn 1.000000 0.000000 0.000000
vn 1.000000 0.000000 0.000000
vn 1.000000 0.000000 0.000000
vn -1.000000 0.000000 0.000000
vn -1.000000 0.000000 0.000000
vn -1.000000 0.000000 0.000000
vn -1.000000 0.000000 0.000000
vn -0.152056 0.000000 0.988372
vn -0.152056 0.000000 0.988372
vn -0.152056 0.000000 0.988372
vn -0.152056 0.000000 0.988372
vn -0.309022 0.951055 0.000000
vn -0.309022 0.951055 0.000000
vn -0.309022 0.951055 0.000000
vn -0.309022 0.951055 0.000000
vn -0.152058 0.000000 -0.988372
vn -0.152058 0.000000 -0.988372
vn -0.152058 0.000000 -0.988372
vn -0.152058 0.000000 -0.988372
vn -0.000000 -1.000000 0.000000
vn -0.000000 -1.000000 0.000000
vn -0.000000 -1.000000 0.000000
vn -0.000000 -1.000000 0.000000
vn -1.000000 0.000000 0.000000
vn -1.000000 0.000000 0.000000
vn -1.000000 0.000000 0.000000
vn -1.000000 0.000000 0.000000
vn 1.000000 0.000000 0.000000
vn 1.000000 0.000000 0.000000
vn 1.000000 0.000000 0.000000
vn 1.000000 0.000000 0.000000
s off
g nat_gateway V1
usemtl initialShadingGroup
f 1/6/1 2/1/2 4/4/3 3/7/4
f 3/7/5 4/9/6 6/10/7 5/8/8
f 5/8/9 6/12/10 8/13/11 7/14/12
f 7/5/13 8/11/14 2/1/15 1/6/16
f 2/1/17 8/2/18 6/3/19 4/4/20
f 7/14/21 1/6/22 3/7/23 5/8/24
f 9/15/25 11/16/26 12/17/27 10/18/28
f 11/16/29 13/19/30 14/20/31 12/21/32
f 13/19/33 15/22/34 16/23/35 14/24/36
f 15/25/37 9/15/38 10/18/39 16/26/40
f 10/18/41 12/17/42 14/27/43 16/28/44
f 15/22/45 13/19/46 11/16/47 9/15/48
