# This file uses centimeters as units for non-parametric coordinates.

mtllib redis.mtl
g default
v -1.000000 0.450000 0.000000
v 0.000000 0.450000 0.000000
v -1.000000 0.742043 0.000000
v 0.000000 0.742043 0.000000
v -1.000000 0.742043 -1.000000
v 0.000000 0.742043 -1.000000
v -1.000000 0.450000 -1.000000
v 0.000000 0.450000 -1.000000
v -1.000000 0.900000 0.000000
v 0.000000 0.900000 0.000000
v -1.000000 1.192043 0.000000
v 0.000000 1.192043 0.000000
v -1.000000 1.192043 -1.000000
v 0.000000 1.192043 -1.000000
v -1.000000 0.900000 -1.000000
v 0.000000 0.900000 -1.000000
v -1.000000 0.000000 0.000000
v 0.000000 0.000000 0.000000
v -1.000000 0.292043 0.000000
v 0.000000 0.292043 0.000000
v -1.000000 0.292043 -1.000000
v 0.000000 0.292043 -1.000000
v -1.000000 0.000000 -1.000000
v 0.000000 0.000000 -1.000000
v 0.000000 1.192043 -0.879588
v -1.000000 1.192043 -0.879588
v -1.000000 0.900000 -0.879588
v 0.000000 0.900000 -0.879588
v 0.000000 1.192043 -0.537393
v -1.000000 1.192043 -0.537393
v -1.000000 0.900000 -0.537393
v 0.000000 0.900000 -0.537393
v -0.456510 1.192043 -0.879588
v -0.456510 1.192043 -0.537393
v -0.456511 1.192043 0.000000
v -0.456511 0.900000 0.000000
v -0.456511 0.900000 -0.537393
v -0.456511 0.900000 -0.879588
v -0.456511 0.900000 -1.000000
v -0.456511 1.192043 -1.000000
v -0.123945 1.192043 -0.879588
v -0.123945 1.192043 -0.537393
v -0.123945 1.192043 0.000000
v -0.123945 0.900000 0.000000
v -0.123945 0.900000 -0.537393
v -0.123945 0.900000 -0.879588
v -0.123945 0.900000 -1.000000
v -0.123945 1.192043 -1.000000
vt 0.350354 0.934570
vt 0.303402 0.934570
vt 0.303402 0.920858
vt 0.350354 0.920858
vt 0.303402 0.981522
vt 0.350354 0.981522
vt 0.350354 0.995234
vt 0.303402 0.995234
vt 0.528056 0.961415
vt 0.575008 0.961415
vt 0.575008 0.975127
vt 0.528056 0.975127
vt 0.575008 0.914463
vt 0.528056 0.914463
vt 0.528056 0.900751
vt 0.575008 0.900750
vt 0.251136 0.859757
vt 0.298088 0.859757
vt 0.298088 0.873469
vt 0.251136 0.873469
vt 0.298089 0.934134
vt 0.251136 0.934134
vt 0.251136 0.920422
vt 0.298089 0.920422
vt 0.364066 0.981522
vt 0.364066 0.934570
vt 0.411018 0.934569
vt 0.411019 0.981522
vt 0.514344 0.914463
vt 0.514344 0.961415
vt 0.467391 0.961414
vt 0.467392 0.914462
vt 0.311801 0.920422
vt 0.311800 0.873469
vt 0.358752 0.873467
vt 0.358754 0.920419
vt 0.289690 0.981522
vt 0.289689 0.934570
vt 0.588720 0.914463
vt 0.588721 0.961415
vt 0.237424 0.920422
vt 0.237424 0.873469
vt 0.473045 0.961414
vt 0.569355 0.975127
vt 0.569355 0.900750
vt 0.473046 0.914462
vt 0.569355 0.914463
vt 0.569355 0.961415
vt 0.489112 0.961414
vt 0.553288 0.975127
vt 0.553288 0.900751
vt 0.489112 0.914462
vt 0.553288 0.914463
vt 0.553288 0.961415
vt 0.473045 0.939980
vt 0.489112 0.939980
vt 0.514344 0.939981
vt 0.528056 0.939981
vt 0.553288 0.939981
vt 0.569355 0.939981
vt 0.575008 0.939981
vt 0.588720 0.939981
vt 0.467392 0.939980
vt 0.473045 0.955595
vt 0.489112 0.955595
vt 0.514344 0.955595
vt 0.528056 0.955595
vt 0.553288 0.955595
vt 0.569355 0.955596
vt 0.575008 0.955596
vt 0.588721 0.955595
vt 0.467391 0.955595
vt 0.545977 0.914500
vt 0.545977 0.934881
vt 0.528583 0.934881
vt 0.528583 0.914500
vt 0.574673 0.915001
vt 0.574673 0.935382
vt 0.557279 0.935382
vt 0.557279 0.915001
vt 0.557523 0.961097
vt 0.557523 0.941290
vt 0.574917 0.941290
vt 0.574917 0.961097
vt 0.528216 0.961431
vt 0.528216 0.941623
vt 0.545610 0.941623
vt 0.545610 0.961431
vn 0.000000 0.000000 1.000000
vn 0.000000 0.000000 1.000000
vn 0.000000 0.000000 1.000000
vn 0.000000 0.000000 1.000000
vn 0.000000 1.000000 0.000000
vn 0.000000 1.000000 0.000000
vn 0.000000 1.000000 0.000000
vn 0.000000 1.000000 0.000000
vn 0.000000 0.000000 -1.000000
vn 0.000000 0.000000 -1.000000
vn 0.000000 0.000000 -1.000000
vn 0.000000 0.000000 -1.000000
vn 0.000000 -1.000000 0.000000
vn 0.000000 -1.000000 0.000000
vn 0.000000 -1.000000 0.000000
vn 0.000000 -1.000000 0.000000
vn 1.000000 0.000000 0.000000
vn 1.000000 0.000000 0.000000
vn 1.000000 0.000000 0.000000
vn 1.000000 0.000000 0.000000
vn -1.000000 0.000000 0.000000
vn -1.000000 0.000000 0.000000
vn -1.000000 0.000000 0.000000
vn -1.000000 0.000000 0.000000
vn 0.000000 0.000000 1.000000
vn 0.000000 0.000000 1.000000
vn 0.000000 0.000000 1.000000
vn 0.000000 0.000000 1.000000
vn -0.000000 1.000000 -0.000000
vn -0.000000 1.000000 -0.000000
vn -0.000001 1.000000 -0.000000
vn -0.000000 1.000000 -0.000000
vn 0.000000 0.000000 -1.000000
vn 0.000000 0.000000 -1.000000
vn 0.000000 0.000000 -1.000000
vn 0.000000 0.000000 -1.000000
vn 0.000000 -1.000000 0.000000
vn 0.000000 -1.000000 0.000000
vn 0.000000 -1.000000 0.000000
vn 0.000000 -1.000000 0.000000
vn 1.000000 0.000000 0.000000
vn 1.000000 0.000000 0.000000
vn 1.000000 0.000000 0.000000
vn 1.000000 0.000000 0.000000
vn -1.000000 0.000000 0.000000
vn -1.000000 0.000000 0.000000
vn -1.000000 0.000000 0.000000
vn -1.000000 0.000000 0.000000
vn 0.000000 0.000000 1.000000
vn 0.000000 0.000000 1.000000
vn 0.000000 0.000000 1.000000
vn 0.000000 0.000000 1.000000
vn 0.000000 1.000000 0.000000
vn 0.000000 1.000000 0.000000
vn 0.000000 1.000000 0.000000
vn 0.000000 1.000000 0.000000
vn 0.000000 0.000000 -1.000000
vn 0.000000 0.000000 -1.000000
vn 0.000000 0.000000 -1.000000
vn 0.000000 0.000000 -1.000000
vn 0.000000 -1.000000 0.000000
vn 0.000000 -1.000000 0.000000
vn 0.000000 -1.000000 0.000000
vn 0.000000 -1.000000 0.000000
vn 1.000000 0.000000 0.000000
vn 1.000000 0.000000 0.000000
vn 1.000000 0.000000 0.000000
vn 1.000000 0.000000 0.000000
vn -1.000000 0.000000 0.000000
vn -1.000000 0.000000 0.000000
vn -1.000000 0.000000 0.000000
vn -1.000000 0.000000 0.000000
vn -0.000000 1.000000 0.000001
vn -0.000000 1.000000 0.000000
vn -0.000001 1.000000 0.000000
vn -0.000000 1.000000 0.000001
vn -1.000000 0.000000 0.000000
vn -1.000000 0.000000 0.000000
vn -1.000000 0.000000 0.000000
vn -1.000000 0.000000 0.000000
vn 0.000000 -1.000000 0.000000
vn 0.000000 -1.000000 0.000000
vn 0.000000 -1.000000 0.000000
vn 0.000000 -1.000000 0.000000
vn 1.000000 0.000000 0.000000
vn 1.000000 0.000000 0.000000
vn 1.000000 0.000000 0.000000
vn 1.000000 0.000000 0.000000
vn 0.000000 1.000000 -0.000000
vn 0.000000 1.000000 -0.000000
vn 0.000000 1.000000 0.000001
vn 0.000000 1.000000 0.000000
vn 0.000000 1.000000 -0.000000
vn 0.000000 1.000000 -0.000000
vn 0.000000 0.000000 1.000000
vn 0.000000 0.000000 1.000000
vn 0.000000 0.000000 1.000000
vn 0.000000 0.000000 1.000000
vn 0.000000 -1.000000 0.000000
vn 0.000000 -1.000000 0.000000
vn 0.000000 -1.000000 0.000000
vn 0.000000 -1.000000 0.000000
vn 0.000000 -1.000000 0.000000
vn 0.000000 -1.000000 0.000000
vn 0.000000 -1.000000 0.000000
vn 0.000000 -1.000000 0.000000
vn 0.000000 0.000000 -1.000000
vn 0.000000 0.000000 -1.000000
vn 0.000000 0.000000 -1.000000
vn 0.000000 0.000000 -1.000000
vn 0.000000 1.000000 0.000001
vn 0.000000 1.000000 0.000002
vn 0.000001 0.000001 1.000000
vn 0.000001 0.000001 1.000000
vn 0.000001 0.000001 1.000000
vn 0.000001 0.000001 1.000000
vn 1.000000 -0.000001 0.000000
vn 1.000000 -0.000001 0.000000
vn 1.000000 -0.000001 0.000000
vn 1.000000 -0.000001 0.000000
vn 0.000000 0.000000 -1.000000
vn 0.000000 0.000000 -1.000000
vn 0.000000 0.000000 -1.000000
vn 0.000000 0.000000 -1.000000
vn -1.000000 0.000000 0.000000
vn -1.000000 0.000000 0.000000
vn -1.000000 0.000000 0.000000
vn -1.000000 0.000000 0.000000
s off
g redis V1
usemtl initialShadingGroup
f 1/6/1 2/1/2 4/26/3 3/25/4
f 3/25/5 4/26/6 6/27/7 5/28/8
f 5/37/9 6/38/10 8/2/11 7/5/12
f 7/5/13 8/2/14 2/1/15 1/6/16
f 2/1/17 8/2/18 6/3/19 4/4/20
f 7/5/21 1/6/22 3/7/23 5/8/24
s 1
f 44/67/25 10/9/26 12/30/27 43/66/28
s 2
f 43/66/29 12/30/30 29/49/31 42/65/32
s 3
f 48/71/33 14/40/34 16/10/35 47/70/36
s 4
f 45/68/37 32/54/38 10/9/39 44/67/40
s 5
f 10/9/41 32/54/42 29/50/43 12/12/44
s 6
f 31/53/45 9/14/46 11/15/47 30/51/48
s off
f 17/41/49 18/42/50 20/20/51 19/23/52
f 19/23/53 20/20/54 22/19/55 21/24/56
f 21/24/57 22/19/58 24/34/59 23/33/60
f 23/33/61 24/34/62 18/35/63 17/36/64
f 18/17/65 24/18/66 22/19/67 20/20/68
f 23/21/69 17/22/70 19/23/71 21/24/72
s 2
f 48/72/73 41/64/74 25/43/75 14/31/76
s 6
f 15/13/77 27/47/78 26/45/79 13/16/80
s 4
f 47/70/81 16/10/82 28/48/83 46/69/84
s 5
f 25/44/85 28/48/86 16/10/87 14/11/88
s 2
f 42/65/32 29/49/31 25/43/75 41/64/74
s 6
f 27/47/78 31/53/45 30/51/48 26/45/79
s 4
f 46/69/84 28/48/83 32/54/38 45/68/37
s 5
f 29/50/43 32/54/42 28/48/86 25/44/85
s 2
f 30/52/89 34/56/90 33/55/91 26/46/92
f 11/29/93 35/57/94 34/56/90 30/52/89
s 1
f 9/14/95 36/58/96 35/57/97 11/29/98
s 4
f 31/53/99 37/59/100 36/58/101 9/14/102
f 27/47/103 38/60/104 37/59/100 31/53/99
f 15/13/105 39/61/106 38/60/104 27/47/103
s 3
f 13/39/107 40/62/108 39/61/109 15/13/110
s 2
f 26/46/92 33/55/91 40/63/111 13/32/112
f 35/57/94 43/66/29 42/65/32 34/56/90
s 1
f 36/58/96 44/67/25 43/66/28 35/57/97
s 4
f 37/59/100 45/68/37 44/67/40 36/58/101
f 39/61/106 47/70/81 46/69/84 38/60/104
s 3
f 40/62/108 48/71/33 47/70/36 39/61/109
s 2
f 40/63/111 33/55/91 41/64/74 48/72/73
s off
f 38/81/113 46/82/114 41/83/115 33/84/116
f 33/73/117 34/74/118 37/75/119 38/76/120
f 34/85/121 42/86/122 45/87/123 37/88/124
f 42/77/125 41/78/126 46/79/127 45/80/128
