# This file uses centimeters as units for non-parametric coordinates.

mtllib redshift.mtl
g default
v -1.000000 0.000000 -0.773922
v -0.773923 0.000000 -1.000000
v -1.000000 1.178836 -0.773922
v -0.773923 1.178836 -1.000000
v -0.584412 0.000000 -0.999888
v -0.584412 1.178836 -0.999888
v -0.999888 1.178836 -0.579210
v -0.999888 -0.000000 -0.579210
v -0.584560 -0.000000 -0.579349
v -0.584560 1.178836 -0.579349
v 0.000000 0.000000 -0.773922
v -0.226077 0.000000 -1.000000
v 0.000000 1.178836 -0.773922
v -0.226077 1.178836 -1.000000
v -0.415588 0.000000 -0.999888
v -0.415588 1.178836 -0.999888
v -0.000112 1.178836 -0.579210
v -0.000112 -0.000000 -0.579210
v -0.415440 -0.000000 -0.579349
v -0.415440 1.178836 -0.579349
v -1.000000 0.000000 -0.226078
v -0.773923 0.000000 0.000000
v -1.000000 1.178836 -0.226078
v -0.773923 1.178836 0.000000
v -0.584412 0.000000 -0.000112
v -0.584412 1.178836 -0.000112
v -0.999888 1.178836 -0.420790
v -0.999888 -0.000000 -0.420790
v -0.584560 -0.000000 -0.420651
v -0.584560 1.178836 -0.420651
v 0.000000 0.000000 -0.226078
v -0.226077 0.000000 0.000000
v 0.000000 1.178836 -0.226078
v -0.226077 1.178836 0.000000
v -0.415588 0.000000 -0.000112
v -0.415588 1.178836 -0.000112
v -0.000112 1.178836 -0.420790
v -0.000112 -0.000000 -0.420790
v -0.415440 -0.000000 -0.420651
v -0.415440 1.178836 -0.420651
vt 0.983495 0.571698
vt 0.983495 0.516364
vt 0.992635 0.516365
vt 0.992634 0.571698
vt 0.968488 0.516364
vt 0.968487 0.571698
vt 0.959593 0.516365
vt 0.959592 0.571698
vt 0.939852 0.571697
vt 0.939853 0.516363
vt 0.462593 0.381371
vt 0.453454 0.381305
vt 0.453854 0.325974
vt 0.462993 0.326040
vt 0.478001 0.326148
vt 0.477600 0.381480
vt 0.486896 0.326212
vt 0.506635 0.326355
vt 0.506234 0.381687
vt 0.486495 0.381544
vt 0.983653 0.307621
vt 0.992792 0.307647
vt 0.992634 0.362980
vt 0.983495 0.362954
vt 0.968487 0.362911
vt 0.968645 0.307578
vt 0.959592 0.362886
vt 0.939852 0.362830
vt 0.940010 0.307498
vt 0.959750 0.307552
vt 0.935364 0.646970
vt 0.935365 0.591637
vt 0.944505 0.591637
vt 0.944504 0.646970
vt 0.920358 0.591637
vt 0.920357 0.646970
vt 0.983740 0.591638
vt 0.983738 0.646971
vt 0.963999 0.646971
vt 0.964000 0.591637
vt 0.948982 0.496861
vt 0.959596 0.507470
vt 0.939842 0.496868
vt 0.959593 0.580593
vt 0.948977 0.591201
vt 0.939837 0.591192
vt 0.526198 0.317357
vt 0.515659 0.306672
vt 0.526130 0.326497
vt 0.506764 0.306616
vt 0.514974 0.401499
vt 0.525665 0.390967
vt 0.506079 0.401427
vt 0.525729 0.381828
vt 0.948923 0.382359
vt 0.959568 0.371781
vt 0.939783 0.382325
vt 0.959776 0.298656
vt 0.949188 0.288020
vt 0.940049 0.288004
vt 0.973127 0.572134
vt 0.983742 0.582742
vt 0.963987 0.572142
vt 0.983740 0.655866
vt 0.973125 0.666474
vt 0.963985 0.666466
vt 0.920357 0.571696
vt 0.920358 0.516363
vt 0.920516 0.307441
vt 0.920357 0.362774
vt 0.992635 0.591638
vt 0.992634 0.646971
vn -0.707107 0.000000 -0.707106
vn -0.707107 0.000000 -0.707106
vn -0.707107 0.000000 -0.707106
vn -0.707107 0.000000 -0.707106
vn 0.000589 0.000000 -1.000000
vn 0.000589 0.000000 -1.000000
vn 0.000589 0.000000 -1.000000
vn 0.000589 0.000000 -1.000000
vn -1.000000 0.000000 0.000573
vn -1.000000 0.000000 0.000573
vn -1.000000 0.000000 0.000573
vn -1.000000 0.000000 0.000573
vn 1.000000 0.000000 0.000351
vn 1.000000 0.000000 0.000351
vn 1.000000 0.000000 0.000351
vn 1.000000 0.000000 0.000351
vn 0.000333 0.000000 1.000000
vn 0.000333 0.000000 1.000000
vn 0.000333 0.000000 1.000000
vn 0.000333 0.000000 1.000000
vn 0.000000 -1.000000 -0.000000
vn 0.000000 -1.000000 -0.000000
vn 0.000000 -1.000000 -0.000000
vn 0.000000 1.000000 -0.000000
vn 0.000000 1.000000 -0.000000
vn 0.000000 1.000000 -0.000000
vn 0.000000 1.000000 0.000000
vn 0.000000 1.000000 0.000000
vn 0.000000 -1.000000 -0.000000
vn 0.000000 -1.000000 -0.000000
vn 0.707107 0.000000 -0.707106
vn 0.707107 0.000000 -0.707106
vn 0.707107 0.000000 -0.707106
vn 0.707107 0.000000 -0.707106
vn -0.000589 0.000000 -1.000000
vn -0.000589 0.000000 -1.000000
vn -0.000589 0.000000 -1.000000
vn -0.000589 0.000000 -1.000000
vn 1.000000 0.000000 0.000573
vn 1.000000 0.000000 0.000573
vn 1.000000 0.000000 0.000573
vn 1.000000 0.000000 0.000573
vn -1.000000 0.000000 0.000351
vn -1.000000 0.000000 0.000351
vn -1.000000 0.000000 0.000351
vn -1.000000 0.000000 0.000351
vn -0.000333 0.000000 1.000000
vn -0.000333 0.000000 1.000000
vn -0.000333 0.000000 1.000000
vn -0.000333 0.000000 1.000000
vn -0.000000 -1.000000 -0.000000
vn -0.000000 -1.000000 -0.000000
vn -0.000000 -1.000000 -0.000000
vn 0.000000 1.000000 0.000000
vn 0.000000 1.000000 0.000000
vn 0.000000 1.000000 0.000000
vn 0.000000 1.000000 0.000000
vn 0.000000 1.000000 0.000000
vn -0.000000 -1.000000 -0.000000
vn -0.000000 -1.000000 -0.000000
vn -0.707107 0.000000 0.707106
vn -0.707107 0.000000 0.707106
vn -0.707107 0.000000 0.707106
vn -0.707107 0.000000 0.707106
vn 0.000589 0.000000 1.000000
vn 0.000589 0.000000 1.000000
vn 0.000589 0.000000 1.000000
vn 0.000589 0.000000 1.000000
vn -1.000000 0.000000 -0.000573
vn -1.000000 0.000000 -0.000573
vn -1.000000 0.000000 -0.000573
vn -1.000000 0.000000 -0.000573
vn 1.000000 0.000000 -0.000351
vn 1.000000 0.000000 -0.000351
vn 1.000000 0.000000 -0.000351
vn 1.000000 0.000000 -0.000351
vn 0.000333 0.000000 -1.000000
vn 0.000333 0.000000 -1.000000
vn 0.000333 0.000000 -1.000000
vn 0.000333 0.000000 -1.000000
vn 0.000000 -1.000000 0.000000
vn 0.000000 -1.000000 0.000000
vn 0.000000 -1.000000 0.000000
vn 0.000000 1.000000 0.000000
vn 0.000000 1.000000 0.000000
vn 0.000000 1.000000 0.000000
vn 0.000000 1.000000 0.000000
vn 0.000000 1.000000 0.000000
vn 0.000000 -1.000000 0.000000
vn 0.000000 -1.000000 0.000000
vn 0.707107 0.000000 0.707106
vn 0.707107 0.000000 0.707106
vn 0.707107 0.000000 0.707106
vn 0.707107 0.000000 0.707106
vn -0.000589 0.000000 1.000000
vn -0.000589 0.000000 1.000000
vn -0.000589 0.000000 1.000000
vn -0.000589 0.000000 1.000000
vn 1.000000 0.000000 -0.000573
vn 1.000000 0.000000 -0.000573
vn 1.000000 0.000000 -0.000573
vn 1.000000 0.000000 -0.000573
vn -1.000000 0.000000 -0.000351
vn -1.000000 0.000000 -0.000351
vn -1.000000 0.000000 -0.000351
vn -1.000000 0.000000 -0.000351
vn -0.000333 0.000000 -1.000000
vn -0.000333 0.000000 -1.000000
vn -0.000333 0.000000 -1.000000
vn -0.000333 0.000000 -1.000000
vn -0.000000 -1.000000 0.000000
vn -0.000000 -1.000000 0.000000
vn -0.000000 -1.000000 0.000000
vn 0.000000 1.000000 0.000000
vn 0.000000 1.000000 0.000000
vn 0.000000 1.000000 0.000000
vn 0.000000 1.000000 0.000000
vn 0.000000 1.000000 0.000000
vn -0.000000 -1.000000 0.000000
vn -0.000000 -1.000000 0.000000
s off
g redshift V1
usemtl initialShadingGroup
f 2/5/1 1/2/2 3/1/3 4/6/4
f 2/5/5 4/6/6 6/8/7 5/7/8
f 3/1/9 1/2/10 8/3/11 7/4/12
f 5/7/13 6/8/14 10/9/15 9/10/16
f 7/67/17 8/68/18 9/10/19 10/9/20
s 1
f 1/41/21 2/42/22 9/10/23
s 2
f 4/44/24 3/45/25 10/9/26
f 4/44/24 10/9/26 6/8/27
f 10/9/26 3/45/25 7/46/28
s 1
f 1/41/21 9/10/23 8/43/29
f 9/10/23 2/42/22 5/7/30
s off
f 12/15/31 14/16/32 13/11/33 11/14/34
f 12/15/35 15/17/36 16/20/37 14/16/38
f 13/11/39 17/12/40 18/13/41 11/14/42
f 15/17/43 19/18/44 20/19/45 16/20/46
f 17/54/47 20/19/48 19/18/49 18/49/50
s 3
f 11/47/51 19/18/52 12/48/53
s 4
f 14/51/54 20/19/55 13/52/56
f 14/51/54 16/53/57 20/19/55
f 20/19/55 17/54/58 13/52/56
s 3
f 11/47/51 18/49/59 19/18/52
f 19/18/52 15/50/60 12/48/53
s off
f 22/25/61 24/26/62 23/21/63 21/24/64
f 22/25/65 25/27/66 26/30/67 24/26/68
f 23/21/69 27/22/70 28/23/71 21/24/72
f 25/27/73 29/28/74 30/29/75 26/30/76
f 27/69/77 30/29/78 29/28/79 28/70/80
s 5
f 21/55/81 29/28/82 22/56/83
s 6
f 24/58/84 30/29/85 23/59/86
f 24/58/84 26/30/87 30/29/85
f 30/29/85 27/60/88 23/59/86
s 5
f 21/55/81 28/57/89 29/28/82
f 29/28/82 25/27/90 22/56/83
s off
f 32/35/91 31/32/92 33/31/93 34/36/94
f 32/71/95 34/72/96 36/38/97 35/37/98
f 33/31/99 31/32/100 38/33/101 37/34/102
f 35/37/103 36/38/104 40/39/105 39/40/106
f 37/34/107 38/33/108 39/40/109 40/39/110
s 7
f 31/61/111 32/62/112 39/40/113
s 8
f 34/64/114 33/65/115 40/39/116
f 34/64/114 40/39/116 36/38/117
f 40/39/116 33/65/115 37/66/118
s 7
f 31/61/111 39/40/113 38/63/119
f 39/40/113 32/62/112 35/37/120
