# This file uses centimeters as units for non-parametric coordinates.

mtllib s3.mtl
g default
v -0.646772 0.000000 -0.157734
v -0.157733 0.000000 -0.157734
v -0.804505 0.962453 0.000000
v 0.000000 0.962453 0.000000
v -0.804505 0.962453 -0.804505
v 0.000000 0.962453 -0.804505
v -0.646772 0.000000 -0.646772
v -0.157733 0.000000 -0.646772
v -0.402253 1.347202 -0.402253
vt 0.316602 0.178555
vt 0.316602 0.135591
vt 0.387281 0.121734
vt 0.387281 0.192412
vt 0.415535 0.157073
vt 0.273639 0.135591
vt 0.273639 0.178555
vt 0.202960 0.192412
vt 0.202960 0.121733
vt 0.174706 0.157073
vt 0.330459 0.249233
vt 0.259781 0.249233
vt 0.295120 0.277487
vt 0.259781 0.064913
vt 0.330460 0.064913
vt 0.295120 0.036658
vn 0.000000 -0.161730 0.986835
vn 0.000000 -0.161730 0.986835
vn 0.000000 -0.161730 0.986835
vn 0.000000 -0.161730 0.986835
vn 0.000000 -0.161729 -0.986835
vn 0.000000 -0.161729 -0.986835
vn 0.000000 -0.161729 -0.986835
vn 0.000000 -0.161729 -0.986835
vn 0.000000 -1.000000 0.000000
vn 0.000000 -1.000000 0.000000
vn 0.000000 -1.000000 0.000000
vn 0.000000 -1.000000 0.000000
vn 0.986835 -0.161729 0.000000
vn 0.986835 -0.161729 0.000000
vn 0.986835 -0.161729 0.000000
vn 0.986835 -0.161729 0.000000
vn -0.986835 -0.161729 0.000000
vn -0.986835 -0.161729 0.000000
vn -0.986835 -0.161729 0.000000
vn -0.986835 -0.161729 0.000000
vn 0.000000 0.722655 0.691209
vn 0.000000 0.722655 0.691209
vn 0.000000 0.722655 0.691209
vn 0.000000 0.722655 -0.691209
vn 0.000000 0.722655 -0.691209
vn 0.000000 0.722655 -0.691209
vn 0.691209 0.722655 0.000000
vn 0.691209 0.722655 0.000000
vn 0.691209 0.722655 0.000000
vn -0.691209 0.722655 0.000000
vn -0.691209 0.722655 0.000000
vn -0.691209 0.722655 0.000000
s off
g s3 V1
usemtl initialShadingGroup
f 1/7/1 2/1/2 4/11/3 3/12/4
f 5/14/5 6/15/6 8/2/7 7/6/8
f 7/6/9 8/2/10 2/1/11 1/7/12
f 2/1/13 8/2/14 6/3/15 4/4/16
f 7/6/17 1/7/18 3/8/19 5/9/20
f 4/11/21 9/13/22 3/12/23
f 5/14/24 9/16/25 6/15/26
f 6/3/27 9/5/28 4/4/29
f 3/8/30 9/10/31 5/9/32
