# This file uses centimeters as units for non-parametric coordinates.

mtllib ses.mtl
g default
v -1.000000 0.000000 -0.226078
v -0.773923 0.000000 0.000000
v -1.000000 1.048819 -0.226078
v -0.773923 1.048819 0.000000
v 0.000000 0.000000 -0.226078
v -0.226077 0.000000 0.000000
v 0.000000 1.048819 -0.226078
v -0.226077 1.048819 0.000000
v -1.000000 1.048819 -0.773922
v -0.773923 1.048819 -1.000000
v -1.000000 0.000000 -0.773922
v -0.773923 0.000000 -1.000000
v -0.226077 1.048819 -1.000000
v 0.000000 1.048819 -0.773922
v 0.000000 0.000000 -0.773922
v -0.226077 0.000000 -1.000000
v -0.148793 1.213827 -0.645474
v -0.354525 1.213827 -0.851207
v -0.645475 1.213827 -0.851207
v -0.851207 1.213827 -0.645474
v -0.851207 1.213827 -0.354525
v -0.645475 1.213827 -0.148793
v -0.354525 1.213827 -0.148793
v -0.148793 1.213827 -0.354525
v -0.500000 1.213827 -0.500000
vt 0.705148 0.046927
vt 0.761551 0.047829
vt 0.761294 0.077329
vt 0.704869 0.077190
vt 0.761730 0.030581
vt 0.705518 0.029854
vt 0.704950 0.094327
vt 0.761174 0.094517
vt 0.693962 0.069533
vt 0.694079 0.054391
vt 0.645863 0.076697
vt 0.589513 0.075773
vt 0.589781 0.046260
vt 0.646149 0.046381
vt 0.645471 0.093823
vt 0.589344 0.092968
vt 0.589920 0.029133
vt 0.646063 0.029182
vt 0.657054 0.054057
vt 0.656935 0.069215
vt 0.814975 0.077756
vt 0.802734 0.089797
vt 0.773325 0.089560
vt 0.773792 0.035808
vt 0.803200 0.036080
vt 0.815230 0.048330
vt 0.683212 0.080078
vt 0.675507 0.061799
vt 0.691261 0.091005
vt 0.667468 0.079943
vt 0.659285 0.090732
vt 0.683546 0.043659
vt 0.691728 0.032875
vt 0.667803 0.043516
vt 0.659755 0.032585
vt 0.705756 0.000488
vt 0.762000 0.001130
vt 0.760935 0.123977
vt 0.704683 0.123683
vn 0.000000 0.000000 1.000000
vn 0.000000 0.000000 1.000000
vn 0.000000 0.000000 1.000000
vn 0.000000 0.000000 1.000000
vn 0.000000 0.000000 -1.000000
vn 0.000000 0.000000 -1.000000
vn 0.000000 0.000000 -1.000000
vn 0.000000 0.000000 -1.000000
vn 1.000000 0.000000 0.000000
vn 1.000000 0.000000 0.000000
vn 1.000000 0.000000 0.000000
vn 1.000000 0.000000 0.000000
vn -1.000000 0.000000 0.000000
vn -1.000000 0.000000 0.000000
vn -1.000000 0.000000 0.000000
vn -1.000000 0.000000 0.000000
vn 0.000000 -1.000000 0.000000
vn 0.000000 -1.000000 0.000000
vn 0.000000 -1.000000 0.000000
vn 0.000000 -1.000000 0.000000
vn -0.707107 0.000000 0.707106
vn -0.707107 0.000000 0.707106
vn -0.707107 0.000000 0.707106
vn -0.707107 0.000000 0.707106
vn 0.707107 0.000000 0.707106
vn 0.707107 0.000000 0.707106
vn 0.707107 0.000000 0.707106
vn 0.707107 0.000000 0.707106
vn -0.707107 0.000000 -0.707106
vn -0.707107 0.000000 -0.707106
vn -0.707107 0.000000 -0.707106
vn -0.707107 0.000000 -0.707106
vn 0.707107 0.000000 -0.707106
vn 0.707107 0.000000 -0.707106
vn 0.707107 0.000000 -0.707106
vn 0.707107 0.000000 -0.707106
vn 0.000000 1.000000 0.000000
vn 0.000000 1.000000 0.000000
vn 0.000000 1.000000 0.000000
vn 0.000000 1.000000 0.000000
vn 0.000000 1.000000 0.000000
vn 0.000000 1.000000 -0.000000
vn 0.000000 1.000000 -0.000000
vn 0.000000 1.000000 -0.000000
vn 0.000000 1.000000 -0.000000
vn -0.742655 0.669675 0.000000
vn -0.742655 0.669675 0.000000
vn -0.742655 0.669675 0.000000
vn -0.742655 0.669675 0.000000
vn -0.455349 0.765059 0.455348
vn -0.455348 0.765059 0.455348
vn -0.455348 0.765059 0.455348
vn -0.455348 0.765059 0.455348
vn 0.000000 0.669674 0.742655
vn 0.000000 0.669674 0.742655
vn 0.000000 0.669674 0.742655
vn 0.000000 0.669674 0.742655
vn 0.455348 0.765059 0.455348
vn 0.455348 0.765059 0.455348
vn 0.455348 0.765059 0.455348
vn 0.455348 0.765059 0.455348
vn 0.742655 0.669675 0.000000
vn 0.742655 0.669675 0.000000
vn 0.742655 0.669675 0.000000
vn 0.742655 0.669675 0.000000
vn 0.455348 0.765060 -0.455348
vn 0.455348 0.765060 -0.455348
vn 0.455348 0.765060 -0.455348
vn 0.455348 0.765060 -0.455348
vn 0.000000 0.669675 -0.742654
vn 0.000000 0.669675 -0.742654
vn 0.000000 0.669675 -0.742654
vn 0.000000 0.669675 -0.742654
vn -0.455348 0.765060 -0.455348
vn -0.455348 0.765060 -0.455348
vn -0.455348 0.765060 -0.455348
vn -0.455348 0.765060 -0.455348
vn 0.000000 -1.000000 0.000000
vn 0.000000 -1.000000 0.000000
vn 0.000000 -1.000000 0.000000
vn 0.000000 -1.000000 0.000000
s off
g ses V1
usemtl initialShadingGroup
f 4/36/1 2/37/2 6/5/3 8/6/4
f 12/38/5 10/39/6 13/7/7 16/8/8
f 7/1/9 5/2/10 15/3/11 14/4/12
f 9/11/13 11/12/14 1/13/15 3/14/16
s 1
f 6/24/17 16/23/18 15/3/19 5/2/20
s off
f 1/13/21 2/17/22 4/18/23 3/14/24
f 6/5/25 5/2/26 7/1/27 8/6/28
f 9/11/29 10/15/30 12/16/31 11/12/32
f 13/7/33 14/4/34 15/3/35 16/8/36
s 2
f 17/9/37 18/27/38 25/28/39
f 18/27/38 19/30/40 25/28/39
f 19/30/40 20/20/41 25/28/39
f 20/20/41 21/19/42 25/28/39
f 21/19/42 22/34/43 25/28/39
f 22/34/43 23/32/44 25/28/39
f 23/32/44 24/10/45 25/28/39
f 24/10/45 17/9/37 25/28/39
s off
f 9/11/46 3/14/47 21/19/48 20/20/49
f 3/14/50 4/35/51 22/34/52 21/19/53
f 4/35/54 8/33/55 23/32/56 22/34/57
f 8/33/58 7/1/59 24/10/60 23/32/61
f 7/1/62 14/4/63 17/9/64 24/10/65
f 14/4/66 13/29/67 18/27/68 17/9/69
f 13/29/70 10/31/71 19/30/72 18/27/73
f 10/31/74 9/11/75 20/20/76 19/30/77
s 1
f 11/21/78 12/22/79 2/25/80 1/26/81
f 2/25/80 12/22/79 16/23/18 6/24/17
