# This file uses centimeters as units for non-parametric coordinates.

mtllib sqs.mtl
g default
v 0.144769 -0.089602 0.605374
v 0.000000 -0.089602 0.354626
v -0.144769 -0.089602 0.605374
v 0.144769 -0.026101 0.605374
v 0.000000 -0.026101 0.354626
v -0.144769 -0.026101 0.605374
v 0.000000 -0.089602 0.521791
v 0.000000 -0.026101 0.521791
v 0.144769 -0.089602 0.285374
v 0.000000 -0.089602 0.034626
v -0.144769 -0.089602 0.285374
v 0.144769 -0.026101 0.285374
v 0.000000 -0.026101 0.034626
v -0.144769 -0.026101 0.285374
v 0.000000 -0.089602 0.201791
v 0.000000 -0.026101 0.201791
v 0.144769 -0.089602 -0.034626
v 0.000000 -0.089602 -0.285374
v -0.144769 -0.089602 -0.034626
v 0.144769 -0.026101 -0.034626
v 0.000000 -0.026101 -0.285374
v -0.144769 -0.026101 -0.034626
v 0.000000 -0.089602 -0.118209
v 0.000000 -0.026101 -0.118209
v 0.144769 -0.089602 -0.354626
v 0.000000 -0.089602 -0.605374
v -0.144769 -0.089602 -0.354626
v 0.144769 -0.026101 -0.354626
v 0.000000 -0.026101 -0.605374
v -0.144769 -0.026101 -0.354626
v 0.000000 -0.089602 -0.438209
v 0.000000 -0.026101 -0.438209
v 0.144769 -0.089602 -0.674626
v 0.000000 -0.089602 -0.925374
v -0.144769 -0.089602 -0.674626
v 0.144769 -0.026101 -0.674626
v 0.000000 -0.026101 -0.925374
v -0.144769 -0.026101 -0.674626
v 0.000000 -0.089602 -0.758209
v 0.000000 -0.026101 -0.758209
v 0.144769 -0.089602 0.925374
v 0.000000 -0.089602 0.674626
v -0.144769 -0.089602 0.925374
v 0.144769 -0.026101 0.925374
v 0.000000 -0.026101 0.674626
v -0.144769 -0.026101 0.925374
v 0.000000 -0.089602 0.841791
v 0.000000 -0.026101 0.841791
v 0.750000 -0.089601 0.718575
v 0.250000 -0.089601 0.718575
v 0.250000 0.089602 0.718575
v 0.250000 0.089602 -0.781425
v 0.750000 -0.089601 -0.781425
v 0.250000 -0.089601 -0.781425
v -0.750000 -0.089601 0.718575
v -0.250000 -0.089601 0.718575
v -0.250000 0.089602 0.718575
v -0.250000 0.089602 -0.781425
v -0.750000 -0.089601 -0.781425
v -0.250000 -0.089601 -0.781425
vt 0.101149 0.443976
vt 0.070416 0.461987
vt 0.066691 0.455044
vt 0.096637 0.437685
vt 0.358991 0.245444
vt 0.328258 0.263455
vt 0.324533 0.256513
vt 0.354479 0.239153
vt 0.693489 0.319484
vt 0.662755 0.337495
vt 0.659031 0.330552
vt 0.688977 0.313194
vt 0.742270 0.295491
vt 0.711536 0.313502
vt 0.707812 0.306560
vt 0.737758 0.289200
vt 0.444327 0.602982
vt 0.474204 0.620352
vt 0.470654 0.627133
vt 0.439753 0.609506
vt 0.796063 0.105904
vt 0.826157 0.123211
vt 0.822552 0.129997
vt 0.791643 0.112498
vt 0.826305 0.136925
vt 0.796427 0.154403
vt 0.791890 0.148130
vt 0.090940 0.461858
vt 0.101255 0.479610
vt 0.108908 0.443772
vt 0.139862 0.461629
vt 0.119294 0.461727
vt 0.109112 0.479779
vt 0.348782 0.263325
vt 0.359097 0.281077
vt 0.366750 0.245239
vt 0.397704 0.263097
vt 0.377136 0.263194
vt 0.366954 0.281247
vt 0.683280 0.337366
vt 0.693594 0.355118
vt 0.701248 0.319280
vt 0.732202 0.337137
vt 0.711634 0.337235
vt 0.701452 0.355287
vt 0.732061 0.313373
vt 0.742375 0.331125
vt 0.750029 0.295286
vt 0.780982 0.313144
vt 0.760415 0.313241
vt 0.750233 0.331294
vt 0.401189 0.627581
vt 0.431898 0.609394
vt 0.421758 0.627456
vt 0.432189 0.645394
vt 0.450120 0.627266
vt 0.439952 0.645158
vt 0.753108 0.130631
vt 0.783785 0.112360
vt 0.773675 0.130452
vt 0.784132 0.148366
vt 0.802029 0.130208
vt 0.096809 0.486186
vt 0.066784 0.468759
vt 0.354651 0.287653
vt 0.324626 0.270227
vt 0.689148 0.361694
vt 0.659123 0.344266
vt 0.737930 0.337701
vt 0.707905 0.320274
vt 0.474371 0.634085
vt 0.444432 0.651469
vt 0.958148 0.673309
vt 0.983775 0.664171
vt 0.983761 0.673351
vt 0.983616 0.759369
vt 0.958018 0.750147
vt 0.983631 0.750190
vt 0.992940 0.673367
vt 0.992811 0.750205
vt 0.930810 0.750100
vt 0.930940 0.673262
vt 0.062640 0.650479
vt 0.038299 0.659061
vt 0.035366 0.650390
vt 0.035498 0.573385
vt 0.038461 0.564724
vt 0.062772 0.573389
vt 0.000621 0.573322
vt 0.026296 0.573368
vt 0.026164 0.650376
vt 0.000488 0.650333
vn 0.866026 0.000000 -0.500000
vn 0.866026 0.000000 -0.500000
vn 0.866026 0.000000 -0.500000
vn 0.866026 0.000000 -0.500000
vn -0.866025 0.000000 -0.500000
vn -0.866025 0.000000 -0.500000
vn -0.866025 0.000000 -0.500000
vn -0.866025 0.000000 -0.500000
vn 0.000000 0.000000 1.000000
vn 0.000000 0.000000 1.000000
vn 0.000000 0.000000 1.000000
vn 0.000000 0.000000 1.000000
vn 0.000000 -1.000000 0.000000
vn 0.000000 -1.000000 0.000000
vn 0.000000 -1.000000 0.000000
vn 0.000000 -1.000000 0.000000
vn 0.000000 1.000000 0.000000
vn 0.000000 1.000000 0.000000
vn 0.000000 1.000000 0.000000
vn 0.000000 1.000000 0.000000
vn 0.866026 0.000000 -0.500000
vn 0.866026 0.000000 -0.500000
vn 0.866026 0.000000 -0.500000
vn 0.866026 0.000000 -0.500000
vn -0.866025 0.000000 -0.500001
vn -0.866025 0.000000 -0.500001
vn -0.866025 0.000000 -0.500001
vn -0.866025 0.000000 -0.500001
vn 0.000000 0.000000 1.000000
vn 0.000000 0.000000 1.000000
vn 0.000000 0.000000 1.000000
vn 0.000000 0.000000 1.000000
vn 0.000000 -1.000000 0.000000
vn 0.000000 -1.000000 0.000000
vn 0.000000 -1.000000 0.000000
vn 0.000000 -1.000000 0.000000
vn 0.000000 1.000000 0.000000
vn 0.000000 1.000000 0.000000
vn 0.000000 1.000000 0.000000
vn 0.000000 1.000000 0.000000
vn 0.866026 0.000000 -0.500000
vn 0.866026 0.000000 -0.500000
vn 0.866026 0.000000 -0.500000
vn 0.866026 0.000000 -0.500000
vn -0.866025 0.000000 -0.500000
vn -0.866025 0.000000 -0.500000
vn -0.866025 0.000000 -0.500000
vn -0.866025 0.000000 -0.500000
vn 0.000000 0.000000 1.000000
vn 0.000000 0.000000 1.000000
vn 0.000000 0.000000 1.000000
vn 0.000000 0.000000 1.000000
vn 0.000000 -1.000000 0.000000
vn 0.000000 -1.000000 0.000000
vn 0.000000 -1.000000 0.000000
vn 0.000000 -1.000000 0.000000
vn 0.000000 1.000000 0.000000
vn 0.000000 1.000000 0.000000
vn 0.000000 1.000000 0.000000
vn 0.000000 1.000000 0.000000
vn 0.866026 0.000000 -0.500000
vn 0.866026 0.000000 -0.500000
vn 0.866026 0.000000 -0.500000
vn 0.866026 0.000000 -0.500000
vn -0.866025 0.000000 -0.500000
vn -0.866025 0.000000 -0.500000
vn -0.866025 0.000000 -0.500000
vn -0.866025 0.000000 -0.500000
vn 0.000000 0.000000 1.000000
vn 0.000000 0.000000 1.000000
vn 0.000000 0.000000 1.000000
vn 0.000000 0.000000 1.000000
vn 0.000000 -1.000000 0.000000
vn 0.000000 -1.000000 0.000000
vn 0.000000 -1.000000 0.000000
vn 0.000000 -1.000000 0.000000
vn 0.000000 1.000000 0.000000
vn 0.000000 1.000000 0.000000
vn 0.000000 1.000000 0.000000
vn 0.000000 1.000000 0.000000
vn 0.866026 0.000000 -0.500000
vn 0.866026 0.000000 -0.500000
vn 0.866026 0.000000 -0.500000
vn 0.866026 0.000000 -0.500000
vn -0.866025 0.000000 -0.500001
vn -0.866025 0.000000 -0.500001
vn -0.866025 0.000000 -0.500001
vn -0.866025 0.000000 -0.500001
vn 0.000000 0.000000 1.000000
vn 0.000000 0.000000 1.000000
vn 0.000000 0.000000 1.000000
vn 0.000000 0.000000 1.000000
vn 0.000000 -1.000000 0.000000
vn 0.000000 -1.000000 0.000000
vn 0.000000 -1.000000 0.000000
vn 0.000000 -1.000000 0.000000
vn 0.000000 1.000000 0.000000
vn 0.000000 1.000000 0.000000
vn 0.000000 1.000000 0.000000
vn 0.000000 1.000000 0.000000
vn 0.866026 0.000000 -0.500000
vn 0.866026 0.000000 -0.500000
vn 0.866026 0.000000 -0.500000
vn 0.866026 0.000000 -0.500000
vn -0.866025 0.000000 -0.500000
vn -0.866025 0.000000 -0.500000
vn -0.866025 0.000000 -0.500000
vn -0.866025 0.000000 -0.500000
vn 0.000000 0.000000 1.000000
vn 0.000000 0.000000 1.000000
vn 0.000000 0.000000 1.000000
vn 0.000000 0.000000 1.000000
vn 0.000000 -1.000000 0.000000
vn 0.000000 -1.000000 0.000000
vn 0.000000 -1.000000 0.000000
vn 0.000000 -1.000000 0.000000
vn 0.000000 1.000000 0.000000
vn 0.000000 1.000000 0.000000
vn 0.000000 1.000000 0.000000
vn 0.000000 1.000000 0.000000
vn 0.000000 0.000000 1.000000
vn 0.000000 0.000000 1.000000
vn 0.000000 0.000000 1.000000
vn 0.000000 0.000000 -1.000000
vn 0.000000 0.000000 -1.000000
vn 0.000000 0.000000 -1.000000
vn 0.000000 -1.000000 0.000000
vn 0.000000 -1.000000 0.000000
vn 0.000000 -1.000000 0.000000
vn 0.000000 -1.000000 0.000000
vn -1.000000 0.000000 0.000000
vn -1.000000 0.000000 0.000000
vn -1.000000 0.000000 0.000000
vn -1.000000 0.000000 0.000000
vn 0.337390 0.941365 0.000000
vn 0.337390 0.941365 0.000000
vn 0.337390 0.941365 0.000000
vn 0.337390 0.941365 0.000000
vn 0.000000 0.000000 1.000000
vn 0.000000 0.000000 1.000000
vn 0.000000 0.000000 1.000000
vn 0.000000 0.000000 -1.000000
vn 0.000000 0.000000 -1.000000
vn 0.000000 0.000000 -1.000000
vn 0.000000 -1.000000 0.000000
vn 0.000000 -1.000000 0.000000
vn 0.000000 -1.000000 0.000000
vn 0.000000 -1.000000 0.000000
vn 1.000000 0.000000 0.000000
vn 1.000000 0.000000 0.000000
vn 1.000000 0.000000 0.000000
vn 1.000000 0.000000 0.000000
vn -0.337390 0.941365 0.000000
vn -0.337390 0.941365 0.000000
vn -0.337390 0.941365 0.000000
vn -0.337390 0.941365 0.000000
s off
g sqs V1
usemtl initialShadingGroup
f 1/1/1 2/2/2 5/3/3 4/4/4
f 2/2/5 3/29/6 6/63/7 5/64/8
f 3/29/9 1/1/10 4/30/11 6/33/12
s 1
f 2/2/13 1/1/14 7/28/15
f 3/29/16 2/2/13 7/28/15
f 1/1/14 3/29/16 7/28/15
s 2
f 4/30/17 5/31/18 8/32/19
f 5/31/18 6/33/20 8/32/19
f 6/33/20 4/30/17 8/32/19
s off
f 9/5/21 10/6/22 13/7/23 12/8/24
f 10/6/25 11/35/26 14/65/27 13/66/28
f 11/35/29 9/5/30 12/36/31 14/39/32
s 3
f 10/6/33 9/5/34 15/34/35
f 11/35/36 10/6/33 15/34/35
f 9/5/34 11/35/36 15/34/35
s 4
f 12/36/37 13/37/38 16/38/39
f 13/37/38 14/39/40 16/38/39
f 14/39/40 12/36/37 16/38/39
s off
f 17/9/41 18/10/42 21/11/43 20/12/44
f 18/10/45 19/41/46 22/67/47 21/68/48
f 19/41/49 17/9/50 20/42/51 22/45/52
s 5
f 18/10/53 17/9/54 23/40/55
f 19/41/56 18/10/53 23/40/55
f 17/9/54 19/41/56 23/40/55
s 6
f 20/42/57 21/43/58 24/44/59
f 21/43/58 22/45/60 24/44/59
f 22/45/60 20/42/57 24/44/59
s off
f 25/13/61 26/14/62 29/15/63 28/16/64
f 26/14/65 27/47/66 30/69/67 29/70/68
f 27/47/69 25/13/70 28/48/71 30/51/72
s 7
f 26/14/73 25/13/74 31/46/75
f 27/47/76 26/14/73 31/46/75
f 25/13/74 27/47/76 31/46/75
s 8
f 28/48/77 29/49/78 32/50/79
f 29/49/78 30/51/80 32/50/79
f 30/51/80 28/48/77 32/50/79
s off
f 33/17/81 34/18/82 37/19/83 36/20/84
f 34/71/85 35/72/86 38/57/87 37/19/88
f 35/55/89 33/53/90 36/20/91 38/57/92
s 9
f 34/52/93 33/53/94 39/54/95
f 35/55/96 34/52/93 39/54/95
f 33/53/94 35/55/96 39/54/95
s 10
f 36/20/97 37/19/98 40/56/99
f 37/19/98 38/57/100 40/56/99
f 38/57/100 36/20/97 40/56/99
s off
f 41/21/101 42/22/102 45/23/103 44/24/104
f 42/25/105 43/26/106 46/27/107 45/23/108
f 43/61/109 41/59/110 44/24/111 46/27/112
s 11
f 42/58/113 41/59/114 47/60/115
f 43/61/116 42/58/113 47/60/115
f 41/59/114 43/61/116 47/60/115
s 12
f 44/24/117 45/23/118 48/62/119
f 45/23/118 46/27/120 48/62/119
f 46/27/120 44/24/117 48/62/119
s off
f 49/73/121 51/74/122 50/75/123
f 52/76/124 53/77/125 54/78/126
f 53/77/127 49/73/128 50/75/129 54/78/130
f 50/75/131 51/79/132 52/80/133 54/78/134
f 52/81/135 51/82/136 49/73/137 53/77/138
f 55/83/139 56/84/140 57/85/141
f 58/86/142 60/87/143 59/88/144
f 59/89/145 60/90/146 56/91/147 55/92/148
f 56/91/149 60/90/150 58/86/151 57/85/152
f 58/86/153 59/88/154 55/83/155 57/85/156
