# This file uses centimeters as units for non-parametric coordinates.

mtllib subnet.mtl
g default
v -1.250000 -0.000000 0.750000
v 1.250000 -0.000000 0.750000
v -1.250000 0.050000 0.750000
v 1.250000 0.050000 0.750000
v -1.250000 0.050000 -0.750000
v 1.250000 0.050000 -0.750000
v -1.250000 -0.000000 -0.750000
v 1.250000 -0.000000 -0.750000
vt 0.862422 0.861694
vt 0.862422 0.791243
vt 0.864771 0.791243
vt 0.864771 0.861694
vt 0.745004 0.791243
vt 0.745003 0.861694
vt 0.742655 0.861694
vt 0.742655 0.791243
vt 0.745004 0.864042
vt 0.862422 0.864042
vt 0.862422 0.934494
vt 0.745004 0.934494
vt 0.745004 0.788894
vt 0.862422 0.788894
vn 0.000000 0.000000 1.000000
vn 0.000000 0.000000 1.000000
vn 0.000000 0.000000 1.000000
vn 0.000000 0.000000 1.000000
vn 0.000000 1.000000 0.000000
vn 0.000000 1.000000 0.000000
vn 0.000000 1.000000 0.000000
vn 0.000000 1.000000 0.000000
vn 0.000000 0.000000 -1.000000
vn 0.000000 0.000000 -1.000000
vn 0.000000 0.000000 -1.000000
vn 0.000000 0.000000 -1.000000
vn 0.000000 -1.000000 0.000000
vn 0.000000 -1.000000 0.000000
vn 0.000000 -1.000000 0.000000
vn 0.000000 -1.000000 0.000000
vn 1.000000 0.000000 0.000000
vn 1.000000 0.000000 0.000000
vn 1.000000 0.000000 0.000000
vn 1.000000 0.000000 0.000000
vn -1.000000 0.000000 0.000000
vn -1.000000 0.000000 0.000000
vn -1.000000 0.000000 0.000000
vn -1.000000 0.000000 0.000000
s off
g subnet V1
usemtl initialShadingGroup
f 1/6/1 2/1/2 4/10/3 3/9/4
f 3/9/5 4/10/6 6/11/7 5/12/8
f 5/13/9 6/14/10 8/2/11 7/5/12
f 7/5/13 8/2/14 2/1/15 1/6/16
f 2/1/17 8/2/18 6/3/19 4/4/20
f 7/5/21 1/6/22 3/7/23 5/8/24
