# This file uses centimeters as units for non-parametric coordinates.

mtllib tambda.mtl
g default
v -1.000000 0.632000 -0.226078
v -0.773923 0.632000 0.000000
v -1.000000 0.924043 -0.226078
v -0.773923 0.924043 0.000000
v 0.000000 0.632000 -0.226078
v -0.226077 0.632000 0.000000
v 0.000000 0.924043 -0.226078
v -0.226077 0.924043 0.000000
v -1.000000 0.924043 -0.773922
v -0.773923 0.924043 -1.000000
v -1.000000 0.632000 -0.773922
v -0.773923 0.632000 -1.000000
v -0.226077 0.924043 -1.000000
v 0.000000 0.924043 -0.773922
v 0.000000 0.632000 -0.773922
v -0.226077 0.632000 -1.000000
v -1.000000 0.316000 -0.226078
v -0.773923 0.316000 0.000000
v -1.000000 0.608043 -0.226078
v -0.773923 0.608043 0.000000
v 0.000000 0.316000 -0.226078
v -0.226077 0.316000 0.000000
v 0.000000 0.608043 -0.226078
v -0.226077 0.608043 0.000000
v -1.000000 0.608043 -0.773922
v -0.773923 0.608043 -1.000000
v -1.000000 0.316000 -0.773922
v -0.773923 0.316000 -1.000000
v -0.226077 0.608043 -1.000000
v 0.000000 0.608043 -0.773922
v 0.000000 0.316000 -0.773922
v -0.226077 0.316000 -1.000000
v -1.000000 0.000000 -0.226078
v -0.773923 0.000000 0.000000
v -1.000000 0.292043 -0.226078
v -0.773923 0.292043 0.000000
v 0.000000 0.000000 -0.226078
v -0.226077 0.000000 0.000000
v 0.000000 0.292043 -0.226078
v -0.226077 0.292043 0.000000
v -1.000000 0.292043 -0.773922
v -0.773923 0.292043 -1.000000
v -1.000000 0.000000 -0.773922
v -0.773923 0.000000 -1.000000
v -0.226077 0.292043 -1.000000
v 0.000000 0.292043 -0.773922
v 0.000000 0.000000 -0.773922
v -0.226077 0.000000 -1.000000
vt 0.284019 0.737873
vt 0.284431 0.760133
vt 0.242674 0.760904
vt 0.242262 0.738644
vt 0.308800 0.759683
vt 0.308389 0.737423
vt 0.217893 0.739095
vt 0.218304 0.761355
vt 0.244488 0.859384
vt 0.244078 0.837124
vt 0.285836 0.836355
vt 0.286245 0.858615
vt 0.220118 0.859832
vt 0.219709 0.837572
vt 0.310205 0.835907
vt 0.310615 0.858167
vt 0.145598 0.838939
vt 0.128048 0.822025
vt 0.127279 0.780268
vt 0.144193 0.762718
vt 0.185950 0.761949
vt 0.203500 0.778863
vt 0.204269 0.820620
vt 0.187355 0.838170
vt 0.226529 0.820210
vt 0.225759 0.778453
vt 0.301980 0.777048
vt 0.302750 0.818805
vt 0.105788 0.822435
vt 0.105019 0.780678
vt 0.654592 0.423988
vt 0.632338 0.424618
vt 0.631156 0.382870
vt 0.653410 0.382241
vt 0.753050 0.421201
vt 0.730796 0.421831
vt 0.729614 0.380083
vt 0.751869 0.379454
vt 0.809725 0.338301
vt 0.810356 0.360556
vt 0.768609 0.361738
vt 0.767978 0.339484
vt 0.771395 0.460196
vt 0.770766 0.437941
vt 0.812514 0.436760
vt 0.813143 0.459015
vt 0.672308 0.440728
vt 0.670151 0.364525
vt 0.711898 0.363343
vt 0.714055 0.439547
vt 0.828072 0.377296
vt 0.829254 0.419044
vt 0.836878 0.436072
vt 0.837507 0.458326
vt 0.834720 0.359865
vt 0.834089 0.337610
vt 0.747031 0.460884
vt 0.746402 0.438630
vt 0.743614 0.340175
vt 0.744245 0.362430
vt 0.500708 0.883452
vt 0.478446 0.883773
vt 0.477844 0.842013
vt 0.500106 0.841692
vt 0.599195 0.882033
vt 0.576934 0.882354
vt 0.576332 0.840593
vt 0.598593 0.840273
vt 0.657015 0.799928
vt 0.657338 0.822189
vt 0.615578 0.822792
vt 0.615256 0.800531
vt 0.616996 0.921278
vt 0.616676 0.899017
vt 0.658436 0.898416
vt 0.658756 0.920677
vt 0.518189 0.900436
vt 0.517090 0.824211
vt 0.558850 0.823609
vt 0.559949 0.899835
vt 0.674819 0.839174
vt 0.675421 0.880934
vt 0.682807 0.898066
vt 0.683127 0.920327
vt 0.681709 0.821836
vt 0.681386 0.799575
vt 0.592625 0.921628
vt 0.592305 0.899367
vt 0.590885 0.800883
vt 0.591207 0.823145
vn 0.000000 0.000000 1.000000
vn 0.000000 0.000000 1.000000
vn 0.000000 0.000000 1.000000
vn 0.000000 0.000000 1.000000
vn 0.000000 0.000000 -1.000000
vn 0.000000 0.000000 -1.000000
vn 0.000000 0.000000 -1.000000
vn 0.000000 0.000000 -1.000000
vn 1.000000 0.000000 0.000000
vn 1.000000 0.000000 0.000000
vn 1.000000 0.000000 0.000000
vn 1.000000 0.000000 0.000000
vn -1.000000 0.000000 0.000000
vn -1.000000 0.000000 0.000000
vn -1.000000 0.000000 0.000000
vn -1.000000 0.000000 0.000000
vn 0.000000 1.000000 0.000000
vn 0.000000 1.000000 0.000000
vn 0.000000 1.000000 -0.000000
vn 0.000000 1.000000 -0.000000
vn 0.000000 -1.000000 0.000000
vn 0.000000 -1.000000 0.000000
vn 0.000000 -1.000000 0.000000
vn 0.000000 -1.000000 0.000000
vn -0.707107 0.000000 0.707106
vn -0.707107 0.000000 0.707106
vn -0.707107 0.000000 0.707106
vn -0.707107 0.000000 0.707106
vn 0.707107 0.000000 0.707106
vn 0.707107 0.000000 0.707106
vn 0.707107 0.000000 0.707106
vn 0.707107 0.000000 0.707106
vn -0.707107 0.000000 -0.707106
vn -0.707107 0.000000 -0.707106
vn -0.707107 0.000000 -0.707106
vn -0.707107 0.000000 -0.707106
vn 0.707107 0.000000 -0.707106
vn 0.707107 0.000000 -0.707106
vn 0.707107 0.000000 -0.707106
vn 0.707107 0.000000 -0.707106
vn 0.000000 0.000000 1.000000
vn 0.000000 0.000000 1.000000
vn 0.000000 0.000000 1.000000
vn 0.000000 0.000000 1.000000
vn 0.000000 0.000000 -1.000000
vn 0.000000 0.000000 -1.000000
vn 0.000000 0.000000 -1.000000
vn 0.000000 0.000000 -1.000000
vn 1.000000 0.000000 0.000000
vn 1.000000 0.000000 0.000000
vn 1.000000 0.000000 0.000000
vn 1.000000 0.000000 0.000000
vn -1.000000 0.000000 0.000000
vn -1.000000 0.000000 0.000000
vn -1.000000 0.000000 0.000000
vn -1.000000 0.000000 0.000000
vn 0.000000 1.000000 0.000000
vn 0.000000 1.000000 0.000000
vn 0.000000 1.000000 0.000000
vn 0.000000 1.000000 0.000000
vn 0.000000 -1.000000 0.000000
vn 0.000000 -1.000000 0.000000
vn 0.000000 -1.000000 0.000000
vn 0.000000 -1.000000 0.000000
vn -0.707107 0.000000 0.707106
vn -0.707107 0.000000 0.707106
vn -0.707107 0.000000 0.707106
vn -0.707107 0.000000 0.707106
vn 0.707107 0.000000 0.707106
vn 0.707107 0.000000 0.707106
vn 0.707107 0.000000 0.707106
vn 0.707107 0.000000 0.707106
vn -0.707107 0.000000 -0.707106
vn -0.707107 0.000000 -0.707106
vn -0.707107 0.000000 -0.707106
vn -0.707107 0.000000 -0.707106
vn 0.707107 0.000000 -0.707106
vn 0.707107 0.000000 -0.707106
vn 0.707107 0.000000 -0.707106
vn 0.707107 0.000000 -0.707106
vn 0.000000 0.000000 1.000000
vn 0.000000 0.000000 1.000000
vn 0.000000 0.000000 1.000000
vn 0.000000 0.000000 1.000000
vn 0.000000 0.000000 -1.000000
vn 0.000000 0.000000 -1.000000
vn 0.000000 0.000000 -1.000000
vn 0.000000 0.000000 -1.000000
vn 1.000000 0.000000 0.000000
vn 1.000000 0.000000 0.000000
vn 1.000000 0.000000 0.000000
vn 1.000000 0.000000 0.000000
vn -1.000000 0.000000 0.000000
vn -1.000000 0.000000 0.000000
vn -1.000000 0.000000 0.000000
vn -1.000000 0.000000 0.000000
vn 0.000000 1.000000 0.000000
vn 0.000000 1.000000 0.000000
vn 0.000000 1.000000 0.000000
vn 0.000000 1.000000 0.000000
vn 0.000000 -1.000000 0.000000
vn 0.000000 -1.000000 0.000000
vn 0.000000 -1.000000 0.000000
vn 0.000000 -1.000000 0.000000
vn -0.707107 0.000000 0.707106
vn -0.707107 0.000000 0.707106
vn -0.707107 0.000000 0.707106
vn -0.707107 0.000000 0.707106
vn 0.707107 0.000000 0.707106
vn 0.707107 0.000000 0.707106
vn 0.707107 0.000000 0.707106
vn 0.707107 0.000000 0.707106
vn -0.707107 0.000000 -0.707106
vn -0.707107 0.000000 -0.707106
vn -0.707107 0.000000 -0.707106
vn -0.707107 0.000000 -0.707106
vn 0.707107 0.000000 -0.707106
vn 0.707107 0.000000 -0.707106
vn 0.707107 0.000000 -0.707106
vn 0.707107 0.000000 -0.707106
vn 0.000000 1.000000 -0.000000
vn 0.000000 1.000000 -0.000000
vn 0.000000 1.000000 0.000000
vn 0.000000 1.000000 0.000000
vn 0.000000 -1.000000 0.000000
vn 0.000000 -1.000000 0.000000
vn 0.000000 -1.000000 0.000000
vn 0.000000 -1.000000 0.000000
vn 0.000000 1.000000 0.000000
vn 0.000000 1.000000 0.000000
vn 0.000000 1.000000 0.000000
vn 0.000000 1.000000 0.000000
vn 0.000000 1.000000 0.000000
vn 0.000000 1.000000 0.000000
vn 0.000000 1.000000 0.000000
vn 0.000000 1.000000 0.000000
vn 0.000000 -1.000000 -0.000000
vn 0.000000 -1.000000 -0.000000
vn 0.000000 -1.000000 -0.000000
vn 0.000000 -1.000000 -0.000000
vn 0.000000 -1.000000 -0.000000
vn 0.000000 -1.000000 -0.000000
vn 0.000000 -1.000000 -0.000000
vn 0.000000 -1.000000 -0.000000
s off
g tambda V1
usemtl initialShadingGroup
f 4/18/1 2/29/2 6/30/3 8/19/4
f 12/25/5 10/23/6 13/22/7 16/26/8
f 7/1/9 5/2/10 15/3/11 14/4/12
f 9/9/13 11/10/14 1/11/15 3/12/16
s 1
f 3/17/17 7/20/18 14/21/19 9/24/20
s 2
f 11/10/21 12/25/22 16/26/23 15/3/24
s off
f 1/11/25 2/15/26 4/16/27 3/12/28
f 6/5/29 5/2/30 7/1/31 8/6/32
f 9/9/33 10/13/34 12/14/35 11/10/36
f 13/7/37 14/4/38 15/3/39 16/8/40
f 20/31/41 18/32/42 22/33/43 24/34/44
f 28/35/45 26/36/46 29/37/47 32/38/48
f 23/39/49 21/40/50 31/41/51 30/42/52
f 25/43/53 27/44/54 17/45/55 19/46/56
s 3
f 25/50/57 30/49/58 29/37/59 26/36/60
s 4
f 27/44/61 28/35/62 32/38/63 31/41/64
s off
f 17/45/65 18/53/66 20/54/67 19/46/68
f 22/55/69 21/40/70 23/39/71 24/56/72
f 25/43/73 26/57/74 28/58/75 27/44/76
f 29/59/77 30/42/78 31/41/79 32/60/80
f 36/61/81 34/62/82 38/63/83 40/64/84
f 44/65/85 42/66/86 45/67/87 48/68/88
f 39/69/89 37/70/90 47/71/91 46/72/92
f 41/73/93 43/74/94 33/75/95 35/76/96
s 5
f 41/80/97 46/79/98 45/67/99 42/66/100
s 6
f 33/75/101 37/70/102 38/81/103 34/82/104
s off
f 33/75/105 34/83/106 36/84/107 35/76/108
f 38/85/109 37/70/110 39/69/111 40/86/112
f 41/73/113 42/87/114 44/88/115 43/74/116
f 45/89/117 46/72/118 47/71/119 48/90/120
s 1
f 9/24/20 14/21/19 13/22/121 10/23/122
f 3/17/17 4/18/123 8/19/124 7/20/18
s 6
f 43/74/125 44/65/126 48/68/127 47/71/128
f 43/74/125 47/71/128 37/70/102 33/75/101
s 5
f 35/77/129 36/61/130 40/64/131 39/78/132
f 35/77/129 39/78/132 46/79/98 41/80/97
s 3
f 19/47/133 20/31/134 24/34/135 23/48/136
f 19/47/133 23/48/136 30/49/58 25/50/57
s 4
f 27/44/61 31/41/64 21/40/137 17/45/138
f 17/45/138 21/40/137 22/51/139 18/52/140
s 2
f 1/11/141 5/2/142 6/27/143 2/28/144
f 11/10/21 15/3/24 5/2/142 1/11/141
