<?xml version="1.0" encoding="UTF-8"?>
<svg width="128px" height="116px" viewBox="0 0 128 116" version="1.1" xmlns="http://www.w3.org/2000/svg" xmlns:xlink="http://www.w3.org/1999/xlink">
    <!-- Generator: Sketch 43.2 (39069) - http://www.bohemiancoding.com/sketch -->
    <title>resources.gcp.compute.instance</title>
    <desc>Created with Sketch.</desc>
    <defs></defs>
    <g id="Page-1" stroke="none" stroke-width="1" fill="none" fill-rule="evenodd">
        <g id="resources.gcp.compute.instance" fill-rule="nonzero">
            <path d="M126.47,52.12 L100.17,6.38 C98.1575606,2.81119396 94.4064352,0.574214465 90.31,0.5 L37.7,0.5 C33.6029889,0.572194784 29.8509362,2.80972722 27.84,6.38 L1.53,52 C-0.505344201,55.5417451 -0.505344201,59.8982549 1.53,63.44 L27.83,109.44 C29.8203239,113.059541 33.5623947,115.37082 37.69,115.53 L90.3,115.53 C94.4273864,115.388325 98.1761765,113.086636 100.17,109.47 L126.47,63.73 C128.519489,60.1313439 128.519489,55.7186561 126.47,52.12 L126.47,52.12 Z" id="Shape" fill="#4285F4"></path>
            <path d="M124.860474,65.6418304 L91.8518066,37.8091125 L84.0045776,37.8091125 L79.2751465,36.4947052 L70.3317261,28.4022369 L63.383606,27.121933 L57.1419678,30.3657074 L51.4325256,33.52 C51.4325256,33.52 50.0103394,38.0874681 48.4,36.4947052 C46.7896606,34.9019423 43.5562439,37.8091125 43.5562439,37.8091125 L41.8421326,39.0291595 L38.5803833,49.72 L38.5803833,56.2153015 L47.17,82.128418 L85.62,115.5 L90.3,115.5 C94.4273864,115.358325 98.1761765,113.056636 100.17,109.44 L124.860474,65.6418304 Z" id="Shape" fill="#000000" opacity="0.0700000003"></path>
            <g id="Group" transform="translate(36.000000, 25.000000)" fill="#FFFFFF">
                <polygon id="Shape" points="20.5333333 62.31 17.0666667 58.7925 35.2333333 40.4345 38.7 43.952"></polygon>
                <polygon id="Shape" points="11.4333333 54.672 7.96666667 51.1545 32.4666667 26.398 35.9333333 29.9155"></polygon>
                <polygon id="Shape" points="5.8 43.483 2.33333333 39.9655 18.6 23.5505 22.0666667 27.068"></polygon>
                <path d="M28,5.3935 L50.6,15.4435 L50.6,30.686 C50.6914119,44.947056 41.5290338,57.6049219 28,61.908 C14.4761603,57.6178333 5.31245115,44.9717119 5.4,30.7195 L5.4,15.5105 L28,5.4605 L28,5.3935 Z M28,0 L0.5,12.328 L0.5,30.7195 C0.365073351,47.5366547 11.4102572,62.3783136 27.5,67 L28,67 L28.5,67 C44.5298934,62.395033 55.5599218,47.6421656 55.5,30.887 L55.5,12.328 L28,0 Z" id="Shape"></path>
                <ellipse id="Oval" cx="36.9666667" cy="42.277" rx="4.73333333" ry="4.757"></ellipse>
                <ellipse id="Oval" cx="34.1666667" cy="28.3075" rx="4.73333333" ry="4.757"></ellipse>
                <ellipse id="Oval" cx="20.3" cy="25.46" rx="4.73333333" ry="4.757"></ellipse>
            </g>
        </g>
    </g>
</svg>