<?xml version="1.0" encoding="UTF-8"?>
<svg width="128px" height="116px" viewBox="0 0 128 116" version="1.1" xmlns="http://www.w3.org/2000/svg" xmlns:xlink="http://www.w3.org/1999/xlink">
    <!-- Generator: Sketch 43.2 (39069) - http://www.bohemiancoding.com/sketch -->
    <title>Cloud Router</title>
    <desc>Created with Sketch.</desc>
    <defs></defs>
    <g id="Page-1" stroke="none" stroke-width="1" fill="none" fill-rule="evenodd">
        <g id="Cloud-Router">
            <path d="M126.47,52.12 L100.17,6.38 C98.1575606,2.81119396 94.4064352,0.574214465 90.31,0.5 L37.7,0.5 C33.6029889,0.572194784 29.8509362,2.80972722 27.84,6.38 L1.53,52 C-0.505344201,55.5417451 -0.505344201,59.8982549 1.53,63.44 L27.83,109.44 C29.8203239,113.059541 33.5623947,115.37082 37.69,115.53 L90.3,115.53 C94.4273864,115.388325 98.1761765,113.086636 100.17,109.47 L126.47,63.73 C128.519489,60.1313439 128.519489,55.7186561 126.47,52.12 L126.47,52.12 Z" id="Shape" fill="#4285F4" fill-rule="nonzero"></path>
            <path d="M95.6953125,58 L84.27,55.4960938 L59.3398438,32.2558594 L61.3828125,42.5 L45.7070312,42.5 L70.18,64.19 L66.61,66.81 L66.61,58 L35.11,58 L33,64.19 L84.27,115.5 L90.27,115.5 C94.3973864,115.358325 98.1461765,113.056636 100.14,109.44 L117.257812,81.2363281 L95.6953125,58 Z" id="Shape" fill="#000000" fill-rule="nonzero" opacity="0.0700000003"></path>
            <g id="art" transform="translate(34.000000, 27.000000)" fill="#FFFFFF">
                <g id="All-Icons">
                    <g id="Group">
                        <path d="M5.16666667,25.8333333 C2.31319546,25.8333333 3.49449438e-16,28.1465288 0,31 C-3.49449438e-16,33.8534712 2.31319546,36.1666667 5.16666667,36.1666667 C8.02013787,36.1666667 10.3333333,33.8534712 10.3333333,31 C10.3333333,28.1465288 8.02013787,25.8333333 5.16666667,25.8333333 L5.16666667,25.8333333 Z M5.16666667,32.4742222 C4.57008797,32.4756161 4.03147683,32.1173185 3.80220956,31.5665512 C3.5729423,31.0157839 3.69821887,30.3811305 4.11957119,29.9587914 C4.54092351,29.5364523 5.17528211,29.4096915 5.72658419,29.6376698 C6.27788627,29.8656481 6.63744282,30.4034197 6.63744444,31 C6.64498063,31.3926498 6.49255917,31.7714906 6.2151877,32.0495116 C5.93781624,32.3275327 5.55933298,32.4808399 5.16666667,32.4742222 L5.16666667,32.4742222 Z M12.9166667,42.1875556 C10.0631955,42.1875556 7.75,44.500751 7.75,47.3542222 C7.75,50.2076934 10.0631955,52.5208889 12.9166667,52.5208889 C15.7701379,52.5208889 18.0833333,50.2076934 18.0833333,47.3542222 C18.0833333,44.500751 15.7701379,42.1875556 12.9166667,42.1875556 L12.9166667,42.1875556 Z M12.9166667,48.825 C12.3736019,48.8512731 11.860159,48.5765038 11.5807573,48.1100873 C11.3013556,47.6436708 11.3013556,47.0613292 11.5807573,46.5949127 C11.860159,46.1284962 12.3736019,45.8537269 12.9166667,45.88 C13.7022444,45.9180056 14.3196505,46.5660034 14.3196505,47.3525 C14.3196505,48.1389966 13.7022444,48.7869944 12.9166667,48.825 L12.9166667,48.825 Z M12.9166667,9.47911111 C10.0631955,9.47911111 7.75,11.7923066 7.75,14.6457778 C7.75,17.499249 10.0631955,19.8124444 12.9166667,19.8124444 C15.7701379,19.8124444 18.0833333,17.499249 18.0833333,14.6457778 C18.0833333,11.7923066 15.7701379,9.47911111 12.9166667,9.47911111 Z M12.9166667,16.12 C12.5240169,16.1275362 12.1451761,15.9751147 11.867155,15.6977433 C11.589134,15.4203718 11.4358268,15.0418885 11.4424444,14.6492222 C11.4424445,13.8350318 12.1024762,13.175 12.9166667,13.175 C13.7308571,13.175 14.3908889,13.8350318 14.3908889,14.6492222 C14.3975066,15.0418885 14.2441994,15.4203718 13.9661783,15.6977433 C13.6881573,15.9751147 13.3093164,16.1275362 12.9166667,16.12 Z" id="Shape"></path>
                        <path d="M51.6666667,38.75 L51.6666667,23.25 L62,31 L51.6666667,38.75 Z M24.3591111,12.0624444 L15.5,12.0624444 L15.5,17.2291111 L27.6933333,17.2291111 C26.7459143,15.4072002 25.6308378,13.6775056 24.3625556,12.0624444 L24.3591111,12.0624444 Z M27.745,44.7708889 L17.4116667,44.7708889 L17.4116667,49.9375556 L24.4383333,49.9375556 C25.699,48.3186667 26.8046667,46.5895556 27.745,44.7708889 Z" id="Shape"></path>
                        <path d="M23.25,62 L20.6666667,57.35 C28.8317471,51.0500865 33.6048521,41.3129523 33.5833333,31 C33.5195992,20.7069113 28.7638265,11.005135 20.6666667,4.65 L23.25,0 C32.9912873,7.33160676 38.729487,18.8080061 38.75,31 C38.75,43.1968455 33.0074764,54.6818927 23.25,62 Z M41.3333333,28.4166667 C41.3333333,29.2708889 41.4607778,30.1216667 41.4607778,31 C41.4607778,31.8783333 41.4607778,32.7291111 41.3333333,33.5833333 L55.3108889,33.5833333 L55.3108889,28.4166667 L41.3333333,28.4166667 Z" id="Shape"></path>
                        <polygon id="Shape" points="31 31 31 28.4166667 7.75 28.4166667 7.75 33.5833333 31 33.5833333"></polygon>
                    </g>
                </g>
            </g>
        </g>
    </g>
</svg>