<?xml version="1.0" encoding="UTF-8"?>
<svg width="128px" height="116px" viewBox="0 0 128 116" version="1.1" xmlns="http://www.w3.org/2000/svg" xmlns:xlink="http://www.w3.org/1999/xlink">
    <!-- Generator: Sketch 43.2 (39069) - http://www.bohemiancoding.com/sketch -->
    <title>resources.gcp.compute.instance</title>
    <desc>Created with Sketch.</desc>
    <defs></defs>
    <g id="Page-1" stroke="none" stroke-width="1" fill="none" fill-rule="evenodd">
        <g id="resources.gcp.compute.instance" fill-rule="nonzero">
            <path d="M126.47,52.12 L100.17,6.38 C98.1575606,2.81119396 94.4064352,0.574214465 90.31,0.5 L37.7,0.5 C33.6029889,0.572194784 29.8509362,2.80972722 27.84,6.38 L1.53,52 C-0.505344201,55.5417451 -0.505344201,59.8982549 1.53,63.44 L27.83,109.44 C29.8203239,113.059541 33.5623947,115.37082 37.69,115.53 L90.3,115.53 C94.4273864,115.388325 98.1761765,113.086636 100.17,109.47 L126.47,63.73 C128.519489,60.1313439 128.519489,55.7186561 126.47,52.12 L126.47,52.12 Z" id="Shape" fill="#4285F4"></path>
            <path d="M118.92,76.82 L94.5834351,49.72 L84.0045776,37.8091125 L79.2751465,36.4947052 L70.3317261,28.4022369 L56,33.52 L54.34,41.6 L48.4,42.6 L47.17,47.88 L43.5562439,37.8091125 L41.8421326,39.0291595 L35.2243042,49.72 L33.0130615,56.0016479 L33.0130615,66.2483368 L85.62,115.5 L90.3,115.5 C94.4273864,115.358325 98.1761765,113.056636 100.17,109.44 L118.92,76.82 Z" id="Shape" fill="#000000" opacity="0.0700000003"></path>
            <g id="resources.gcp.compute.packetmirroring" transform="translate(32.000000, 26.000000)" fill="#FFFFFF">
                <path d="M52.8071111,12.8 C52.807111,11.0326889 51.3744223,9.60000013 49.6071111,9.60000013 C47.8398,9.60000013 46.4071112,11.0326889 46.4071111,12.8 L46.4071111,31.9928889 L52.8071111,31.9928889 L52.8071111,12.7928889 L52.8071111,12.8 Z M64,25.5431111 C63.9943676,24.7007144 63.6538247,23.8951681 63.053496,23.3041779 C62.4531674,22.7131877 61.6423815,22.3853148 60.8,22.3928889 C59.0293333,22.3928889 57.6,23.8008889 57.6,25.5431111 L57.6,31.9928889 L64,31.9928889 L64,25.5431111 Z M31.9857778,44.8 C26.6838442,44.8 22.3857778,49.0980664 22.3857778,54.4 C22.3857778,59.7019336 26.6838442,64 31.9857778,64 C37.2877114,64 41.5857778,59.7019336 41.5857778,54.4 C41.5857778,49.0980664 37.2877114,44.8 31.9857778,44.8 L31.9857778,44.8 Z M31.9857778,51.2 C33.6785268,51.2978533 35.0011027,52.6990917 35.0011027,54.3946667 C35.0011027,56.0902416 33.6785268,57.4914801 31.9857778,57.5893333 C30.2930288,57.4914801 28.9704529,56.0902416 28.9704529,54.3946667 C28.9704529,52.6990917 30.2930288,51.2978533 31.9857778,51.2 L31.9857778,51.2 Z M31.9857778,0 C26.6838442,-3.24649801e-16 22.3857778,4.2980664 22.3857778,9.6 C22.3857778,14.9019336 26.6838442,19.2 31.9857778,19.2 C37.2877114,19.2 41.5857778,14.9019336 41.5857778,9.6 C41.5857778,4.2980664 37.2877114,3.24649801e-16 31.9857778,0 L31.9857778,0 Z M31.9857778,6.4 C33.6785268,6.49785327 35.0011027,7.89909171 35.0011027,9.59466667 C35.0011027,11.2902416 33.6785268,12.6914801 31.9857778,12.7893333 C30.2930288,12.6914801 28.9704529,11.2902416 28.9704529,9.59466667 C28.9704529,7.89909171 30.2930288,6.49785327 31.9857778,6.4 L31.9857778,6.4 Z M41.6,23.9431111 C41.5943676,23.1007144 41.2538247,22.2951681 40.653496,21.7041779 C40.0531674,21.1131877 39.2423815,20.7853148 38.4,20.7928889 C36.6293333,20.7928889 35.2,22.2008889 35.2,23.9431111 L35.2,31.9928889 L41.6,31.9928889 L41.6,23.9431111 Z M28.8,23.9431111 C28.7943676,23.1007144 28.4538247,22.2951681 27.853496,21.7041779 C27.2531674,21.1131877 26.4423815,20.7853148 25.6,20.7928889 C23.8293333,20.7928889 22.4,22.2008889 22.4,23.9431111 L22.4,31.9928889 L28.8,31.9928889 L28.8,23.9431111 L28.8,23.9431111 Z M17.6071111,12.8 C17.6071111,11.0326888 16.1744223,9.6 14.4071111,9.6 C12.6397999,9.6 11.2071111,11.0326888 11.2071111,12.8 L11.2071111,31.9928889 L17.6071111,31.9928889 L17.6071111,12.7928889 L17.6071111,12.8 Z M6.4,25.5431111 C6.39436758,24.7007144 6.05382467,23.8951681 5.45349602,23.3041779 C4.85316738,22.7131877 4.04238147,22.3853148 3.2,22.3928889 C1.42933333,22.3928889 0,23.8008889 0,25.5431111 L0,31.9928889 L6.4,31.9928889 L6.4,25.5431111 Z" id="Shape"></path>
                <path d="M52.8071111,51.1893333 C52.807111,52.9566445 51.3744223,54.3893332 49.6071111,54.3893332 C47.8398,54.3893332 46.4071112,52.9566445 46.4071111,51.1893333 L46.4071111,31.9893333 L52.8071111,31.9893333 L52.8071111,51.1893333 L52.8071111,51.1893333 Z M64,38.4426667 C64,40.1848889 62.5706667,41.5928889 60.8,41.5928889 C59.9576185,41.600463 59.1468326,41.2725901 58.546504,40.6815999 C57.9461753,40.0906097 57.6056324,39.2850634 57.6,38.4426667 L57.6,31.9928889 L64,31.9928889 L64,38.4426667 Z M41.6,40.0426667 C41.6,41.7848889 40.1706667,43.1928889 38.4,43.1928889 C37.5576185,43.200463 36.7468326,42.8725901 36.146504,42.2815999 C35.5461753,41.6906097 35.2056324,40.8850634 35.2,40.0426667 L35.2,31.9928889 L41.6,31.9928889 L41.6,40.0426667 Z M28.8,40.0426667 C28.8,41.7848889 27.3706667,43.1928889 25.6,43.1928889 C24.7576185,43.200463 23.9468326,42.8725901 23.346504,42.2815999 C22.7461753,41.6906097 22.4056324,40.8850634 22.4,40.0426667 L22.4,31.9928889 L28.8,31.9928889 L28.8,40.0426667 L28.8,40.0426667 Z M17.6071111,51.1893333 C17.6071111,52.9566445 16.1744223,54.3893333 14.4071111,54.3893333 C12.6397999,54.3893333 11.2071111,52.9566445 11.2071111,51.1893333 L11.2071111,31.9893333 L17.6071111,31.9893333 L17.6071111,51.1893333 L17.6071111,51.1893333 Z M6.4,38.4426667 C6.4,40.1848889 4.97066667,41.5928889 3.2,41.5928889 C2.35761853,41.600463 1.54683262,41.2725901 0.946503977,40.6815999 C0.34617533,40.0906097 0.00563242205,39.2850634 0,38.4426667 L0,31.9928889 L6.4,31.9928889 L6.4,38.4426667 Z" id="Shape"></path>
            </g>
        </g>
    </g>
</svg>