<?xml version="1.0" encoding="UTF-8"?>
<svg width="90px" height="90px" viewBox="0 0 90 90" version="1.1" xmlns="http://www.w3.org/2000/svg" xmlns:xlink="http://www.w3.org/1999/xlink">
    <!-- Generator: Sketch 43.2 (39069) - http://www.bohemiancoding.com/sketch -->
    <title>resource</title>
    <desc>Created with Sketch.</desc>
    <defs>
        <radialGradient cx="49.6152254%" cy="49.9887615%" fx="49.6152254%" fy="49.9887615%" r="48.5069779%" gradientTransform="translate(0.496152,0.499888),scale(1.000000,0.999928),translate(-0.496152,-0.499888)" id="radialGradient-1">
            <stop stop-color="#5EA0EF" offset="18.3%"></stop>
            <stop stop-color="#0078D4" offset="100%"></stop>
        </radialGradient>
        <path d="M44.553,18.2766667 C46.6678508,27.1289094 43.2419862,36.3834576 35.8728869,41.7249153 C28.5037876,47.0663731 18.6426775,47.4428275 10.8877923,42.6787377 C3.13290705,37.914648 -0.988555104,28.948224 0.445243603,19.9605092 C1.87904231,10.9727944 8.58573859,3.73377276 17.438,1.619 C29.5254788,-1.26865431 41.6652391,6.18921333 44.553,18.2766667 Z" id="path-2"></path>
    </defs>
    <g id="Page-1" stroke="none" stroke-width="1" fill="none" fill-rule="evenodd">
        <g id="resource">
            <g id="Layer_1" fill-rule="nonzero" fill="#0078D7">
                <circle id="Oval-1" cx="45" cy="45" r="45"></circle>
            </g>
            <g id="10121-icon-service-Azure-Cosmos-DB" transform="translate(13.000000, 13.000000)">
                <path d="M9.83133333,18.3086667 C9.65988096,18.3096492 9.4951664,18.2419745 9.37392928,18.1207374 C9.25269216,17.9995003 9.18501744,17.8347857 9.186,17.6633333 L9.186,17.6633333 C9.17994218,13.5975316 5.88546835,10.3030578 1.81966667,10.297 C1.46468593,10.2970057 1.17635027,10.0103083 1.17433333,9.65533333 L1.17433333,9.65533333 C1.17433333,9.29892557 1.46325891,9.01 1.81966667,9.01 C5.88689769,9.00393754 9.18196154,5.70723353 9.186,1.64 C9.18501744,1.46854763 9.25269216,1.30383307 9.37392928,1.18259595 C9.4951664,1.06135882 9.65988096,0.993684107 9.83133333,0.994666667 L9.83133333,0.994666667 C10.0027857,0.993684107 10.1675003,1.06135882 10.2887374,1.18259595 C10.4099745,1.30383307 10.4776492,1.46854763 10.4766667,1.64 L10.4766667,1.64 C10.4827245,5.70580169 13.7771983,9.00027551 17.843,9.00633333 C18.0144524,9.00535077 18.1791669,9.07302549 18.3004041,9.19426261 C18.4216412,9.31549974 18.4893159,9.4802143 18.4883333,9.65166667 L18.4883333,9.65166667 C18.4893159,9.82311904 18.4216412,9.9878336 18.3004041,10.1090707 C18.1791669,10.2303078 18.0144524,10.2979826 17.843,10.297 L17.843,10.297 C13.776362,10.3010424 10.4807091,13.5966954 10.4766667,17.6633333 C10.4746634,18.018908 10.186908,18.3066634 9.83133333,18.3086667 Z" id="Shape" fill="#50E6FF" fill-rule="nonzero"></path>
                <path d="M56.2403333,63.0053333 C55.9548021,63.0053333 55.7233333,62.7738645 55.7233333,62.4883333 L55.7233333,62.4883333 C55.7192929,59.2357626 53.0835708,56.6000405 49.831,56.596 C49.5468946,56.5960071 49.3160149,56.3667649 49.314,56.0826667 L49.314,56.0826667 C49.314,55.9455497 49.3684695,55.8140488 49.4654258,55.7170925 C49.5623821,55.6201362 49.6938831,55.5656667 49.831,55.5656667 L49.831,55.5656667 C53.0844077,55.563644 55.7213107,52.926741 55.7233333,49.6733333 C55.7233333,49.3878021 55.9548021,49.1563333 56.2403333,49.1563333 L56.2403333,49.1563333 C56.5258645,49.1563333 56.7573333,49.3878021 56.7573333,49.6733333 L56.7573333,49.6733333 C56.759356,52.926741 59.396259,55.563644 62.6496667,55.5656667 C62.9351979,55.5656667 63.1666667,55.7971355 63.1666667,56.0826667 C63.1666667,56.3681979 62.9351979,56.5996667 62.6496667,56.5996667 L62.6496667,56.5996667 C59.3970959,56.6037071 56.7613738,59.2394292 56.7573333,62.492 C56.7553184,62.7760983 56.5244387,63.0053405 56.2403333,63.0053333 Z" id="Shape" fill="#50E6FF" fill-rule="nonzero"></path>
                <g id="Group" transform="translate(9.333333, 8.333333)">
                    <path d="M44.553,18.2766667 C46.6678508,27.1289094 43.2419862,36.3834576 35.8728869,41.7249153 C28.5037876,47.0663731 18.6426775,47.4428275 10.8877923,42.6787377 C3.13290705,37.914648 -0.988555104,28.948224 0.445243603,19.9605092 C1.87904231,10.9727944 8.58573859,3.73377276 17.438,1.619 C29.5254788,-1.26865431 41.6652391,6.18921333 44.553,18.2766667 Z" id="Shape" fill="url(#radialGradient-1)" fill-rule="nonzero"></path>
                    <g id="Clipped">
                        <mask id="mask-3" fill="white">
                            <use xlink:href="#path-2"></use>
                        </mask>
                        <g id="Shape"></g>
                        <g id="Group" mask="url(#mask-3)" fill-rule="nonzero" fill="#F2F2F2">
                            <g transform="translate(-1.000000, 7.333333)" id="Shape">
                                <path d="M11.5996667,31.4216667 C13.7799734,31.4787786 15.819881,30.3494112 16.9287674,28.4712817 C18.0376537,26.5931523 18.0412135,24.2614832 16.9380671,22.3799765 C15.8349206,20.4984699 13.798471,19.3628791 11.618,19.4133333 C11.6357318,19.2428045 11.6442997,19.071447 11.6436667,18.9 C11.6134168,15.5638059 8.88960255,12.8809883 5.55333333,12.9013333 L1.05066667,12.9013333 C0.158934631,19.636437 2.30106824,26.4200839 6.899,31.4216667 L11.5996667,31.4216667 Z"></path>
                                <path d="M45.8316667,11.9883333 C45.8316667,11.9333333 45.8316667,11.8783333 45.806,11.827 C45.0807306,7.90338538 43.2982246,4.25216403 40.6506667,1.267 C40.3071917,1.12784699 39.9527507,1.01746744 39.591,0.937 C37.6388954,0.380036479 35.5391784,0.749222015 33.8941369,1.93865852 C32.2490955,3.12809503 31.240503,5.0063524 31.1576667,7.03466667 C30.9141725,7.00653205 30.6694208,6.99062319 30.4243333,6.987 C27.3236709,6.98675261 24.6733914,9.21948214 24.1472043,12.2751711 C23.6210172,15.33086 25.3718443,18.3214564 28.294,19.3583333 C28.9257887,19.6059395 29.5991119,19.7303985 30.2776667,19.725 L37.721,19.725 C40.7097301,17.4626542 43.4308489,14.8670119 45.8316667,11.9883333 L45.8316667,11.9883333 Z"></path>
                            </g>
                        </g>
                    </g>
                </g>
                <path d="M62.0336667,13.0506667 C59.7273333,9.21166667 54.3336667,7.71566667 46.7986667,8.83766667 C44.2170481,9.20353858 41.6655957,9.7574562 39.1646667,10.495 C41.1486413,11.1799193 43.0327137,12.1256546 44.7673333,13.3073333 C45.651,13.113 46.5383333,12.882 47.389,12.7536667 C48.7272205,12.5453154 50.0790199,12.43624 51.4333333,12.4273333 C54.1233823,12.0395398 56.826854,13.0400589 58.6163333,15.0856667 L58.6163333,15.0856667 C60.0206667,17.425 58.8363333,21.4253333 55.3676667,26.0856667 C50.5470212,32.0858802 44.6398016,37.1248666 37.9546667,40.9393333 C31.4193119,45.0182236 24.1752132,47.8317798 16.6,49.2333333 C10.8653333,50.0913333 6.766,49.2333333 5.36166667,46.9013333 C3.95733333,44.5693333 5.14166667,40.558 8.61033333,35.9196667 C9.03933333,35.344 9.14566667,35.0616667 9.63333333,34.4823333 C9.404126,32.4944888 9.43617617,30.4851896 9.72866667,28.5056667 C8.16977958,30.0682207 6.73541128,31.7502321 5.43866667,33.5363333 C0.895666667,39.612 -0.336333333,45.0753333 1.96633333,48.9143333 C4.44183168,52.2261723 8.49246698,53.970739 12.5996667,53.494 C14.1356509,53.4858639 15.6688945,53.3633024 17.1866667,53.1273333 C25.2726949,51.6514781 33.0084867,48.6661267 39.9896667,44.3273333 C47.1194253,40.2471095 53.4152337,34.8581662 58.5466667,28.4433333 C63.1043333,22.353 64.3363333,16.8933333 62.0336667,13.0506667 Z" id="Shape" fill="#50E6FF" fill-rule="nonzero"></path>
            </g>
        </g>
    </g>
</svg>