<?xml version="1.0" encoding="UTF-8"?>
<svg width="90px" height="90px" viewBox="0 0 90 90" version="1.1" xmlns="http://www.w3.org/2000/svg" xmlns:xlink="http://www.w3.org/1999/xlink">
    <!-- Generator: Sketch 43.2 (39069) - http://www.bohemiancoding.com/sketch -->
    <title>resource</title>
    <desc>Created with Sketch.</desc>
    <defs>
        <linearGradient x1="363.333333%" y1="-290.952381%" x2="363.333333%" y2="-191.190476%" id="linearGradient-1">
            <stop stop-color="#C69AEB" offset="0%"></stop>
            <stop stop-color="#6F4BB2" offset="100%"></stop>
        </linearGradient>
        <linearGradient x1="458799%" y1="-518847%" x2="458799%" y2="-519265%" id="linearGradient-2"></linearGradient>
    </defs>
    <g id="Page-1" stroke="none" stroke-width="1" fill="none" fill-rule="evenodd">
        <g id="resource" fill-rule="nonzero">
            <g id="Layer_1" fill="#0078D7">
                <circle id="Oval-1" cx="45" cy="45" r="45"></circle>
            </g>
            <g id="10215-icon-service-Event-Grid-Domains" transform="translate(18.000000, 20.000000)">
                <polygon id="b51878b5-8d50-4b8b-bc48-74f5f7315a99" fill="#32BEDD" points="39.2166667 21.790625 39.2166667 19.878125 24.9033333 19.878125 18.19 26.60375 13.25 26.60375 24.7133333 14.9375 32.535 14.9375 32.535 13.120625 23.9216667 13.120625 10.5583333 26.60375 8.65833333 26.60375 8.65833333 28.51625 14.39 28.51625 21.1666667 35.241875 37.3166667 35.241875 37.3166667 33.329375 21.8633333 33.329375 17.0816667 28.51625 28.7033333 28.51625 28.7033333 26.60375 20.9133333 26.60375 25.6633333 21.790625"></polygon>
                <ellipse id="ad0ed4eb-cd5f-4cc0-bd19-2830d27ec806" fill="#FFFFFF" cx="30.6033333" cy="27.56" rx="2.755" ry="2.773125"></ellipse>
                <ellipse id="a2746b4a-0ae4-4308-876e-5b82657e1872" fill="#FFFFFF" cx="33.485" cy="14.10875" rx="2.755" ry="2.773125"></ellipse>
                <ellipse id="fc3316e0-7094-4ce0-99ed-43f1e6e4350c" fill="#FFFFFF" cx="40.1666667" cy="20.834375" rx="2.755" ry="2.773125"></ellipse>
                <ellipse id="b5d18443-d50e-4590-8e8f-80b6a7f6d348" fill="#FFFFFF" cx="37.3166667" cy="34.285625" rx="2.755" ry="2.773125"></ellipse>
                <ellipse id="Oval" fill="#50E6FF" cx="33.39" cy="14.10875" rx="3.325" ry="3.346875"></ellipse>
                <ellipse id="Oval" fill="url(#linearGradient-1)" cx="40.0716667" cy="20.834375" rx="3.325" ry="3.346875"></ellipse>
                <ellipse id="Oval" fill="url(#linearGradient-2)" cx="37.3166667" cy="34.285625" rx="3.325" ry="3.346875"></ellipse>
                <ellipse id="Oval" fill="#50E6FF" cx="30.6033333" cy="27.56" rx="3.325" ry="3.346875"></ellipse>
                <g id="Group" fill="#999999">
                    <path d="M2.38833333,0.370625 L6.47333333,0.370625 L6.47333333,11.75 C6.47333333,12.2605182 6.0621815,12.674375 5.555,12.674375 L1.50166667,12.674375 C0.994485171,12.674375 0.583333333,12.2605182 0.583333333,11.75 L0.583333333,2.1875 C0.583333333,1.18406765 1.39145936,0.370625 2.38833333,0.370625 L2.38833333,0.370625 Z" id="Shape"></path>
                    <path d="M2.38833333,0.370625 L6.47333333,0.370625 L6.47333333,11.75 C6.47333333,12.2605182 6.0621815,12.674375 5.555,12.674375 L1.50166667,12.674375 C0.994485171,12.674375 0.583333333,12.2605182 0.583333333,11.75 L0.583333333,2.1875 C0.583333333,1.18406765 1.39145936,0.370625 2.38833333,0.370625 L2.38833333,0.370625 Z" id="Shape" opacity="0.5"></path>
                </g>
                <g id="Group" transform="translate(48.500000, 0.000000)" fill="#999999">
                    <path d="M0.0266666667,0.370625 L4.11166667,0.370625 C5.10854064,0.370625 5.91666667,1.18406765 5.91666667,2.1875 L5.91666667,11.75 C5.91666667,12.2605182 5.50551483,12.674375 4.99833333,12.674375 L0.913333333,12.674375 C0.418559741,12.6571915 0.0263722492,12.2483249 0.0266666667,11.75 L0.0266666667,0.370625 Z" id="Shape"></path>
                    <path d="M0.0266666667,0.370625 L4.11166667,0.370625 C5.10854064,0.370625 5.91666667,1.18406765 5.91666667,2.1875 L5.91666667,11.75 C5.91666667,12.2605182 5.50551483,12.674375 4.99833333,12.674375 L0.913333333,12.674375 C0.418559741,12.6571915 0.0263722492,12.2483249 0.0266666667,11.75 L0.0266666667,0.370625 Z" id="Shape" opacity="0.5"></path>
                </g>
                <path d="M26.4233333,-23.8225 L30.3816667,-23.8225 L30.3816667,30.365 L26.4233333,30.365 C25.4264594,30.365 24.6183333,29.5515574 24.6183333,28.548125 L24.6183333,-22.0375 C24.6356077,-23.0284625 25.4386962,-23.8226525 26.4233333,-23.8225 L26.4233333,-23.8225 Z" id="Shape" fill="#949494" transform="translate(27.500000, 3.271250) rotate(90.000000) translate(-27.500000, -3.271250) "></path>
                <g id="Group" transform="translate(0.000000, 36.062500)" fill="#999999">
                    <path d="M1.50166667,0.1675 L5.58666667,0.1675 C6.09384816,0.1675 6.505,0.581356784 6.505,1.091875 L6.505,12.566875 L2.38833333,12.566875 C1.90961757,12.566875 1.45050876,12.3754548 1.11200559,12.0347246 C0.77350243,11.6939945 0.583333333,11.2318652 0.583333333,10.75 L0.583333333,1.1875 C0.556334658,0.926241999 0.641031687,0.665759222 0.816265264,0.47112592 C0.991498841,0.276492619 1.24071956,0.166090351 1.50166667,0.1675 L1.50166667,0.1675 Z" id="Shape"></path>
                    <path d="M1.50166667,0.1675 L5.58666667,0.1675 C6.09384816,0.1675 6.505,0.581356784 6.505,1.091875 L6.505,12.566875 L2.38833333,12.566875 C1.90961757,12.566875 1.45050876,12.3754548 1.11200559,12.0347246 C0.77350243,11.6939945 0.583333333,11.2318652 0.583333333,10.75 L0.583333333,1.1875 C0.556334658,0.926241999 0.641031687,0.665759222 0.816265264,0.47112592 C0.991498841,0.276492619 1.24071956,0.166090351 1.50166667,0.1675 L1.50166667,0.1675 Z" id="Shape" opacity="0.5"></path>
                </g>
                <g id="Group" transform="translate(48.500000, 36.062500)" fill="#999999">
                    <path d="M0.913333333,0.1675 L4.99833333,0.1675 C5.50551483,0.1675 5.91666667,0.581356784 5.91666667,1.091875 L5.91666667,10.654375 C5.91666667,11.6578074 5.10854064,12.47125 4.11166667,12.47125 L0.0266666667,12.47125 L0.0266666667,1.1875 C0.000126575206,0.931700099 0.080661677,0.676335078 0.248916266,0.482779047 C0.417170856,0.289223016 0.657931227,0.174977455 0.913333333,0.1675 L0.913333333,0.1675 Z" id="Shape"></path>
                    <path d="M0.913333333,0.1675 L4.99833333,0.1675 C5.50551483,0.1675 5.91666667,0.581356784 5.91666667,1.091875 L5.91666667,10.654375 C5.91666667,11.6578074 5.10854064,12.47125 4.11166667,12.47125 L0.0266666667,12.47125 L0.0266666667,1.1875 C0.000126575206,0.931700099 0.080661677,0.676335078 0.248916266,0.482779047 C0.417170856,0.289223016 0.657931227,0.174977455 0.913333333,0.1675 L0.913333333,0.1675 Z" id="Shape" opacity="0.5"></path>
                </g>
                <path d="M26.4233333,18.635 L30.3816667,18.635 L30.3816667,72.8225 L26.4233333,72.8225 C25.4264594,72.8225 24.6183333,72.0090574 24.6183333,71.005625 L24.6183333,20.451875 C24.6183333,19.4484426 25.4264594,18.635 26.4233333,18.635 Z" id="Shape" fill="#949494" transform="translate(27.500000, 45.728750) rotate(-90.000000) translate(-27.500000, -45.728750) "></path>
            </g>
        </g>
    </g>
</svg>