<?xml version="1.0" encoding="UTF-8"?>
<svg width="90px" height="90px" viewBox="0 0 90 90" version="1.1" xmlns="http://www.w3.org/2000/svg" xmlns:xlink="http://www.w3.org/1999/xlink">
    <!-- Generator: Sketch 43.2 (39069) - http://www.bohemiancoding.com/sketch -->
    <title>resource</title>
    <desc>Created with Sketch.</desc>
    <defs>
        <linearGradient x1="49.5450623%" y1="99.2468576%" x2="49.5450623%" y2="-0.78720197%" id="linearGradient-1">
            <stop stop-color="#FEA11B" offset="0%"></stop>
            <stop stop-color="#FEA51A" offset="28.4%"></stop>
            <stop stop-color="#FEB018" offset="54.7%"></stop>
            <stop stop-color="#FFC314" offset="80%"></stop>
            <stop stop-color="#FFD70F" offset="100%"></stop>
        </linearGradient>
    </defs>
    <g id="Page-1" stroke="none" stroke-width="1" fill="none" fill-rule="evenodd">
        <g id="resource" fill-rule="nonzero">
            <g id="Layer_1" fill="#0078D7">
                <circle id="Oval-1" cx="45" cy="45" r="45"></circle>
            </g>
            <g id="10029-icon-service-Function-Apps" transform="translate(12.000000, 17.000000)">
                <g id="Group" transform="translate(0.000000, 10.500000)">
                    <path d="M9.72827113,12.1509713 L12.6439808,12.1509713 C13.1619936,12.1509713 13.581926,12.5693612 13.581926,13.0854713 L13.581926,34.6034713 C13.581926,35.6337585 12.743634,36.4689713 11.7095486,36.4689713 L8.77978726,36.4689713 L8.77978726,13.0819713 C8.77978726,12.5658612 9.19971961,12.1474713 9.71773242,12.1474713 L9.72827113,12.1509713 Z" id="Shape" fill="#50E6FF" transform="translate(11.180857, 24.308221) rotate(134.919000) translate(-11.180857, -24.308221) "></path>
                    <path d="M9.54565967,-1.40268285 L12.4719081,-1.40268285 C12.9899209,-1.40268285 13.4098532,-0.98429295 13.4098532,-0.468182852 L13.4098532,22.5723171 L10.4800919,22.5723171 C9.44600644,22.5723171 8.60771451,21.7371043 8.60771451,20.7068171 L8.60771451,-0.475182852 C8.6115743,-0.98855719 9.03037825,-1.40269725 9.54565967,-1.40268285 L9.54565967,-1.40268285 Z" id="Shape" fill="#1490DF" transform="translate(11.008784, 10.584817) rotate(44.919000) translate(-11.008784, -10.584817) "></path>
                </g>
                <g id="Group" transform="translate(43.538710, 10.500000)">
                    <path d="M8.88394784,12.1610007 L11.8101962,12.1610007 C12.8442817,12.1610007 13.6825736,12.9962135 13.6825736,14.0265007 L13.6825736,35.5445007 C13.6825736,36.0606108 13.2626413,36.4790007 12.7446285,36.4790007 L9.83243171,36.4790007 C9.3144189,36.4790007 8.89448655,36.0606108 8.89448655,35.5445007 L8.89448655,12.1610007 L8.88394784,12.1610007 Z" id="Shape" fill="#50E6FF" transform="translate(11.283261, 24.320001) rotate(45.081000) translate(-11.283261, -24.320001) "></path>
                    <path d="M10.9212135,-1.4081053 L13.8474619,-1.4081053 L13.8474619,21.6323947 C13.8474619,22.1485048 13.4275296,22.5668947 12.9095168,22.5668947 L9.98326837,22.5668947 C9.46525556,22.5668947 9.04532321,22.1485048 9.04532321,21.6323947 L9.04532321,0.450394703 C9.04532321,-0.579892498 9.88361513,-1.4151053 10.9177006,-1.4151053 L10.9212135,-1.4081053 Z" id="Shape" fill="#1490DF" transform="translate(11.446393, 10.575895) rotate(135.081000) translate(-11.446393, -10.575895) "></path>
                </g>
                <path d="M31.0995194,31.15 L18.4917097,31.15 C18.1236934,31.1640018 17.8117593,30.8827384 17.789129,30.5165 C17.7892283,30.4252673 17.8108904,30.33534 17.8523613,30.254 L32.9683839,0.455 C33.0995217,0.219431984 33.3515242,0.0763452008 33.6217839,0.084 L48.5340581,0.084 C48.9020744,0.0699982009 49.2140084,0.351261611 49.2366387,0.7175 C49.2353858,0.844460756 49.1921733,0.967471615 49.1136871,1.0675 L31.3629871,24.381 L48.6745742,24.381 C49.0425905,24.3669982 49.3545245,24.6482616 49.3771548,25.0145 C49.3744761,25.1751197 49.3089272,25.3283427 49.1944839,25.4415 L20.4273194,55.258 C20.1568258,55.419 18.2352677,57.008 19.1767258,54.5965 L19.1767258,54.5965 L31.0995194,31.15 Z" id="Shape" fill="url(#linearGradient-1)"></path>
            </g>
        </g>
    </g>
</svg>