<?xml version="1.0" encoding="UTF-8"?>
<svg width="90px" height="90px" viewBox="0 0 90 90" version="1.1" xmlns="http://www.w3.org/2000/svg" xmlns:xlink="http://www.w3.org/1999/xlink">
    <!-- Generator: Sketch 43.2 (39069) - http://www.bohemiancoding.com/sketch -->
    <title>storage_account</title>
    <desc>Created with Sketch.</desc>
    <defs></defs>
    <g id="Page-1" stroke="none" stroke-width="1" fill="none" fill-rule="evenodd">
        <g id="storage_account" fill-rule="nonzero">
            <g id="Layer_1" fill="#0078D7">
                <circle id="Oval-1" cx="45" cy="45" r="45"></circle>
            </g>
            <g id="VNetPeering" transform="translate(14.000000, 20.000000)">
                <g id="Group" transform="translate(25.250000, 36.250000)" fill="#7A7A7A">
                    <path d="M7.22,0.62875 L13.41625,0.62875 C15.67,0.62875 16.9375,1.6375 17.9225,3.65625 L7.21875,3.65625 C5.52875,3.65625 4.4025,5.64 4.4025,7.33 C4.4025,9.02 5.67,10.72125 7.21875,10.72125 L17.9225,10.72125 C16.9375,12.74125 15.67,13.75 13.4175,13.75 L7.22125,13.75 C3.84125,13.75 1.165,10.57 1.165,7.19 C1.16375,3.80875 3.98125,0.62875 7.22,0.62875 L7.22,0.62875 Z" id="Shape"></path>
                    <path d="M31.585,3.65625 L20.88125,3.65625 C21.8675,1.6375 23.135,0.62875 25.3875,0.62875 L31.58375,0.62875 C34.96375,0.62875 37.49875,3.95 37.49875,7.33 C37.5,10.71 34.82375,13.75 31.585,13.75 L25.3875,13.75 C23.13375,13.75 21.86625,12.74125 20.88125,10.7225 L31.585,10.7225 C33.275,10.7225 34.40125,8.73875 34.40125,7.33125 C34.40125,5.64 33.41625,3.65625 31.585,3.65625 L31.585,3.65625 Z" id="Shape"></path>
                    <path d="M27.07875,8.70375 L11.8675,8.70375 C11.0225,8.70375 9.19125,8.035 9.19125,7.19 C9.19125,6.345 11.0225,5.67625 11.8675,5.67625 L27.0775,5.67625 C27.9225,5.67625 30.31625,6.06375 30.31625,6.90875 C30.3175,8.035 27.92375,8.70375 27.07875,8.70375 Z" id="Shape"></path>
                </g>
                <path d="M62.375,18.84375 C63,18.21875 62.875,17.21875 62.375,16.59375 L59.375,13.59375 L45.875,0.46875 C45.25,-0.15625 44.375,-0.15625 43.75,0.46875 L43.75,0.46875 C43.125,1.09375 43,2.09375 43.75,2.71875 L57.875,16.59375 C58.5,17.21875 58.5,18.21875 57.875,18.84375 L43.5,33.21875 C42.875,33.84375 42.875,34.84375 43.5,35.46875 L43.5,35.46875 C44.125,36.09375 45.125,35.96875 45.625,35.46875 L59,22.21875 C59,22.21875 59,22.21875 59.125,22.09375 L62.375,18.84375 Z" id="Shape" fill="#FFFFFF"></path>
                <path d="M0.625,18.84375 C1.60982339e-15,18.21875 0.125,17.21875 0.625,16.59375 L3.625,13.59375 L17.125,0.46875 C17.75,-0.15625 18.625,-0.15625 19.25,0.46875 L19.25,0.46875 C19.875,1.09375 20,2.09375 19.25,2.71875 L5.375,16.59375 C4.75,17.21875 4.75,18.21875 5.375,18.84375 L19.5,33.21875 C20.125,33.84375 20.125,34.84375 19.5,35.46875 L19.5,35.46875 C18.875,36.09375 17.875,35.96875 17.375,35.46875 L3.75,22.34375 C3.75,22.34375 3.75,22.34375 3.625,22.21875 L0.625,18.84375 Z" id="Shape" fill="#FFFFFF"></path>
                <circle id="Oval" fill="#7FBA00" cx="44.25" cy="17.71875" r="4.125"></circle>
                <circle id="Oval" fill="#7FBA00" cx="31.375" cy="17.71875" r="4.125"></circle>
                <circle id="Oval" fill="#7FBA00" cx="18.75" cy="17.71875" r="4.125"></circle>
            </g>
        </g>
    </g>
</svg>