<?xml version="1.0" encoding="UTF-8"?>
<svg width="90px" height="90px" viewBox="0 0 90 90" version="1.1" xmlns="http://www.w3.org/2000/svg" xmlns:xlink="http://www.w3.org/1999/xlink">
    <!-- Generator: Sketch 43.2 (39069) - http://www.bohemiancoding.com/sketch -->
    <title>resource</title>
    <desc>Created with Sketch.</desc>
    <defs>
        <linearGradient x1="50%" y1="100%" x2="50%" y2="0%" id="linearGradient-1">
            <stop stop-color="#0078D4" offset="0%"></stop>
            <stop stop-color="#5EA0EF" offset="100%"></stop>
        </linearGradient>
        <linearGradient x1="50%" y1="100%" x2="50%" y2="0%" id="linearGradient-2">
            <stop stop-color="#194F9B" stop-opacity="0" offset="0%"></stop>
            <stop stop-color="#194F9C" stop-opacity="0.01" offset="26%"></stop>
            <stop stop-color="#18519E" stop-opacity="0.05" offset="41%"></stop>
            <stop stop-color="#1654A2" stop-opacity="0.11" offset="52%"></stop>
            <stop stop-color="#1457A7" stop-opacity="0.21" offset="62%"></stop>
            <stop stop-color="#115CAE" stop-opacity="0.33" offset="71%"></stop>
            <stop stop-color="#0D62B6" stop-opacity="0.47" offset="80%"></stop>
            <stop stop-color="#096AC0" stop-opacity="0.65" offset="88%"></stop>
            <stop stop-color="#0472CB" stop-opacity="0.85" offset="95%"></stop>
            <stop stop-color="#0078D4" offset="100%"></stop>
        </linearGradient>
    </defs>
    <g id="Page-1" stroke="none" stroke-width="1" fill="none" fill-rule="evenodd">
        <g id="resource" fill-rule="nonzero">
            <g id="Layer_1" fill="#0078D7">
                <circle id="Oval-1" cx="45" cy="45" r="45"></circle>
            </g>
            <g id="10031-icon-service-Batch-Accounts" transform="translate(14.000000, 16.000000)">
                <path d="M54.1066667,30.3764706 L60.7555556,23.7058824 C61.2888889,23.1411765 61.1111111,22.6823529 60.2933333,22.6823529 L56.9866667,22.6823529 C56.7634752,22.6825624 56.5498949,22.5922098 56.3954674,22.432253 C56.24104,22.2722961 56.1591848,22.0566351 56.1688889,21.8352941 C56.1688889,17.6705882 55.1022222,6.05882353 39.1022222,5.67058824 C38.8792417,5.66095551 38.6619831,5.74220881 38.5008415,5.89550076 C38.3396998,6.0487927 38.2486778,6.26080259 38.2488889,6.48235294 L38.2488889,10.5058824 C38.2480183,10.7339831 38.3438679,10.9519223 38.512979,11.1063606 C38.6820901,11.2607988 38.9088563,11.3374837 39.1377778,11.3176471 C42.2267979,10.6342795 45.4579836,11.4772853 47.8093099,13.5800214 C50.1606362,15.6827575 51.3412705,18.7851393 50.9777778,21.9058824 C50.9874819,22.1272233 50.9056267,22.3428844 50.7511992,22.5028412 C50.5967718,22.662798 50.3831915,22.7531507 50.16,22.7529412 L47.0666667,22.7529412 C46.2488889,22.7529412 46.0711111,23.2117647 46.6044444,23.8117647 L52.7911111,30.5176471 C52.973607,30.6966906 53.2275784,30.7847148 53.4826812,30.7573389 C53.7377839,30.729963 53.9669357,30.5900934 54.1066667,30.3764706 Z" id="Shape" fill="#949494"></path>
                <g id="Group">
                    <rect id="Rectangle-path" fill="url(#linearGradient-1)" x="0.915555556" y="0.2" width="44.3022222" height="30.4941176" rx="0.57"></rect>
                    <path d="M2.90666667,0.2 L43.76,0.2 C44.1466267,0.2 44.5174182,0.352457545 44.7908046,0.623833717 C45.0641909,0.895209888 45.2177778,1.26327496 45.2177778,1.64705882 L45.2177778,7.47058824 L0.915555556,7.47058824 L0.915555556,2.21176471 C0.915385405,1.11433627 1.80127927,0.219253118 2.90666667,0.2 L2.90666667,0.2 Z" id="Shape" fill="#83B9F9"></path>
                    <rect id="Rectangle-path" fill="url(#linearGradient-2)" x="0.915555556" y="7.47058824" width="44.3022222" height="4.87058824"></rect>
                </g>
                <rect id="Rectangle-path" fill="#005BA1" x="33.2" y="37.6470588" width="28.16" height="19.3764706" rx="0.36"></rect>
                <path d="M7.28,10.2588235 L38.8177778,10.2588235 C39.1774213,10.2583287 39.4744051,10.537613 39.4933333,10.8941176 L39.4933333,14.1764706 C39.4568112,14.5190166 39.1647831,14.7783837 38.8177778,14.7764706 L7.28,14.7764706 C7.1101958,14.7860957 6.94351564,14.7282323 6.81676438,14.6156572 C6.69001313,14.503082 6.61361675,14.3450551 6.60444444,14.1764706 L6.60444444,10.8941176 C6.60417249,10.7193299 6.67645945,10.5521524 6.80428711,10.431943 C6.93211477,10.3117335 7.10418932,10.2491129 7.28,10.2588235 L7.28,10.2588235 Z" id="Shape" fill="#FFFFFF"></path>
                <path d="M7.28,16.6470588 L38.8533333,16.6470588 C39.0197085,16.6373269 39.1827488,16.6962181 39.3039156,16.8098119 C39.4250823,16.9234058 39.4936219,17.0816207 39.4933333,17.2470588 L39.4933333,20.5294118 C39.4933333,20.880275 39.2067956,21.1647059 38.8533333,21.1647059 L7.28,21.1647059 C6.92653776,21.1647059 6.64,20.880275 6.64,20.5294118 L6.64,17.3882353 C6.593336,17.2001742 6.6409951,17.0013187 6.76797516,16.8542646 C6.89495523,16.7072105 7.08563787,16.6300452 7.28,16.6470588 Z" id="Shape" fill="#FFFFFF"></path>
                <path d="M7.28,23.3176471 L38.8533333,23.3176471 C39.2067956,23.3176471 39.4933333,23.6020779 39.4933333,23.9529412 L39.4933333,27.2352941 C39.4744432,27.572303 39.1933633,27.8358154 38.8533333,27.8352941 L7.28,27.8352941 C6.93997,27.8358154 6.65889017,27.572303 6.64,27.2352941 L6.64,23.9529412 C6.64,23.7844507 6.70742838,23.6228612 6.82745166,23.5037204 C6.94747494,23.3845796 7.11026145,23.3176471 7.28,23.3176471 L7.28,23.3176471 Z" id="Shape" fill="#FFFFFF"></path>
                <g id="Group" transform="translate(28.444444, 32.764706)">
                    <rect id="Rectangle-path" fill="#0078D4" x="0.0977777778" y="0.717647059" width="28.16" height="19.3764706" rx="0.36"></rect>
                    <path d="M1.55555556,0.717647059 L27.5111111,0.717647059 C27.756289,0.717647059 27.9914251,0.814327454 28.164792,0.98641966 C28.338159,1.15851187 28.4355556,1.39191899 28.4355556,1.63529412 L28.4355556,5.16470588 L0.0977777778,5.16470588 L0.0977777778,1.81176471 C0.141781544,1.47334211 0.321067407,1.16671237 0.595268771,0.960913816 C0.869470136,0.755115267 1.2155384,0.667446764 1.55555556,0.717647059 L1.55555556,0.717647059 Z" id="Shape" fill="#83B9F9"></path>
                </g>
                <path d="M32.5955556,39.9058824 L52.6488889,39.9058824 C52.8713157,39.9051145 53.0570212,40.0740928 53.0755556,40.2941176 L53.0755556,42.3764706 C53.0570212,42.5964954 52.8713157,42.7654737 52.6488889,42.7647059 L32.5955556,42.7647059 C32.4858171,42.7746509 32.3769438,42.7381816 32.2957132,42.6642678 C32.2144826,42.5903539 32.1684325,42.4858543 32.1688889,42.3764706 L32.1688889,40.2941176 C32.1684325,40.184734 32.2144826,40.0802344 32.2957132,40.0063205 C32.3769438,39.9324066 32.4858171,39.8959374 32.5955556,39.9058824 L32.5955556,39.9058824 Z" id="Shape" fill="#FFFFFF"></path>
                <path d="M32.5955556,44.0352941 L52.6488889,44.0352941 C52.7586274,44.0253491 52.8675006,44.0618184 52.9487312,44.1357322 C53.0299618,44.2096461 53.0760119,44.3141457 53.0755556,44.4235294 L53.0755556,46.5058824 C53.0760119,46.615266 53.0299618,46.7197656 52.9487312,46.7936795 C52.8675006,46.8675934 52.7586274,46.9040626 52.6488889,46.8941176 L32.5955556,46.8941176 C32.3731287,46.8948855 32.1874232,46.7259072 32.1688889,46.5058824 L32.1688889,44.4235294 C32.1874232,44.2035046 32.3731287,44.0345263 32.5955556,44.0352941 Z" id="Shape" fill="#FFFFFF"></path>
                <path d="M32.5955556,48.2 L52.6488889,48.2 C52.7586274,48.190055 52.8675006,48.2265243 52.9487312,48.3004381 C53.0299618,48.374352 53.0760119,48.4788516 53.0755556,48.5882353 L53.0755556,50.6705882 C53.0760119,50.7799719 53.0299618,50.8844715 52.9487312,50.9583854 C52.8675006,51.0322993 52.7586274,51.0687685 52.6488889,51.0588235 L32.5955556,51.0588235 C32.3731287,51.0595914 32.1874232,50.8906131 32.1688889,50.6705882 L32.1688889,48.5882353 C32.1874232,48.3682105 32.3731287,48.1992321 32.5955556,48.2 L32.5955556,48.2 Z" id="Shape" fill="#FFFFFF"></path>
            </g>
        </g>
    </g>
</svg>