<?xml version="1.0" encoding="UTF-8" standalone="no"?>
<svg width="90px" height="90px" viewBox="0 0 90 90" version="1.1" xmlns="http://www.w3.org/2000/svg" xmlns:xlink="http://www.w3.org/1999/xlink">
    <!-- Generator: Sketch 41.2 (35397) - http://www.bohemiancoding.com/sketch -->
    <title>Compute-&amp;-Networking-copy_Amazon-EC2-Instance</title>
    <desc>Created with Sketch.</desc>
    <defs></defs>
    <g id="Page-1" stroke="none" stroke-width="1" fill="none" fill-rule="evenodd">
        <g id="blank">
            <g id="Page-1">
                <g id="blank">
                    <g id="Page-1">
                        <g id="Compute-&amp;-Networking-copy_Amazon-EC2-Instance">
                            <g id="Layer_1" fill="#0078D7">
                                <circle id="Oval-1" cx="45" cy="45" r="45"></circle>
                            </g>
                            <g id="ScaleAlt" transform="translate(20.000000, 20.000000)">
                                <g id="Layer_1">
                                    <path d="M35.7,0 L2.1,0 C0.9,0 0,1 0,2.2 L0,25.6 C0,26.7 0.9,27.7 2.1,27.7 L35.8,27.7 C36.9,27.7 38.1,26.7 38.1,25.6 L38.1,2.2 C38,1 36.9,0 35.7,0" id="Shape" fill="#A0A1A2"></path>
                                    <path d="M35.7,0 L35.7,0 L2.1,0 C0.9,0 0,1 0,2.2 L0,25.6 C0,26.7 0.9,27.7 2.1,27.7 L2.9,27.7 L35.7,0 Z" id="Shape" fill="#FFFFFF" opacity="0.2"></path>
                                    <polygon id="Shape" fill="#59B4D9" points="35.1 24.8 2.9 24.8 2.9 2.9 35.1 2.9"></polygon>
                                    <path d="M19.4,1.6 C19.4,1.9 19.2,2.1 18.9,2.1 C18.6,2.1 18.4,1.9 18.4,1.6 C18.4,1.3 18.6,1.1 18.9,1.1 C19.2,1.1 19.4,1.3 19.4,1.6" id="Shape" fill="#B8D432"></path>
                                    <path d="M41.7,7.5 L8,7.5 C6.9,7.5 5.9,8.5 5.9,9.7 L5.9,33.1 C5.9,34.2 6.8,35.2 8,35.2 L41.7,35.2 C42.8,35.2 44,34.2 44,33.1 L44,9.6 C44,8.5 42.8,7.5 41.7,7.5" id="Shape" fill="#A0A1A2"></path>
                                    <path d="M41.7,7.5 L41.7,7.5 L8,7.5 C6.9,7.5 5.9,8.5 5.9,9.7 L5.9,33.1 C5.9,34.2 6.8,35.2 8,35.2 L8.8,35.2 L41.7,7.5 Z" id="Shape" fill="#FFFFFF" opacity="0.2"></path>
                                    <polygon id="Shape" fill="#59B4D9" points="41.1 32.3 8.8 32.3 8.8 10.4 41.1 10.3"></polygon>
                                    <path d="M25.4,9 C25.4,9.3 25.2,9.5 24.9,9.5 C24.6,9.5 24.4,9.3 24.4,9 C24.4,8.7 24.6,8.5 24.9,8.5 C25.1,8.5 25.4,8.7 25.4,9" id="Shape" fill="#B8D432"></path>
                                    <path d="M36.6,42.7 L35.7,42.7 L26.7,42.7 L26.2,42.7 C27.4,47.1 25.8,47.7 18.5,47.7 L18.5,50 L27.8,50 L34.6,50 L43.4,50 L43.4,47.7 C36.1,47.7 35.4,47.1 36.6,42.7" id="Shape" fill="#7A7A7A"></path>
                                    <path d="M47.7,15 L14,15 C12.9,15 11.9,16 11.9,17.2 L11.9,40.6 C11.9,41.7 12.8,42.7 14,42.7 L47.7,42.7 C48.8,42.7 50,41.7 50,40.6 L50,17.1 C50,16 48.8,15 47.7,15" id="Shape" fill="#A0A1A2"></path>
                                    <path d="M47.7,15 L47.7,15 L14,15 C12.9,15 11.9,16 11.9,17.2 L11.9,40.6 C11.9,41.7 12.8,42.7 14,42.7 L14.8,42.7 L47.7,15 Z" id="Shape" fill="#FFFFFF" opacity="0.2"></path>
                                    <polygon id="Shape" fill="#59B4D9" points="47.1 39.8 14.9 39.8 14.9 17.9 47.1 17.8"></polygon>
                                    <rect id="Rectangle-path" fill="#A0A1A2" x="18.6" y="47.7" width="24.9" height="2.3"></rect>
                                    <path d="M31.4,16.5 C31.4,16.8 31.2,17 30.9,17 C30.6,17 30.4,16.8 30.4,16.5 C30.4,16.2 30.6,16 30.9,16 C31.1,16 31.4,16.2 31.4,16.5" id="Shape" fill="#B8D432"></path>
                                </g>
                            </g>
                        </g>
                    </g>
                </g>
            </g>
        </g>
    </g>
</svg>