<?xml version="1.0" encoding="UTF-8" standalone="no"?>
<svg width="90px" height="90px" viewBox="0 0 90 90" version="1.1" xmlns="http://www.w3.org/2000/svg" xmlns:xlink="http://www.w3.org/1999/xlink">
    <!-- Generator: Sketch 41.2 (35397) - http://www.bohemiancoding.com/sketch -->
    <title>Compute-&amp;-Networking-copy_Amazon-EC2-Instance</title>
    <desc>Created with Sketch.</desc>
    <defs></defs>
    <g id="Page-1" stroke="none" stroke-width="1" fill="none" fill-rule="evenodd">
        <g id="blank">
            <g id="Page-1">
                <g id="blank">
                    <g id="Page-1">
                        <g id="Compute-&amp;-Networking-copy_Amazon-EC2-Instance">
                            <g id="Layer_1" fill="#0078D7">
                                <circle id="Oval-1" cx="45" cy="45" r="45"></circle>
                            </g>
                            <g id="Subnet" transform="translate(19.000000, 30.000000)">
                                <g id="Layer_1">
                                    <path d="M50.7,15.7 C51.2,15.2 51.1,14.4 50.7,13.9 L48.3,11.5 L37.5,1 C37,0.5 36.3,0.5 35.8,1 L35.8,1 C35.3,1.5 35.2,2.3 35.8,2.8 L47.1,13.9 C47.6,14.4 47.6,15.2 47.1,15.7 L35.6,27.2 C35.1,27.7 35.1,28.5 35.6,29 L35.6,29 C36.1,29.5 36.9,29.4 37.3,29 L48,18.4 C48,18.4 48,18.4 48.1,18.3 L50.7,15.7 Z" id="Shape" fill="#FFFFFF"></path>
                                    <path d="M1.3,15.7 C0.8,15.2 0.9,14.4 1.3,13.9 L3.7,11.5 L14.5,1 C15,0.5 15.7,0.5 16.2,1 L16.2,1 C16.7,1.5 16.8,2.3 16.2,2.8 L5.1,13.9 C4.6,14.4 4.6,15.2 5.1,15.7 L16.4,27.2 C16.9,27.7 16.9,28.5 16.4,29 L16.4,29 C15.9,29.5 15.1,29.4 14.7,29 L3.8,18.5 C3.8,18.5 3.8,18.5 3.7,18.4 L1.3,15.7 Z" id="Shape" fill="#FFFFFF"></path>
                                    <path d="M29.4,14.8 C29.4,16.7 27.8,18.1 26.1,18.1 C24.4,18.1 22.6,16.5 22.6,14.8 C22.6,13.1 24,11.5 26.1,11.5 C28.1,11.5 29.4,13.1 29.4,14.8 Z" id="Shape" fill="#7FBA00"></path>
                                </g>
                            </g>
                        </g>
                    </g>
                </g>
            </g>
        </g>
    </g>
</svg>