<?xml version="1.0" encoding="UTF-8" standalone="no"?>
<svg width="90px" height="90px" viewBox="0 0 90 90" version="1.1" xmlns="http://www.w3.org/2000/svg" xmlns:xlink="http://www.w3.org/1999/xlink">
    <!-- Generator: Sketch 41.2 (35397) - http://www.bohemiancoding.com/sketch -->
    <title>Compute-&amp;-Networking-copy_Amazon-EC2-Instance</title>
    <desc>Created with Sketch.</desc>
    <defs></defs>
    <g id="Page-1" stroke="none" stroke-width="1" fill="none" fill-rule="evenodd">
        <g id="blank">
            <g id="Page-1">
                <g id="blank">
                    <g id="Page-1">
                        <g id="Compute-&amp;-Networking-copy_Amazon-EC2-Instance">
                            <g id="Layer_1">
                                <circle id="Oval-1" fill="#0078D7" cx="45" cy="45" r="45"></circle>
                                <g id="Azure-Cache-including-Redis_COLOR" transform="translate(19.000000, 18.000000)">
                                    <g id="Layer_1">
                                        <path d="M0,7.35245902 L0,45.8196721 C0,49.8688525 8.95081967,53.0655738 19.9262295,53.0655738 L19.9262295,7.35245902 L0,7.35245902 Z" id="Shape" fill="#3999C6"></path>
                                        <path d="M19.7131148,53.0655738 L20.0327869,53.0655738 C31.1147541,53.0655738 39.9590164,49.8688525 39.9590164,45.8196721 L39.9590164,7.35245902 L19.7131148,7.35245902 L19.7131148,53.0655738 Z" id="Shape" fill="#59B4D9"></path>
                                        <path d="M39.9590164,7.35245902 C39.9590164,11.295082 31.0081967,14.5983607 20.0327869,14.5983607 C9.05737705,14.5983607 0,11.295082 0,7.35245902 C0,3.40983607 8.95081967,0.106557377 19.9262295,0.106557377 C30.9016393,0.106557377 39.9590164,3.40983607 39.9590164,7.35245902" id="Shape" fill="#FFFFFF"></path>
                                        <path d="M35.9098361,6.92622951 C35.9098361,9.59016393 28.7704918,11.7213115 20.0327869,11.7213115 C11.295082,11.7213115 4.04918033,9.59016393 4.04918033,6.92622951 C4.04918033,4.26229508 11.1885246,2.13114754 19.9262295,2.13114754 C28.6639344,2.13114754 35.9098361,4.26229508 35.9098361,6.92622951" id="Shape" fill="#7FBA00"></path>
                                        <path d="M32.5,9.80327869 C34.6311475,8.95081967 35.8032787,7.99180328 35.8032787,6.92622951 C35.8032787,4.26229508 28.6639344,2.13114754 19.9262295,2.13114754 C11.1885246,2.13114754 4.04918033,4.26229508 4.04918033,6.92622951 C4.04918033,7.99180328 5.32786885,9.05737705 7.35245902,9.80327869 C10.2295082,8.63114754 14.8114754,7.99180328 19.9262295,7.99180328 C25.0409836,7.99180328 29.6229508,8.73770492 32.5,9.80327869" id="Shape" fill="#B8D432"></path>
                                        <path d="M25.3606557,22.5901639 L25.3606557,48.2704918 C25.3606557,50.9344262 31.3278689,53.0655738 38.6803279,53.0655738 L38.6803279,22.5901639 L25.3606557,22.5901639 Z" id="Shape" fill="#0072C6"></path>
                                        <path d="M38.4672131,53.0655738 L38.6803279,53.0655738 C46.0327869,53.0655738 52,50.9344262 52,48.2704918 L52,22.5901639 L38.4672131,22.5901639 L38.4672131,53.0655738 Z" id="Shape" fill="#0072C6"></path>
                                        <path d="M38.4672131,53.0655738 L38.6803279,53.0655738 C46.0327869,53.0655738 52,50.9344262 52,48.2704918 L52,22.5901639 L38.4672131,22.5901639 L38.4672131,53.0655738 Z" id="Shape" fill="#FFFFFF" opacity="0.15"></path>
                                        <path d="M52,22.5901639 C52,25.2540984 46.0327869,27.3852459 38.6803279,27.3852459 C31.3278689,27.3852459 25.3606557,25.2540984 25.3606557,22.5901639 C25.3606557,19.9262295 31.3278689,17.795082 38.6803279,17.795082 C46.0327869,17.795082 52,19.9262295 52,22.5901639" id="Shape" fill="#FFFFFF"></path>
                                        <path d="M49.2295082,22.2704918 C49.2295082,23.9754098 44.4344262,25.4672131 38.6803279,25.4672131 C32.9262295,25.4672131 28.1311475,24.0819672 28.1311475,22.2704918 C28.1311475,20.5655738 32.9262295,19.0737705 38.6803279,19.0737705 C44.4344262,19.0737705 49.2295082,20.5655738 49.2295082,22.2704918" id="Shape" fill="#7FBA00"></path>
                                        <path d="M46.9918033,24.1885246 C48.3770492,23.6557377 49.2295082,23.0163934 49.2295082,22.2704918 C49.2295082,20.5655738 44.4344262,19.0737705 38.6803279,19.0737705 C32.8196721,19.0737705 28.1311475,20.4590164 28.1311475,22.2704918 C28.1311475,23.0163934 28.9836066,23.6557377 30.3688525,24.1885246 C32.2868852,23.442623 35.3770492,22.9098361 38.7868852,22.9098361 C41.9836066,22.9098361 44.9672131,23.442623 46.9918033,24.1885246" id="Shape" fill="#B8D432"></path>
                                        <polygon id="Shape" fill="#FFFFFF" points="45.9262295 38.147541 31.1147541 50.4016393 36.8688525 40.9180328 31.8606557 40.9180328 46.6721311 28.7704918 40.9180328 38.147541"></polygon>
                                    </g>
                                </g>
                            </g>
                        </g>
                    </g>
                </g>
            </g>
        </g>
    </g>
</svg>