<?xml version="1.0" encoding="UTF-8" standalone="no"?>
<svg width="90px" height="90px" viewBox="0 0 90 90" version="1.1" xmlns="http://www.w3.org/2000/svg" xmlns:xlink="http://www.w3.org/1999/xlink">
    <!-- Generator: Sketch 41.2 (35397) - http://www.bohemiancoding.com/sketch -->
    <title>Compute-&amp;-Networking-copy_Amazon-EC2-Instance</title>
    <desc>Created with Sketch.</desc>
    <defs></defs>
    <g id="Page-1" stroke="none" stroke-width="1" fill="none" fill-rule="evenodd">
        <g id="blank">
            <g id="Page-1">
                <g id="blank">
                    <g id="Page-1">
                        <g id="Compute-&amp;-Networking-copy_Amazon-EC2-Instance">
                            <g id="Layer_1" fill="#0078D7">
                                <circle id="Oval-1" cx="45" cy="45" r="45"></circle>
                            </g>
                            <g id="Azure-load-balancer-(automatic)" transform="translate(26.000000, 19.000000)" fill="#FFFFFF">
                                <g id="Layer_1">
                                    <path d="M38.084507,36.5670997 L27.3616847,36.5670997 C26.4373034,36.5670997 25.8826747,35.8275947 25.8826747,35.0880897 C25.8826747,34.1637085 26.6221797,33.6090797 27.3616847,33.6090797 L32.3533434,33.6090797 L20.3363873,21.5921236 L20.3363873,45.6260358 L24.0339122,41.9285109 C24.588541,41.3738821 25.6977984,41.3738821 26.2524272,41.9285109 C26.8070559,42.4831396 26.8070559,43.5923971 26.2524272,44.1470258 L18.8573773,51.5420758 L11.2774511,43.9621496 C10.9076986,43.5923971 10.9076986,43.2226446 10.9076986,42.8528921 C10.9076986,42.4831396 11.0925749,42.1133871 11.2774511,41.7436346 C11.8320799,41.1890059 12.9413373,41.1890059 13.4959661,41.7436346 L17.3783673,45.6260358 L17.3783673,21.5921236 L5.36141119,33.6090797 L10.7228224,33.6090797 C11.6472036,33.6090797 12.2018324,34.3485847 12.2018324,35.0880897 C12.2018324,36.0124709 11.4623274,36.5670997 10.7228224,36.5670997 L1.04079499e-14,36.5670997 L1.04079499e-14,25.8442773 C1.04079499e-14,24.9198961 0.739504991,24.3652673 1.47900998,24.3652673 C2.40339122,24.3652673 2.95801996,25.1047723 2.95801996,25.8442773 L2.95801996,31.2056885 L17.193491,16.9702174 L17.193491,9.57516751 C15.3447286,8.83566252 13.8657186,7.17177629 13.8657186,4.95326132 C13.8657186,2.1801176 16.0842336,0.146478873 18.672501,0.146478873 C21.4456447,0.146478873 23.4792835,2.36499385 23.4792835,4.95326132 C23.4792835,7.17177629 22.0002735,8.83566252 20.151511,9.57516751 L20.151511,16.9702174 L34.7567346,31.575441 L34.7567346,25.8442773 C34.7567346,24.9198961 35.4962396,24.3652673 36.2357446,24.3652673 C37.1601258,24.3652673 37.7147545,25.1047723 37.7147545,25.8442773 L37.7147545,36.5670997 L38.084507,36.5670997 Z" id="Shape"></path>
                                </g>
                            </g>
                        </g>
                    </g>
                </g>
            </g>
        </g>
    </g>
</svg>