<?xml version="1.0" encoding="UTF-8" standalone="no"?>
<svg width="90px" height="90px" viewBox="0 0 90 90" version="1.1" xmlns="http://www.w3.org/2000/svg" xmlns:xlink="http://www.w3.org/1999/xlink">
    <!-- Generator: Sketch 41.2 (35397) - http://www.bohemiancoding.com/sketch -->
    <title>Compute-&amp;-Networking-copy_Amazon-EC2-Instance</title>
    <desc>Created with Sketch.</desc>
    <defs></defs>
    <g id="Page-1" stroke="none" stroke-width="1" fill="none" fill-rule="evenodd">
        <g id="blank">
            <g id="Page-1">
                <g id="blank">
                    <g id="Page-1">
                        <g id="Compute-&amp;-Networking-copy_Amazon-EC2-Instance">
                            <g id="Layer_1" fill="#0078D7">
                                <circle id="Oval-1" cx="45" cy="45" r="45"></circle>
                            </g>
                            <g id="Azure-Application-Gateway_COLOR" transform="translate(19.000000, 20.000000)">
                                <g id="Layer_1">
                                    <path d="M25.4901961,50.9803922 C24.2666667,50.9803922 23.0431373,50.4705882 22.1254902,49.5529412 L1.42745098,28.854902 C0.509803922,27.9372549 0,26.7137255 0,25.4901961 C0,24.2666667 0.509803922,23.0431373 1.42745098,22.1254902 L22.1254902,1.42745098 C23.0431373,0.509803922 24.2666667,0 25.4901961,0 C26.7137255,0 27.9372549,0.509803922 28.854902,1.42745098 L49.654902,22.227451 C50.572549,23.145098 51.0823529,24.2666667 51.0823529,25.5921569 C51.0823529,26.8156863 50.572549,28.0392157 49.654902,28.9568627 L28.854902,49.5529412 C27.9372549,50.4705882 26.7137255,50.9803922 25.4901961,50.9803922" id="Shape" fill="#7FBA00"></path>
                                    <path d="M30.321098,18.9483922 C28.8956863,20.0383529 27.2174118,20.568549 25.5493333,20.568549 C23.1838431,20.568549 20.8448627,19.5061176 19.2981176,17.4842353 C16.6573333,14.0359216 17.3088627,9.10407843 20.7632941,6.4612549 C22.1876863,5.36517647 23.8690196,4.84211765 25.5340392,4.84211765 C27.8995294,4.84211765 30.2395294,5.90454902 31.7852549,7.92745098 C34.4270588,11.3767843 33.7683922,16.3096471 30.321098,18.9483922" id="Shape" fill="#FFFFFF"></path>
                                    <path d="M28.854902,1.42745098 C27.9372549,0.509803922 26.7137255,0 25.4901961,0 C24.2666667,0 23.0431373,0.509803922 22.1254902,1.42745098 L1.42745098,22.1254902 C0.509803922,23.0431373 0,24.2666667 0,25.4901961 C0,26.7137255 0.509803922,27.9372549 1.42745098,28.854902 L13.1529412,40.5803922 L35.2784314,7.85098039 L28.854902,1.42745098 Z" id="Shape" fill="#FFFFFF" opacity="0.15"></path>
                                    <polygon id="Shape" fill="#FFFFFF" points="25.4901961 46.4941176 32.2196078 39.7647059 27.427451 39.7647059 27.427451 19.5244706 23.4509804 19.5244706 23.4509804 39.7647059 18.7607843 39.7647059"></polygon>
                                    <polygon id="Shape" fill="#FFFFFF" points="40.1011765 34.1364706 40.1011765 24.619451 36.7843922 27.9362353 28.1748235 19.3266667 25.2913725 22.2101176 33.9009412 30.8196863 30.5841569 34.1364706"></polygon>
                                    <polygon id="Shape" fill="#FFFFFF" points="10.8945098 34.1721569 20.4105098 34.1721569 17.0947451 30.8563922 25.9459608 22.0051765 23.0614902 19.1207059 14.2102745 27.9719216 10.8945098 24.6561569"></polygon>
                                    <path d="M29.6858824,18.119451 C28.4501176,19.0646275 26.9941176,19.5244706 25.5483137,19.5244706 C23.4968627,19.5244706 21.4678431,18.6037647 20.1280784,16.8500392 C17.8380392,13.8595294 18.402902,9.58329412 21.3985098,7.29121569 C22.6342745,6.34094118 24.0912941,5.88721569 25.5350588,5.88721569 C27.5865098,5.88721569 29.6155294,6.80792157 30.9552941,8.56266667 C33.2473725,11.5531765 32.6763922,15.8304314 29.6858824,18.119451" id="Shape" fill="#59B4D9"></path>
                                    <path d="M28.4327843,13.9023529 C28.9283137,14.5487843 29.848,14.6650196 30.4903529,14.1766275 C30.524,14.1511373 30.5494902,14.1195294 30.5800784,14.092 C31.2377255,14.554902 31.6934902,14.8607843 31.9504314,15.0351373 C32.026902,14.8383529 32.078902,14.6487059 32.1329412,14.450902 C31.8617255,14.2490196 31.4936471,13.9655686 30.9624314,13.5352941 C31.1367843,13.0774902 31.0817255,12.5421961 30.7636078,12.1241569 C30.3078431,11.5348235 29.5013333,11.3849412 28.8712157,11.7489412 C28.1768627,11.1259608 27.4131765,10.4112157 26.6087059,9.61184314 C29.1087843,8.26698039 30.8849412,8.46376471 30.8849412,8.46376471 C30.5882353,8.0854902 30.2558431,7.75411765 29.9010196,7.45537255 C28.8467451,7.29223529 27.2092549,7.31058824 25.3372549,8.30572549 L25.3362353,8.30470588 L25.3362353,8.30470588 C24.7122353,7.65215686 24.0780392,6.95168627 23.4316078,6.2012549 C23.1226667,6.30015686 22.8198431,6.4225098 22.5282353,6.56831373 C23.0054118,7.34933333 23.6477647,8.13647059 24.3706667,8.9052549 L24.3706667,8.9052549 C24.3716863,8.90729412 24.3737255,8.90831373 24.3757647,8.91035294 C23.7721569,9.33247059 23.1012549,9.89631373 22.4813333,10.550902 C22.4018039,10.6355294 22.3263529,10.7201569 22.2519216,10.8047843 C21.8818039,10.7272941 21.4923137,10.7497255 21.1283137,10.8812549 C20.5104314,9.54862745 20.5603922,8.47803922 20.6582745,7.92643137 C20.3901176,8.20784314 20.1392941,8.5025098 19.9241569,8.81756863 C19.7630588,9.47623529 19.7171765,10.4265098 20.1933333,11.5715294 C19.6427451,12.2923922 19.6162353,13.3140392 20.1923137,14.068549 C20.2402353,14.1307451 20.2912157,14.1888627 20.3452549,14.2449412 C20.0944314,15.1003922 19.9812549,15.9262745 19.9465882,16.634902 C20.0108235,16.7225882 20.0108235,16.7939608 20.0750588,16.8796078 C20.4023529,17.2986667 20.8132549,17.6524706 21.2098824,17.9726275 C21.1609412,17.2221961 21.2139608,16.1159216 21.6778824,14.8699608 C21.9980392,14.8944314 22.3232941,14.843451 22.6281569,14.716 C22.8025098,14.8699608 22.9850196,15.0249412 23.1807843,15.1829804 C23.8496471,15.7131765 24.5174902,16.125098 25.168,16.4493333 C25.1343529,16.7807059 25.2169412,17.1243137 25.4320784,17.4087843 C25.8919216,18.0021961 26.7432941,18.1133333 27.3367059,17.6596078 C27.4600784,17.5647843 27.5579608,17.4505882 27.6385098,17.3282353 C28.6999216,17.5647843 29.6267451,17.6065882 30.3139608,17.6065882 C30.4189804,17.6065882 30.9073725,16.9418039 31.1877647,16.5298824 C30.7697255,16.6175686 29.5278431,16.7878431 27.8322353,16.3004706 C27.791451,16.1098039 27.7129412,15.9252549 27.5875294,15.7600784 C27.1572549,15.1952157 26.369098,15.0728627 25.7818039,15.4511373 C25.1924706,15.1309804 24.5745882,14.7302745 23.9383529,14.2265882 C23.8098824,14.1246275 23.6865098,14.0236863 23.5672157,13.9217255 C23.9567059,13.3089412 23.9974902,12.5228235 23.6538824,11.8621176 C23.7323922,11.7836078 23.8088627,11.7061176 23.891451,11.6286275 C24.5215686,11.0392941 25.1149804,10.5682353 25.6696471,10.1899608 C25.6472157,10.1695686 25.6268235,10.1471373 25.6054118,10.1267451 C25.6278431,10.1471373 25.6482353,10.168549 25.6706667,10.1889412 C25.6706667,10.1889412 25.6706667,10.1889412 25.6696471,10.1889412 C26.5210196,10.9760784 27.4233725,11.7224314 28.2788235,12.3892549 C28.0534902,12.8684706 28.0891765,13.4527059 28.4327843,13.9023529 Z" id="Shape" fill="#FFFFFF"></path>
                                </g>
                            </g>
                        </g>
                    </g>
                </g>
            </g>
        </g>
    </g>
</svg>