<?xml version="1.0" encoding="UTF-8" standalone="no"?>
<svg width="90px" height="90px" viewBox="0 0 90 90" version="1.1" xmlns="http://www.w3.org/2000/svg" xmlns:xlink="http://www.w3.org/1999/xlink">
    <!-- Generator: Sketch 41.2 (35397) - http://www.bohemiancoding.com/sketch -->
    <title>Compute-&amp;-Networking-copy_Amazon-EC2-Instance</title>
    <desc>Created with Sketch.</desc>
    <defs></defs>
    <g id="Page-1" stroke="none" stroke-width="1" fill="none" fill-rule="evenodd">
        <g id="blank">
            <g id="Page-1">
                <g id="blank">
                    <g id="Page-1">
                        <g id="Compute-&amp;-Networking-copy_Amazon-EC2-Instance">
                            <g id="Layer_1" fill="#0078D7">
                                <circle id="Oval-1" cx="45" cy="45" r="45"></circle>
                            </g>
                            <g id="OutboundRule" transform="translate(11.000000, 28.000000)">
                                <g id="Layer_1">
                                    <path d="M62.3518519,11.4074074 L22.4259259,11.4074074 C20.7407407,11.4074074 19.3148148,9.98148148 19.3148148,8.68518519 C19.3148148,7.38888889 20.7407407,6.22222222 22.4259259,6.22222222 L62.3518519,6.22222222 C64.1666667,6.22222222 65.462963,7.25925926 65.462963,8.68518519 C65.462963,9.98148148 64.037037,11.4074074 62.3518519,11.4074074 Z" id="Shape" fill="#A0A1A2"></path>
                                    <path d="M62.3518519,31.6296296 L22.4259259,31.6296296 C20.7407407,31.6296296 19.3148148,30.2037037 19.3148148,28.9074074 C19.3148148,27.6111111 20.7407407,26.4444444 22.4259259,26.4444444 L62.3518519,26.4444444 C64.037037,26.4444444 65.462963,27.4814815 65.462963,28.9074074 C65.462963,30.2037037 64.037037,31.6296296 62.3518519,31.6296296 Z" id="Shape" fill="#A0A1A2"></path>
                                    <polygon id="Shape" fill="#B8D432" points="0.648148148 8.03703704 0.648148148 8.03703704 2.85185185 5.7037037 2.85185185 5.7037037 2.85185185 5.7037037 7.38888889 10.2407407 16.5925926 1.16666667 16.5925926 1.16666667 16.5925926 1.16666667 18.7962963 3.5 18.7962963 3.5 18.7962963 3.5 7.38888889 14.7777778"></polygon>
                                    <polygon id="Shape" fill="#B8D432" points="0.648148148 28.1296296 0.648148148 28.1296296 2.85185185 25.9259259 2.85185185 25.9259259 2.85185185 25.9259259 7.38888889 30.462963 16.5925926 21.3888889 16.5925926 21.3888889 16.5925926 21.3888889 18.7962963 23.5925926 18.7962963 23.5925926 18.7962963 23.5925926 7.38888889 35"></polygon>
                                </g>
                            </g>
                        </g>
                    </g>
                </g>
            </g>
        </g>
    </g>
</svg>