<?xml version="1.0" encoding="UTF-8" standalone="no"?>
<svg width="90px" height="90px" viewBox="0 0 90 90" version="1.1" xmlns="http://www.w3.org/2000/svg" xmlns:xlink="http://www.w3.org/1999/xlink">
    <!-- Generator: Sketch 41.2 (35397) - http://www.bohemiancoding.com/sketch -->
    <title>Compute-&amp;-Networking-copy_Amazon-EC2-Instance</title>
    <desc>Created with Sketch.</desc>
    <defs></defs>
    <g id="Page-1" stroke="none" stroke-width="1" fill="none" fill-rule="evenodd">
        <g id="blank">
            <g id="Page-1">
                <g id="blank">
                    <g id="Page-1">
                        <g id="Compute-&amp;-Networking-copy_Amazon-EC2-Instance">
                            <g id="Layer_1" fill="#0078D7">
                                <circle id="Oval-1" cx="45" cy="45" r="45"></circle>
                            </g>
                            <g id="VirtualMachine" transform="translate(19.000000, 21.000000)">
                                <g id="Layer_1">
                                    <path d="M33.0618039,37.2503529 L31.847451,37.2503529 L19.8262745,37.2503529 L19.1992157,37.2503529 C20.8652549,43.131451 18.6272157,43.9746667 8.82470588,43.9746667 L8.82470588,47.0538824 L21.291451,47.0538824 L30.3934902,47.0538824 L42.1577255,47.0538824 L42.1577255,43.9746667 C32.3552157,43.9746667 31.3937255,43.1345098 33.0618039,37.2503529" id="Shape" fill="#7A7A7A"></path>
                                    <path d="M47.9011765,0 L2.77129412,0 C1.23780392,0 0.00101960784,1.37137255 0.00101960784,2.90282353 L0.00101960784,34.3740392 C0.00101960784,35.8963137 1.23780392,37.2523922 2.77129412,37.2523922 L47.9011765,37.2523922 C49.4316078,37.2523922 50.9814118,35.8963137 50.9814118,34.3740392 L50.9814118,2.90282353 C50.9814118,1.36729412 49.4316078,0 47.9011765,0" id="Shape" fill="#A0A1A2"></path>
                                    <path d="M47.9327843,0.00305882353 C47.9215686,0.00305882353 47.9113725,0.00101960784 47.9011765,0.00101960784 L2.77027451,0.00101960784 C1.23678431,0.00101960784 0,1.37137255 0,2.90384314 L0,34.3740392 C0,35.8973333 1.23678431,37.2534118 2.77027451,37.2534118 L3.84392157,37.2534118 L47.9327843,0.00305882353 Z" id="Shape" fill="#FFFFFF" opacity="0.2"></path>
                                    <polygon id="Shape" fill="#59B4D9" points="47.0018824 3.92345098 47.0018824 33.3299608 3.86431373 33.3299608 3.86431373 3.92345098"></polygon>
                                    <polygon id="Shape" fill="#59B4D9" points="3.86431373 33.3299608 3.92345098 33.3299608 3.92345098 3.92447059 43.3618824 3.86533333 43.3639216 3.86533333 3.86431373 3.92447059"></polygon>
                                    <rect id="Rectangle-path" fill="#A0A1A2" x="8.82470588" y="43.9736471" width="33.3330196" height="3.08023529"></rect>
                                    <path d="M26.0183529,2.13607843 C26.0183529,2.53576471 25.6941176,2.86 25.2944314,2.86 C24.8937255,2.86 24.5715294,2.53576471 24.5715294,2.13607843 C24.5715294,1.73537255 24.8937255,1.41215686 25.2944314,1.41215686 C25.6941176,1.41215686 26.0183529,1.73537255 26.0183529,2.13607843" id="Shape" fill="#B8D432"></path>
                                    <path d="M26.046902,17.7350588 C26.0010196,17.7350588 25.9541176,17.7207843 25.9102745,17.6963137 L16.9336471,12.5146667 C16.8510588,12.4657255 16.7990588,12.3749804 16.7990588,12.2791373 C16.7990588,12.1822745 16.8510588,12.092549 16.9336471,12.0446275 L25.8562353,6.89662745 C25.9398431,6.84972549 26.0418039,6.84972549 26.1243922,6.89662745 L35.1040784,12.0803137 C35.1876863,12.1282353 35.2376471,12.2179608 35.2376471,12.3148235 C35.2376471,12.4127059 35.1876863,12.5014118 35.1040784,12.5493333 L26.184549,17.6963137 C26.1407059,17.7207843 26.0968627,17.7350588 26.046902,17.7350588" id="Shape" fill="#FFFFFF"></path>
                                    <path d="M24.757098,30.3292549 C24.7061176,30.3292549 24.6602353,30.3170196 24.6204706,30.292549 L15.6703529,25.1272157 C15.5836863,25.0792941 15.5316863,24.9916078 15.5316863,24.8916863 L15.5316863,14.5263529 C15.5316863,14.4284706 15.5836863,14.3397647 15.6703529,14.2908235 C15.7529412,14.2408627 15.854902,14.2408627 15.9436078,14.2908235 L24.8927059,19.4541176 C24.9722353,19.505098 25.0252549,19.5938039 25.0252549,19.6916863 L25.0252549,30.0570196 C25.0252549,30.1559216 24.9722353,30.2436078 24.8927059,30.292549 C24.8478431,30.3170196 24.8009412,30.3292549 24.757098,30.3292549" id="Shape" fill="#FFFFFF" opacity="0.7"></path>
                                    <path d="M27.2908235,30.3292549 C27.2418824,30.3292549 27.196,30.3170196 27.1501176,30.292549 C27.0705882,30.2436078 27.0185882,30.1559216 27.0185882,30.0570196 L27.0185882,19.7569412 C27.0185882,19.661098 27.0705882,19.5713725 27.1501176,19.5214118 L36.0992157,14.3581176 C36.1848627,14.3091765 36.2847843,14.3091765 36.3683922,14.3581176 C36.4540392,14.4060392 36.5060392,14.4957647 36.5060392,14.5926275 L36.5060392,24.8916863 C36.5060392,24.9916078 36.4540392,25.0792941 36.3683922,25.1272157 L27.4223529,30.292549 C27.3856471,30.3170196 27.3377255,30.3292549 27.2908235,30.3292549" id="Shape" fill="#FFFFFF" opacity="0.4"></path>
                                </g>
                            </g>
                        </g>
                    </g>
                </g>
            </g>
        </g>
    </g>
</svg>