<?xml version="1.0" encoding="UTF-8" standalone="no"?>
<svg width="90px" height="90px" viewBox="0 0 90 90" version="1.1" xmlns="http://www.w3.org/2000/svg" xmlns:xlink="http://www.w3.org/1999/xlink">
    <!-- Generator: Sketch 41.2 (35397) - http://www.bohemiancoding.com/sketch -->
    <title>Compute-&amp;-Networking-copy_Amazon-EC2-Instance</title>
    <desc>Created with Sketch.</desc>
    <defs></defs>
    <g id="Page-1" stroke="none" stroke-width="1" fill="none" fill-rule="evenodd">
        <g id="blank">
            <g id="Page-1">
                <g id="blank">
                    <g id="Page-1">
                        <g id="Compute-&amp;-Networking-copy_Amazon-EC2-Instance">
                            <g id="Layer_1" fill="#0078D7">
                                <circle id="Oval-1" cx="45" cy="45" r="45"></circle>
                            </g>
                            <g id="ResourceDefault" transform="translate(23.000000, 20.000000)">
                                <g id="Layer_1">
                                    <path d="M22.561,23.167 C22.458,23.167 22.364,23.137 22.273,23.084 L3.011,12.045 C2.828,11.942 2.719,11.748 2.719,11.539 C2.719,11.336 2.827,11.144 3.011,11.043 L22.149,0.075 C22.331,-0.025 22.554,-0.025 22.728,0.075 L41.994,11.12 C42.168,11.222 42.284,11.411 42.284,11.616 C42.284,11.828 42.168,12.016 41.994,12.12 L22.853,23.084 C22.762,23.137 22.665,23.167 22.561,23.167" id="Shape" fill="#3999C6"></path>
                                    <path d="M19.792,50 C19.688,50 19.585,49.976 19.497,49.923 L0.295,38.917 C0.11,38.814 0,38.626 0,38.416 L0,16.331 C0,16.124 0.11,15.934 0.295,15.825 C0.471,15.725 0.696,15.725 0.881,15.825 L20.08,26.831 C20.258,26.938 20.366,27.128 20.366,27.335 L20.366,49.421 C20.366,49.633 20.258,49.818 20.08,49.923 C19.985,49.976 19.888,50 19.792,50" id="Shape" fill="#59B4D9"></path>
                                    <path d="M25.225,50 C25.127,50 25.026,49.976 24.93,49.923 C24.752,49.818 24.642,49.634 24.642,49.421 L24.642,27.478 C24.642,27.271 24.752,27.081 24.93,26.974 L44.126,15.972 C44.311,15.87 44.529,15.87 44.713,15.972 C44.889,16.075 45,16.267 45,16.472 L45,38.415 C45,38.626 44.889,38.813 44.713,38.917 L25.511,49.923 C25.429,49.976 25.325,50 25.225,50" id="Shape" fill="#59B4D9"></path>
                                    <path d="M25.225,50 C25.127,50 25.026,49.976 24.93,49.923 C24.752,49.818 24.642,49.634 24.642,49.421 L24.642,27.478 C24.642,27.271 24.752,27.081 24.93,26.974 L44.126,15.972 C44.311,15.87 44.529,15.87 44.713,15.972 C44.889,16.075 45,16.267 45,16.472 L45,38.415 C45,38.626 44.889,38.813 44.713,38.917 L25.511,49.923 C25.429,49.976 25.325,50 25.225,50" id="Shape" fill="#FFFFFF" opacity="0.5"></path>
                                </g>
                            </g>
                        </g>
                    </g>
                </g>
            </g>
        </g>
    </g>
</svg>