<?xml version="1.0" encoding="UTF-8" standalone="no"?>
<svg width="90px" height="90px" viewBox="0 0 90 90" version="1.1" xmlns="http://www.w3.org/2000/svg" xmlns:xlink="http://www.w3.org/1999/xlink">
    <!-- Generator: Sketch 41.2 (35397) - http://www.bohemiancoding.com/sketch -->
    <title>Compute-&amp;-Networking-copy_Amazon-EC2-Instance</title>
    <desc>Created with Sketch.</desc>
    <defs></defs>
    <g id="Page-1" stroke="none" stroke-width="1" fill="none" fill-rule="evenodd">
        <g id="blank">
            <g id="Page-1">
                <g id="blank">
                    <g id="Page-1">
                        <g id="Compute-&amp;-Networking-copy_Amazon-EC2-Instance">
                            <g id="Layer_1" fill="#0078D7">
                                <circle id="Oval-1" cx="45" cy="45" r="45"></circle>
                            </g>
                            <g id="Azure-Virtual-Network" transform="translate(19.000000, 31.000000)">
                                <g id="Layer_1">
                                    <g id="Virtual_network">
                                        <g id="Group">
                                            <polygon id="Shape" fill="#FFFFFF" points="51.74 14.3 48.62 17.42 37.83 28.21 36.01 26.39 48.23 14.3 36.01 2.21 37.83 0.39 48.62 11.18"></polygon>
                                            <polygon id="Shape" fill="#FFFFFF" points="0.26 14.3 3.51 17.42 14.17 28.21 15.99 26.39 3.77 14.3 15.99 2.21 14.17 0.39 3.51 11.18"></polygon>
                                            <path d="M19.76,14.3 C19.76,12.61 18.33,11.18 16.64,11.18 C14.82,11.18 13.52,12.61 13.52,14.3 C13.52,15.99 14.95,17.42 16.64,17.42 C18.46,17.42 19.76,15.99 19.76,14.3 Z" id="Shape" fill="#7FBA00"></path>
                                            <path d="M26,17.42 C27.69,17.42 29.12,15.99 29.12,14.3 C29.12,12.61 27.69,11.18 26,11.18 C24.31,11.18 22.88,12.61 22.88,14.3 C22.88,15.99 24.31,17.42 26,17.42 Z" id="Shape" fill="#7FBA00"></path>
                                            <path d="M35.36,17.42 C37.05,17.42 38.48,15.99 38.48,14.3 C38.48,12.61 37.05,11.18 35.36,11.18 C33.54,11.18 32.24,12.61 32.24,14.3 C32.24,15.99 33.54,17.42 35.36,17.42 Z" id="Shape" fill="#7FBA00"></path>
                                        </g>
                                    </g>
                                </g>
                            </g>
                        </g>
                    </g>
                </g>
            </g>
        </g>
    </g>
</svg>