<?xml version="1.0" encoding="UTF-8" standalone="no"?>
<svg width="90px" height="90px" viewBox="0 0 90 90" version="1.1" xmlns="http://www.w3.org/2000/svg" xmlns:xlink="http://www.w3.org/1999/xlink">
    <!-- Generator: Sketch 41.2 (35397) - http://www.bohemiancoding.com/sketch -->
    <title>Compute-&amp;-Networking-copy_Amazon-EC2-Instance</title>
    <desc>Created with Sketch.</desc>
    <defs></defs>
    <g id="Page-1" stroke="none" stroke-width="1" fill="none" fill-rule="evenodd">
        <g id="blank">
            <g id="Page-1">
                <g id="blank">
                    <g id="Page-1">
                        <g id="Compute-&amp;-Networking-copy_Amazon-EC2-Instance">
                            <g id="Layer_1" fill="#0078D7">
                                <circle id="Oval-1" cx="45" cy="45" r="45"></circle>
                            </g>
                            <g id="ResourceGroup" transform="translate(13.000000, 19.000000)">
                                <g id="Layer_1">
                                    <path d="M32.06016,22.9747143 C31.96032,22.9747143 31.86816,22.9451429 31.77856,22.8924286 L12.94848,11.9767143 C12.76928,11.8738571 12.66304,11.6835714 12.66304,11.4765714 C12.66304,11.276 12.76928,11.0857143 12.94848,10.9854286 L31.65696,0.140428571 C31.83488,0.0414285714 32.05248,0.0414285714 32.22272,0.140428571 L51.05664,11.0625714 C51.22688,11.1628571 51.33952,11.3505714 51.33952,11.5537143 C51.33952,11.7632857 51.22688,11.9497143 51.05664,12.0512857 L32.34432,22.8937143 C32.256,22.9451429 32.16128,22.9747143 32.06016,22.9747143" id="Shape" fill="#3999C6"></path>
                                    <path d="M29.35296,49.508 C29.25056,49.508 29.15072,49.4835714 29.06368,49.4321429 L10.29376,38.5498571 C10.112,38.4482857 10.00448,38.2618571 10.00448,38.0535714 L10.00448,16.2157143 C10.00448,16.0112857 10.112,15.8235714 10.29376,15.7155714 C10.46528,15.6165714 10.68544,15.6165714 10.8672,15.7155714 L29.63456,26.5978571 C29.80864,26.7032857 29.9136,26.891 29.9136,27.0954286 L29.9136,48.9358571 C29.9136,49.1454286 29.80736,49.328 29.63456,49.4321429 C29.54112,49.4848571 29.44768,49.508 29.35296,49.508" id="Shape" fill="#59B4D9"></path>
                                    <path d="M34.66368,49.508 C34.56768,49.508 34.46912,49.4835714 34.3744,49.4321429 C34.20032,49.328 34.0928,49.1454286 34.0928,48.9358571 L34.0928,27.2368571 C34.0928,27.0324286 34.20032,26.8447143 34.3744,26.7392857 L53.1392,15.8608571 C53.32096,15.7605714 53.53344,15.7605714 53.71264,15.8608571 C53.88416,15.9637143 53.99424,16.1527143 53.99424,16.3558571 L53.99424,38.0548571 C53.99424,38.2631429 53.88544,38.4482857 53.71264,38.5511429 L34.94144,49.4334286 C34.86336,49.4848571 34.76224,49.508 34.66368,49.508" id="Shape" fill="#59B4D9"></path>
                                    <path d="M34.66368,49.508 C34.56768,49.508 34.46912,49.4835714 34.3744,49.4321429 C34.20032,49.328 34.0928,49.1454286 34.0928,48.9358571 L34.0928,27.2368571 C34.0928,27.0324286 34.20032,26.8447143 34.3744,26.7392857 L53.1392,15.8608571 C53.32096,15.7605714 53.53344,15.7605714 53.71264,15.8608571 C53.88416,15.9637143 53.99424,16.1527143 53.99424,16.3558571 L53.99424,38.0548571 C53.99424,38.2631429 53.88544,38.4482857 53.71264,38.5511429 L34.94144,49.4334286 C34.86336,49.4848571 34.76224,49.508 34.66368,49.508" id="Shape" fill="#FFFFFF" opacity="0.5"></path>
                                    <path d="M12.23424,51.9341429 C11.91808,51.9341429 11.59808,51.8531429 11.30496,51.6834286 L2.54336,46.6022857 C1.0688,45.746 0,43.8855714 0,42.1768571 L0,9.82314286 C0,8.11442857 1.0688,6.25271429 2.54336,5.399 L11.30496,0.317857143 C12.19712,-0.197714286 13.33504,0.108285714 13.84832,1.00185714 C14.36288,1.89671429 14.05696,3.03971429 13.16736,3.55657143 L4.40576,8.63771429 C4.09472,8.819 3.7248,9.46185714 3.7248,9.82314286 L3.7248,42.1768571 C3.7248,42.5381429 4.09472,43.1822857 4.40576,43.3622857 L13.16736,48.4434286 C14.05824,48.9602857 14.36288,50.1032857 13.84832,50.9981429 C13.504,51.5985714 12.87808,51.9341429 12.23424,51.9341429 Z" id="Shape" fill="#FFFFFF"></path>
                                    <path d="M51.76576,0.0658571429 C52.08192,0.0658571429 52.40192,0.146857143 52.69504,0.316571429 L61.45664,5.39771429 C62.9312,6.254 64,8.11442857 64,9.82314286 L64,42.1768571 C64,43.8855714 62.9312,45.7472857 61.45664,46.601 L52.69504,51.6821429 C51.80288,52.1977143 50.66496,51.8917143 50.15168,50.9981429 C49.63712,50.1032857 49.94304,48.9602857 50.83264,48.4434286 L59.59424,43.3622857 C59.90528,43.181 60.2752,42.5381429 60.2752,42.1768571 L60.2752,9.82314286 C60.2752,9.46185714 59.90528,8.81771429 59.59424,8.63771429 L50.83264,3.55657143 C49.94176,3.03971429 49.63712,1.89671429 50.15168,1.00185714 C50.496,0.401428571 51.12192,0.0658571429 51.76576,0.0658571429 Z" id="Shape" fill="#FFFFFF"></path>
                                </g>
                            </g>
                        </g>
                    </g>
                </g>
            </g>
        </g>
    </g>
</svg>