<?xml version="1.0" encoding="UTF-8"?>
<svg width="90px" height="90px" viewBox="0 0 90 90" version="1.1" xmlns="http://www.w3.org/2000/svg" xmlns:xlink="http://www.w3.org/1999/xlink">
    <!-- Generator: Sketch 43.2 (39069) - http://www.bohemiancoding.com/sketch -->
    <title>vm</title>
    <desc>Created with Sketch.</desc>
    <defs></defs>
    <g id="Page-1" stroke="none" stroke-width="1" fill="none" fill-rule="evenodd">
        <g id="vm" fill-rule="nonzero">
            <g id="Layer_1" fill="#0078D7">
                <circle id="Oval-1" cx="45" cy="45" r="45"></circle>
            </g>
            <g id="VirtualMachine" transform="translate(21.000000, 19.000000)">
                <g id="Layer_1">
                    <path d="M24.6342853,27.9377647 L23.7294733,27.9377647 L14.7725183,27.9377647 L14.305298,27.9377647 C15.5466605,32.3485882 13.8791019,32.981 6.57527105,32.981 L6.57527105,35.2904118 L15.8642184,35.2904118 L22.64613,35.2904118 L31.4116386,35.2904118 L31.4116386,32.981 C24.1078078,32.981 23.3914033,32.3508823 24.6342853,27.9377647" id="Shape" fill="#7A7A7A"></path>
                    <path d="M35.6910727,0 L2.06488581,0 C0.922285274,0 0.000759707802,1.02852941 0.000759707802,2.17711765 L0.000759707802,25.7805294 C0.000759707802,26.9222353 0.922285274,27.9392941 2.06488581,27.9392941 L35.6910727,27.9392941 C36.831394,27.9392941 37.98615,26.9222353 37.98615,25.7805294 L37.98615,2.17711765 C37.98615,1.02547059 36.831394,0 35.6910727,0" id="Shape" fill="#A0A1A2"></path>
                    <path d="M35.7146236,0.00229411765 C35.7062668,0.00229411765 35.6986697,0.00076470588 35.6910727,0.00076470588 L2.06412611,0.00076470588 C0.921525564,0.00076470588 0,1.02852941 0,2.17788235 L0,25.7805294 C0,26.923 0.921525564,27.9400588 2.06412611,27.9400588 L2.86409842,27.9400588 L35.7146236,0.00229411765 Z" id="Shape" fill="#FFFFFF" opacity="0.2"></path>
                    <polygon id="Shape" fill="#59B4D9" points="35.0210104 2.94258823 35.0210104 24.9974706 2.87929258 24.9974706 2.87929258 2.94258823"></polygon>
                    <polygon id="Shape" fill="#59B4D9" points="2.87929258 24.9974706 2.92335563 24.9974706 2.92335563 2.94335294 32.3088536 2.899 32.310373 2.899 2.87929258 2.94335294"></polygon>
                    <rect id="Rectangle-path" fill="#A0A1A2" x="6.57527105" y="32.9802353" width="24.8363675" height="2.31017647"></rect>
                    <path d="M19.3862237,1.60205882 C19.3862237,1.90182353 19.1446366,2.145 18.8468312,2.145 C18.5482661,2.145 18.3081984,1.90182353 18.3081984,1.60205882 C18.3081984,1.30152941 18.5482661,1.05911764 18.8468312,1.05911764 C19.1446366,1.05911764 19.3862237,1.30152941 19.3862237,1.60205882" id="Shape" fill="#B8D432"></path>
                    <path d="M19.4074956,13.3012941 C19.3733087,13.3012941 19.3383621,13.2905882 19.3056947,13.2722353 L12.6172273,9.38600002 C12.5556909,9.34929412 12.5169458,9.2812353 12.5169458,9.20935297 C12.5169458,9.13670587 12.5556909,9.06941175 12.6172273,9.03347062 L19.2654302,5.17247059 C19.3277262,5.13729412 19.403697,5.13729412 19.4652334,5.17247059 L26.15598,9.06023527 C26.2182761,9.09617647 26.2555018,9.1634706 26.2555018,9.23611762 C26.2555018,9.30952942 26.2182761,9.37605885 26.15598,9.41199997 L19.5100561,13.2722353 C19.4773887,13.2905882 19.4447212,13.3012941 19.4074956,13.3012941" id="Shape" fill="#FFFFFF"></path>
                    <path d="M18.4464652,22.7469412 C18.4084798,22.7469412 18.374293,22.7377647 18.3446644,22.7194117 L11.6759492,18.8454118 C11.6113741,18.8094706 11.572629,18.7437058 11.572629,18.6687647 L11.572629,10.8947647 C11.572629,10.8213529 11.6113741,10.7548235 11.6759492,10.7181176 C11.7374856,10.680647 11.8134564,10.680647 11.8795509,10.7181176 L18.5475064,14.5905882 C18.6067636,14.6288235 18.6462684,14.6953529 18.6462684,14.7687647 L18.6462684,22.5427647 C18.6462684,22.6169412 18.6067636,22.6827058 18.5475064,22.7194117 C18.5140792,22.7377647 18.4791327,22.7469412 18.4464652,22.7469412" id="Shape" fill="#FFFFFF" opacity="0.7"></path>
                    <path d="M20.3343391,22.7469412 C20.2978732,22.7469412 20.2636863,22.7377647 20.2294994,22.7194117 C20.1702422,22.6827058 20.1314971,22.6169412 20.1314971,22.5427647 L20.1314971,14.8177059 C20.1314971,14.7458235 20.1702422,14.6785294 20.2294994,14.6410588 L26.8974548,10.7685882 C26.9612702,10.7318824 27.0357216,10.7318824 27.0980177,10.7685882 C27.1618331,10.8045294 27.2005782,10.8718235 27.2005782,10.9444706 L27.2005782,18.6687647 C27.2005782,18.7437058 27.1618331,18.8094706 27.0980177,18.8454118 L20.4323414,22.7194117 C20.404992,22.7377647 20.3692857,22.7469412 20.3343391,22.7469412" id="Shape" fill="#FFFFFF" opacity="0.4"></path>
                </g>
            </g>
            <g id="VirtualMachine-Copy" transform="translate(26.000000, 27.000000)">
                <g id="Layer_1">
                    <path d="M24.6342853,27.9377647 L23.7294733,27.9377647 L14.7725183,27.9377647 L14.305298,27.9377647 C15.5466605,32.3485882 13.8791019,32.981 6.57527105,32.981 L6.57527105,35.2904118 L15.8642184,35.2904118 L22.64613,35.2904118 L31.4116386,35.2904118 L31.4116386,32.981 C24.1078078,32.981 23.3914033,32.3508823 24.6342853,27.9377647" id="Shape" fill="#7A7A7A"></path>
                    <path d="M35.6910727,0 L2.06488581,0 C0.922285274,0 0.000759707802,1.02852941 0.000759707802,2.17711765 L0.000759707802,25.7805294 C0.000759707802,26.9222353 0.922285274,27.9392941 2.06488581,27.9392941 L35.6910727,27.9392941 C36.831394,27.9392941 37.98615,26.9222353 37.98615,25.7805294 L37.98615,2.17711765 C37.98615,1.02547059 36.831394,0 35.6910727,0" id="Shape" fill="#A0A1A2"></path>
                    <path d="M35.7146236,0.00229411765 C35.7062668,0.00229411765 35.6986697,0.00076470588 35.6910727,0.00076470588 L2.06412611,0.00076470588 C0.921525564,0.00076470588 0,1.02852941 0,2.17788235 L0,25.7805294 C0,26.923 0.921525564,27.9400588 2.06412611,27.9400588 L2.86409842,27.9400588 L35.7146236,0.00229411765 Z" id="Shape" fill="#FFFFFF" opacity="0.2"></path>
                    <polygon id="Shape" fill="#59B4D9" points="35.0210104 2.94258823 35.0210104 24.9974706 2.87929258 24.9974706 2.87929258 2.94258823"></polygon>
                    <polygon id="Shape" fill="#59B4D9" points="2.87929258 24.9974706 2.92335563 24.9974706 2.92335563 2.94335294 32.3088536 2.899 32.310373 2.899 2.87929258 2.94335294"></polygon>
                    <rect id="Rectangle-path" fill="#A0A1A2" x="6.57527105" y="32.9802353" width="24.8363675" height="2.31017647"></rect>
                    <path d="M19.3862237,1.60205882 C19.3862237,1.90182353 19.1446366,2.145 18.8468312,2.145 C18.5482661,2.145 18.3081984,1.90182353 18.3081984,1.60205882 C18.3081984,1.30152941 18.5482661,1.05911764 18.8468312,1.05911764 C19.1446366,1.05911764 19.3862237,1.30152941 19.3862237,1.60205882" id="Shape" fill="#B8D432"></path>
                    <path d="M19.4074956,13.3012941 C19.3733087,13.3012941 19.3383621,13.2905882 19.3056947,13.2722353 L12.6172273,9.38600002 C12.5556909,9.34929412 12.5169458,9.2812353 12.5169458,9.20935297 C12.5169458,9.13670587 12.5556909,9.06941175 12.6172273,9.03347062 L19.2654302,5.17247059 C19.3277262,5.13729412 19.403697,5.13729412 19.4652334,5.17247059 L26.15598,9.06023527 C26.2182761,9.09617647 26.2555018,9.1634706 26.2555018,9.23611762 C26.2555018,9.30952942 26.2182761,9.37605885 26.15598,9.41199997 L19.5100561,13.2722353 C19.4773887,13.2905882 19.4447212,13.3012941 19.4074956,13.3012941" id="Shape" fill="#FFFFFF"></path>
                    <path d="M18.4464652,22.7469412 C18.4084798,22.7469412 18.374293,22.7377647 18.3446644,22.7194117 L11.6759492,18.8454118 C11.6113741,18.8094706 11.572629,18.7437058 11.572629,18.6687647 L11.572629,10.8947647 C11.572629,10.8213529 11.6113741,10.7548235 11.6759492,10.7181176 C11.7374856,10.680647 11.8134564,10.680647 11.8795509,10.7181176 L18.5475064,14.5905882 C18.6067636,14.6288235 18.6462684,14.6953529 18.6462684,14.7687647 L18.6462684,22.5427647 C18.6462684,22.6169412 18.6067636,22.6827058 18.5475064,22.7194117 C18.5140792,22.7377647 18.4791327,22.7469412 18.4464652,22.7469412" id="Shape" fill="#FFFFFF" opacity="0.7"></path>
                    <path d="M20.3343391,22.7469412 C20.2978732,22.7469412 20.2636863,22.7377647 20.2294994,22.7194117 C20.1702422,22.6827058 20.1314971,22.6169412 20.1314971,22.5427647 L20.1314971,14.8177059 C20.1314971,14.7458235 20.1702422,14.6785294 20.2294994,14.6410588 L26.8974548,10.7685882 C26.9612702,10.7318824 27.0357216,10.7318824 27.0980177,10.7685882 C27.1618331,10.8045294 27.2005782,10.8718235 27.2005782,10.9444706 L27.2005782,18.6687647 C27.2005782,18.7437058 27.1618331,18.8094706 27.0980177,18.8454118 L20.4323414,22.7194117 C20.404992,22.7377647 20.3692857,22.7469412 20.3343391,22.7469412" id="Shape" fill="#FFFFFF" opacity="0.4"></path>
                </g>
            </g>
            <g id="VirtualMachine-Copy-2" transform="translate(31.000000, 35.000000)">
                <g id="Layer_1">
                    <path d="M24.6342853,27.9377647 L23.7294733,27.9377647 L14.7725183,27.9377647 L14.305298,27.9377647 C15.5466605,32.3485882 13.8791019,32.981 6.57527105,32.981 L6.57527105,35.2904118 L15.8642184,35.2904118 L22.64613,35.2904118 L31.4116386,35.2904118 L31.4116386,32.981 C24.1078078,32.981 23.3914033,32.3508823 24.6342853,27.9377647" id="Shape" fill="#7A7A7A"></path>
                    <path d="M35.6910727,0 L2.06488581,0 C0.922285274,0 0.000759707802,1.02852941 0.000759707802,2.17711765 L0.000759707802,25.7805294 C0.000759707802,26.9222353 0.922285274,27.9392941 2.06488581,27.9392941 L35.6910727,27.9392941 C36.831394,27.9392941 37.98615,26.9222353 37.98615,25.7805294 L37.98615,2.17711765 C37.98615,1.02547059 36.831394,0 35.6910727,0" id="Shape" fill="#A0A1A2"></path>
                    <path d="M35.7146236,0.00229411765 C35.7062668,0.00229411765 35.6986697,0.00076470588 35.6910727,0.00076470588 L2.06412611,0.00076470588 C0.921525564,0.00076470588 0,1.02852941 0,2.17788235 L0,25.7805294 C0,26.923 0.921525564,27.9400588 2.06412611,27.9400588 L2.86409842,27.9400588 L35.7146236,0.00229411765 Z" id="Shape" fill="#FFFFFF" opacity="0.2"></path>
                    <polygon id="Shape" fill="#59B4D9" points="35.0210104 2.94258823 35.0210104 24.9974706 2.87929258 24.9974706 2.87929258 2.94258823"></polygon>
                    <polygon id="Shape" fill="#59B4D9" points="2.87929258 24.9974706 2.92335563 24.9974706 2.92335563 2.94335294 32.3088536 2.899 32.310373 2.899 2.87929258 2.94335294"></polygon>
                    <rect id="Rectangle-path" fill="#A0A1A2" x="6.57527105" y="32.9802353" width="24.8363675" height="2.31017647"></rect>
                    <path d="M19.3862237,1.60205882 C19.3862237,1.90182353 19.1446366,2.145 18.8468312,2.145 C18.5482661,2.145 18.3081984,1.90182353 18.3081984,1.60205882 C18.3081984,1.30152941 18.5482661,1.05911764 18.8468312,1.05911764 C19.1446366,1.05911764 19.3862237,1.30152941 19.3862237,1.60205882" id="Shape" fill="#B8D432"></path>
                    <path d="M19.4074956,13.3012941 C19.3733087,13.3012941 19.3383621,13.2905882 19.3056947,13.2722353 L12.6172273,9.38600002 C12.5556909,9.34929412 12.5169458,9.2812353 12.5169458,9.20935297 C12.5169458,9.13670587 12.5556909,9.06941175 12.6172273,9.03347062 L19.2654302,5.17247059 C19.3277262,5.13729412 19.403697,5.13729412 19.4652334,5.17247059 L26.15598,9.06023527 C26.2182761,9.09617647 26.2555018,9.1634706 26.2555018,9.23611762 C26.2555018,9.30952942 26.2182761,9.37605885 26.15598,9.41199997 L19.5100561,13.2722353 C19.4773887,13.2905882 19.4447212,13.3012941 19.4074956,13.3012941" id="Shape" fill="#FFFFFF"></path>
                    <path d="M18.4464652,22.7469412 C18.4084798,22.7469412 18.374293,22.7377647 18.3446644,22.7194117 L11.6759492,18.8454118 C11.6113741,18.8094706 11.572629,18.7437058 11.572629,18.6687647 L11.572629,10.8947647 C11.572629,10.8213529 11.6113741,10.7548235 11.6759492,10.7181176 C11.7374856,10.680647 11.8134564,10.680647 11.8795509,10.7181176 L18.5475064,14.5905882 C18.6067636,14.6288235 18.6462684,14.6953529 18.6462684,14.7687647 L18.6462684,22.5427647 C18.6462684,22.6169412 18.6067636,22.6827058 18.5475064,22.7194117 C18.5140792,22.7377647 18.4791327,22.7469412 18.4464652,22.7469412" id="Shape" fill="#FFFFFF" opacity="0.7"></path>
                    <path d="M20.3343391,22.7469412 C20.2978732,22.7469412 20.2636863,22.7377647 20.2294994,22.7194117 C20.1702422,22.6827058 20.1314971,22.6169412 20.1314971,22.5427647 L20.1314971,14.8177059 C20.1314971,14.7458235 20.1702422,14.6785294 20.2294994,14.6410588 L26.8974548,10.7685882 C26.9612702,10.7318824 27.0357216,10.7318824 27.0980177,10.7685882 C27.1618331,10.8045294 27.2005782,10.8718235 27.2005782,10.9444706 L27.2005782,18.6687647 C27.2005782,18.7437058 27.1618331,18.8094706 27.0980177,18.8454118 L20.4323414,22.7194117 C20.404992,22.7377647 20.3692857,22.7469412 20.3343391,22.7469412" id="Shape" fill="#FFFFFF" opacity="0.4"></path>
                </g>
            </g>
        </g>
    </g>
</svg>