<?xml version="1.0" encoding="UTF-8"?>
<svg width="90px" height="90px" viewBox="0 0 90 90" version="1.1" xmlns="http://www.w3.org/2000/svg" xmlns:xlink="http://www.w3.org/1999/xlink">
    <!-- Generator: Sketch 43.2 (39069) - http://www.bohemiancoding.com/sketch -->
    <title>resource</title>
    <desc>Created with Sketch.</desc>
    <defs>
        <linearGradient x1="0%" y1="50%" x2="100%" y2="50%" id="linearGradient-1">
            <stop stop-color="#005BA1" offset="0%"></stop>
            <stop stop-color="#0060A9" offset="7%"></stop>
            <stop stop-color="#0071C8" offset="36%"></stop>
            <stop stop-color="#0078D4" offset="52%"></stop>
            <stop stop-color="#0074CD" offset="64%"></stop>
            <stop stop-color="#006ABB" offset="82%"></stop>
            <stop stop-color="#005BA1" offset="100%"></stop>
        </linearGradient>
    </defs>
    <g id="Page-1" stroke="none" stroke-width="1" fill="none" fill-rule="evenodd">
        <g id="resource" fill-rule="nonzero">
            <g id="Layer_1" fill="#0078D7">
                <circle id="Oval-1" cx="45" cy="45" r="45"></circle>
            </g>
            <g id="10122-icon-service-Azure-Database-MySQL-Server" transform="translate(17.000000, 9.000000)">
                <path d="M28,20.56 C13.84,20.56 2.36,16.56 2.36,11.28 L2.36,60.72 C2.36,65.8 13.64,69.92 27.64,70 L28,70 C42.16,70 53.64,66 53.64,60.72 L53.64,11.28 C53.64,16.44 42.16,20.56 28,20.56 Z" id="Shape" fill="url(#linearGradient-1)"></path>
                <path d="M53.64,11.28 C53.64,16.44 42.16,20.56 28,20.56 C13.84,20.56 2.36,16.56 2.36,11.28 C2.36,6 13.84,2 28,2 C42.16,2 53.64,6 53.64,11.28" id="Shape" fill="#E8E8E8"></path>
                <path d="M47.68,10.52 C47.68,13.8 38.84,16.44 28,16.44 C17.16,16.44 8.32,13.8 8.32,10.52 C8.32,7.24 17.16,4.64 28,4.64 C38.84,4.64 47.68,7.28 47.68,10.52" id="Shape" fill="#50E6FF"></path>
                <path d="M28,12 C22.7211479,11.8651757 17.4582524,12.6363454 12.44,14.28 C17.4630199,15.8931284 22.7275166,16.6239326 28,16.44 C33.2831618,16.594763 38.5517752,15.8092114 43.56,14.12 C38.5274485,12.5523611 33.2685026,11.8358466 28,12 Z" id="Shape" fill="#198AB3"></path>
                <path d="M42.56,36 L42.56,42.52 L38.56,42.52 C38.1107207,42.5091361 37.6879524,42.305041 37.4,41.96 L37.4,36 L32,36 L32,43.12 C32.0291724,44.1330554 32.4748474,45.0892358 33.2319105,45.763022 C33.9889735,46.4368081 34.9904004,46.7685482 36,46.68 L41.96,46.68 L43,46.16 C43,46.16 42.56,47.8 41.96,47.88 L32.44,47.88 L32.44,51.88 L43.08,51.88 C44.4201649,51.9038144 45.7101969,51.3708022 46.6427022,50.4079715 C47.5752076,49.4451408 48.0666765,48.1387171 48,46.8 L48,36 L42.56,36 Z" id="Shape" fill="#F2F2F2"></path>
                <path d="M30.12,36 L30.12,36 L30.12,34.04 C30.322105,32.6813687 29.5088343,31.376747 28.2,30.96 C27.5525035,30.7563813 26.8787038,30.6485733 26.2,30.64 C24.6194039,30.5705 23.1643923,31.49787 22.56,32.96 L19.44,40.56 L15.44,32.96 C14.871153,31.5596117 13.5115116,30.6426443 12,30.64 C11.303832,30.6357319 10.6126567,30.757704 9.96,31 C8.56,31.44 8.24,32.36 8.24,33.92 L8.24,47.16 L12.92,47.16 L12.92,38.24 L15.44,44.52 C16.1182074,46.1267377 17.6960086,47.1680865 19.44,47.16 C21.2,47.16 21.92,46.12 22.64,44.52 L25.32,38.48 L25.32,47.08 L30.04,47.08 L30.04,36 L30.04,36 L30.12,36 Z" id="Shape" fill="#F2F2F2"></path>
            </g>
        </g>
    </g>
</svg>