<?xml version="1.0" encoding="UTF-8" standalone="no"?>
<svg width="90px" height="90px" viewBox="0 0 90 90" version="1.1" xmlns="http://www.w3.org/2000/svg" xmlns:xlink="http://www.w3.org/1999/xlink">
    <!-- Generator: Sketch 43.2 (39069) - http://www.bohemiancoding.com/sketch -->
    <title>blank</title>
    <desc>Created with Sketch.</desc>
    <defs></defs>
    <g id="Page-1" stroke="none" stroke-width="1" fill="none" fill-rule="evenodd">
        <g id="blank">
            <g id="Page-1">
                <g id="blank">
                    <g id="Page-1">
                        <g id="Compute-&amp;-Networking-copy_Amazon-EC2-Instance">
                            <g id="Layer_1" fill="#0078D7">
                                <circle id="Oval-1" cx="45" cy="45" r="45"></circle>
                            </g>
                            <g id="GatewayLocal" transform="translate(13.000000, 13.000000)" fill-rule="nonzero">
                                <path d="M32.3529412,64.7058824 C30.8,64.7058824 29.2470588,64.0588235 28.0823529,62.8941176 L1.81176471,36.6235294 C0.647058824,35.4588235 0,33.9058824 0,32.3529412 C0,30.8 0.647058824,29.2470588 1.81176471,28.0823529 L28.0823529,1.81176471 C29.2470588,0.647058824 30.8,0 32.3529412,0 C33.9058824,0 35.4588235,0.647058824 36.6235294,1.81176471 L63.0235294,28.2117647 C64.1882353,29.3764706 64.8352941,30.8 64.8352941,32.4823529 C64.8352941,34.0352941 64.1882353,35.5882353 63.0235294,36.7529412 L36.6235294,62.8941176 C35.4588235,64.0588235 33.9058824,64.7058824 32.3529412,64.7058824" id="Shape" fill="#7FBA00"></path>
                                <path d="M36.6235294,1.81176471 C35.4588235,0.647058824 33.9058824,0 32.3529412,0 C30.8,0 29.2470588,0.647058824 28.0823529,1.81176471 L1.81176471,28.0823529 C0.647058824,29.2470588 0,30.8 0,32.3529412 C0,33.9058824 0.647058824,35.4588235 1.81176471,36.6235294 L16.6941176,51.5058824 L44.7764706,9.96470588 L36.6235294,1.81176471 Z" id="Shape" fill="#FFFFFF" opacity="0.15"></path>
                                <polygon id="Shape" fill="#FFFFFF" points="32.3529412 5.69411765 23.8117647 14.2352941 29.8941176 14.2352941 29.8941176 26.6588235 34.9411765 26.6588235 34.9411765 14.2352941 40.8941176 14.2352941"></polygon>
                                <polygon id="Shape" fill="#FFFFFF" points="32.3529412 59.0117647 40.8941176 50.4705882 34.8117647 50.4705882 34.8117647 38.3058824 29.7647059 38.3058824 29.7647059 50.4705882 23.8117647 50.4705882"></polygon>
                                <polygon id="Shape" fill="#FFFFFF" points="36.3647059 32.3529412 44.9058824 40.8941176 44.9058824 34.9411765 56.4235294 34.9411765 56.4235294 29.7647059 44.9058824 29.7647059 44.9058824 23.8117647"></polygon>
                                <polygon id="Shape" fill="#FFFFFF" points="28.4705882 32.3529412 19.9294118 23.8117647 19.9294118 29.7647059 8.28235294 29.7647059 8.28235294 34.9411765 19.9294118 34.9411765 19.9294118 40.8941176"></polygon>
                            </g>
                        </g>
                    </g>
                </g>
            </g>
        </g>
    </g>
</svg>