<?xml version="1.0" encoding="UTF-8" standalone="no"?>
<svg width="90px" height="90px" viewBox="0 0 90 90" version="1.1" xmlns="http://www.w3.org/2000/svg" xmlns:xlink="http://www.w3.org/1999/xlink">
    <!-- Generator: Sketch 43.2 (39069) - http://www.bohemiancoding.com/sketch -->
    <title>blank</title>
    <desc>Created with Sketch.</desc>
    <defs></defs>
    <g id="Page-1" stroke="none" stroke-width="1" fill="none" fill-rule="evenodd">
        <g id="blank">
            <g id="Page-1">
                <g id="blank">
                    <g id="Page-1">
                        <g id="Compute-&amp;-Networking-copy_Amazon-EC2-Instance">
                            <g id="Layer_1">
                                <circle id="Oval-1" fill="#0078D7" cx="45" cy="45" r="45"></circle>
                                <g id="SQLDatabaseServer" transform="translate(20.000000, 20.000000)" fill-rule="nonzero">
                                    <path d="M0.5,7.288 L0.5,43.399 C0.5,47.148 8.892,50.188 19.243,50.188 L19.243,7.288 C19.243,7.288 0.5,7.288 0.5,7.288 Z" id="Shape" fill="#0072C6"></path>
                                    <path d="M18.986,50.187 L19.243,50.187 C29.594,50.187 37.986,47.149 37.986,43.399 L37.986,7.288 L18.986,7.288 L18.986,50.187 L18.986,50.187 Z" id="Shape" fill="#0072C6"></path>
                                    <path d="M18.986,50.187 L19.243,50.187 C29.594,50.187 37.986,47.149 37.986,43.399 L37.986,7.288 L18.986,7.288 L18.986,50.187 L18.986,50.187 Z" id="Shape" fill="#FFFFFF" opacity="0.15"></path>
                                    <path d="M37.986,7.288 C37.986,11.037 29.594,14.076 19.243,14.076 C8.892,14.076 0.5,11.037 0.5,7.288 C0.5,3.539 8.892,0.5 19.243,0.5 C29.594,0.5 37.986,3.539 37.986,7.288" id="Shape" fill="#FFFFFF"></path>
                                    <path d="M34.154,6.897 C34.154,9.372 27.478,11.376 19.243,11.376 C11.008,11.376 4.331,9.372 4.331,6.897 C4.331,4.423 11.008,2.418 19.243,2.418 C27.478,2.418 34.154,4.423 34.154,6.897" id="Shape" fill="#7FBA00"></path>
                                    <path d="M31.03,9.634 C32.982,8.877 34.155,7.929 34.155,6.899 C34.155,4.424 27.479,2.419 19.243,2.419 C11.008,2.419 4.332,4.424 4.332,6.899 C4.332,7.929 5.505,8.877 7.457,9.634 C10.183,8.576 14.443,7.893 19.243,7.893 C24.044,7.893 28.302,8.576 31.03,9.634" id="Shape" fill="#B8D432"></path>
                                    <path d="M13.29,31.354 C13.29,32.476 12.883,33.345 12.069,33.961 C11.255,34.577 10.131,34.885 8.696,34.885 C7.475,34.885 6.455,34.665 5.635,34.225 L5.635,31.585 C6.581,32.388 7.623,32.79 8.761,32.79 C9.311,32.79 9.736,32.68 10.036,32.46 C10.336,32.24 10.486,31.949 10.486,31.585 C10.486,31.228 10.342,30.917 10.053,30.653 C9.764,30.389 9.177,30.048 8.292,29.63 C6.488,28.784 5.586,27.628 5.586,26.166 C5.586,25.105 5.979,24.254 6.766,23.613 C7.552,22.973 8.597,22.652 9.9,22.652 C11.055,22.652 12.011,22.804 12.771,23.106 L12.771,25.572 C11.974,25.022 11.066,24.747 10.049,24.747 C9.538,24.747 9.134,24.855 8.837,25.072 C8.54,25.29 8.392,25.58 8.392,25.942 C8.392,26.316 8.511,26.623 8.751,26.862 C8.99,27.101 9.481,27.397 10.223,27.749 C11.329,28.272 12.116,28.802 12.587,29.341 C13.055,29.881 13.29,30.552 13.29,31.354 Z" id="Shape" fill="#FFFFFF"></path>
                                    <path d="M26.017,28.682 C26.017,30.073 25.7,31.281 25.068,32.303 C24.435,33.326 23.545,34.043 22.396,34.456 L25.827,37.632 L22.363,37.632 L19.913,34.885 C18.863,34.847 17.915,34.569 17.071,34.052 C16.227,33.536 15.575,32.827 15.116,31.928 C14.657,31.029 14.427,30.026 14.427,28.921 C14.427,27.695 14.676,26.602 15.173,25.642 C15.671,24.682 16.37,23.944 17.272,23.427 C18.174,22.911 19.207,22.652 20.374,22.652 C21.462,22.652 22.437,22.902 23.298,23.403 C24.158,23.903 24.826,24.615 25.302,25.539 C25.779,26.463 26.017,27.511 26.017,28.682 Z M23.213,28.831 C23.213,27.632 22.952,26.685 22.429,25.989 C21.906,25.293 21.192,24.945 20.284,24.945 C19.36,24.945 18.621,25.294 18.065,25.992 C17.51,26.691 17.232,27.62 17.232,28.78 C17.232,29.935 17.504,30.857 18.048,31.547 C18.593,32.237 19.315,32.582 20.217,32.582 C21.136,32.582 21.864,32.248 22.403,31.58 C22.943,30.913 23.213,29.996 23.213,28.831 Z" id="Shape" fill="#FFFFFF"></path>
                                    <polygon id="Shape" fill="#FFFFFF" points="35.016 34.679 27.972 34.679 27.972 22.851 30.636 22.851 30.636 32.518 35.016 32.518"></polygon>
                                    <path d="M35.755,49.584 L37.878,50.5 L38.102,50.235 L39.802,48.236 L41.521,48.246 L43.494,50.5 L45.629,49.613 L45.606,49.266 L45.421,46.623 L46.646,45.389 L49.603,45.557 L50.5,43.39 L50.242,43.161 L48.282,41.423 L48.294,39.667 L50.499,37.651 L49.633,35.472 L49.291,35.497 L46.703,35.683 L45.497,34.434 L45.661,31.414 L43.537,30.5 L43.313,30.765 L41.611,32.765 L39.891,32.754 L37.916,30.503 L35.782,31.387 L35.808,31.737 L35.989,34.377 L34.765,35.611 L31.81,35.443 L30.914,37.61 L31.173,37.839 L33.132,39.575 L33.12,41.331 L30.913,43.347 L31.78,45.526 L32.123,45.501 L34.71,45.315 L35.918,46.566 L35.755,49.584 Z M36.363,38.628 C37.375,36.176 40.141,35.028 42.54,36.063 C44.942,37.099 46.065,39.921 45.053,42.371 C44.04,44.822 41.273,45.969 38.874,44.936 C36.474,43.902 35.35,41.079 36.363,38.628 L36.363,38.628 Z" id="Shape" fill="#A0A1A2"></path>
                                </g>
                            </g>
                        </g>
                    </g>
                </g>
            </g>
        </g>
    </g>
</svg>