<?xml version="1.0" encoding="UTF-8" standalone="no"?>
<svg width="90px" height="90px" viewBox="0 0 90 90" version="1.1" xmlns="http://www.w3.org/2000/svg" xmlns:xlink="http://www.w3.org/1999/xlink">
    <!-- Generator: Sketch 41.2 (35397) - http://www.bohemiancoding.com/sketch -->
    <title>Compute-&amp;-Networking-copy_Amazon-EC2-Instance</title>
    <desc>Created with Sketch.</desc>
    <defs></defs>
    <g id="Page-1" stroke="none" stroke-width="1" fill="none" fill-rule="evenodd">
        <g id="blank">
            <g id="Page-1">
                <g id="blank">
                    <g id="Page-1">
                        <g id="Compute-&amp;-Networking-copy_Amazon-EC2-Instance">
                            <g id="Layer_1" fill="#0078D7">
                                <circle id="Oval-1" cx="45" cy="45" r="45"></circle>
                            </g>
                            <g id="security-groups" transform="translate(23.000000, 15.000000)">
                                <g id="Group">
                                    <path d="M37.9459459,7.32 L37.9459459,7.32 C24.5675676,5.856 22.2567568,0 22.2567568,0 C22.2567568,0 19.2162162,7.564 0,7.564 L0,38.796 C0,42.578 2.06756757,46.116 4.98648649,49.166 L4.98648649,49.166 C11.5540541,56.12 22.2567568,60.878 22.2567568,60.878 C22.2567568,60.878 44.5135135,51.118 44.5135135,38.796 L44.5135135,7.564 C42.0810811,7.564 39.8918919,7.442 37.9459459,7.32 Z" id="Shape" fill="#59B4D9"></path>
                                    <path d="M27.8513514,20.13 L37.9459459,7.32 C24.5675676,5.856 22.2567568,0 22.2567568,0 C22.2567568,0 19.2162162,7.564 0,7.564 L0,38.796 C0,42.578 2.06756757,46.116 4.98648649,49.166 L12.527027,39.65 L27.8513514,20.13 Z" id="Shape" fill="#3999C6" opacity="0.4"></path>
                                    <g transform="translate(3.648649, 6.100000)" id="Shape" fill="#FFFFFF">
                                        <path d="M0.972972973,23.668 L0.972972973,31.11 C0.972972973,34.16 2.67567568,36.966 4.98648649,39.406 C10.2162162,45.018 18.7297297,48.678 18.7297297,48.678 L18.7297297,23.668 L0.972972973,23.668 Z" opacity="0.3"></path>
                                        <path d="M18.6081081,48.678 C18.6081081,48.678 36.3648649,40.87 36.3648649,31.11 L36.3648649,23.668 L18.6081081,23.668 L18.6081081,48.678 Z" opacity="0.7"></path>
                                        <path d="M18.6081081,0.122 L18.6081081,0.122 C18.6081081,0.122 16.1756757,6.222 0.851351351,6.222 L0.851351351,23.668 L18.6081081,23.668 L18.6081081,0.122 Z" opacity="0.7"></path>
                                        <path d="M31.0135135,5.978 C20.4324324,4.758 18.6081081,0.244 18.6081081,0.244 L18.6081081,23.668 L36.3648649,23.668 L36.3648649,6.222 C34.4189189,6.222 32.5945946,6.1 31.0135135,5.978 Z" opacity="0.3"></path>
                                    </g>
                                </g>
                            </g>
                        </g>
                    </g>
                </g>
            </g>
        </g>
    </g>
</svg>