<?xml version="1.0" encoding="UTF-8" standalone="no"?>
<svg width="90px" height="90px" viewBox="0 0 90 90" version="1.1" xmlns="http://www.w3.org/2000/svg" xmlns:xlink="http://www.w3.org/1999/xlink">
    <!-- Generator: Sketch 41.2 (35397) - http://www.bohemiancoding.com/sketch -->
    <title>Compute-&amp;-Networking-copy_Amazon-EC2-Instance</title>
    <desc>Created with Sketch.</desc>
    <defs></defs>
    <g id="Page-1" stroke="none" stroke-width="1" fill="none" fill-rule="evenodd">
        <g id="blank">
            <g id="Page-1">
                <g id="blank">
                    <g id="Page-1">
                        <g id="Compute-&amp;-Networking-copy_Amazon-EC2-Instance">
                            <g id="Layer_1" fill="#0078D7">
                                <circle id="Oval-1" cx="45" cy="45" r="45"></circle>
                            </g>
                            <g id="UserDefinedRoute" transform="translate(20.000000, 20.000000)">
                                <g id="Layer_1">
                                    <path d="M43,15.9 C43,20.8 39.1,24.7 34.2,24.7 C29.3,24.7 25.4,20.8 25.4,15.9 C25.5,11 29.4,7.1 34.2,7.1 C39.1,7.1 43,11 43,15.9" id="Shape" fill="#59B4D9"></path>
                                    <polygon id="Shape" fill="#59B4D9" points="40.6 27.8 34.2 36.8 27.8 27.8 18.5 27.8 18.5 50 50 50 50 27.8"></polygon>
                                    <path d="M25.5,15.9 C25.5,20.7 29.4,24.6 34.1,24.7 L36.3,7.4 C35.6,7.1 34.9,7.1 34.2,7.1 C29.4,7.1 25.5,11 25.5,15.9" id="Shape" fill="#FFFFFF" opacity="0.2"></path>
                                    <polygon id="Shape" fill="#FFFFFF" opacity="0.2" points="27.8 27.8 18.5 27.8 18.5 50 30.9 50 32.8 34.7"></polygon>
                                    <polygon id="Shape" fill="#A0A1A2" points="5.6 18.4 10.5 23.6 6.5 23.6 0 16.9 6.5 10.2 10.5 10.2 5.6 15.3 20 15.3 20 18.4"></polygon>
                                    <polygon id="Shape" fill="#A0A1A2" points="20 0 20 18.4 16.9 18.4 16.9 0"></polygon>
                                </g>
                            </g>
                        </g>
                    </g>
                </g>
            </g>
        </g>
    </g>
</svg>