<?xml version="1.0" encoding="UTF-8"?>
<svg width="90px" height="90px" viewBox="0 0 90 90" version="1.1" xmlns="http://www.w3.org/2000/svg" xmlns:xlink="http://www.w3.org/1999/xlink">
    <!-- Generator: Sketch 43.2 (39069) - http://www.bohemiancoding.com/sketch -->
    <title>resource</title>
    <desc>Created with Sketch.</desc>
    <defs>
        <linearGradient x1="-0.0634771518%" y1="50.0652178%" x2="100.014524%" y2="50.049964%" id="linearGradient-1">
            <stop stop-color="#005BA1" offset="0%"></stop>
            <stop stop-color="#0060A9" offset="7%"></stop>
            <stop stop-color="#0071C8" offset="36%"></stop>
            <stop stop-color="#0078D4" offset="52%"></stop>
            <stop stop-color="#0074CD" offset="64%"></stop>
            <stop stop-color="#006ABB" offset="82%"></stop>
            <stop stop-color="#005BA1" offset="100%"></stop>
        </linearGradient>
    </defs>
    <g id="Page-1" stroke="none" stroke-width="1" fill="none" fill-rule="evenodd">
        <g id="resource" fill-rule="nonzero">
            <g id="Layer_1" fill="#0078D7">
                <circle id="Oval-1" cx="45" cy="45" r="45"></circle>
            </g>
            <g id="10131-icon-service-Azure-Database-PostgreSQL-Server" transform="translate(17.000000, 9.000000)">
                <path d="M28,20.56 C13.84,20.56 2.36,16.56 2.36,11.28 L2.36,60.72 C2.36,65.8 13.64,69.92 27.64,70 L28,70 C42.16,70 53.64,66 53.64,60.72 L53.64,11.28 C53.64,16.4 42.16,20.56 28,20.56 Z" id="Shape" fill="url(#linearGradient-1)"></path>
                <path d="M53.64,11.28 C53.64,16.4 42.16,20.56 28,20.56 C13.84,20.56 2.36,16.56 2.36,11.28 C2.36,6 13.84,2 28,2 C42.16,2 53.64,6 53.64,11.28" id="Shape" fill="#E8E8E8"></path>
                <path d="M47.64,10.52 C47.64,13.8 38.84,16.44 28,16.44 C17.16,16.44 8.32,13.8 8.32,10.56 C8.32,7.32 17.12,4.64 28,4.64 C38.88,4.64 47.64,7.28 47.64,10.52" id="Shape" fill="#50E6FF"></path>
                <path d="M28,12 C22.7082468,11.8684662 17.4327634,12.6394984 12.4,14.28 C17.4377005,15.8890764 22.7146191,16.6197267 28,16.44 C33.2815564,16.5683072 38.5455933,15.7834379 43.56,14.12 C38.5259954,12.558909 33.268151,11.8425446 28,12 L28,12 Z" id="Shape" fill="#198AB3"></path>
                <path d="M40,36 L40,37.68 C39.8412912,38.5125692 39.734419,39.3541877 39.68,40.2 C39.68,40.68 39.68,41.4 39.88,42.04 C40.08,42.68 39.88,43.12 39.88,43.48 C39.8640795,44.6960284 39.5184646,45.8849437 38.88,46.92 C38.8723905,47.0131782 38.8723905,47.1068218 38.88,47.2 L39.28,47.68 C41.0812456,44.6940409 42.5054362,41.4963299 43.52,38.16 L43.52,38.16 C44.64,34.36 44.76,31.64 43.88,30.48 C41.3018833,27.3135358 37.0992103,25.9649168 33.16,27.04 C34.5188209,27.7167108 35.7503164,28.6234162 36.8,29.72 C38.6651558,31.2999103 39.8180257,33.5624176 40,36 Z M38.76,36.32 C37.6973676,36.0604632 36.5770254,36.1880971 35.6,36.68 C34.44,37.4 34.8,38.88 35.6,40.68 C35.9991588,41.8399691 36.4666434,42.9752888 37,44.08 L37.36,44.72 L37.36,44.72 C37.56,45.04 37.68,45.32 37.8,45.52 L38.12,46.04 C38.588124,45.2532864 38.8367557,44.3554495 38.84,43.44 C38.8654058,43.0003667 38.8654058,42.5596333 38.84,42.12 C38.84,41.44 38.84,40.68 38.64,40.16 C38.6941562,39.2346687 38.8009961,38.3131751 38.96,37.4 C38.84,36.96 38.88,36.52 38.92,36.2 L38.76,36.32 Z M37.56,37.96 C37.3590192,38.1538809 37.1107944,38.2917836 36.84,38.36 L36.84,38.36 C36.6554817,38.4000517 36.4645183,38.4000517 36.28,38.36 C36.0741755,38.1635878 35.970801,37.8829998 36,37.6 L36,37.6 C36,37.32 36.44,37.08 36.96,37 L37.72,37 C37.72,37 38.08,37 38.08,37.32 C38.0365184,37.5354232 37.9063306,37.7234722 37.72,37.84 L37.56,37.96 Z M18.8,41.52 L18.8,40.84 C18.8193016,40.6137442 18.8193016,40.3862558 18.8,40.16 C18.6796352,38.8293831 18.6796352,37.4906169 18.8,36.16 C19.0381417,34.653917 19.4405415,33.1784511 20,31.76 C20.4718223,30.3439631 21.2660119,29.0568282 22.32,28 C20.567529,27.4764249 18.7489987,27.207013 16.92,27.2 C15.364176,27.132218 13.8259898,27.5517233 12.52,28.4 C10.4899647,30.2358125 9.5393517,32.9820278 10,35.68 C10.3852582,38.7225943 11.0548534,41.7223808 12,44.64 C13.36,49.2 14.92,52 16.28,52.44 L16.28,52.44 C16.88,52.64 17.52,52.44 18.16,51.6 C19.28,50.24 20.32,49.08 20.92,48.4 C19.1073964,46.5583831 18.3672793,43.9151077 18.96,41.4 L18.8,41.52 Z M19.84,43.12 C19.8228067,43.8739031 19.9034798,44.6268519 20.08,45.36 C20.3234344,46.0018398 20.6752059,46.5971455 21.12,47.12 C21.5141691,47.5446589 21.990457,47.8848645 22.52,48.12 C23.0159454,48.321532 23.5447645,48.4300077 24.08,48.44 C24.08,47.76 24.64,46.92 25,46.04 C25.3363371,45.2745367 25.6170644,44.4858266 25.84,43.68 C25.9644861,42.2026177 25.9644861,40.7173823 25.84,39.24 C25.84,38.88 25.84,38.48 25.6,38.04 C25.5661152,37.6362364 25.3969945,37.2557148 25.12,36.96 L25.12,36.96 C24.8053317,36.6573361 24.4205112,36.4374387 24,36.32 L23.2,36.32 C22.5340537,36.4022213 21.8857281,36.5913163 21.28,36.88 C20.8306396,37.0929998 20.4021182,37.3474344 20,37.64 L20,38.08 L20,40.52 L20,40.52 C20.0174752,40.7196183 20.0174752,40.9203817 20,41.12 L20,42.68 L20,42.68 L19.84,43.12 Z M22.48,37.76 L22.48,37.76 C22.8442629,37.6436162 23.2357371,37.6436162 23.6,37.76 C23.8649389,37.7970833 24.1218133,37.8782015 24.36,38 C24.72,38 24.76,38.44 24.72,38.56 L24.72,38.56 C24.6044041,38.7695984 24.4396959,38.9480323 24.24,39.08 C24.1538578,39.0365104 24.0732758,38.9827891 24,38.92 L24,38.92 C23.4253536,38.8250133 22.9749867,38.3746464 22.88,37.8 L22.48,37.76 Z M25.44,49.76 C25.2455466,49.7826371 25.0633838,49.8667122 24.92,50 L24.36,50.68 C23.68,51.52 23.4,51.8 21.44,52.2 C21.0634064,52.236268 20.7038367,52.374564 20.4,52.6 C20.6819211,52.8185146 21.0104307,52.9690815 21.36,53.04 C22.2965573,53.3400334 23.3034427,53.3400334 24.24,53.04 C24.805526,52.767027 25.3305149,52.4170344 25.8,52 C26.1882591,51.6791444 26.4677093,51.2459966 26.6,50.76 C26.6342614,50.3464726 26.488473,49.9382651 26.2,49.64 C26.0290919,49.50701 25.799782,49.4764354 25.6,49.56 L25.44,49.76 Z M43.88,49.76 C42.4215314,50.2989562 40.8184686,50.2989562 39.36,49.76 C39.1783133,49.6990215 38.9816867,49.6990215 38.8,49.76 C38.510537,49.8537114 38.2674777,50.0538779 38.12,50.32 C38.0609231,50.7312224 38.0609231,51.1487776 38.12,51.56 C39.5923429,51.8910778 41.1314964,51.7511547 42.52,51.16 C43.2515471,50.8521559 43.9068731,50.3879667 44.44,49.8 L43.88,49.76 Z M34.28,41.2 C33.72,39.56 32.92,37.2 35,35.76 C36.0826884,35.1574983 37.3396404,34.9456525 38.56,35.16 C38.0367713,33.464928 37.1647656,31.8980428 36,30.56 L35.6,30.16 L35.36,29.92 L35.36,29.92 C35.2903357,29.830292 35.209708,29.7496643 35.12,29.68 L35.12,29.68 L35.12,29.68 C34.3284413,28.9720194 33.4221705,28.4039094 32.44,28 C31.0413851,27.3879751 29.5263205,27.0876921 28,27.12 C27.0450365,27.0440309 26.0856359,27.1947939 25.2,27.56 C24.7875524,27.6701877 24.3859163,27.8174543 24,28 C22.6319858,29.0037766 21.6000282,30.3983138 21.04,32 C20.6436685,33.3062298 20.3625929,34.6446851 20.2,36 C21.4027143,35.2785957 22.8029664,34.9565377 24.2,35.08 C25.0923315,35.1512419 25.9193445,35.5756153 26.4975732,36.2589765 C27.0758019,36.9423377 27.357437,37.8281847 27.28,38.72 C27.4283927,40.4100823 27.4283927,42.1099177 27.28,43.8 C27.0468343,44.6650401 26.739012,45.5082054 26.36,46.32 C26.12,47 25.8,47.72 25.64,48.28 C26.2029697,48.2439463 26.7549848,48.4473203 27.16,48.84 C27.7171641,49.3977439 27.9959122,50.1753042 27.92,50.96 L28,50.96 L28,51.92 C27.7028314,55.2047581 28.0285363,58.516091 28.96,61.68 C29.1881387,62.0502599 29.5227328,62.3430298 29.92,62.52 C30.2885409,62.7651248 30.7176898,62.9035599 31.16,62.92 C32.6257139,63.053151 34.0792052,62.558964 35.16,61.56 C35.8461087,60.8444735 36.2570092,59.9093207 36.32,58.92 C36.6,57.12 37.2,52.12 37.28,50.92 L37.28,50.92 C37.2092799,50.3099557 37.3354185,49.6932781 37.64,49.16 C37.8985689,48.7414343 38.274006,48.4077124 38.72,48.2 C36.8293323,46.0929051 35.3746823,43.6322354 34.44,40.96 L34.28,41.2 Z" id="Shape" fill="#F2F2F2"></path>
            </g>
        </g>
    </g>
</svg>