<?xml version="1.0" encoding="UTF-8"?>
<svg width="90px" height="90px" viewBox="0 0 90 90" version="1.1" xmlns="http://www.w3.org/2000/svg" xmlns:xlink="http://www.w3.org/1999/xlink">
    <!-- Generator: Sketch 43.2 (39069) - http://www.bohemiancoding.com/sketch -->
    <title>resource</title>
    <desc>Created with Sketch.</desc>
    <defs></defs>
    <g id="Page-1" stroke="none" stroke-width="1" fill="none" fill-rule="evenodd">
        <g id="resource" fill-rule="nonzero">
            <g id="Layer_1" fill="#0078D7">
                <circle id="Oval-1" cx="45" cy="45" r="45"></circle>
            </g>
            <g id="00039-icon-service-Event-Hubs" transform="translate(18.000000, 20.000000)">
                <path d="M33.295,22.65125 C33.3133457,23.0973607 32.9772893,23.4779114 32.535,23.511875 L25.9166667,23.511875 C25.4734717,23.5303414 25.0954082,23.1920741 25.0616667,22.746875 L25.0616667,17.774375 C25.0433209,17.3282643 25.3793773,16.9477136 25.8216667,16.91375 L32.44,16.91375 C32.883195,16.8952836 33.2612584,17.2335509 33.295,17.67875 L33.295,22.65125 L33.295,22.65125 Z" id="Shape" fill="#76BC2D"></path>
                <path d="M45.0433333,27.6875 C45.0616791,28.1336107 44.7256227,28.5141614 44.2833333,28.548125 L37.665,28.548125 C37.221805,28.5665914 36.8437416,28.2283241 36.81,27.783125 L36.81,22.8425 C36.7916543,22.3963893 37.1277107,22.0158386 37.57,21.981875 L44.1883333,21.981875 C44.6315283,21.9634086 45.0095918,22.3016759 45.0433333,22.746875 L45.0433333,27.6875 L45.0433333,27.6875 Z" id="Shape" fill="#76BC2D"></path>
                <path d="M33.295,32.7875 C33.3133457,33.2336107 32.9772893,33.6141614 32.535,33.648125 L25.9166667,33.648125 C25.4734717,33.6665914 25.0954082,33.3283241 25.0616667,32.883125 L25.0616667,27.910625 C25.0433209,27.4645143 25.3793773,27.0839636 25.8216667,27.05 L32.44,27.05 C32.883195,27.0315336 33.2612584,27.3698009 33.295,27.815 L33.295,32.7875 L33.295,32.7875 Z" id="Shape" fill="#76BC2D"></path>
                <path d="M21.5466667,17.615 C21.5650462,18.0435385 21.2431333,18.4098341 20.8183333,18.44375 L14.01,18.44375 C13.5779394,18.4633507 13.2044652,18.1431129 13.155,17.710625 L13.155,12.546875 C13.1698989,12.1252524 13.4970898,11.7821864 13.915,11.75 L20.5333333,11.75 C21.23,11.75 21.5466667,12.100625 21.5466667,12.610625 L21.5466667,17.615 Z" id="Shape" fill="#86D633"></path>
                <path d="M21.5466667,27.6875 C21.5641527,27.898997 21.4971015,28.108778 21.3603782,28.2703352 C21.2236548,28.4318925 21.0285556,28.5318779 20.8183333,28.548125 L14.01,28.548125 C13.7805972,28.557191 13.5578522,28.469433 13.3955149,28.3060278 C13.2331777,28.1426225 13.1459933,27.918412 13.155,27.6875 L13.155,22.65125 C13.1537228,22.2173266 13.485188,21.855877 13.915,21.8225 L20.5333333,21.8225 C21.23,21.8225 21.5466667,22.173125 21.5466667,22.65125 L21.5466667,27.6875 Z" id="Shape" fill="#76BC2D"></path>
                <path d="M21.5466667,37.855625 C21.5641527,38.067122 21.4971015,38.276903 21.3603782,38.4384602 C21.2236548,38.6000175 21.0285556,38.7000029 20.8183333,38.71625 L14.01,38.71625 C13.566805,38.7347164 13.1887416,38.3964491 13.155,37.95125 L13.155,32.7875 C13.1464314,32.5761106 13.2217265,32.3699679 13.3642891,32.214509 C13.5068518,32.0590501 13.7049788,31.9670367 13.915,31.95875 L20.5333333,31.95875 C21.23,31.95875 21.5466667,32.2775 21.5466667,32.7875 L21.5466667,37.855625 Z" id="Shape" fill="#76BC2D"></path>
                <g id="Group" fill="#999999">
                    <path d="M2.38833333,0.625625 L6.47333333,0.625625 L6.47333333,12.100625 C6.47333333,12.6111432 6.0621815,13.025 5.555,13.025 L1.50166667,13.025 C0.994485171,13.025 0.583333333,12.6111432 0.583333333,12.100625 L0.583333333,2.538125 C0.557246545,2.03991578 0.73583579,1.55282932 1.07720753,1.19112658 C1.41857927,0.829423831 1.89269387,0.624933497 2.38833333,0.625625 L2.38833333,0.625625 Z" id="Shape"></path>
                    <path d="M2.38833333,0.625625 L6.47333333,0.625625 L6.47333333,12.100625 C6.47333333,12.6111432 6.0621815,13.025 5.555,13.025 L1.50166667,13.025 C0.994485171,13.025 0.583333333,12.6111432 0.583333333,12.100625 L0.583333333,2.538125 C0.557246545,2.03991578 0.73583579,1.55282932 1.07720753,1.19112658 C1.41857927,0.829423831 1.89269387,0.624933497 2.38833333,0.625625 L2.38833333,0.625625 Z" id="Shape" opacity="0.5"></path>
                </g>
                <g id="Group" transform="translate(47.500000, 0.000000)" fill="#999999">
                    <path d="M1.02666667,0.625625 L5.11166667,0.625625 C6.10854064,0.625625 6.91666667,1.43906765 6.91666667,2.4425 L6.91666667,12.005 C6.91666667,12.5155182 6.50551483,12.929375 5.99833333,12.929375 L1.91333333,12.929375 C1.40615184,12.929375 0.995,12.5155182 0.995,12.005 L0.995,0.625625 L1.02666667,0.625625 Z" id="Shape"></path>
                    <path d="M1.02666667,0.625625 L5.11166667,0.625625 C6.10854064,0.625625 6.91666667,1.43906765 6.91666667,2.4425 L6.91666667,12.005 C6.91666667,12.5155182 6.50551483,12.929375 5.99833333,12.929375 L1.91333333,12.929375 C1.40615184,12.929375 0.995,12.5155182 0.995,12.005 L0.995,0.625625 L1.02666667,0.625625 Z" id="Shape" opacity="0.5"></path>
                </g>
                <path d="M26.4233333,-23.5675 L30.3816667,-23.5675 L30.3816667,30.62 L26.4233333,30.62 C25.4264594,30.62 24.6183333,29.8065574 24.6183333,28.803125 L24.6183333,-21.7825 C24.6356077,-22.7734625 25.4386962,-23.5676525 26.4233333,-23.5675 L26.4233333,-23.5675 Z" id="Shape" fill="#949494" transform="translate(27.500000, 3.526250) rotate(90.000000) translate(-27.500000, -3.526250) "></path>
                <g id="Group" transform="translate(0.000000, 36.062500)" fill="#999999">
                    <path d="M1.50166667,0.4225 L5.58666667,0.4225 C6.09384816,0.4225 6.505,0.836356784 6.505,1.346875 L6.505,12.821875 L2.38833333,12.821875 C1.39145936,12.821875 0.583333333,12.0084324 0.583333333,11.005 L0.583333333,1.1875 C0.661098102,0.739996696 1.05038871,0.415705606 1.50166667,0.4225 Z" id="Shape"></path>
                    <path d="M1.50166667,0.4225 L5.58666667,0.4225 C6.09384816,0.4225 6.505,0.836356784 6.505,1.346875 L6.505,12.821875 L2.38833333,12.821875 C1.39145936,12.821875 0.583333333,12.0084324 0.583333333,11.005 L0.583333333,1.1875 C0.661098102,0.739996696 1.05038871,0.415705606 1.50166667,0.4225 Z" id="Shape" opacity="0.5"></path>
                </g>
                <g id="Group" transform="translate(48.500000, 36.062500)" fill="#999999">
                    <path d="M0.913333333,0.4225 L4.99833333,0.4225 C5.50551483,0.4225 5.91666667,0.836356784 5.91666667,1.346875 L5.91666667,10.909375 C5.91666667,11.9128074 5.10854064,12.72625 4.11166667,12.72625 L0.0266666667,12.72625 L0.0266666667,1.1875 C0.102341177,0.751819131 0.47401846,0.431142679 0.913333333,0.4225 Z" id="Shape"></path>
                    <path d="M0.913333333,0.4225 L4.99833333,0.4225 C5.50551483,0.4225 5.91666667,0.836356784 5.91666667,1.346875 L5.91666667,10.909375 C5.91666667,11.9128074 5.10854064,12.72625 4.11166667,12.72625 L0.0266666667,12.72625 L0.0266666667,1.1875 C0.102341177,0.751819131 0.47401846,0.431142679 0.913333333,0.4225 Z" id="Shape" opacity="0.5"></path>
                </g>
                <path d="M26.4233333,18.89 L30.3816667,18.89 L30.3816667,73.0775 L26.4233333,73.0775 C25.4264594,73.0775 24.6183333,72.2640574 24.6183333,71.260625 L24.6183333,20.706875 C24.6183333,19.7034426 25.4264594,18.89 26.4233333,18.89 L26.4233333,18.89 Z" id="Shape" fill="#949494" transform="translate(27.500000, 45.983750) rotate(-90.000000) translate(-27.500000, -45.983750) "></path>
            </g>
        </g>
    </g>
</svg>