<?xml version="1.0" encoding="UTF-8"?>
<svg width="90px" height="90px" viewBox="0 0 90 90" version="1.1" xmlns="http://www.w3.org/2000/svg" xmlns:xlink="http://www.w3.org/1999/xlink">
    <!-- Generator: Sketch 43.2 (39069) - http://www.bohemiancoding.com/sketch -->
    <title>resource</title>
    <desc>Created with Sketch.</desc>
    <defs>
        <radialGradient cx="51.3513377%" cy="51.1058416%" fx="51.3513377%" fy="51.1058416%" r="100.186375%" gradientTransform="translate(0.513513,0.511058),scale(1.000000,0.999766),translate(-0.513513,-0.511058)" id="radialGradient-1">
            <stop stop-color="#5EA0EF" offset="18%"></stop>
            <stop stop-color="#0078D4" offset="100%"></stop>
        </radialGradient>
    </defs>
    <g id="Page-1" stroke="none" stroke-width="1" fill="none" fill-rule="evenodd">
        <g id="resource" fill-rule="nonzero">
            <g id="Layer_1" fill="#0078D7">
                <circle id="Oval-1" cx="45" cy="45" r="45"></circle>
            </g>
            <g id="10064-icon-service-DNS-Zones" transform="translate(7.000000, 7.000000)">
                <path d="M61.4947531,67.1592593 C45.1143965,79.8589102 21.5403926,76.8751089 8.84074137,60.4947526 C-3.8589099,44.1143963 -0.875109155,20.5403924 15.5052469,7.84074074 L15.9024691,7.57592593 C32.3662616,-4.71342356 55.6522819,-1.47436532 68.1370944,14.8417013 C80.6219069,31.157768 77.6607734,54.4807594 61.4947531,67.1592593" id="f57e105d-6d2d-4ad7-b8c3-c10684c9f9b8" fill="url(#radialGradient-1)"></path>
                <path d="M38.5,3.5595679 C19.7552169,3.5595679 4.5595679,18.7552169 4.5595679,37.5 C4.5595679,56.2447831 19.7552169,71.4404321 38.5,71.4404321 C57.2447831,71.4404321 72.4404321,56.2447831 72.4404321,37.5 C72.4161171,18.7652978 57.2347022,3.58388293 38.5,3.5595679 L38.5,3.5595679 Z M61.2299383,14.9907407 C58.2705558,16.6557724 55.0687122,17.8471561 51.7407407,18.5216049 C50.5890356,14.2659182 48.723567,10.2365062 46.2237654,6.60493827 C51.901244,7.96848695 57.0932868,10.8699226 61.2299383,14.9907407 L61.2299383,14.9907407 Z M38.5,5.45740741 C40.1118371,5.45628541 41.7209783,5.58915028 43.3108025,5.85462963 L43.3108025,5.85462963 C46.5389174,9.69754334 48.8483674,14.2258766 50.0635802,19.0953704 C42.1117637,20.5523427 33.9613845,20.5523427 26.0095679,19.0953704 C27.2215109,14.3218423 29.5001493,9.88528801 32.6740741,6.11944444 L32.6740741,6.11944444 C34.5920451,5.72311495 36.5420053,5.50152857 38.5,5.45740741 L38.5,5.45740741 Z M29.6728395,6.60493827 C27.1427354,10.1987567 25.2469072,14.199402 24.0675926,18.4333333 C21.0864285,17.8281349 18.2431836,16.6758725 15.6817901,15.0348765 C19.5500962,11.0775224 24.3664631,8.17554738 29.6728395,6.60493827 L29.6728395,6.60493827 Z M15.1962963,59.5679012 C17.5854861,57.9743827 20.2491224,56.8370997 23.0524691,56.2135802 C24.1469576,60.5990615 26.1798189,64.6949006 29.0108025,68.2185185 C23.7364416,66.5758003 18.9772031,63.5955742 15.1962963,59.5679012 L15.1962963,59.5679012 Z M43.4873457,69.2777778 C41.8346254,69.4989748 40.1668513,69.5875292 38.5,69.5425926 C36.3640094,69.5477078 34.2335245,69.3257823 32.1444444,68.8805556 L32.1444444,68.8805556 C28.4502103,65.2791922 25.8884074,60.6771511 24.7737654,55.6398148 C33.3364685,53.895668 42.1629142,53.895668 50.7256173,55.6398148 C49.5863273,60.6873476 46.9932124,65.2905101 43.2666667,68.8805556 L43.4873457,69.2777778 Z M46.7092593,68.5716049 C49.6274022,64.9527215 51.7074954,60.7322426 52.8,56.2135802 C55.9220361,56.9464687 58.9035871,58.1838124 61.6271605,59.8768519 C57.5407631,64.0448322 52.3756612,66.994136 46.7092593,68.3950617 L46.7092593,68.5716049 Z M53.241358,54.3598765 C53.5944444,52.7709877 53.9033951,51.137963 54.1240741,49.4166667 L52.0938272,49.9021605 C51.8731481,51.2703704 51.6524691,52.6385802 51.3435185,53.9185185 C42.475323,52.1089247 33.3330103,52.1089247 24.4648148,53.9185185 C24.1558642,52.7268519 23.9351852,51.4469136 23.7145062,50.1228395 C23.6930872,49.9912983 23.6930872,49.8571585 23.7145062,49.7256173 L21.6842593,49.1518519 C21.659801,49.563423 21.659801,49.9760832 21.6842593,50.3876543 C21.6842593,51.8 22.1697531,53.1240741 22.4345679,54.4040123 C19.2852761,55.0971848 16.2921274,56.369273 13.6074074,58.1555556 C3.54829756,46.0873964 3.75413839,28.4973618 14.0929012,16.6679012 C16.8998823,18.4747911 20.0097433,19.760599 23.2731481,20.4635802 C22.9641975,21.5228395 22.6993827,22.6703704 22.4787037,23.8179012 C22.2580247,24.9654321 22.4787037,24.9212963 22.1256173,25.4509259 L24.2,24.9654321 L24.2,24.2151235 C24.4648148,23.0675926 24.7296296,21.9641975 25.0385802,20.9049383 C29.4774473,21.7192942 33.9883924,22.0742538 38.5,21.9641975 C42.6167003,21.9640001 46.724409,21.5798259 50.7697531,20.8166667 C51.0787037,22.0083333 51.3876543,23.2882716 51.6524691,24.5682099 L53.682716,25.0537037 C53.3590535,23.4648148 53.0059671,21.9936214 52.6234568,20.6401235 C56.20085,19.8548986 59.6284659,18.4987549 62.7746914,16.6237654 C73.3150462,28.5584024 73.4281123,46.4416828 63.0395062,58.508642 C60.0354987,56.5443428 56.7236001,55.097252 53.241358,54.2274691 L53.241358,54.3598765 Z" id="Shape" fill="#5EA0EF"></path>
                <path d="M15.0638889,28.6728395 C16.7595168,28.4298598 18.4707115,28.3118464 20.183642,28.3197531 C22.8991102,28.102676 25.5959485,28.9227672 27.7308642,30.6148148 C29.4435201,32.3162939 30.3845654,34.6449825 30.3348765,37.058642 C30.4714979,39.7390458 29.4976313,42.3573101 27.6425926,44.2969136 C25.3613827,46.2294969 22.4159921,47.1954583 19.4333333,46.9891975 C17.9592189,46.9960706 16.4858298,46.9224012 15.0197531,46.7685185 L15.0638889,28.6728395 Z M17.491358,45.1354938 C18.299556,45.1911892 19.1106292,45.1911892 19.9188272,45.1354938 C22.0963776,45.3822814 24.2668391,44.6168252 25.807824,43.0586225 C27.3488089,41.5004199 28.0901024,39.3215876 27.8191358,37.1469136 C28.0024723,35.1279818 27.2506981,33.1363373 25.7790185,31.7421145 C24.307339,30.3478918 22.2779952,29.7047929 20.2719136,29.9969136 C19.3473611,29.9045847 18.4159105,29.9045847 17.491358,29.9969136 L17.491358,45.1354938 Z" id="Shape" fill="#FFFFFF"></path>
                <path d="M33.4685185,46.8126543 L33.4685185,28.2314815 L36.0725309,28.2314815 L42.0308642,37.5 C43.2775737,39.4414622 44.3979978,41.4611742 45.3851852,43.5466049 L45.3851852,43.5466049 C45.1645062,41.075 45.1203704,38.8240741 45.1203704,35.9111111 L45.1203704,28.2314815 L47.3271605,28.2314815 L47.3271605,46.8126543 L44.8996914,46.8126543 L39.0737654,37.5 C37.7938272,35.4256173 36.5580247,33.0864198 35.587037,31.3209877 L35.587037,31.3209877 L35.587037,39.0006173 L35.587037,46.9450617 L33.4685185,46.8126543 Z" id="Shape" fill="#FFFFFF"></path>
                <path d="M51.2552469,43.8996914 C52.5962676,44.6776004 54.1185139,45.0886069 55.6688272,45.091358 C58.1404321,45.091358 59.5527778,43.8114198 59.5527778,41.9135802 C59.5527778,40.0157407 58.5817901,39.1771605 56.0660494,38.2503086 C53.5503086,37.3234568 51.1228395,35.6021605 51.1228395,32.9540123 C51.2089761,31.465687 51.9083066,30.0796818 53.0542684,29.1261077 C54.2002302,28.1725337 55.6902504,27.7367433 57.1694444,27.9225309 C58.5887349,27.8823702 59.9967695,28.1851734 61.2740741,28.8052469 L60.5679012,30.791358 C59.486059,30.1993497 58.2701959,29.895384 57.037037,29.908642 C54.4771605,29.908642 53.5061728,31.4092593 53.5061728,32.6891975 C53.5061728,33.9691358 54.6537037,35.2932099 57.2135802,36.2641975 C59.7734568,37.2351852 61.9802469,39.0006173 61.9802469,41.737037 C61.9802469,44.4734568 59.8617284,47.0774691 55.4481481,47.0774691 C53.7973436,47.0958527 52.1700585,46.6852293 50.7256173,45.8858025 L51.2552469,43.8996914 Z" id="Shape" fill="#FFFFFF"></path>
            </g>
        </g>
    </g>
</svg>