<?xml version="1.0" encoding="UTF-8"?>
<svg width="90px" height="90px" viewBox="0 0 90 90" version="1.1" xmlns="http://www.w3.org/2000/svg" xmlns:xlink="http://www.w3.org/1999/xlink">
    <!-- Generator: Sketch 43.2 (39069) - http://www.bohemiancoding.com/sketch -->
    <title>resource</title>
    <desc>Created with Sketch.</desc>
    <defs>
        <linearGradient x1="0%" y1="50%" x2="100%" y2="50%" id="linearGradient-1">
            <stop stop-color="#005BA1" offset="0%"></stop>
            <stop stop-color="#0060A9" offset="7%"></stop>
            <stop stop-color="#0071C8" offset="36%"></stop>
            <stop stop-color="#0078D4" offset="52%"></stop>
            <stop stop-color="#0074CD" offset="64%"></stop>
            <stop stop-color="#006ABB" offset="82%"></stop>
            <stop stop-color="#005BA1" offset="100%"></stop>
        </linearGradient>
    </defs>
    <g id="Page-1" stroke="none" stroke-width="1" fill="none" fill-rule="evenodd">
        <g id="resource" fill-rule="nonzero">
            <g id="Layer_1" fill="#0078D7">
                <circle id="Oval-1" cx="45" cy="45" r="45"></circle>
            </g>
            <g id="10123-icon-service-Azure-Database-MariaDB-Server" transform="translate(17.000000, 8.000000)">
                <path d="M28,20.862069 C12.6306928,20.862069 0.170265795,16.5517241 0.170265795,10.862069 L0.170265795,64.137931 C0.170265795,69.612069 12.4136122,74.0517241 27.6092549,74.137931 L28,74.137931 C43.3693072,74.137931 55.8297342,69.8275862 55.8297342,64.137931 L55.8297342,10.862069 C55.8297342,16.4224138 43.3693072,20.862069 28,20.862069 Z" id="Shape" fill="url(#linearGradient-1)"></path>
                <path d="M55.8297342,10.862069 C55.8297342,16.4224138 43.3693072,20.862069 28,20.862069 C12.6306928,20.862069 0.170265795,16.5517241 0.170265795,10.862069 C0.170265795,5.17241379 12.6306928,0.862068966 28,0.862068966 C43.3693072,0.862068966 55.8297342,5.17241379 55.8297342,10.862069" id="Shape" fill="#E8E8E8"></path>
                <path d="M49.360732,10.0431034 C49.360732,13.5775862 39.7657691,16.4224138 28,16.4224138 C16.2342309,16.4224138 6.63926797,13.5775862 6.63926797,10.0431034 C6.63926797,6.50862069 16.2342309,3.70689655 28,3.70689655 C39.7657691,3.70689655 49.360732,6.55172414 49.360732,10.0431034" id="Shape" fill="#50E6FF"></path>
                <path d="M28,11.637931 C22.2703178,11.4926462 16.557955,12.3236481 11.1111285,14.0948276 C16.5631297,15.8331125 22.2772305,16.620617 28,16.4224138 C33.73436,16.5891843 39.452929,15.7426847 44.8888715,13.9224138 C39.4265247,12.2331477 33.7184488,11.4610416 28,11.637931 Z" id="Shape" fill="#198AB3"></path>
                <path d="M50.7934641,25.9482759 C49.360732,25.9482759 51.0539608,27.0258621 45.9742745,27.2413793 C40.8945882,27.4568966 39.1145272,32.6293103 35.814902,36.9827586 C32.3100084,40.4404254 27.7081147,42.5877388 22.7900654,43.0603448 C19.4841709,44.120644 16.617916,46.2245811 14.6278344,49.0517241 C14.0502306,50.2699534 12.8894496,51.1139803 11.5452898,51.2931034 C10.3730545,51.2931034 7.81150327,51.637931 7.81150327,51.637931 C6.74834555,51.8675525 5.71440027,52.2145381 4.72895861,52.6724138 C5.07628758,54.0948276 7.94175163,53.4913793 7.94175163,53.4913793 C7.23550231,54.2158428 6.48127569,54.8926382 5.68411329,55.5172414 C7.10652016,55.8474721 8.57723324,55.9204782 10.0257255,55.7327586 C11.8926187,55.7327586 13.3253508,53.9655172 16.7552244,52.112069 C20.185098,50.2586207 28.0868322,52.112069 29.3458998,52.112069 C30.6049673,52.112069 32.4718606,48.8362069 32.9060218,47.8017241 C33.2533508,50.1293103 29.3458998,56.4224138 29.3458998,56.4224138 C32.3100768,56.2306684 34.9966011,54.6239355 36.552976,52.112069 C36.900305,51.6810345 37.9857081,49.4396552 38.1159564,49.6551724 C38.2462048,49.8706897 38.8106144,50.4741379 39.027695,50.387931 C39.4269573,50.0361701 39.7904992,49.6463724 40.113098,49.2241379 C42.400833,45.9876027 44.0778281,42.3656764 45.0625359,38.5344828 C45.3664488,37.5 45.3664488,33.75 47.9714161,32.1982759 C50.5763834,30.6465517 50.9237124,29.2241379 50.9237124,29.0948276 L50.9237124,28.8793103 C50.2810438,28.4703889 49.7092468,27.9609333 49.2304837,27.3706897 C49.1451727,27.2239909 49.1451727,27.0432505 49.2304837,26.8965517 C49.6672692,27.7050111 50.4216375,28.2979184 51.3144575,28.5344828 L51.3144575,28.5344828 C51.3144575,28.5344828 52.2261961,25.9482759 50.7934641,25.9482759 Z M45.3664488,30.5172414 L45.1059521,30.5172414 C44.6416109,30.6036316 44.1628264,30.4768752 43.8034684,30.1724138 C44.1581694,29.2697023 45.0964089,28.7323086 46.0611068,28.8793103 C46.304016,29.5217916 45.9990962,30.2407606 45.3664488,30.5172414 Z M47.7977516,30.5172414 L47.7977516,30.5172414 C48.1736137,29.6303681 48.6545816,28.7911185 49.2304837,28.0172414 L49.2304837,28.0172414 C48.6229102,28.8475631 48.1130701,29.7442041 47.7109194,30.6896552 L47.7977516,30.5172414 Z M49.360732,28.3189655 L49.360732,28.3189655 L49.360732,28.3189655 C49.1397554,29.0314845 49.0227897,29.7717708 49.0134031,30.5172414 L49.0134031,30.5172414 C48.9513791,29.9730006 48.9513791,29.4235511 49.0134031,28.8793103 C48.6977177,29.4016355 48.4635107,29.9684037 48.3187451,30.5603448 L48.3187451,30.5603448 C48.4957624,29.8146224 48.8204496,29.1113158 49.2738998,28.4913793 L49.360732,28.3189655 Z" id="Shape" fill="#F2F2F2"></path>
                <path d="M41.9365752,48.362069 C41.9365752,48.362069 39.8091852,50.3448276 39.7223529,51.0344828 C39.6355207,51.7241379 42.0668235,52.8017241 43.5863878,52.4137931 C42.9459827,51.101288 42.3948125,49.747686 41.9365752,48.362069 Z" id="Shape" fill="#F2F2F2"></path>
            </g>
        </g>
    </g>
</svg>