<?xml version="1.0" encoding="UTF-8" standalone="no"?>
<svg width="90px" height="90px" viewBox="0 0 90 90" version="1.1" xmlns="http://www.w3.org/2000/svg" xmlns:xlink="http://www.w3.org/1999/xlink">
    <!-- Generator: Sketch 41.2 (35397) - http://www.bohemiancoding.com/sketch -->
    <title>Compute-&amp;-Networking-copy_Amazon-EC2-Instance</title>
    <desc>Created with Sketch.</desc>
    <defs></defs>
    <g id="Page-1" stroke="none" stroke-width="1" fill="none" fill-rule="evenodd">
        <g id="blank">
            <g id="Page-1">
                <g id="blank">
                    <g id="Page-1">
                        <g id="Compute-&amp;-Networking-copy_Amazon-EC2-Instance">
                            <g id="Layer_1" fill="#0078D7">
                                <circle id="Oval-1" cx="45" cy="45" r="45"></circle>
                            </g>
                            <g id="Azure-Virtual-Machines---Availability-Set_COLOR" transform="translate(20.000000, 20.000000)">
                                <g id="Layer_1">
                                    <rect id="Rectangle-path" fill="#59B4D9" x="21.667" y="0" width="6.667" height="5"></rect>
                                    <rect id="Rectangle-path" fill="#59B4D9" x="11.667" y="0" width="6.667" height="5"></rect>
                                    <path d="M45,45 L41.667,45 L41.667,50 L46.667,50 C48.508,50 50,48.507 50,46.667 L50,41.667 L45,41.667 L45,45 Z" id="Shape" fill="#59B4D9"></path>
                                    <rect id="Rectangle-path" fill="#59B4D9" x="0" y="31.667" width="5" height="6.667"></rect>
                                    <rect id="Rectangle-path" fill="#59B4D9" x="21.667" y="45" width="6.667" height="5"></rect>
                                    <rect id="Rectangle-path" fill="#59B4D9" x="45" y="31.667" width="5" height="6.667"></rect>
                                    <rect id="Rectangle-path" fill="#59B4D9" x="31.667" y="45" width="6.667" height="5"></rect>
                                    <rect id="Rectangle-path" fill="#59B4D9" x="11.667" y="45" width="6.667" height="5"></rect>
                                    <path d="M5,45 L5,41.667 L0,41.667 L0,46.667 C0,48.508 1.493,50 3.333,50 L8.333,50 L8.333,45 L5,45 Z" id="Shape" fill="#59B4D9"></path>
                                    <rect id="Rectangle-path" fill="#59B4D9" x="0" y="11.667" width="5" height="6.667"></rect>
                                    <path d="M5,5 L8.333,5 L8.333,0 L3.333,0 C1.493,0 0,1.493 0,3.333 L0,8.333 L5,8.333 L5,5 Z" id="Shape" fill="#59B4D9"></path>
                                    <rect id="Rectangle-path" fill="#59B4D9" x="0" y="21.667" width="5" height="6.667"></rect>
                                    <rect id="Rectangle-path" fill="#59B4D9" x="45" y="21.667" width="5" height="6.667"></rect>
                                    <rect id="Rectangle-path" fill="#59B4D9" x="45" y="11.666" width="5" height="6.667"></rect>
                                    <rect id="Rectangle-path" fill="#59B4D9" x="31.666" y="0" width="6.667" height="5"></rect>
                                    <path d="M45,5 L45,8.333 L50,8.333 L50,3.333 C50,1.492 48.507,0 46.667,0 L41.667,0 L41.667,5 L45,5 Z" id="Shape" fill="#59B4D9"></path>
                                    <path d="M35.328,8.959 L9.949,8.959 C9.086,8.959 8.391,9.729 8.391,10.589 L8.391,28.264 C8.391,29.119 9.086,29.881 9.949,29.881 L35.328,29.881 C36.188,29.881 37.06,29.119 37.06,28.264 L37.06,10.59 C37.061,9.727 36.189,8.959 35.328,8.959" id="Shape" fill="#A0A1A2"></path>
                                    <path d="M35.346,8.961 C35.34,8.961 35.334,8.959 35.328,8.959 L9.949,8.959 C9.086,8.959 8.391,9.729 8.391,10.589 L8.391,28.263 C8.391,29.118 9.086,29.88 9.949,29.88 L10.553,29.88 L35.346,8.961 Z" id="Shape" fill="#FFFFFF" opacity="0.2"></path>
                                    <polygon id="Shape" fill="#59B4D9" points="34.881 27.678 10.564 27.678 10.564 11.163 34.881 11.127"></polygon>
                                    <path d="M23.022,10.159 C23.022,10.384 22.84,10.565 22.615,10.565 C22.39,10.565 22.209,10.383 22.209,10.159 C22.209,9.934 22.39,9.753 22.615,9.753 C22.84,9.752 23.022,9.933 23.022,10.159" id="Shape" fill="#B8D432"></path>
                                    <path d="M23.039,18.919 C23.013,18.919 22.987,18.911 22.962,18.897 L17.913,15.987 C17.867,15.96 17.838,15.909 17.838,15.855 C17.838,15.801 17.867,15.75 17.913,15.723 L22.931,12.832 C22.978,12.806 23.035,12.806 23.082,12.832 L28.132,15.744 C28.179,15.771 28.207,15.822 28.207,15.876 C28.207,15.931 28.179,15.981 28.132,16.008 L23.116,18.898 C23.091,18.912 23.067,18.919 23.039,18.919" id="Shape" fill="#FFFFFF"></path>
                                    <path d="M31.531,35.535 L30.848,35.535 L24.088,35.535 L23.735,35.535 C24.672,38.838 23.413,39.311 17.901,39.311 L17.901,41.041 L24.912,41.041 L30.031,41.041 L36.647,41.041 L36.647,39.312 C31.134,39.311 30.593,38.84 31.531,35.535" id="Shape" fill="#7A7A7A"></path>
                                    <path d="M39.877,14.614 L14.498,14.614 C13.635,14.614 12.94,15.384 12.94,16.244 L12.94,33.919 C12.94,34.774 13.635,35.536 14.498,35.536 L39.877,35.536 C40.737,35.536 41.609,34.774 41.609,33.919 L41.609,16.244 C41.609,15.382 40.737,14.614 39.877,14.614" id="Shape" fill="#A0A1A2"></path>
                                    <path d="M39.895,14.616 C39.889,14.616 39.883,14.614 39.877,14.614 L14.497,14.614 C13.634,14.614 12.939,15.384 12.939,16.244 L12.939,33.918 C12.939,34.773 13.634,35.535 14.497,35.535 L15.101,35.535 L39.895,14.616 Z" id="Shape" fill="#FFFFFF" opacity="0.2"></path>
                                    <polygon id="Shape" fill="#59B4D9" points="39.429 33.333 15.112 33.333 15.112 16.818 39.429 16.782"></polygon>
                                    <rect id="Rectangle-path" fill="#A0A1A2" x="17.901" y="39.311" width="18.745" height="1.73"></rect>
                                    <path d="M27.571,15.814 C27.571,16.039 27.389,16.22 27.164,16.22 C26.939,16.22 26.758,16.038 26.758,15.814 C26.758,15.59 26.939,15.408 27.164,15.408 C27.389,15.407 27.571,15.589 27.571,15.814" id="Shape" fill="#B8D432"></path>
                                    <path d="M27.587,24.575 C27.561,24.575 27.535,24.567 27.51,24.553 L22.461,21.643 C22.415,21.616 22.386,21.565 22.386,21.511 C22.386,21.457 22.415,21.406 22.461,21.379 L27.479,18.488 C27.526,18.462 27.583,18.462 27.63,18.488 L32.68,21.4 C32.727,21.427 32.755,21.478 32.755,21.532 C32.755,21.587 32.727,21.637 32.68,21.664 L27.664,24.554 C27.64,24.566 27.615,24.575 27.587,24.575" id="Shape" fill="#FFFFFF"></path>
                                    <path d="M26.861,31.648 C26.832,31.648 26.807,31.641 26.784,31.628 L21.751,28.727 C21.702,28.7 21.673,28.651 21.673,28.595 L21.673,22.773 C21.673,22.718 21.702,22.668 21.751,22.641 C21.798,22.613 21.854,22.613 21.905,22.641 L26.938,25.541 C26.982,25.57 27.013,25.619 27.013,25.674 L27.013,31.496 C27.013,31.552 26.984,31.601 26.938,31.628 C26.913,31.641 26.886,31.648 26.861,31.648" id="Shape" fill="#FFFFFF" opacity="0.7"></path>
                                    <path d="M28.287,31.648 C28.259,31.648 28.233,31.641 28.208,31.628 C28.164,31.601 28.134,31.551 28.134,31.496 L28.134,25.71 C28.134,25.656 28.163,25.606 28.208,25.578 L33.241,22.679 C33.289,22.652 33.345,22.652 33.393,22.679 C33.441,22.706 33.47,22.756 33.47,22.811 L33.47,28.596 C33.47,28.652 33.441,28.702 33.393,28.728 L28.362,31.629 C28.339,31.641 28.312,31.648 28.287,31.648" id="Shape" fill="#FFFFFF" opacity="0.4"></path>
                                </g>
                            </g>
                        </g>
                    </g>
                </g>
            </g>
        </g>
    </g>
</svg>