<?xml version="1.0" encoding="UTF-8"?>
<svg width="90px" height="90px" viewBox="0 0 90 90" version="1.1" xmlns="http://www.w3.org/2000/svg" xmlns:xlink="http://www.w3.org/1999/xlink">
    <!-- Generator: Sketch 43.2 (39069) - http://www.bohemiancoding.com/sketch -->
    <title>resource</title>
    <desc>Created with Sketch.</desc>
    <defs></defs>
    <g id="Page-1" stroke="none" stroke-width="1" fill="none" fill-rule="evenodd">
        <g id="resource" fill-rule="nonzero">
            <g id="Layer_1" fill="#0078D7">
                <circle id="Oval-1" cx="45" cy="45" r="45"></circle>
            </g>
            <g id="Group" transform="translate(13.000000, 15.500000)">
                <polygon id="Shape" fill="#7A7A7A" points="29.1172419 6.70951035 33.0250089 6.70951035 33.0250089 39.7235242 29.1172419 39.7235242"></polygon>
                <path d="M36.8039102,5.93979866 C36.7981407,9.10693844 34.2266697,11.6700965 31.0595279,11.6656109 C27.892386,11.6611253 25.3281857,9.09069368 25.3313874,5.92355026 C25.334589,2.75640685 27.9039809,0.19116473 31.0711254,0.193082453 L31.0711254,0.193082453 C32.5939713,0.193077957 34.0542428,0.798978058 35.1297499,1.87709875 C36.2052569,2.95521944 36.8076109,4.41695725 36.8039102,5.93979866 L36.8039102,5.93979866 Z" id="Shape" fill="#1490DF"></path>
                <path d="M36.8039102,39.7339738 C36.7981407,42.9011136 34.2266697,45.4642717 31.0595279,45.4597861 C27.892386,45.4553005 25.3281857,42.8848688 25.3313874,39.7177254 C25.334589,36.550582 27.9039809,33.9853399 31.0711254,33.9872576 L31.0711254,33.9872576 C32.5939713,33.9872531 34.0542428,34.5931532 35.1297499,35.6712739 C36.2052569,36.7493946 36.8076109,38.2111324 36.8039102,39.7339738 L36.8039102,39.7339738 Z" id="Shape" fill="#8DC200"></path>
                <path d="M19.8110445,55.4834581 L18.3761069,56.9288443 C18.1926825,57.116051 17.9416247,57.2215466 17.6795352,57.2215466 C17.4174458,57.2215466 17.166388,57.116051 16.9829635,56.9288443 L0.937435325,40.9076961 C0.168628034,40.138034 0.168628034,38.8910715 0.937435325,38.1214094 L2.38630438,36.6864718 L19.8005959,54.0729005 C19.9815912,54.2532684 20.0833262,54.4982766 20.0833262,54.7537993 C20.0833262,55.009322 19.9815912,55.2543302 19.8005959,55.4346981 L19.8005959,55.4346981 L19.8110445,55.4834581 Z" id="Shape" fill="#50E6FF"></path>
                <path d="M18.0765811,22.3788899 L19.6786959,23.9810047 C19.8641607,24.1653627 19.9684473,24.416071 19.9684473,24.6775764 C19.9684473,24.9390817 19.8641607,25.18979 19.6786959,25.374148 L2.55348158,42.5411566 L0.9478839,40.9494904 C0.179076609,40.1798283 0.179076609,38.9328658 0.9478839,38.1632037 L16.6938863,22.3788899 C16.8769144,22.1949151 17.1257226,22.0914791 17.3852337,22.0914791 C17.6447448,22.0914791 17.893553,22.1949151 18.0765811,22.3788899 L18.0765811,22.3788899 Z" id="Shape" fill="#1490DF"></path>
                <path d="M43.6233467,56.6188699 C43.2420511,56.2469873 43.2327141,55.6369674 43.6024496,55.2535894 L43.6024496,55.2535894 L43.6233467,55.2535894 L61.0376383,37.8776093 L62.4865073,39.3264784 C63.2553146,40.0961405 63.2553146,41.3431029 62.4865073,42.112765 L46.4270477,58.092119 C46.0563662,58.4730084 45.447444,58.4823525 45.0652501,58.1130161 L45.0652501,58.1130161 L45.0443529,58.0956018 L43.6233467,56.6188699 Z" id="Shape" fill="#50E6FF"></path>
                <path d="M46.7370221,23.5247503 L62.4969559,39.3229955 C63.2553097,40.0874617 63.2553097,41.320436 62.4969559,42.0849022 L60.8913582,43.687017 L43.7522125,26.5095598 C43.3789285,26.1201931 43.3789285,25.5057833 43.7522125,25.1164165 L45.3543273,23.5282331 C45.7361993,23.147887 46.3532389,23.1463327 46.7370221,23.5247503 Z" id="Shape" fill="#1490DF"></path>
            </g>
        </g>
    </g>
</svg>