<?xml version="1.0" encoding="UTF-8" standalone="no"?>
<svg width="90px" height="90px" viewBox="0 0 90 90" version="1.1" xmlns="http://www.w3.org/2000/svg" xmlns:xlink="http://www.w3.org/1999/xlink">
  <!-- Generator: Sketch 41.2 (35397) - http://www.bohemiancoding.com/sketch -->
  <title>Compute-&amp;-Networking-copy_Amazon-EC2-Instance</title>
  <desc>Created with Sketch.</desc>
  <defs></defs>
  <g id="Page-1" stroke="none" stroke-width="1" fill="none" fill-rule="evenodd">
    <g id="blank">
      <g id="Page-1">
        <g id="blank">
          <g id="Page-1">
            <g id="Compute-&amp;-Networking-copy_Amazon-EC2-Instance">
              <g id="Layer_1" fill="#0078D7">
                <circle id="Oval-1" cx="45" cy="45" r="45"></circle>
              </g>
              <g id="Azure-VPN-Gateway_color" transform="translate(22.000000, 20.000000)">
                <g id="Layer_1">
                  <path d="M40.1,18.5 L40.1,18.5 L40.1,16.3 C40.1,11.9 38.5,7.8 35.7,4.9 C33.1,1.9 27.3,0 23,0 C18.7,0 12.9,1.9 10.3,4.9 C7.6,7.8 5.9,11.9 5.9,16.3 L5.9,18.5 L5.9,18.5 L13.8,19.4 L13.8,17.4 C13.8,14.8 14.7,11.5 16.2,9.8 C17.7,8.1 20.9,7.3 23,7.2 C25.1,7.2 28.3,8.1 29.8,9.8 C31.3,11.5 32.2,13.7 32.2,16.2 L32.2,19.4 L40.1,18.5 Z" id="Shape" fill="#A0A1A2"></path>
                  <path d="M5.9,18.5 L5.9,18.5 C2,18.5 0.6,20.8 0.6,23.8 L0.6,44.7 C0.6,47.3 2.2,50 5.2,50 L40.8,50 C44.2,50 45.4,47.3 45.4,44.7 L45.4,23.8 C45.4,21.1 44.3,18.5 40.1,18.5 L40.1,18.5 L5.9,18.5 Z" id="Shape" fill="#59B4D9"></path>
                  <path d="M32.1,18.5 L32.1,18.5 L5.9,18.5 L5.9,18.5 C2,18.5 0.6,20.8 0.6,23.8 L0.6,44.7 C0.6,47.3 2.2,50 5.2,50 L11.9,50 L32.1,18.5 Z" id="Shape" fill="#FFFFFF" opacity="0.15"></path>
                  <path d="M17,27.1 L22.8,21.3 L28.6,27.1 L24.5,27.1 L24.5,31.3 L21,31.3 L21,27.1 L17,27.1 Z M6.3,35.9 L6.3,32.5 L12.3,32.5 L12.3,28.5 L17.9,34.1 L12.3,39.7 L12.3,35.8 L6.3,35.8 L6.3,35.9 L6.3,35.9 Z M22.8,47.2 L16.9,41.3 L21,41.3 L21,37.2 L24.5,37.2 L24.5,41.3 L28.7,41.3 L22.8,47.2 Z M39.3,35.9 L33.3,35.9 L33.3,39.9 L27.6,34.2 L33.3,28.5 L33.3,32.5 L39.3,32.5 L39.3,35.9 Z" id="Shape" fill="#FFFFFF"></path>
                </g>
              </g>
            </g>
          </g>
        </g>
      </g>
    </g>
  </g>
</svg>