<?xml version="1.0" encoding="UTF-8" standalone="no"?>
<svg width="90px" height="90px" viewBox="0 0 90 90" version="1.1" xmlns="http://www.w3.org/2000/svg" xmlns:xlink="http://www.w3.org/1999/xlink">
    <!-- Generator: Sketch 41.2 (35397) - http://www.bohemiancoding.com/sketch -->
    <title>Compute-&amp;-Networking-copy_Amazon-EC2-Instance</title>
    <desc>Created with Sketch.</desc>
    <defs></defs>
    <g id="Page-1" stroke="none" stroke-width="1" fill="none" fill-rule="evenodd">
        <g id="blank">
            <g id="Page-1">
                <g id="blank">
                    <g id="Page-1">
                        <g id="Compute-&amp;-Networking-copy_Amazon-EC2-Instance">
                            <g id="Layer_1" fill="#0078D7">
                                <circle id="Oval-1" cx="45" cy="45" r="45"></circle>
                            </g>
                            <g id="public_ip_address" transform="translate(20.000000, 23.000000)">
                                <g id="Group">
                                    <path d="M0.5,41.127 C0.5,42.235 1.398,43.134 2.507,43.134 L48.493,43.134 C49.6014355,43.134 50.5,42.2354355 50.5,41.127 L50.5,9.798 L0.5,9.798 L0.5,41.127 Z" id="Shape" fill="#59B4D9"></path>
                                    <path d="M48.493,0.5 L2.507,0.5 C1.97462917,0.499734545 1.46398662,0.711100477 1.08754355,1.08754355 C0.711100477,1.46398662 0.499734545,1.97462917 0.5,2.507 L0.5,13.134 L50.5,13.134 L50.5,2.507 C50.5,1.39856451 49.6014355,0.5 48.493,0.5" id="Shape" fill="#A0A1A2"></path>
                                    <path d="M2.514,0.5 C1.40556451,0.5 0.507,1.39856451 0.507,2.507 L0.507,41.127 C0.507,42.235 1.406,43.134 2.514,43.134 L4.702,43.134 L44.12,0.5 L2.514,0.5 Z" id="Shape" fill="#FFFFFF" opacity="0.2"></path>
                                    <polygon id="Shape" fill="#FFFFFF" points="13.357 5.279 47.028 5.279 47.028 9.221 13.357 9.221"></polygon>
                                    <path d="M11.81,7.183 C11.8350116,8.94256808 10.9105561,10.5792671 9.39069668,11.4662468 C7.87083732,12.3532264 5.9911028,12.3530338 4.47142528,11.4657426 C2.95174776,10.5784514 2.02762768,8.94156291 2.053,7.182 C2.09145845,4.5149173 4.26463294,2.37307291 6.93199289,2.37334629 C9.59935284,2.37361966 11.7720882,4.51590947 11.81,7.183" id="Shape" fill="#59B4D9"></path>
                                    <path d="M6.416,7.732 L8.629,10.068 L7.428,10.068 L4.469,7.25 L7.417,4.432 L8.615,4.432 L6.416,6.754 L11.809,6.754 L11.809,7.732 L6.416,7.732 Z M17.926,32.576 C17.926,33.146 17.723,33.613 17.317,33.976 C16.911,34.339 16.376,34.521 15.712,34.521 C15.118,34.521 14.614,34.335 14.2,33.964 C13.786,33.593 13.579,33.13 13.579,32.575 C13.579,32.012 13.786,31.552 14.2,31.192 C14.614,30.832 15.138,30.653 15.77,30.653 C16.379,30.653 16.891,30.837 17.305,31.204 C17.719,31.571 17.926,32.029 17.926,32.576 L17.926,32.576 Z M26.83,32.576 C26.83,33.146 26.627,33.613 26.221,33.976 C25.815,34.339 25.28,34.521 24.616,34.521 C24.022,34.521 23.518,34.335 23.104,33.964 C22.69,33.593 22.483,33.13 22.483,32.575 C22.483,32.012 22.69,31.552 23.104,31.192 C23.518,30.832 24.042,30.653 24.674,30.653 C25.283,30.653 25.795,30.837 26.209,31.204 C26.623,31.571 26.83,32.029 26.83,32.576 L26.83,32.576 Z M35.733,32.576 C35.733,33.146 35.53,33.613 35.124,33.976 C34.718,34.339 34.183,34.521 33.519,34.521 C32.925,34.521 32.421,34.335 32.007,33.964 C31.593,33.593 31.386,33.13 31.386,32.575 C31.386,32.012 31.593,31.552 32.007,31.192 C32.421,30.832 32.945,30.653 33.577,30.653 C34.186,30.653 34.698,30.837 35.112,31.204 C35.526,31.571 35.733,32.029 35.733,32.576 L35.733,32.576 Z" id="Shape" fill="#FFFFFF"></path>
                                </g>
                            </g>
                        </g>
                    </g>
                </g>
            </g>
        </g>
    </g>
</svg>