<?xml version="1.0" encoding="UTF-8"?>
<svg width="90px" height="90px" viewBox="0 0 90 90" version="1.1" xmlns="http://www.w3.org/2000/svg" xmlns:xlink="http://www.w3.org/1999/xlink">
    <!-- Generator: Sketch 43.2 (39069) - http://www.bohemiancoding.com/sketch -->
    <title>resource</title>
    <desc>Created with Sketch.</desc>
    <defs>
        <linearGradient x1="49.5849522%" y1="0.0111779418%" x2="49.5849522%" y2="99.9888221%" id="linearGradient-1">
            <stop stop-color="#5EA0EF" offset="23%"></stop>
            <stop stop-color="#127FD9" offset="93%"></stop>
        </linearGradient>
        <linearGradient x1="49.6438658%" y1="0.0668002672%" x2="49.6438658%" y2="100.0668%" id="linearGradient-2">
            <stop stop-color="#5EA0EF" offset="2%"></stop>
            <stop stop-color="#127FD9" offset="93%"></stop>
        </linearGradient>
    </defs>
    <g id="Page-1" stroke="none" stroke-width="1" fill="none" fill-rule="evenodd">
        <g id="resource" fill-rule="nonzero">
            <g id="Layer_1" fill="#0078D7">
                <circle id="Oval-1" cx="45" cy="45" r="45"></circle>
            </g>
            <g id="01105-icon-service-Private-Link-Service" transform="translate(6.000000, 22.000000)">
                <path d="M37.3797895,10.3293333 L29.6113684,10.3293333 C24.5889719,10.3813423 20.4380596,14.2767365 20.0474313,19.3045425 C19.656803,24.3323484 23.1558673,28.8269387 28.1094737,29.6603333 C27.9357032,28.4540271 27.9736803,27.2264846 28.2216842,26.0333333 C25.1805637,25.332115 23.1518322,22.4458814 23.5126844,19.3339385 C23.8735366,16.2219955 26.5084093,13.8809459 29.6286316,13.9 L37.3970526,13.9 C40.7864532,13.9 43.5341053,16.6588214 43.5341053,20.062 C43.5341053,23.4651786 40.7864532,26.224 37.3970526,26.224 L35.2477895,26.224 C34.9651441,26.8334696 34.8178818,27.4973649 34.8162105,28.1696667 C34.8159486,28.7244289 34.9199062,29.2742628 35.1226316,29.7903333 L37.3970526,29.7903333 C40.9081025,29.8647322 44.1846263,28.0265532 45.9618902,24.9853307 C47.7391542,21.9441083 47.7391542,18.1755584 45.9618902,15.1343359 C44.1846263,12.0931135 40.9081025,10.2549344 37.3970526,10.3293333 L37.3797895,10.3293333 Z" id="Shape" fill="url(#linearGradient-1)"></path>
                <path d="M48.5749474,18.567 C48.6448181,19.0623391 48.6823018,19.5617413 48.6871579,20.062 C48.692285,20.7753247 48.6213903,21.4871532 48.4756842,22.1853333 C51.5159466,22.8864132 53.5444828,25.7713464 53.1848228,28.882552 C52.8251627,31.9937576 50.1924207,34.3354503 47.0730526,34.3186667 L39.3046316,34.3186667 C35.9152311,34.3186666 33.1675791,31.5598452 33.1675791,28.1566667 C33.1675791,24.7534881 35.9152311,21.9946668 39.3046316,21.9946667 L41.4366316,21.9946667 C41.7226369,21.386348 41.8700681,20.7216913 41.8682105,20.049 C41.8679878,19.4928773 41.7640566,18.9417134 41.5617895,18.424 L39.3175789,18.424 C34.045015,18.5357253 29.8288382,22.8593241 29.8288382,28.1545 C29.8288382,33.4496759 34.045015,37.7732747 39.3175789,37.885 L47.086,37.885 C52.1083966,37.832991 56.2593088,33.9375968 56.6499371,28.9097909 C57.0405654,23.8819849 53.5415011,19.3873946 48.5878947,18.554 L48.5749474,18.567 Z" id="Shape" fill="url(#linearGradient-2)"></path>
                <path d="M24.3978947,41.9843333 L22.6197895,43.787 C22.391342,44.0177532 22.0806764,44.1475054 21.7566316,44.1475054 C21.4325868,44.1475054 21.1219212,44.0177532 20.8934737,43.787 L1.02357895,23.8666667 C0.0709101561,22.9090617 0.0709101561,21.357605 1.02357895,20.4 L2.81894737,18.632 L24.3978947,40.2683333 C24.6221753,40.492745 24.7482404,40.7975815 24.7482404,41.1155 C24.7482404,41.4334185 24.6221753,41.738255 24.3978947,41.9626667 L24.3978947,41.9626667 L24.3978947,41.9843333 Z" id="Shape" fill="#50E6FF"></path>
                <path d="M22.2486316,0.796 L24.2338947,2.78933333 C24.4637137,3.01870947 24.5929406,3.33063795 24.5929406,3.656 C24.5929406,3.98136205 24.4637137,4.29329053 24.2338947,4.52266667 L3.01315789,25.8816667 L1.02357895,23.9056667 C0.0709101561,22.9480617 0.0709101561,21.396605 1.02357895,20.439 L20.5352632,0.796 C21.0096454,0.323979497 21.7742493,0.323979497 22.2486316,0.796 L22.2486316,0.796 Z" id="Shape" fill="#1490DF"></path>
                <path d="M53.9049474,43.397 C53.6772028,43.1760629 53.5464549,42.8731623 53.5415959,42.5552322 C53.536737,42.2373022 53.658167,41.9305161 53.8790526,41.7026667 L53.8790526,41.7026667 L53.9049474,41.7026667 L75.4838947,20.088 L77.2792632,21.8863333 C78.2319319,22.8439383 78.2319319,24.395395 77.2792632,25.353 L57.3791579,45.2343333 C57.1591153,45.4630037 56.857441,45.5942831 56.5407981,45.5991618 C56.2241552,45.6040405 55.9186112,45.4821169 55.6916842,45.2603333 L55.6916842,45.2603333 L55.6657895,45.2386667 L53.9049474,43.397 Z" id="Shape" fill="#50E6FF"></path>
                <path d="M57.7632632,2.22166667 L77.2922105,21.8776667 C78.2319258,22.8288069 78.2319258,24.3628598 77.2922105,25.314 L75.3026316,27.3073333 L54.0646316,5.93533333 C53.5975902,5.45270662 53.5975902,4.68462671 54.0646316,4.202 L56.0498947,2.22166667 C56.524277,1.74964616 57.2888809,1.74964616 57.7632632,2.22166667 L57.7632632,2.22166667 Z" id="Shape" fill="#1490DF"></path>
            </g>
        </g>
    </g>
</svg>