<?xml version="1.0" encoding="UTF-8" standalone="no"?>
<svg width="90px" height="90px" viewBox="0 0 90 90" version="1.1" xmlns="http://www.w3.org/2000/svg" xmlns:xlink="http://www.w3.org/1999/xlink">
    <!-- Generator: Sketch 41.2 (35397) - http://www.bohemiancoding.com/sketch -->
    <title>Compute-&amp;-Networking-copy_Amazon-EC2-Instance</title>
    <desc>Created with Sketch.</desc>
    <defs></defs>
    <g id="Page-1" stroke="none" stroke-width="1" fill="none" fill-rule="evenodd">
        <g id="blank">
            <g id="Page-1">
                <g id="blank">
                    <g id="Page-1">
                        <g id="Compute-&amp;-Networking-copy_Amazon-EC2-Instance">
                            <g id="Layer_1" fill="#0078D7">
                                <circle id="Oval-1" cx="45" cy="45" r="45"></circle>
                            </g>
                            <g id="Azure-Express-Route_COLOR" transform="translate(15.000000, 26.000000)">
                                <g id="Layer_1">
                                    <rect id="Rectangle-path" fill="#68217A" x="11.76" y="28.56" width="37.2" height="4.56"></rect>
                                    <rect id="Rectangle-path" fill="#68217A" transform="translate(17.950476, 19.560396) rotate(-45.000000) translate(-17.950476, -19.560396) " x="5.23059799" y="17.2804179" width="25.439756" height="4.55995627"></rect>
                                    <rect id="Rectangle-path" fill="#68217A" transform="translate(42.156936, 19.589328) rotate(45.000000) translate(-42.156936, -19.589328) " x="29.437058" y="17.3093499" width="25.439756" height="4.55995627"></rect>
                                    <path d="M30,0.84 C26.28,0.84 23.28,3.84 23.28,7.56 C23.28,11.28 26.28,14.28 30,14.28 C33.72,14.28 36.72,11.28 36.72,7.56 C36.72,3.84 33.72,0.84 30,0.84 Z M30,9.72 C28.8,9.72 27.84,8.76 27.84,7.56 C27.84,6.36 28.8,5.4 30,5.4 C31.2,5.4 32.16,6.36 32.16,7.56 C32.16,8.76 31.2,9.72 30,9.72 Z" id="Shape" fill="#7FBA00"></path>
                                    <path d="M6.72,24.12 C3,24.12 0,27.12 0,30.84 C0,34.56 3,37.56 6.72,37.56 C10.44,37.56 13.44,34.56 13.44,30.84 C13.44,27.12 10.44,24.12 6.72,24.12 Z M6.72,33 C5.52,33 4.56,32.04 4.56,30.84 C4.56,29.64 5.52,28.68 6.72,28.68 C7.92,28.68 8.88,29.64 8.88,30.84 C8.88,32.04 7.92,33 6.72,33 Z" id="Shape" fill="#7FBA00"></path>
                                    <path d="M53.28,24.12 C49.56,24.12 46.56,27.12 46.56,30.84 C46.56,34.56 49.56,37.56 53.28,37.56 C57,37.56 60,34.56 60,30.84 C60,27.12 57,24.12 53.28,24.12 Z M53.28,33 C52.08,33 51.12,32.04 51.12,30.84 C51.12,29.64 52.08,28.68 53.28,28.68 C54.48,28.68 55.44,29.64 55.44,30.84 C55.44,32.04 54.48,33 53.28,33 Z" id="Shape" fill="#7FBA00"></path>
                                </g>
                            </g>
                        </g>
                    </g>
                </g>
            </g>
        </g>
    </g>
</svg>