<?xml version="1.0" encoding="UTF-8"?>
<svg width="90px" height="90px" viewBox="0 0 90 90" version="1.1" xmlns="http://www.w3.org/2000/svg" xmlns:xlink="http://www.w3.org/1999/xlink">
    <!-- Generator: Sketch 43.2 (39069) - http://www.bohemiancoding.com/sketch -->
    <title>resource</title>
    <desc>Created with Sketch.</desc>
    <defs>
        <linearGradient x1="50%" y1="99.9759769%" x2="50%" y2="0.0187755173%" id="linearGradient-1">
            <stop stop-color="#0078D4" offset="0%"></stop>
            <stop stop-color="#1380DA" offset="15.6%"></stop>
            <stop stop-color="#3C91E5" offset="52.8%"></stop>
            <stop stop-color="#559CEC" offset="82.2%"></stop>
            <stop stop-color="#5EA0EF" offset="100%"></stop>
        </linearGradient>
    </defs>
    <g id="Page-1" stroke="none" stroke-width="1" fill="none" fill-rule="evenodd">
        <g id="resource" fill-rule="nonzero">
            <g id="Layer_1" fill="#0078D7">
                <circle id="Oval-1" cx="45" cy="45" r="45"></circle>
            </g>
            <g id="10836-icon-service-Service-Bus" transform="translate(11.000000, 16.000000)">
                <path d="M68,33.0439269 C67.7744796,25.5932539 62.1606339,19.4027455 54.74,18.4218396 C54.2798276,7.93570022 45.4425547,-0.235615803 34.9066667,0.0831014151 C26.5145377,-0.0735200921 18.9393773,5.06786151 16.0177778,12.9032901 C7.07892418,13.9862971 0.273739273,21.4067631 0,30.3692925 C0.395352177,40.5149006 8.95565009,48.4317958 19.1457778,48.0760495 C19.7162222,48.0760495 20.2791111,48.049717 20.8344444,48.0045755 L51.8386667,48.0045755 C52.1162818,48.0000106 52.3920168,47.958256 52.6584444,47.8804363 C60.9361455,47.8214475 67.698866,41.2813567 68,33.0439269 Z" id="Shape" fill="url(#linearGradient-1)"></path>
                <path d="M45.5864444,39.5555896 L21.5597778,39.5555896 C21.2832268,39.549538 21.0155948,39.6531625 20.8157916,39.843654 C20.6159884,40.0341455 20.5003911,40.29589 20.4944444,40.5712736 L20.4944444,47.0866981 C20.5068377,47.6586709 20.9815597,48.1128794 21.556,48.1023821 L45.5864444,48.1023821 C46.1608848,48.1128794 46.6356068,47.6586709 46.648,47.0866981 L46.648,40.5712736 C46.633565,40.000195 46.1600689,39.5471595 45.5864444,39.5555896 L45.5864444,39.5555896 Z" id="Shape" fill="#32BEDD"></path>
                <path d="M45.5864444,49.3701061 L21.5597778,49.3701061 C21.2832268,49.3640545 21.0155948,49.467679 20.8157916,49.6581705 C20.6159884,49.848662 20.5003911,50.1104065 20.4944444,50.3857901 L20.4944444,56.8974528 C20.499409,57.1728298 20.6140514,57.4349588 20.8131417,57.6261516 C21.012232,57.8173444 21.2794545,57.9219325 21.556,57.9168986 L45.5864444,57.9168986 C45.8629899,57.9219325 46.1302124,57.8173444 46.3293027,57.6261516 C46.528393,57.4349588 46.6430355,57.1728298 46.648,56.8974528 L46.648,50.3857901 C46.633565,49.8147115 46.1600689,49.361676 45.5864444,49.3701061 L45.5864444,49.3701061 Z" id="Shape" fill="#198AB3"></path>
                <path d="M42.5755556,41.1543514 L43.9846667,41.1543514 C44.1348881,41.1543514 44.2566667,41.2756147 44.2566667,41.4252005 L44.2566667,42.7643986 C44.2566667,42.9077516 44.1399622,43.0239623 43.996,43.0239623 L42.5642222,43.0239623 C42.4950891,43.0239623 42.4287875,42.9966155 42.3799031,42.9479378 C42.3310186,42.8992602 42.3035556,42.8332392 42.3035556,42.7643986 L42.3035556,41.4139151 C42.3096349,41.268754 42.429651,41.1542252 42.5755556,41.1543514 Z" id="Shape" fill="#B4EC36"></path>
                <path d="M42.568,44.3744458 L43.9884444,44.3744458 C44.1386659,44.3744458 44.2604444,44.495709 44.2604444,44.6452948 L44.2604444,45.9732075 C44.2604444,46.1227934 44.1386659,46.2440566 43.9884444,46.2440566 L42.5755556,46.2440566 C42.4253341,46.2440566 42.3035556,46.1227934 42.3035556,45.9732075 L42.3035556,44.6340094 C42.3035482,44.5645121 42.3315292,44.4979145 42.3812338,44.4491273 C42.4309384,44.4003401 42.4982147,44.3734385 42.568,44.3744458 L42.568,44.3744458 Z" id="Shape" fill="#B4EC36"></path>
                <path d="M42.6473333,50.9199646 L44.0677778,50.9199646 C44.2179992,50.9199646 44.3397778,51.0412279 44.3397778,51.1908137 L44.3397778,52.5300118 C44.3397778,52.5988524 44.3123148,52.6648734 44.2634303,52.713551 C44.2145458,52.7622287 44.1482442,52.7895755 44.0791111,52.7895755 L42.6586667,52.7895755 C42.5084452,52.7895755 42.3866667,52.6683122 42.3866667,52.5187264 L42.3866667,51.1945755 C42.3825023,51.1231669 42.4081157,51.0532122 42.4574588,51.0012295 C42.5068019,50.9492469 42.5755006,50.9198443 42.6473333,50.9199646 Z" id="Shape" fill="#B4EC36"></path>
                <path d="M42.6473333,54.140059 L44.0677778,54.140059 C44.2179992,54.140059 44.3397778,54.2613222 44.3397778,54.410908 L44.3397778,55.7501061 C44.3397778,55.8934592 44.2230733,56.0096698 44.0791111,56.0096698 L42.6473333,56.0096698 C42.5033711,56.0096698 42.3866667,55.8934592 42.3866667,55.7501061 L42.3866667,54.3996226 C42.3866667,54.3307821 42.4141297,54.264761 42.4630142,54.2160834 C42.5118986,54.1674058 42.5782002,54.140059 42.6473333,54.140059 L42.6473333,54.140059 Z" id="Shape" fill="#B4EC36"></path>
                <path d="M45.3597778,28.9736675 L21.3331111,28.9736675 C21.0559183,28.9676215 20.7877218,29.0717596 20.5878096,29.2630608 C20.3878974,29.4543621 20.2727341,29.7170712 20.2677778,29.9931132 L20.2677778,36.5235849 C20.2801734,37.0961434 20.7542701,37.5514336 21.3293333,37.5430307 L45.3597778,37.5430307 C45.934841,37.5514336 46.4089377,37.0961434 46.4213333,36.5235849 L46.4213333,29.9931132 C46.4089377,29.4205547 45.934841,28.9652645 45.3597778,28.9736675 Z" id="Shape" fill="#50E6FF"></path>
                <path d="M42.3413333,30.576191 L43.7617778,30.576191 C43.9119992,30.576191 44.0337778,30.6974543 44.0337778,30.8470401 L44.0337778,32.1862382 C44.0337778,32.3295913 43.9170733,32.4458019 43.7731111,32.4458019 L42.3488889,32.4458019 C42.1986674,32.4458019 42.0768889,32.3245386 42.0768889,32.1749528 L42.0768889,30.8357547 C42.0768816,30.7662574 42.1048625,30.6996598 42.1545672,30.6508726 C42.2042718,30.6020853 42.271548,30.5751838 42.3413333,30.576191 L42.3413333,30.576191 Z" id="Shape" fill="#FFFFFF"></path>
                <path d="M42.3413333,33.7962854 L43.7617778,33.7962854 C43.9119992,33.7962854 44.0337778,33.9175486 44.0337778,34.0671344 L44.0337778,35.3950472 C44.0337778,35.4638877 44.0063148,35.5299088 43.9574303,35.5785864 C43.9085458,35.627264 43.8422442,35.6546108 43.7731111,35.6546108 L42.3413333,35.6546108 C42.2722002,35.6546108 42.2058986,35.627264 42.1570142,35.5785864 C42.1081297,35.5299088 42.0806667,35.4638877 42.0806667,35.3950472 L42.0806667,34.0445637 C42.0867383,33.9056361 42.2016834,33.7961539 42.3413333,33.7962854 L42.3413333,33.7962854 Z" id="Shape" fill="#FFFFFF"></path>
                <path d="M43.9544444,22.9811321 L34.7744444,32.1222877 C34.3466561,32.5480127 33.6533439,32.5480127 33.2255556,32.1222877 L24.0455556,22.9811321 C23.907532,22.8409238 23.8670987,22.6321122 23.9428751,22.4508543 C24.0186515,22.2695964 24.1959445,22.1510384 24.3931111,22.1497759 L30.0371111,22.1497759 C30.1663599,22.1497759 30.2903151,22.0986493 30.3817078,22.0076433 C30.4731005,21.9166373 30.5244444,21.7932066 30.5244444,21.6645047 L30.5244444,10.2437028 C30.5244444,10.0359448 30.6935813,9.86752358 30.9022222,9.86752358 L37.0826667,9.86752358 C37.2913076,9.86752358 37.4604444,10.0359448 37.4604444,10.2437028 L37.4604444,21.6682665 C37.4604444,21.9362744 37.678631,22.1535377 37.9477778,22.1535377 L43.5917778,22.1535377 C43.7900707,22.150181 43.9709306,22.2659137 44.0502482,22.4469141 C44.1295658,22.6279144 44.0917726,22.8386557 43.9544444,22.9811321 L43.9544444,22.9811321 Z" id="Shape" fill="#FFFFFF"></path>
            </g>
        </g>
    </g>
</svg>