<?xml version="1.0" encoding="UTF-8"?>
<svg width="90px" height="90px" viewBox="0 0 90 90" version="1.1" xmlns="http://www.w3.org/2000/svg" xmlns:xlink="http://www.w3.org/1999/xlink">
    <!-- Generator: Sketch 43.2 (39069) - http://www.bohemiancoding.com/sketch -->
    <title>resource</title>
    <desc>Created with Sketch.</desc>
    <defs>
        <radialGradient cx="49.9527396%" cy="50.1012778%" fx="49.9527396%" fy="50.1012778%" r="333.169807%" gradientTransform="translate(0.499527,0.501013),scale(1.000000,0.998838),translate(-0.499527,-0.501013)" id="radialGradient-1">
            <stop stop-color="#5EA0EF" offset="18.3%"></stop>
            <stop stop-color="#0078D4" offset="100%"></stop>
        </radialGradient>
        <linearGradient x1="50.4074074%" y1="101.796296%" x2="49.8333333%" y2="28.4814815%" id="linearGradient-2">
            <stop stop-color="#CCCCCC" offset="0%"></stop>
            <stop stop-color="#D7D7D7" offset="12.3%"></stop>
            <stop stop-color="#EBEBEB" offset="42.1%"></stop>
            <stop stop-color="#F8F8F8" offset="71.6%"></stop>
            <stop stop-color="#FCFCFC" offset="100%"></stop>
        </linearGradient>
    </defs>
    <g id="Page-1" stroke="none" stroke-width="1" fill="none" fill-rule="evenodd">
        <g id="resource">
            <g id="Layer_1" fill-rule="nonzero" fill="#0078D7">
                <circle id="Oval-1" cx="45" cy="45" r="45"></circle>
            </g>
            <g id="10362-icon-service-Web-Application-Firewall-Policies(WAF)" transform="translate(14.000000, 14.000000)">
                <path d="M47.8777778,53.3888889 C35.1277687,63.2819068 16.7799747,61.0112498 6.82633534,48.30851 C-3.12730404,35.6057703 -0.944071145,17.2473683 11.7111111,7.23333333 L12.0555556,6.88888889 C24.9024674,-2.8401793 43.19094,-0.391289358 53.0256552,12.3749274 C62.8603703,25.1411441 60.5624307,43.4491961 47.8777778,53.3888889" id="a365ed42-c10c-4d6b-b8da-5311b6818174" fill="url(#radialGradient-1)" fill-rule="nonzero"></path>
                <path d="M7.23333333,36.1666667 C6.15811417,39.1013668 5.23831984,42.0906984 4.47777778,45.1222222 L6.54444444,48.2222222 L8.61111111,50.2888889 C9.34929813,46.1238889 10.6228146,42.071791 12.4,38.2333333 C10.498145,38.127853 8.68328372,37.4019085 7.23333333,36.1666667 Z" id="Shape" fill="#83B9F9" fill-rule="nonzero"></path>
                <path d="M10.6777778,20.3222222 C9.51167282,17.0906437 8.70314502,13.7410286 8.26666667,10.3333333 C6.81795471,11.7856982 5.54615312,13.4043548 4.47777778,15.1555556 C4.84002775,17.9826357 5.53368612,20.7572692 6.54444444,23.4222222 C7.6057443,22.0232235 9.03757506,20.9493504 10.6777778,20.3222222 L10.6777778,20.3222222 Z" id="Shape" fill="#83B9F9" fill-rule="nonzero"></path>
                <circle id="Oval" fill="url(#linearGradient-2)" fill-rule="nonzero" cx="13.7777778" cy="29.2777778" r="9.3"></circle>
                <path d="M27.5555556,46.5 C27.6051526,44.8552766 28.2124579,43.276283 29.2777778,42.0222222 C26.0535832,40.3503236 23.1407955,38.1366049 20.6666667,35.4777778 C19.2785562,36.9187358 17.4699505,37.8833255 15.5,38.2333333 C17.1350411,39.9316811 18.8597254,41.5413864 20.6666667,43.0555556 C22.7536055,44.7555095 25.0735073,46.1474506 27.5555556,47.1888889 L27.5555556,46.5 Z" id="Shape" fill="#83B9F9" fill-rule="nonzero"></path>
                <path d="M49.2555556,47.1888889 C46.0132719,47.1859613 42.7804196,46.8395843 39.6111111,46.1555556 L39.6111111,46.5 C39.6244374,48.0549319 39.0023662,49.547903 37.8888889,50.6333333 C41.7453257,51.3768622 45.6829869,51.6084893 49.6,51.3222222 C50.9777778,49.9444444 52.3555556,48.2222222 53.7333333,46.8444444 C52.260689,47.1437107 50.7566448,47.2594065 49.2555556,47.1888889 L49.2555556,47.1888889 Z" id="Shape" fill="#83B9F9" fill-rule="nonzero"></path>
                <circle id="Oval" cx="33.7555556" cy="46.5" r="6.2"></circle>
                <path d="M32.0333333,16.8777778 C38.3527716,13.7464638 45.3029895,12.0972596 52.3555556,12.0555556 C50.8899282,10.1935194 49.1474598,8.56721563 47.1888889,7.23333333 C41.6264115,7.63375375 36.162441,8.91255537 31,11.0222222 C29.8181766,11.5263202 28.667928,12.1014445 27.5555556,12.7444444 C24.9504271,9.63872198 22.643924,6.29429258 20.6666667,2.75555556 C19.5625815,2.83233354 18.4960016,3.1878602 17.5666667,3.78888889 C19.6569392,7.55525246 22.077558,11.1285469 24.8,14.4666667 C22.0096935,16.0500717 19.4583111,18.0215944 17.2222222,20.3222222 C19.0660756,21.0993202 20.6284311,22.4213133 21.7,24.1111111 C23.6377466,22.1008051 25.8393114,20.3627277 28.2444444,18.9444444 C32.0767568,23.0734964 36.3504673,26.7696785 40.9888889,29.9666667 C41.3343381,28.6445616 42.0515566,27.4491974 43.0555556,26.5222222 C39.1414319,23.5925498 35.4566534,20.3683686 32.0333333,16.8777778 L32.0333333,16.8777778 Z" id="Shape" fill="#83B9F9" fill-rule="nonzero"></path>
                <circle id="Oval" fill="#F2F2F2" fill-rule="nonzero" cx="47.5333333" cy="31.3444444" r="6.54444444"></circle>
                <path d="M58.5555556,35.8222222 C58.2111111,35.4777778 57.8666667,35.4777778 57.5222222,35.1333333 L57.5222222,35.1333333 C57.1777778,34.7888889 56.8333333,34.7888889 56.4888889,34.4444444 L56.1444444,34.4444444 L55.1111111,33.7555556 L54.7666667,33.7555556 L53.7333333,33.0666667 C53.4680762,34.3270445 52.7280704,35.4370532 51.6666667,36.1666667 C52.0111111,36.5111111 52.3555556,36.5111111 53.0444444,36.8555556 L53.3888889,36.8555556 C53.7333333,37.2 54.0777778,37.2 54.4222222,37.5444444 L54.4222222,37.5444444 C55.4555556,38.2333333 56.4888889,38.5777778 57.5222222,39.2666667 L57.5222222,39.2666667 C57.8666667,38.2333333 58.2111111,36.8555556 58.5555556,35.8222222 Z" id="Shape" fill="#83B9F9" fill-rule="nonzero"></path>
                <circle id="Oval" fill="#F2F2F2" fill-rule="nonzero" cx="13.7777778" cy="29.2777778" r="9.3"></circle>
                <circle id="Oval" fill="#F2F2F2" fill-rule="nonzero" cx="33.7555556" cy="46.5" r="6.2"></circle>
                <path d="M17.9111111,36.1666667 L59.5888889,36.1666667 C60.2777778,36.1666667 61.3111111,36.8555556 61.3111111,37.5444444 L61.3111111,59.5888889 C61.2508135,60.5139199 60.5139199,61.2508135 59.5888889,61.3111111 L17.9111111,61.3111111 C17.0601851,61.2067681 16.4483428,60.4419652 16.5333333,59.5888889 L16.5333333,37.8888889 C16.4483428,37.0358126 17.0601851,36.2710097 17.9111111,36.1666667 L17.9111111,36.1666667 Z" id="Shape" fill="#821010" fill-rule="nonzero"></path>
                <rect id="Rectangle-path" fill="#E62323" fill-rule="nonzero" x="18.2555556" y="38.9222222" width="12.4" height="5.51111111"></rect>
                <rect id="Rectangle-path" fill="#FF7381" fill-rule="nonzero" x="32.7222222" y="38.9222222" width="12.4" height="5.51111111"></rect>
                <rect id="Rectangle-path" fill="#E62323" fill-rule="nonzero" x="46.8444444" y="38.9222222" width="12.4" height="5.51111111"></rect>
                <rect id="Rectangle-path" fill="#E62323" fill-rule="nonzero" x="18.2555556" y="46.1555556" width="5.16666667" height="5.51111111"></rect>
                <rect id="Rectangle-path" fill="#FF7381" fill-rule="nonzero" x="54.0777778" y="46.1555556" width="5.16666667" height="5.51111111"></rect>
                <rect id="Rectangle-path" fill="#FF7381" fill-rule="nonzero" x="25.4888889" y="46.1555556" width="12.4" height="5.51111111"></rect>
                <rect id="Rectangle-path" fill="#E62323" fill-rule="nonzero" x="39.6111111" y="46.1555556" width="12.4" height="5.51111111"></rect>
                <rect id="Rectangle-path" fill="#E62323" fill-rule="nonzero" x="18.2555556" y="53.3888889" width="12.4" height="5.51111111"></rect>
                <rect id="Rectangle-path" fill="#FF7381" fill-rule="nonzero" x="32.7222222" y="53.3888889" width="12.4" height="5.51111111"></rect>
                <rect id="Rectangle-path" fill="#E62323" fill-rule="nonzero" x="46.8444444" y="53.3888889" width="12.4" height="5.51111111"></rect>
            </g>
        </g>
    </g>
</svg>