<?xml version="1.0" encoding="UTF-8"?>
<svg width="42px" height="18px" viewBox="0 0 42 18" version="1.1" xmlns="http://www.w3.org/2000/svg" xmlns:xlink="http://www.w3.org/1999/xlink">
    <!-- Generator: Sketch 43.2 (39069) - http://www.bohemiancoding.com/sketch -->
    <title>resources.aws.ec2.address</title>
    <desc>Created with Sketch.</desc>
    <defs></defs>
    <g id="Page-1" stroke="none" stroke-width="1" fill="none" fill-rule="evenodd">
        <g id="resources.aws.ec2.address" fill-rule="nonzero" fill="#D86613">
            <path d="M35.56,16.24 L34.1,14.88 L39.56,9 L34.1,3.12 L35.56,1.76 L41.65,8.32 C42.0057172,8.70355316 42.0057172,9.29644684 41.65,9.68 L35.56,16.24 Z" id="Shape"></path>
            <rect id="Rectangle-path" x="16.08" y="8" width="23.44" height="2"></rect>
            <path d="M8.58,17.5 C3.88557963,17.5 0.08,13.6944204 0.08,9 C0.08,4.30557963 3.88557963,0.5 8.58,0.5 C13.2744204,0.5 17.08,4.30557963 17.08,9 C17.0744896,13.692136 13.272136,17.4944896 8.58,17.5 Z M8.58,2.5 C4.99014913,2.5 2.08,5.41014913 2.08,9 C2.08,12.5898509 4.99014913,15.5 8.58,15.5 C12.1698509,15.5 15.08,12.5898509 15.08,9 C15.0744934,5.41243253 12.1675675,2.50550664 8.58,2.5 L8.58,2.5 Z" id="Shape"></path>
        </g>
    </g>
</svg>