<?xml version="1.0" encoding="UTF-8"?>
<svg width="36px" height="48px" viewBox="0 0 36 48" version="1.1" xmlns="http://www.w3.org/2000/svg" xmlns:xlink="http://www.w3.org/1999/xlink">
    <!-- Generator: Sketch 43.2 (39069) - http://www.bohemiancoding.com/sketch -->
    <title>resources.aws.ecs.task</title>
    <desc>Created with Sketch.</desc>
    <defs></defs>
    <g id="Page-1" stroke="none" stroke-width="1" fill="none" fill-rule="evenodd">
        <g id="resources.aws.ecs.task" fill-rule="nonzero" fill="#D86613">
            <g id="Art">
                <path d="M34.88,47.5 L1.12,47.5 C0.56771525,47.5 0.12,47.0522847 0.12,46.5 L0.12,1.5 C0.12,0.94771525 0.56771525,0.5 1.12,0.5 L34.88,0.5 C35.4322847,0.5 35.88,0.94771525 35.88,1.5 L35.88,46.5 C35.88,47.0522847 35.4322847,47.5 34.88,47.5 Z M2.12,45.5 L33.88,45.5 L33.88,2.5 L2.12,2.5 L2.12,45.5 Z" id="Shape"></path>
                <path d="M11.42,13.76 L5.8,13.76 C5.24771525,13.76 4.8,13.3122847 4.8,12.76 L4.8,7.13 C4.8,6.57771525 5.24771525,6.13 5.8,6.13 L11.42,6.13 C11.9722847,6.13 12.42,6.57771525 12.42,7.13 L12.42,12.76 C12.42,13.3122847 11.9722847,13.76 11.42,13.76 L11.42,13.76 Z M6.8,11.76 L10.42,11.76 L10.42,8.13 L6.8,8.13 L6.8,11.76 Z" id="Shape"></path>
                <path d="M11.42,26.88 L5.8,26.88 C5.24771525,26.88 4.8,26.4322847 4.8,25.88 L4.8,20.25 C4.8,19.6977153 5.24771525,19.25 5.8,19.25 L11.42,19.25 C11.9722847,19.25 12.42,19.6977153 12.42,20.25 L12.42,25.88 C12.42,26.4322847 11.9722847,26.88 11.42,26.88 Z M6.8,24.88 L10.42,24.88 L10.42,21.25 L6.8,21.25 L6.8,24.88 Z" id="Shape"></path>
                <path d="M11.42,40 L5.8,40 C5.24771525,40 4.8,39.5522847 4.8,39 L4.8,33.38 C4.8,32.8277153 5.24771525,32.38 5.8,32.38 L11.42,32.38 C11.9722847,32.38 12.42,32.8277153 12.42,33.38 L12.42,39 C12.42,39.5522847 11.9722847,40 11.42,40 Z M6.8,38 L10.42,38 L10.42,34.38 L6.8,34.38 L6.8,38 Z" id="Shape"></path>
                <rect id="Rectangle-path" x="14.25" y="8.94" width="16.88" height="2"></rect>
                <rect id="Rectangle-path" x="14.25" y="22.06" width="16.88" height="2"></rect>
                <rect id="Rectangle-path" x="14.25" y="35.19" width="16.88" height="2"></rect>
            </g>
        </g>
    </g>
</svg>