<?xml version="1.0" encoding="UTF-8"?>
<svg width="48px" height="48px" viewBox="0 0 48 48" version="1.1" xmlns="http://www.w3.org/2000/svg" xmlns:xlink="http://www.w3.org/1999/xlink">
    <!-- Generator: Sketch 43.2 (39069) - http://www.bohemiancoding.com/sketch -->
    <title>resources.aws.ec2.vpcendpoint</title>
    <desc>Created with Sketch.</desc>
    <defs></defs>
    <g id="Page-1" stroke="none" stroke-width="1" fill="none" fill-rule="evenodd">
        <g id="resources.aws.ec2.vpcendpoint" fill-rule="nonzero" fill="#693CC5">
            <path d="M24,40.94 C19,40.94 15.24,38.33 13.23,33.4 C12.4072748,31.3162971 11.9179435,29.1159933 11.78,26.88 L13.78,26.75 C13.9055449,28.76883 14.3441129,30.7558805 15.08,32.64 C16.78,36.82 19.78,38.94 24,38.94 C34.1,38.94 34.25,27.42 34.25,26.94 L34.25,13.27 L24,9.14 L13.75,13.27 L13.75,21.19 L11.75,21.19 L11.75,12.59 C11.7496033,12.1801962 11.999279,11.8116273 12.38,11.66 L23.63,7.13 C23.8675919,7.03537567 24.1324081,7.03537567 24.37,7.13 L35.62,11.66 C36.000721,11.8116273 36.2503967,12.1801962 36.25,12.59 L36.25,26.93 C36.25,27.07 36.11,40.94 24,40.94 Z" id="Shape"></path>
            <path d="M24,36.62 C17.24,36.62 15.58,27.85 15.52,27.48 C15.5150827,27.4201008 15.5150827,27.3598992 15.52,27.3 L15.52,26.81 L17.52,26.81 L17.52,27.2 C17.69,28.01 19.22,34.62 24.02,34.62 C28.82,34.62 30.33,28 30.5,27.2 L30.5,16.64 L24,14 L17.5,16.61 L17.5,21.16 L15.5,21.16 L15.5,16 C15.4996033,15.5901962 15.749279,15.2216273 16.13,15.07 L23.63,12.07 C23.8675919,11.9753757 24.1324081,11.9753757 24.37,12.07 L31.87,15.07 C32.250721,15.2216273 32.5003967,15.5901962 32.5,16 L32.5,27.3 C32.5049173,27.3598992 32.5049173,27.4201008 32.5,27.48 C32.42,27.85 30.76,36.62 24,36.62 Z" id="Shape"></path>
            <path d="M24,47.5 C11.0213084,47.5 0.5,36.9786916 0.5,24 C0.5,11.0213084 11.0213084,0.5 24,0.5 C36.9786916,0.5 47.5,11.0213084 47.5,24 C47.4889723,36.974121 36.974121,47.4889723 24,47.5 L24,47.5 Z M24,2.5 C12.1258779,2.5 2.5,12.1258779 2.5,24 C2.5,35.8741221 12.1258779,45.5 24,45.5 C35.8741221,45.5 45.5,35.8741221 45.5,24 C45.4889739,12.130448 35.869552,2.51102607 24,2.5 L24,2.5 Z" id="Shape"></path>
            <path d="M21.89,29.39 L20.48,28 L24.48,24 L20.48,20 L21.89,18.59 L26.58,23.27 C26.7693127,23.4577666 26.8757983,23.7133625 26.8757983,23.98 C26.8757983,24.2466375 26.7693127,24.5022334 26.58,24.69 L21.89,29.39 Z" id="Shape"></path>
            <rect id="Rectangle-path" x="5.25" y="23" width="20.63" height="2"></rect>
        </g>
    </g>
</svg>