<svg id="Layer_1" data-name="Layer 1" xmlns="http://www.w3.org/2000/svg" width="35" height="35" viewBox="0 0 35 35"><title>VPC-subnet_light-bg</title><rect width="35" height="35" style="fill:#248814"/><path d="M9.62,22.6h5.94v-1H9.62a4.06,4.06,0,0,1-4.11-3.73c0-.1,0-.22,0-.33A3.8,3.8,0,0,1,8.56,13.6a.49.49,0,0,0,.37-.54,6,6,0,0,1,0-.74A6.17,6.17,0,0,1,12.34,7a5.8,5.8,0,0,1,6.58,1.31A7.06,7.06,0,0,1,20.56,11a.51.51,0,0,0,.4.33.5.5,0,0,0,.47-.2,2.08,2.08,0,0,1,2.26-.82A2.82,2.82,0,0,1,25.45,13a.5.5,0,0,0,.4.57,4.07,4.07,0,0,1,0,8.09h-6.4v1h6.44s4.63-.43,4.63-5a4.92,4.92,0,0,0-4.08-5A3.68,3.68,0,0,0,24,9.3a3,3,0,0,0-2.76.58,7.86,7.86,0,0,0-1.58-2.32A6.78,6.78,0,0,0,12,6a7.14,7.14,0,0,0-4.06,6.29c0,.15,0,.29,0,.43a4.74,4.74,0,0,0-3.4,4.79c0,.14,0,.27,0,.4A5.07,5.07,0,0,0,9.62,22.6Z" style="fill:#fff"/><path d="M24.58,26.76H18V18.12h1.8V13.53H15.2v4.59H17v8.64H10.42V25H5.83v4.59h4.59V27.76H24.58v1.79h4.59V25H24.58ZM16.2,14.53h2.6v2.59H16.2Zm-6.78,14H6.83V26H9.42ZM25.58,26h2.59v2.59H25.58Z" style="fill:#fff"/></svg>