<?xml version="1.0" encoding="UTF-8"?>
<svg width="48px" height="30px" viewBox="0 0 48 30" version="1.1" xmlns="http://www.w3.org/2000/svg" xmlns:xlink="http://www.w3.org/1999/xlink">
    <!-- Generator: Sketch 43.2 (39069) - http://www.bohemiancoding.com/sketch -->
    <title>resources.aws.sqs.queue</title>
    <desc>Created with Sketch.</desc>
    <defs></defs>
    <g id="Page-1" stroke="none" stroke-width="1" fill="none" fill-rule="evenodd">
        <g id="resources.aws.sqs.queue" fill-rule="nonzero" fill="#CD2264">
            <path d="M46.5,29.13 L1.5,29.13 C0.94771525,29.13 0.5,28.6822847 0.5,28.13 L0.5,1.88 C0.5,1.32771525 0.94771525,0.88 1.5,0.88 L46.5,0.88 C47.0522847,0.88 47.5,1.32771525 47.5,1.88 L47.5,28.13 C47.5,28.6822847 47.0522847,29.13 46.5,29.13 Z M2.5,27.13 L45.5,27.13 L45.5,2.88 L2.5,2.88 L2.5,27.13 Z" id="Shape"></path>
            <rect id="Rectangle-path" x="17.38" y="4.69" width="2" height="20.63"></rect>
            <rect id="Rectangle-path" x="23" y="4.69" width="2" height="20.63"></rect>
            <rect id="Rectangle-path" x="28.63" y="4.69" width="2" height="20.63"></rect>
            <path d="M9,19.88 C8.85513364,19.8807765 8.7118282,19.8500682 8.58,19.79 C8.22554576,19.6259609 7.99903354,19.270571 8,18.88 L8,11.12 C7.9993686,10.7317319 8.22354098,10.3781941 8.57499924,10.2131802 C8.9264575,10.0481663 9.34166458,10.1015076 9.64,10.35 L14.3,14.23 C14.5292703,14.4199799 14.6619561,14.7022463 14.6619561,15 C14.6619561,15.2977537 14.5292703,15.5800201 14.3,15.77 L9.64,19.65 C9.46008794,19.7990812 9.23365216,19.8804565 9,19.88 L9,19.88 Z M10,13.26 L10,16.74 L12.09,15 L10,13.26 Z" id="Shape"></path>
            <path d="M39,19.88 C38.7663478,19.8804565 38.5399121,19.7990812 38.36,19.65 L33.7,15.77 C33.4707297,15.5800201 33.3380439,15.2977537 33.3380439,15 C33.3380439,14.7022463 33.4707297,14.4199799 33.7,14.23 L38.36,10.35 C38.6583354,10.1015076 39.0735425,10.0481663 39.4250008,10.2131802 C39.776459,10.3781941 40.0006314,10.7317319 40,11.12 L40,18.88 C40.0009665,19.270571 39.7744542,19.6259609 39.42,19.79 C39.2881718,19.8500682 39.1448664,19.8807765 39,19.88 Z M35.91,15 L38,16.74 L38,13.26 L35.91,15 Z" id="Shape"></path>
        </g>
    </g>
</svg>