<?xml version="1.0" encoding="UTF-8"?>
<svg width="48px" height="48px" viewBox="0 0 48 48" version="1.1" xmlns="http://www.w3.org/2000/svg" xmlns:xlink="http://www.w3.org/1999/xlink">
    <!-- Generator: Sketch 43.2 (39069) - http://www.bohemiancoding.com/sketch -->
    <title>resources.aws.elasticache.cachenode</title>
    <desc>Created with Sketch.</desc>
    <defs></defs>
    <g id="Page-1" stroke="none" stroke-width="1" fill="none" fill-rule="evenodd">
        <g id="resources.aws.elasticache.cachenode" fill-rule="nonzero">
            <rect id="Rectangle" fill="#FFFFFF" x="0.5" y="0.5" width="47" height="47" rx="8"></rect>
            <path d="M9,14.2484742 L9,10.6184082 C9,10.2811873 9.0605004,9.96876667 9.1815033,9.68113709 C9.3025061,9.39350747 9.4681386,9.14853006 9.6784057,8.94619751 C9.8886729,8.74386496 10.1316667,8.57029797 10.4073944,8.42549133 C10.6831221,8.2806847 10.9766982,8.17356907 11.2881317,8.10414124 C11.5995651,8.0347134 11.9179366,8 12.2432556,8 C12.6598226,8 13.0565471,8.05454963 13.4334411,8.16365051 C13.8103351,8.2727514 14.1544936,8.44631839 14.4659271,8.68435669 C14.7773605,8.92239499 15.0144034,9.21002029 15.1770629,9.54724121 L14.5343627,9.86264037 L14.5343627,9.87454227 C14.3439321,9.50558287 14.034487,9.2199412 13.606018,9.01760864 C13.1775491,8.81527609 12.7094141,8.71411133 12.2015991,8.71411133 C11.7731301,8.71411133 11.374422,8.78254631 11.0054626,8.91941834 C10.6365032,9.05629036 10.3300335,9.27250524 10.0860443,9.56806946 C9.842055,9.86363367 9.7200622,10.2137431 9.7200622,10.6184082 L9.7200622,14.2484742 C9.7200622,14.6531393 9.842055,15.0032487 10.0860443,15.2988129 C10.3300335,15.5943771 10.6365032,15.810592 11.0054626,15.947464 C11.374422,16.084336 11.7731301,16.152771 12.2015991,16.152771 C12.7094141,16.152771 13.1775491,16.0516063 13.606018,15.8492737 C14.034487,15.6469412 14.3439321,15.3612995 14.5343627,14.9923401 L15.1770629,15.3077393 C14.9350573,15.8076197 14.5403164,16.1924425 13.9928283,16.4622193 C13.4453402,16.731996 12.8482698,16.8668824 12.2015991,16.8668824 C11.7929667,16.8668824 11.4002094,16.8113409 11.0233154,16.7002564 C10.6464214,16.5891718 10.3062301,16.4275066 10.0027313,16.2152558 C9.6992324,16.003005 9.4562387,15.7272814 9.2737426,15.3880768 C9.0912466,15.0488722 9,14.6690085 9,14.2484742 Z M15.9447326,14.920929 C15.9486999,14.6432176 15.9963069,14.3922894 16.0875549,14.1681366 C16.1788029,13.9439839 16.3007957,13.7575234 16.4535369,13.6087494 C16.6062782,13.4599755 16.7867879,13.3340154 16.9950714,13.2308655 C17.2033549,13.1277156 17.4215534,13.0543215 17.6496734,13.0106812 C17.8777935,12.9670408 18.11682,12.945221 18.3667602,12.945221 C18.9658233,12.945221 19.5271885,13.0543202 20.0508728,13.272522 L20.0508728,12.3263245 C20.0508728,12.0367112 19.9645852,11.7867748 19.7920074,11.5765076 C19.6194296,11.3662404 19.4042066,11.2125097 19.1463317,11.1153107 C18.8884569,11.0181117 18.6087661,10.969513 18.3072509,10.969513 C17.9819319,10.969513 17.6744704,11.0250544 17.3848571,11.1361389 C17.0952439,11.2472235 16.8710945,11.4039297 16.7124023,11.6062622 L16.2482299,11.1658936 C16.4981702,10.8921495 16.8135662,10.6818855 17.1944274,10.5350952 C17.5752887,10.388305 17.9700297,10.3149109 18.3786621,10.3149109 C18.7952291,10.3149109 19.1780683,10.388305 19.5271911,10.5350952 C19.876314,10.6818855 20.1649311,10.910994 20.3930511,11.2224274 C20.6211711,11.5338608 20.7352294,11.9018229 20.7352294,12.3263245 L20.7352294,16.4681702 C19.9497031,16.7339796 19.124516,16.8668824 18.2596435,16.8668824 L18.1465759,16.8668824 C17.4959379,16.8589477 16.9663106,16.6903398 16.5576782,16.3610535 C16.1490458,16.0317672 15.9447326,15.5517305 15.9447326,14.920929 Z M16.6231384,14.920929 C16.6231384,15.3771691 16.7639756,15.7124013 17.0456543,15.9266358 C17.3273329,16.1408702 17.7081885,16.2519531 18.1882324,16.2598877 L18.3548584,16.2598877 C18.9816925,16.2598877 19.547025,16.1983954 20.0508728,16.075409 L20.0508728,13.8378601 C19.5152866,13.6315603 18.9618558,13.5284119 18.3905639,13.5284119 C18.144591,13.5284119 17.9214335,13.5522154 17.7210846,13.599823 C17.5207356,13.6474307 17.3362587,13.7228084 17.1676483,13.8259583 C16.9990378,13.9291082 16.8671269,14.0739127 16.7719116,14.260376 C16.6766963,14.4468393 16.6271057,14.6670215 16.6231384,14.920929 Z M22.1158447,14.8197632 L22.1158447,12.3620301 C22.1158447,12.0327437 22.1842797,11.7342085 22.3211517,11.4664154 C22.4580237,11.1986223 22.640517,10.9833993 22.868637,10.8207398 C23.0967571,10.6580803 23.3516526,10.533112 23.6333313,10.4458313 C23.9150099,10.3585506 24.2066025,10.3149109 24.5081176,10.3149109 C24.9643577,10.3149109 25.3868693,10.4071494 25.7756652,10.5916291 C26.1644611,10.7761087 26.4600209,11.0448896 26.6623535,11.3979798 L26.0910644,11.7371826 C25.956176,11.4872424 25.745912,11.2968146 25.4602661,11.1658936 C25.1746201,11.0349725 24.8572405,10.969513 24.5081176,10.969513 C24.2105698,10.969513 23.9368298,11.0141445 23.6868896,11.1034088 C23.4369494,11.1926732 23.2266854,11.3424367 23.0560913,11.5527039 C22.8854971,11.7629711 22.8002014,12.0168748 22.8002014,12.3144226 L22.8002014,14.8733216 C22.8002014,15.0954906 22.8488001,15.2948447 22.9459991,15.4713898 C23.0431981,15.6479349 23.1731254,15.7887721 23.3357849,15.8939057 C23.4984444,15.9990393 23.6799459,16.0783842 23.8802948,16.1319428 C24.0806437,16.1855014 24.2899159,16.2122803 24.5081176,16.2122803 C24.9008808,16.2122803 25.2519821,16.1289681 25.5614318,15.9623413 C25.8708816,15.7957145 26.0712275,15.5537126 26.1624755,15.2363282 L26.787323,15.5160218 C26.6325981,15.9524253 26.343981,16.2866657 25.921463,16.5187531 C25.498945,16.7508404 25.0278346,16.8668824 24.5081176,16.8668824 C24.2066025,16.8668824 23.9150099,16.8232427 23.6333313,16.7359619 C23.3516526,16.6486812 23.0967571,16.523713 22.868637,16.3610535 C22.640517,16.198394 22.4580237,15.9831709 22.3211517,15.7153778 C22.1842797,15.4475848 22.1158447,15.1490495 22.1158447,14.8197632 Z M27.9299011,16.7478638 L27.9299011,8.11901856 L28.6142578,8.11901856 L28.6142578,10.6898194 C29.1498439,10.4398792 29.7191437,10.3149109 30.322174,10.3149109 C30.7347737,10.3149109 31.1186047,10.3902886 31.4736785,10.5410462 C31.8287523,10.6918038 32.1233203,10.9248794 32.3573913,11.2402802 C32.5914623,11.5556809 32.708496,11.9256266 32.708496,12.3501282 L32.708496,16.7478638 L32.0241394,16.7478638 L32.0241394,12.3144226 C32.0241394,11.889921 31.8565232,11.5596478 31.521286,11.3235932 C31.1860487,11.0875385 30.790316,10.969513 30.3340759,10.969513 C29.7469147,10.969513 29.1736478,11.0845631 28.6142578,11.3146668 L28.6142578,16.7478638 L27.9299011,16.7478638 Z M34.1307678,14.8197632 L34.1307678,12.3620301 C34.1307678,12.0327437 34.1992028,11.7342085 34.3360748,11.4664154 C34.4729468,11.1986223 34.6564319,10.9833993 34.8865356,10.8207398 C35.1166393,10.6580803 35.3725266,10.533112 35.6542053,10.4458313 C35.9358839,10.3585506 36.2294601,10.3149109 36.5349426,10.3149109 C36.8364578,10.3149109 37.1270585,10.3585506 37.4067535,10.4458313 C37.6864485,10.533112 37.9403522,10.6580803 38.1684722,10.8207398 C38.3965923,10.9833993 38.5790856,11.1986223 38.7159576,11.4664154 C38.8528296,11.7342085 38.9212646,12.0327437 38.9212646,12.3620301 L38.9212646,13.8973694 L34.8270263,13.8973694 L34.8270263,14.8495179 C34.8270263,15.2898887 34.9936506,15.6271046 35.3269043,15.8611756 C35.6601579,16.0952466 36.0628333,16.2122803 36.5349426,16.2122803 C36.892,16.2122803 37.218306,16.1408699 37.5138702,15.9980469 C37.8094344,15.8552239 38.0187066,15.6469435 38.1416931,15.3731995 L38.7546386,15.6528931 C38.6356195,15.9147352 38.4570934,16.1388846 38.2190551,16.3253479 C37.9810168,16.5118113 37.7191786,16.6486812 37.4335327,16.7359619 C37.1478867,16.8232427 36.8483597,16.8668824 36.5349426,16.8668824 C36.2294601,16.8668824 35.9358839,16.8232427 35.6542053,16.7359619 C35.3725266,16.6486812 35.1166393,16.523713 34.8865356,16.3610535 C34.6564319,16.198394 34.4729468,15.9831709 34.3360748,15.7153778 C34.1992028,15.4475848 34.1307678,15.1490495 34.1307678,14.8197632 Z M34.8270263,13.3260804 L38.2428588,13.3260804 L38.2428588,12.3144226 C38.2428588,12.0248094 38.1585549,11.7748729 37.9899444,11.5646057 C37.821334,11.3543386 37.6110699,11.2025914 37.3591461,11.1093598 C37.1072222,11.0161281 36.8324905,10.969513 36.5349426,10.969513 C36.0628333,10.969513 35.6591661,11.0855549 35.3239288,11.3176422 C34.9886915,11.5497296 34.823059,11.8819864 34.8270263,12.3144226 L34.8270263,13.3260804 Z" id="Cache" fill="#3B48CC"></path>
            <path d="M41.05,47.5 L7,47.5 C5.2807069,47.5133283 3.62724984,46.8396651 2.40680454,45.6286078 C1.18635924,44.4175506 0.499948339,42.7693448 0.5,41.05 L0.5,7 C0.486551958,5.27200525 1.16705214,3.61087975 2.38896594,2.38896594 C3.61087975,1.16705214 5.27200525,0.486551958 7,0.5 L41.1,0.5 C42.8106625,0.513209548 44.4460074,1.20546259 45.6462513,2.42446028 C46.8464952,3.64345797 47.5133123,5.28933828 47.5,7 L47.5,41.1 C47.4725364,44.642695 44.5928014,47.5001064 41.05,47.5 Z M7,2.5 C5.80325297,2.48921784 4.65238504,2.95986047 3.80612275,3.80612275 C2.95986047,4.65238504 2.48921784,5.80325297 2.5,7 L2.5,41.1 C2.53293437,43.5553897 4.5444902,45.5222443 7,45.5 L41.1,45.5 C43.5553857,45.4945008 45.5445008,43.5053857 45.55,41.05 L45.55,7 C45.5607822,5.80325297 45.0901395,4.65238504 44.2438772,3.80612275 C43.397615,2.95986047 42.246747,2.48921784 41.05,2.5 L7,2.5 Z" id="Shape" fill="#3B48CC"></path>
        </g>
    </g>
</svg>