<?xml version="1.0" encoding="UTF-8"?>
<svg width="40px" height="48px" viewBox="0 0 40 48" version="1.1" xmlns="http://www.w3.org/2000/svg" xmlns:xlink="http://www.w3.org/1999/xlink">
    <!-- Generator: Sketch 43.2 (39069) - http://www.bohemiancoding.com/sketch -->
    <title>resources.aws.ecs.service</title>
    <desc>Created with Sketch.</desc>
    <defs></defs>
    <g id="Page-1" stroke="none" stroke-width="1" fill="none" fill-rule="evenodd">
        <g id="resources.aws.ecs.service" fill-rule="nonzero" fill="#D86613">
            <g id="Art">
                <path d="M38.15,47.5 L11.15,47.5 C10.5977153,47.5 10.15,47.0522847 10.15,46.5 L10.15,10.5 C10.15,9.94771525 10.5977153,9.5 11.15,9.5 L38.15,9.5 C38.7022847,9.5 39.15,9.94771525 39.15,10.5 L39.15,46.5 C39.15,47.0522847 38.7022847,47.5 38.15,47.5 Z M12.15,45.5 L37.15,45.5 L37.15,11.5 L12.15,11.5 L12.15,45.5 Z" id="Shape"></path>
                <path d="M19.39,20.5 L14.89,20.5 C14.3377153,20.5 13.89,20.0522847 13.89,19.5 L13.89,15 C13.89,14.4477153 14.3377153,14 14.89,14 L19.39,14 C19.9422847,14 20.39,14.4477153 20.39,15 L20.39,19.5 C20.39,20.0522847 19.9422847,20.5 19.39,20.5 Z M15.89,18.5 L18.39,18.5 L18.39,16 L15.89,16 L15.89,18.5 Z" id="Shape"></path>
                <path d="M19.39,31 L14.89,31 C14.3377153,31 13.89,30.5522847 13.89,30 L13.89,25.5 C13.89,24.9477153 14.3377153,24.5 14.89,24.5 L19.39,24.5 C19.9422847,24.5 20.39,24.9477153 20.39,25.5 L20.39,30 C20.39,30.5522847 19.9422847,31 19.39,31 Z M15.89,29 L18.39,29 L18.39,26.5 L15.89,26.5 L15.89,29 Z" id="Shape"></path>
                <path d="M19.39,41.51 L14.89,41.51 C14.3377153,41.51 13.89,41.0622847 13.89,40.51 L13.89,36 C13.89,35.4477153 14.3377153,35 14.89,35 L19.39,35 C19.9422847,35 20.39,35.4477153 20.39,36 L20.39,40.51 C20.39,41.0622847 19.9422847,41.51 19.39,41.51 Z M15.89,39.51 L18.39,39.51 L18.39,37 L15.89,37 L15.89,39.51 Z" id="Shape"></path>
                <rect id="Rectangle-path" x="21.65" y="16.25" width="13.51" height="2"></rect>
                <rect id="Rectangle-path" x="21.65" y="26.74" width="13.51" height="2"></rect>
                <rect id="Rectangle-path" x="21.65" y="37.25" width="13.51" height="2"></rect>
                <path d="M11.15,43 L6.65,43 C6.09771525,43 5.65,42.5522847 5.65,42 L5.65,6 C5.65,5.44771525 6.09771525,5 6.65,5 L33.65,5 C34.2022847,5 34.65,5.44771525 34.65,6 L34.65,10.5 L32.65,10.5 L32.65,7 L7.65,7 L7.65,41 L11.15,41 L11.15,43 Z" id="Shape"></path>
                <path d="M6.35,38.51 L1.85,38.51 C1.29771525,38.51 0.85,38.0622847 0.85,37.51 L0.85,1.5 C0.85,0.94771525 1.29771525,0.5 1.85,0.5 L28.85,0.5 C29.4022847,0.5 29.85,0.94771525 29.85,1.5 L29.85,6 L27.85,6 L27.85,2.5 L2.85,2.5 L2.85,36.5 L6.35,36.5 L6.35,38.51 Z" id="Shape"></path>
            </g>
        </g>
    </g>
</svg>