<?xml version="1.0" encoding="UTF-8"?>
<svg width="48px" height="48px" viewBox="0 0 48 48" version="1.1" xmlns="http://www.w3.org/2000/svg" xmlns:xlink="http://www.w3.org/1999/xlink">
    <!-- Generator: Sketch 43.2 (39069) - http://www.bohemiancoding.com/sketch -->
    <title>resources.aws.ec2.routetable</title>
    <desc>Created with Sketch.</desc>
    <defs></defs>
    <g id="Page-1" stroke="none" stroke-width="1" fill="none" fill-rule="evenodd">
        <g id="resources.aws.ec2.routetable" fill-rule="nonzero" fill="#693CC5">
            <path d="M24,47.5 C11.0213084,47.5 0.5,36.9786916 0.5,24 C0.5,11.0213084 11.0213084,0.5 24,0.5 C36.9786916,0.5 47.5,11.0213084 47.5,24 C47.4889723,36.974121 36.974121,47.4889723 24,47.5 L24,47.5 Z M24,2.5 C12.1258779,2.5 2.5,12.1258779 2.5,24 C2.5,35.8741221 12.1258779,45.5 24,45.5 C35.8741221,45.5 45.5,35.8741221 45.5,24 C45.4889739,12.130448 35.869552,2.51102607 24,2.5 L24,2.5 Z" id="Shape"></path>
            <path d="M27.9,11.46 L24,6.92 L20.1,11.46 L18.59,10.16 L23.24,4.73 C23.4299882,4.50783361 23.7076758,4.37992307 24,4.37992307 C24.2923242,4.37992307 24.5700118,4.50783361 24.76,4.73 L29.41,10.16 L27.9,11.46 Z" id="Shape"></path>
            <rect id="Rectangle-path" x="23" y="6.12" width="2" height="35.75"></rect>
            <path d="M24,43.62 L24,43.62 C23.734197,43.6215368 23.4787188,43.5171865 23.29,43.33 L18.64,38.67 L20.05,37.26 L24,41.26 L27.95,37.26 L29.36,38.67 L24.71,43.33 C24.5212812,43.5171865 24.265803,43.6215368 24,43.62 L24,43.62 Z" id="Shape"></path>
            <path d="M17,29.36 L15.53,28 L19.48,24 L15.53,20.05 L17,18.64 L21.65,23.29 C21.8393127,23.4777666 21.9457983,23.7333625 21.9457983,24 C21.9457983,24.2666375 21.8393127,24.5222334 21.65,24.71 L17,29.36 Z" id="Shape"></path>
            <path d="M31.05,29.36 L26.4,24.71 C26.2106873,24.5222334 26.1042017,24.2666375 26.1042017,24 C26.1042017,23.7333625 26.2106873,23.4777666 26.4,23.29 L31.05,18.64 L32.47,20.05 L28.52,24 L32.47,28 L31.05,29.36 Z" id="Shape"></path>
            <rect id="Rectangle-path" x="27.1" y="23" width="17.07" height="2"></rect>
            <rect id="Rectangle-path" x="3.83" y="23" width="17.07" height="2"></rect>
        </g>
    </g>
</svg>