<svg id="Layer_1" data-name="Layer 1" xmlns="http://www.w3.org/2000/svg" width="35" height="35" viewBox="0 0 35 35"><title>Security-group_light-bg</title><rect width="35" height="35" style="fill:#dd3522"/><path d="M27.11,13.86a.47.47,0,0,0-.35-.15H23.54v-3.5a5.53,5.53,0,0,0-1.76-4A6.15,6.15,0,0,0,17.53,4.5h0a6.21,6.21,0,0,0-4.25,1.64,5.4,5.4,0,0,0-1.8,4l0,3.55H8.25a.49.49,0,0,0-.36.15.5.5,0,0,0-.14.35V30a.5.5,0,0,0,.5.5H26.75a.5.5,0,0,0,.5-.5V14.21A.47.47,0,0,0,27.11,13.86Zm-14.66-3.7a4.47,4.47,0,0,1,1.48-3.29A5.26,5.26,0,0,1,17.52,5.5a5.15,5.15,0,0,1,3.57,1.4,4.52,4.52,0,0,1,1.45,3.31v3.5H12.43ZM26.25,29.5H8.74V14.7H26.26Z" style="fill:#fff"/><path d="M17,23.32v3.9h1V23.33a2.78,2.78,0,0,0,2.27-2.72,2.77,2.77,0,0,0-2.76-2.77h0A2.76,2.76,0,0,0,17,23.32Zm.51-4.48h0a1.79,1.79,0,0,1,1.25.52,1.76,1.76,0,0,1,.51,1.25h0a1.74,1.74,0,0,1-1.76,1.76h0a1.77,1.77,0,1,1,0-3.53Z" style="fill:#fff"/></svg>