<?xml version="1.0" encoding="UTF-8"?>
<svg width="48px" height="48px" viewBox="0 0 48 48" version="1.1" xmlns="http://www.w3.org/2000/svg" xmlns:xlink="http://www.w3.org/1999/xlink">
    <!-- Generator: Sketch 43.2 (39069) - http://www.bohemiancoding.com/sketch -->
    <title>resources.aws.lambda.function</title>
    <desc>Created with Sketch.</desc>
    <defs></defs>
    <g id="Page-1" stroke="none" stroke-width="1" fill="none" fill-rule="evenodd">
        <g id="resources.aws.lambda.function" fill-rule="nonzero" fill="#D86613">
            <path d="M38.06,38.12 L30.47,38.12 C30.0817306,38.1227797 29.7269502,37.9005545 29.56,37.55 L18.92,14.69 L14.62,14.69 C14.0677153,14.69 13.62,14.2422847 13.62,13.69 L13.62,7.12 C13.62,6.56771525 14.0677153,6.12 14.62,6.12 L24.11,6.12 C24.4933193,6.12674583 24.8390403,6.35204714 25,6.7 L35.62,29.56 L38.06,29.56 C38.6122847,29.56 39.06,30.0077153 39.06,30.56 L39.06,37.12 C39.06,37.6722847 38.6122847,38.12 38.06,38.12 Z M31.06,36.12 L37.06,36.12 L37.06,31.56 L35,31.56 C34.609429,31.5609665 34.2540391,31.3344542 34.09,30.98 L23.48,8.12 L15.63,8.12 L15.63,12.69 L19.56,12.69 C19.950571,12.6890335 20.3059609,12.9155458 20.47,13.27 L31.06,36.12 Z" id="Shape"></path>
            <path d="M17.43,38.12 L9.31,38.12 C8.96733137,38.1190313 8.64902066,37.9426728 8.46649532,37.6526603 C8.28396999,37.3626478 8.26265053,36.9993717 8.41,36.69 L16.9,18.91 C17.0654027,18.5627162 17.4153406,18.3410889 17.8,18.34 L17.8,18.34 C18.1823951,18.3392347 18.5317466,18.556609 18.7,18.9 L22.77,27.3 C22.8995615,27.5720276 22.8995615,27.8879724 22.77,28.16 L18.33,37.55 C18.1645973,37.8972838 17.8146594,38.1189111 17.43,38.12 L17.43,38.12 Z M10.9,36.12 L16.79,36.12 L20.79,27.74 L17.79,21.65 L10.9,36.12 Z" id="Shape"></path>
            <path d="M24,47.5 C11.0213084,47.5 0.5,36.9786916 0.5,24 C0.5,11.0213084 11.0213084,0.5 24,0.5 C36.9786916,0.5 47.5,11.0213084 47.5,24 C47.4889723,36.974121 36.974121,47.4889723 24,47.5 L24,47.5 Z M24,2.5 C12.1258779,2.5 2.5,12.1258779 2.5,24 C2.5,35.8741221 12.1258779,45.5 24,45.5 C35.8741221,45.5 45.5,35.8741221 45.5,24 C45.4834756,12.1327293 35.8672707,2.51652442 24,2.5 L24,2.5 Z" id="Shape"></path>
        </g>
    </g>
</svg>