<?xml version="1.0" encoding="UTF-8"?>
<svg width="48px" height="48px" viewBox="0 0 48 48" version="1.1" xmlns="http://www.w3.org/2000/svg" xmlns:xlink="http://www.w3.org/1999/xlink">
    <!-- Generator: Sketch 43.2 (39069) - http://www.bohemiancoding.com/sketch -->
    <title>resources.aws.dynamodb.table</title>
    <desc>Created with Sketch.</desc>
    <defs></defs>
    <g id="Page-1" stroke="none" stroke-width="1" fill="none" fill-rule="evenodd">
        <g id="resources.aws.dynamodb.table" fill-rule="nonzero" fill="#3B48CC">
            <path d="M10.94,10.94 L0.5,10.94 L0.5,0.5 L10.94,0.5 L10.94,10.94 Z M2.5,8.94 L8.94,8.94 L8.94,2.5 L2.5,2.5 L2.5,8.94 Z" id="Shape"></path>
            <path d="M10.94,23.12 L0.5,23.12 L0.5,12.69 L10.94,12.69 L10.94,23.12 Z M2.5,21.12 L8.94,21.12 L8.94,14.69 L2.5,14.69 L2.5,21.12 Z" id="Shape"></path>
            <path d="M10.94,35.31 L0.5,35.31 L0.5,24.88 L10.94,24.88 L10.94,35.31 Z M2.5,33.31 L8.94,33.31 L8.94,26.88 L2.5,26.88 L2.5,33.31 Z" id="Shape"></path>
            <path d="M10.94,47.5 L0.5,47.5 L0.5,37.06 L10.94,37.06 L10.94,47.5 Z M2.5,45.5 L8.94,45.5 L8.94,39.06 L2.5,39.06 L2.5,45.5 Z" id="Shape"></path>
            <path d="M47.5,10.94 L12.69,10.94 L12.69,0.5 L47.5,0.5 L47.5,10.94 Z M14.69,8.94 L45.5,8.94 L45.5,2.5 L14.69,2.5 L14.69,8.94 Z" id="Shape"></path>
            <path d="M47.5,23.12 L12.69,23.12 L12.69,12.69 L47.5,12.69 L47.5,23.12 Z M14.69,21.12 L45.5,21.12 L45.5,14.69 L14.69,14.69 L14.69,21.12 Z" id="Shape"></path>
            <path d="M47.5,35.31 L12.69,35.31 L12.69,24.88 L47.5,24.88 L47.5,35.31 Z M14.69,33.31 L45.5,33.31 L45.5,26.88 L14.69,26.88 L14.69,33.31 Z" id="Shape"></path>
            <path d="M47.5,47.5 L12.69,47.5 L12.69,37.06 L47.5,37.06 L47.5,47.5 Z M14.69,45.5 L45.5,45.5 L45.5,39.06 L14.69,39.06 L14.69,45.5 Z" id="Shape"></path>
        </g>
    </g>
</svg>