<?xml version="1.0" encoding="UTF-8"?>
<svg width="50px" height="50px" viewBox="0 0 50 50" version="1.1" xmlns="http://www.w3.org/2000/svg" xmlns:xlink="http://www.w3.org/1999/xlink">
    <!-- Generator: Sketch 43.2 (39069) - http://www.bohemiancoding.com/sketch -->
    <title>Amazon-RDS_Amazon-Aurora_instance_light-bg</title>
    <desc>Created with Sketch.</desc>
    <defs></defs>
    <g id="Page-1" stroke="none" stroke-width="1" fill="none" fill-rule="evenodd">
        <g id="Amazon-RDS_Amazon-Aurora_instance_light-bg" fill-rule="nonzero" fill="#3B48CC">
            <path d="M43.55,0 L6.45,0 C2.88776336,-2.18124085e-16 4.36248169e-16,2.88776336 0,6.45 L0,43.55 C4.36248169e-16,47.1122366 2.88776336,50 6.45,50 L30,50 L30,48 L6.45,48 C3.99461432,47.9945008 2.0054992,46.0053857 2,43.55 L2,6.45 C2.0054992,3.99461432 3.99461432,2.0054992 6.45,2 L43.55,2 C46.0053857,2.0054992 47.9945008,3.99461432 48,6.45 L48,21 L50,21 L50,6.45 C50,2.88776336 47.1122366,2.18124085e-16 43.55,0 Z" id="Shape"></path>
            <path d="M40,20.28 C35,20.28 30,21.84 30,24.83 L30,45.17 C30,48.17 35,49.72 40,49.72 C45,49.72 50,48.16 50,45.17 L50,24.83 C50,21.84 45,20.28 40,20.28 Z M40.13,22.28 C45.32,22.28 48.13,23.96 48.13,24.83 C48.13,25.7 45.3,27.39 40.13,27.39 C34.96,27.39 32.13,25.7 32.13,24.83 C32.13,23.96 34.93,22.28 40.13,22.28 Z M40.13,47.72 C34.93,47.72 32.13,46.04 32.13,45.17 L32.13,41.75 C34.6104251,42.9863962 37.360115,43.5844537 40.13,43.49 C42.8999232,43.5848772 45.649716,42.9867973 48.13,41.75 L48.13,45.17 C48.15,46 45.32,47.72 40.13,47.72 Z M40.13,41.49 C34.93,41.49 32.13,39.8 32.13,38.93 L32.13,34.77 C34.6129882,35.9981675 37.3614143,36.5925147 40.13,36.5 C42.8986232,36.5929316 45.6471499,35.9985627 48.13,34.77 L48.13,38.93 C48.15,39.8 45.32,41.49 40.13,41.49 L40.13,41.49 Z M40.13,34.49 C34.93,34.49 32.13,32.8 32.13,31.93 L32.13,27.65 C34.6104251,28.8863962 37.360115,29.4844537 40.13,29.39 C42.8999232,29.4848772 45.649716,28.8867973 48.13,27.65 L48.13,31.94 C48.15,32.81 45.32,34.5 40.13,34.5 L40.13,34.49 Z" id="Shape"></path>
        </g>
    </g>
</svg>