<?xml version="1.0" encoding="UTF-8"?>
<svg width="48px" height="48px" viewBox="0 0 48 48" version="1.1" xmlns="http://www.w3.org/2000/svg" xmlns:xlink="http://www.w3.org/1999/xlink">
    <!-- Generator: Sketch 43.2 (39069) - http://www.bohemiancoding.com/sketch -->
    <title>resources.aws.ec2.customergateway</title>
    <desc>Created with Sketch.</desc>
    <defs></defs>
    <g id="Page-1" stroke="none" stroke-width="1" fill="none" fill-rule="evenodd">
        <g id="resources.aws.ec2.customergateway" fill-rule="nonzero" fill="#693CC5">
            <path d="M24,47.5 C11.0213084,47.5 0.5,36.9786916 0.5,24 C0.5,11.0213084 11.0213084,0.5 24,0.5 C36.9786916,0.5 47.5,11.0213084 47.5,24 C47.4889723,36.974121 36.974121,47.4889723 24,47.5 L24,47.5 Z M24,2.5 C12.1258779,2.5 2.5,12.1258779 2.5,24 C2.5,35.8741221 12.1258779,45.5 24,45.5 C35.8741221,45.5 45.5,35.8741221 45.5,24 C45.4889739,12.130448 35.869552,2.51102607 24,2.5 L24,2.5 Z" id="Shape"></path>
            <path d="M28,10.64 L24,6.64 L20,10.64 L18.59,9.23 L23.27,4.54 C23.4577666,4.35068735 23.7133625,4.24420168 23.98,4.24420168 C24.2466375,4.24420168 24.5022334,4.35068735 24.69,4.54 L29.37,9.23 L28,10.64 Z" id="Shape"></path>
            <rect id="Rectangle-path" x="23" y="6" width="2" height="36"></rect>
            <path d="M24,43.75 C23.734197,43.7515368 23.4787188,43.6471865 23.29,43.46 L18.61,38.77 L20,37.36 L24,41.36 L28,37.36 L29.41,38.77 L24.73,43.46 C24.5364069,43.6521891 24.2727025,43.7569484 24,43.75 Z" id="Shape"></path>
            <path d="M38.77,29.39 L37.36,28 L41.36,24 L37.36,20 L38.77,18.59 L43.46,23.27 C43.6493127,23.4577666 43.7557983,23.7133625 43.7557983,23.98 C43.7557983,24.2466375 43.6493127,24.5022334 43.46,24.69 L38.77,29.39 Z" id="Shape"></path>
            <rect id="Rectangle-path" x="6" y="23" width="36" height="2"></rect>
            <path d="M9.23,29.39 L4.54,24.71 C4.35068735,24.5222334 4.24420168,24.2666375 4.24420168,24 C4.24420168,23.7333625 4.35068735,23.4777666 4.54,23.29 L9.23,18.61 L10.65,20 L6.65,24 L10.65,28 L9.23,29.39 Z" id="Shape"></path>
        </g>
    </g>
</svg>