<?xml version="1.0" encoding="UTF-8"?>
<svg width="46px" height="48px" viewBox="0 0 46 48" version="1.1" xmlns="http://www.w3.org/2000/svg" xmlns:xlink="http://www.w3.org/1999/xlink">
    <!-- Generator: Sketch 43.2 (39069) - http://www.bohemiancoding.com/sketch -->
    <title>resources.aws.s3.bucket</title>
    <desc>Created with Sketch.</desc>
    <defs></defs>
    <g id="Page-1" stroke="none" stroke-width="1" fill="none" fill-rule="evenodd">
        <g id="resources.aws.s3.bucket" fill-rule="nonzero" fill="#3F8624">
            <path d="M21.67,47.5 C15.28,47.5 5.17,46.05 5.04,42.16 L0.51,8.55 C0.402304483,7.99771525 0.762715259,7.46269554 1.315,7.35500001 C1.86728475,7.24730449 2.40230447,7.60771526 2.51,8.16 C3.01,10.09 10.56,12.79 21.71,12.79 C32.86,12.79 40.4,10.09 40.9,8.16 C41.0076955,7.60771526 41.5427153,7.24730449 42.095,7.35500001 C42.6472847,7.46269554 43.0076955,7.99771525 42.9,8.55 L38.29,42.16 C38.29,43.48 37.07,44.61 34.78,45.52 C33.7636732,45.9071188 32.7210274,46.2212493 31.66,46.46 C28.3778287,47.1695538 25.0279429,47.5182906 21.67,47.5 Z M2.9,11.27 L7,42 L7,42.13 C7,43.31 12.69,45.55 21.63,45.55 C24.8370404,45.5673384 28.0362645,45.2319899 31.17,44.55 C32.1331349,44.3204195 33.0788273,44.0230109 34,43.66 C35.85,42.93 36.26,42.27 36.26,42.08 C36.2554444,42.0367864 36.2554444,41.9932136 36.26,41.95 L40.39,11.27 C36.53,13.57 28.75,14.79 21.62,14.79 C14.49,14.79 6.75,13.57 2.9,11.27 Z" id="Shape"></path>
            <path d="M21.67,14.79 C12.2,14.79 1.57,12.64 0.54,8.67 C0.535369331,8.62679038 0.535369331,8.58320962 0.54,8.54 L0.54,8.13 C0.535444437,8.0867864 0.535444437,8.0432136 0.54,8 C0.54,3.58 11.72,0.5 21.76,0.5 C31.8,0.5 42.89,3.58 42.89,8 L42.89,8.13 L42.83,8.54 C42.8347886,8.58320104 42.8347886,8.62679896 42.83,8.67 C41.76,12.64 31.13,14.79 21.67,14.79 Z M2.48,8.21 C3.1,10.14 10.62,12.79 21.67,12.79 C32.72,12.79 40.23,10.14 40.85,8.21 L40.85,7.94 C40.74,6 32.86,2.5 21.67,2.5 C10.48,2.5 2.59,6 2.45,7.94 L2.48,8.21 Z" id="Shape"></path>
            <path d="M42.93,28.62 C38.17,28.62 27.75,23.91 21.23,20.71 L22.11,18.91 C31.11,23.34 41.71,27.43 43.52,26.66 C43.38,26.37 42.71,25.47 39.52,23.74 L39.36,23.64 L40.36,21.9 L40.51,21.99 C43.72,23.76 45.25,25.12 45.51,26.4 C45.6135935,26.941093 45.4665158,27.4999884 45.11,27.92 C44.5182823,28.4567923 43.7236113,28.7119619 42.93,28.62 L42.93,28.62 Z" id="Shape"></path>
            <path d="M21.67,22 C20.4715421,22 19.5,21.0284579 19.5,19.83 C19.5,18.6315421 20.4715421,17.66 21.67,17.66 C22.8684579,17.66 23.84,18.6315421 23.84,19.83 C23.8345254,21.0261829 22.8661829,21.9945254 21.67,22 L21.67,22 Z M21.67,19.66 C21.623207,19.6572426 21.5773519,19.6739285 21.5432737,19.7061134 C21.5091956,19.7382983 21.4899188,19.7831259 21.49,19.83 C21.49,20.02 21.84,20.02 21.84,19.83 C21.8457397,19.7815617 21.8303964,19.7329915 21.7978721,19.6966408 C21.7653477,19.66029 21.718776,19.6396611 21.67,19.64 L21.67,19.66 Z" id="Shape"></path>
        </g>
    </g>
</svg>