<?xml version="1.0" encoding="UTF-8" standalone="no"?>
<svg width="92px" height="92px" viewBox="0 0 92 92" version="1.1" xmlns="http://www.w3.org/2000/svg" xmlns:xlink="http://www.w3.org/1999/xlink">
    <!-- Generator: Sketch 41.2 (35397) - http://www.bohemiancoding.com/sketch -->
    <title>route53_hosted_zone</title>
    <desc>Created with Sketch.</desc>
    <defs></defs>
    <g id="Page-1" stroke="none" stroke-width="1" fill="none" fill-rule="evenodd">
        <g id="route53_hosted_zone" transform="translate(1.000000, 1.000000)">
            <g id="Page-1">
                <g id="blank">
                    <g id="Page-1">
                        <g id="blank">
                            <g id="Page-1">
                                <g id="Compute-&amp;-Networking-copy_Amazon-EC2-Instance">
                                    <g id="Layer_1" stroke="#979797" fill="#FFFFFF">
                                        <circle id="Oval-1" cx="45" cy="45" r="45"></circle>
                                    </g>
                                    <g id="Layer_1" transform="translate(16.000000, 16.000000)">
                                        <path d="M29.5,3 C29.8,3 30.1,3.1 30.2,3.2 C33.2,6.5 36.1,7.7 38.8,7.7 C44.1,7.7 56,11.4 56.2,11.2 L56.2,13.7 C56,14 51.9,18.7 52.1,24.3 C52.2,27.6 53.9,29.9 55.3,32.3 C55.9,33.2 57.3,36 57.3,36 L57.3,38.5 C57.3,39.2 57.2,40 57.1,40.8 C54.4,54.2 41.3,48.8 30.6,57.5 C30.4,57.7 30.2,57.7 30.1,57.7 C29.8,57.7 29.7,57.5 29.7,57.5 C23.3,49.7 3.4,56.2 0.9,40.8 C0.7,39.8 0.7,38.9 0.7,38.1 L0.7,35.7 C0.7,35.7 2.1,32.5 2.6,31.7 C3.7,29.8 4.8,28 5,25 C5.2,20.1 1.2,15 1,14.7 L1,12.2 C1.2,12.4 14.6,7.4 20.1,7.4 C22.9,7.4 26,6.4 29.1,3.3 C29.1,3.1 29.3,3 29.5,3 Z" id="Shape" fill="#9D5025"></path>
                                        <path d="M29.5,0.5 C29.8,0.5 30.1,0.6 30.2,0.7 C33.2,4 36.1,5.2 38.8,5.2 C44.1,5.2 47.9,0.9 48.1,0.7 L56.2,11.2 C56,11.5 51.9,16.2 52.1,21.8 C52.4,28.4 58.5,30.7 57,38.2 C54.3,51.6 41.2,46.2 30.5,54.9 C30.3,55.1 30.1,55.1 30,55.1 C29.7,55.1 29.6,54.9 29.6,54.9 C23.2,47.1 3.3,53.6 0.8,38.2 C-0.6,29.7 4.6,28.7 4.8,22.4 C5,17.5 1,12.4 0.8,12.1 L10.2,0.7 C10.4,0.9 14.3,4.8 19.9,4.8 C22.7,4.8 25.8,3.8 28.9,0.7 C29.1,0.6 29.3,0.5 29.5,0.5 Z" id="Shape" fill="#F58536"></path>
                                    </g>
                                </g>
                            </g>
                        </g>
                    </g>
                </g>
            </g>
        </g>
    </g>
</svg>