<?xml version="1.0" encoding="UTF-8" standalone="no"?>
<svg width="92px" height="92px" viewBox="0 0 92 92" version="1.1" xmlns="http://www.w3.org/2000/svg" xmlns:xlink="http://www.w3.org/1999/xlink">
    <!-- Generator: Sketch 41.2 (35397) - http://www.bohemiancoding.com/sketch -->
    <title>Compute-&amp;-Networking-copy_Amazon-EC2-Instance</title>
    <desc>Created with Sketch.</desc>
    <defs></defs>
    <g id="Page-1" stroke="none" stroke-width="1" fill="none" fill-rule="evenodd">
        <g id="blank" transform="translate(1.000000, 1.000000)">
            <g id="Page-1">
                <g id="blank">
                    <g id="Page-1">
                        <g id="Compute-&amp;-Networking-copy_Amazon-EC2-Instance">
                            <g id="Layer_1" stroke="#979797" fill="#FFFFFF">
                                <circle id="Oval-1" cx="45" cy="45" r="45"></circle>
                            </g>
                            <g id="Database_AmazonDynamoDB_table" transform="translate(15.000000, 15.000000)">
                                <g id="Layer_1">
                                    <polygon id="Shape" fill="#19486F" points="9.5 12.7 0 12.7 0 10.3 4.8 3.2 9.5 10.3"></polygon>
                                    <polygon id="Shape" fill="#19486F" points="60 12.7 13.5 12.7 13.5 10.3 36.8 3.2 60 10.3"></polygon>
                                    <polygon id="Shape" fill="#19486F" points="9.5 28.2 0 28.2 0 25.8 4.8 18.7 9.5 25.8"></polygon>
                                    <polygon id="Shape" fill="#19486F" points="60 28.2 13.5 28.2 13.5 25.8 36.8 18.7 60 25.8"></polygon>
                                    <polygon id="Shape" fill="#19486F" points="9.5 43.7 0 43.7 0 41.3 4.8 34.2 9.5 41.3"></polygon>
                                    <polygon id="Shape" fill="#19486F" points="60 43.7 13.5 43.7 13.5 41.3 36.8 34.2 60 41.3"></polygon>
                                    <polygon id="Shape" fill="#19486F" points="9.5 59.2 0 59.2 0 56.8 4.8 49.7 9.5 56.8"></polygon>
                                    <polygon id="Shape" fill="#19486F" points="60 59.2 13.5 59.2 13.5 56.8 36.8 49.7 60 56.8"></polygon>
                                    <rect id="Rectangle-path" fill="#2E73B8" x="13.5" y="0.8" width="46.5" height="9.5"></rect>
                                    <rect id="Rectangle-path" fill="#2E73B8" x="13.5" y="16.3" width="46.5" height="9.5"></rect>
                                    <rect id="Rectangle-path" fill="#2E73B8" x="13.5" y="31.8" width="46.5" height="9.5"></rect>
                                    <rect id="Rectangle-path" fill="#2E73B8" x="13.5" y="47.3" width="46.5" height="9.5"></rect>
                                    <rect id="Rectangle-path" fill="#2E73B8" x="0" y="0.8" width="9.5" height="9.5"></rect>
                                    <rect id="Rectangle-path" fill="#2E73B8" x="0" y="16.3" width="9.5" height="9.5"></rect>
                                    <rect id="Rectangle-path" fill="#2E73B8" x="0" y="31.8" width="9.5" height="9.5"></rect>
                                    <rect id="Rectangle-path" fill="#2E73B8" x="0" y="47.3" width="9.5" height="9.5"></rect>
                                </g>
                            </g>
                        </g>
                    </g>
                </g>
            </g>
        </g>
    </g>
</svg>