<?xml version="1.0" encoding="UTF-8"?>
<svg width="92px" height="92px" viewBox="0 0 92 92" version="1.1" xmlns="http://www.w3.org/2000/svg" xmlns:xlink="http://www.w3.org/1999/xlink">
    <!-- Generator: Sketch 43.2 (39069) - http://www.bohemiancoding.com/sketch -->
    <title>resources.aws.ec2.address</title>
    <desc>Created with Sketch.</desc>
    <defs></defs>
    <g id="Page-1" stroke="none" stroke-width="1" fill="none" fill-rule="evenodd">
        <g id="resources.aws.ec2.address" fill-rule="nonzero">
            <circle id="Oval-1" fill="#FFFFFF" cx="46" cy="47" r="45"></circle>
            <g id="resources.aws.lambda.function" fill="#D86613">
                <path d="M72.9483333,73.0633333 L58.4008333,73.0633333 C57.6566504,73.068661 56.9766545,72.6427295 56.6566667,71.9708333 L36.2633333,28.1558333 L28.0216667,28.1558333 C26.9631209,28.1558333 26.105,27.2977124 26.105,26.2391667 L26.105,13.6466667 C26.105,12.5881209 26.9631209,11.73 28.0216667,11.73 L46.2108333,11.73 C46.9455287,11.7429295 47.6081606,12.174757 47.9166667,12.8416667 L68.2716667,56.6566667 L72.9483333,56.6566667 C74.0068791,56.6566667 74.865,57.5147876 74.865,58.5733333 L74.865,71.1466667 C74.865,72.2052124 74.0068791,73.0633333 72.9483333,73.0633333 Z M59.5316667,69.23 L71.0316667,69.23 L71.0316667,60.49 L67.0833333,60.49 C66.3347389,60.4918524 65.653575,60.057704 65.3391667,59.3783333 L45.0033333,15.5633333 L29.9575,15.5633333 L29.9575,24.3225 L37.49,24.3225 C38.2385944,24.3206476 38.9197583,24.754796 39.2341667,25.4341667 L59.5316667,69.23 Z" id="Shape"></path>
                <path d="M33.4075,73.0633333 L17.8441667,73.0633333 C17.1873851,73.0614766 16.5772896,72.7234561 16.2274494,72.1675989 C15.8776092,71.6117416 15.8367468,70.9154625 16.1191667,70.3225 L32.3916667,36.2441667 C32.7086885,35.5785394 33.3794027,35.1537537 34.1166667,35.1516667 L34.1166667,35.1516667 C34.8495906,35.1501999 35.519181,35.5668339 35.8416667,36.225 L43.6425,52.325 C43.8908262,52.8463862 43.8908262,53.4519472 43.6425,53.9733333 L35.1325,71.9708333 C34.8154782,72.6364606 34.1447639,73.0612463 33.4075,73.0633333 L33.4075,73.0633333 Z M20.8916667,69.23 L32.1808333,69.23 L39.8475,53.1683333 L34.0975,41.4958333 L20.8916667,69.23 Z" id="Shape"></path>
                <path d="M46,91.0416667 C21.1241744,91.0416667 0.958333333,70.8758256 0.958333333,46 C0.958333333,21.1241744 21.1241744,0.958333333 46,0.958333333 C70.8758256,0.958333333 91.0416667,21.1241744 91.0416667,46 C91.0205302,70.8670653 70.8670653,91.0205302 46,91.0416667 L46,91.0416667 Z M46,4.79166667 C23.2412659,4.79166667 4.79166667,23.2412659 4.79166667,46 C4.79166667,68.7587341 23.2412659,87.2083333 46,87.2083333 C68.7587341,87.2083333 87.2083333,68.7587341 87.2083333,46 C87.1766615,23.2543977 68.7456023,4.82333847 46,4.79166667 L46,4.79166667 Z" id="Shape"></path>
            </g>
        </g>
    </g>
</svg>