<?xml version="1.0" encoding="UTF-8"?>
<svg width="92px" height="92px" viewBox="0 0 92 92" version="1.1" xmlns="http://www.w3.org/2000/svg" xmlns:xlink="http://www.w3.org/1999/xlink">
    <!-- Generator: Sketch 43.2 (39069) - http://www.bohemiancoding.com/sketch -->
    <title>Group</title>
    <desc>Created with Sketch.</desc>
    <defs></defs>
    <g id="Page-1" stroke="none" stroke-width="1" fill="none" fill-rule="evenodd">
        <g id="Group" transform="translate(1.000000, 1.000000)" fill-rule="nonzero">
            <circle id="Oval-1" stroke="#979797" fill="#FFFFFF" cx="45" cy="45" r="45"></circle>
            <g id="Compute_AWSElasticBeanstalk_deployment" transform="translate(23.000000, 9.000000)">
                <path d="M26,16.13 C26,23.2544733 20.2244733,29.03 13.1,29.03 C5.97552673,29.03 0.2,23.2544733 0.2,16.13 L0.2,13.65 L13,3.23 L26,13.65 L26,16.13 Z" id="Shape" fill="#6B3A19"></path>
                <path d="M23.65,35.78 C23.5699988,35.8565403 23.4599251,35.8932315 23.35,35.88 C22.7399132,35.686401 22.2346287,35.2533001 21.95,34.68 C21.75,34.18 22.25,32.28 22.75,32.08 C22.95,31.98 39.55,25.98 48.35,11.78 L48.35,9.3 C48.35,9.3 32.1,15.85 28.15,18.18 L28.15,19.08 C28.1181826,24.3885771 24.8178062,29.1283949 19.85,31 C19.45,32.9 20.05,34.9 19.05,37.1 L19.05,66.5 L28.05,66.5 L28.05,36.88 C35.05,36.28 42.45,34.88 45.05,32.18 C47.95,29.28 49.15,20.78 49.75,14.88 L49.75,12.4 C49.75,12.4 47.08,18.77 46.75,19.21 C40.6551505,26.683553 32.6828217,32.4022321 23.65,35.78 L23.65,35.78 Z" id="Shape" fill="#6B3A19"></path>
                <circle id="Oval" fill="#F58536" cx="13.05" cy="13.65" r="12.9"></circle>
                <path d="M9.75,23.9 L16.35,23.9 L16.35,11.3 L21,11.3 L13,3.4 L5,11.3 L9.7,11.3 L9.75,23.9 Z M7.25,10.4 L13,4.7 L18.8,10.4 L15.4,10.4 L15.4,23 L10.6,23 L10.6,10.4 L7.25,10.4 Z" id="Shape" fill="#FFFFFF"></path>
                <path d="M23.65,33.3 C23.5699988,33.3765403 23.4599251,33.4132315 23.35,33.4 C22.7586768,33.1948442 22.2730685,32.7631923 22,32.2 C21.8,31.7 22.3,29.8 22.8,29.6 C23,29.5 39.6,23.5 48.4,9.3 C42.4,10.1 33.3,12.7 28.2,15.7 L28.2,16.6 C28.1599345,21.9012465 24.8610198,26.6310158 19.9,28.5 C19.5,30.4 20.1,32.4 19.1,34.6 L19.1,64 L28.1,64 L28.1,34.4 C35.1,33.8 42.5,32.4 45.1,29.7 C48,26.8 49.2,18.3 49.8,12.4 C40.55,27.5 24.45,33 23.65,33.3 Z" id="Shape" fill="#F58536"></path>
            </g>
        </g>
    </g>
</svg>