<?xml version="1.0" encoding="UTF-8"?>
<svg width="92px" height="92px" viewBox="0 0 92 92" version="1.1" xmlns="http://www.w3.org/2000/svg" xmlns:xlink="http://www.w3.org/1999/xlink">
    <!-- Generator: Sketch 43.2 (39069) - http://www.bohemiancoding.com/sketch -->
    <title>blank</title>
    <desc>Created with Sketch.</desc>
    <defs></defs>
    <g id="Page-1" stroke="none" stroke-width="1" fill="none" fill-rule="evenodd">
        <g id="blank" transform="translate(1.000000, 1.000000)" fill-rule="nonzero">
            <circle id="Oval-1" stroke="#979797" fill="#FFFFFF" cx="45" cy="45" r="45"></circle>
            <g id="Compute_AmazonECS_ECScontainer" transform="translate(11.000000, 26.000000)">
                <rect id="Rectangle-path" fill="#9D5025" x="0.633333333" y="3.306" width="67.1333333" height="34.5166667"></rect>
                <rect id="Rectangle-path" fill="#F58536" x="0.633333333" y="0.164666667" width="67.1333333" height="34.5166667"></rect>
                <rect id="Rectangle-path" fill="#FBBF93" x="15.1366667" y="2.22933333" width="3.16666667" height="30.4"></rect>
                <rect id="Rectangle-path" fill="#FBBF93" x="20.9633333" y="2.22933333" width="3.16666667" height="30.4"></rect>
                <rect id="Rectangle-path" fill="#FBBF93" x="26.79" y="2.22933333" width="3.16666667" height="30.4"></rect>
                <rect id="Rectangle-path" fill="#FBBF93" x="3.48333333" y="2.22933333" width="3.16666667" height="30.4"></rect>
                <rect id="Rectangle-path" fill="#FBBF93" x="9.31" y="2.22933333" width="3.16666667" height="30.4"></rect>
                <rect id="Rectangle-path" fill="#FBBF93" x="32.6166667" y="2.22933333" width="3.16666667" height="30.4"></rect>
                <rect id="Rectangle-path" fill="#FBBF93" x="38.4433333" y="2.22933333" width="3.16666667" height="30.4"></rect>
                <rect id="Rectangle-path" fill="#FBBF93" x="44.27" y="2.22933333" width="3.16666667" height="30.4"></rect>
                <rect id="Rectangle-path" fill="#FBBF93" x="50.0966667" y="2.22933333" width="3.16666667" height="30.4"></rect>
                <rect id="Rectangle-path" fill="#FBBF93" x="55.9233333" y="2.22933333" width="3.16666667" height="30.4"></rect>
                <rect id="Rectangle-path" fill="#FBBF93" x="61.75" y="2.22933333" width="3.16666667" height="30.4"></rect>
                <rect id="Rectangle-path" fill="#FFFFFF" x="4.30666667" y="3.05266667" width="2.34333333" height="29.5766667"></rect>
                <rect id="Rectangle-path" fill="#FFFFFF" x="10.1333333" y="3.05266667" width="2.34333333" height="29.5766667"></rect>
                <rect id="Rectangle-path" fill="#FFFFFF" x="15.96" y="3.05266667" width="2.34333333" height="29.5766667"></rect>
                <rect id="Rectangle-path" fill="#FFFFFF" x="21.7866667" y="3.05266667" width="2.34333333" height="29.5766667"></rect>
                <rect id="Rectangle-path" fill="#FFFFFF" x="27.6133333" y="3.05266667" width="2.34333333" height="29.5766667"></rect>
                <rect id="Rectangle-path" fill="#FFFFFF" x="33.44" y="3.05266667" width="2.34333333" height="29.5766667"></rect>
                <rect id="Rectangle-path" fill="#FFFFFF" x="39.2666667" y="3.05266667" width="2.34333333" height="29.5766667"></rect>
                <rect id="Rectangle-path" fill="#FFFFFF" x="45.0933333" y="3.05266667" width="2.34333333" height="29.5766667"></rect>
                <rect id="Rectangle-path" fill="#FFFFFF" x="50.92" y="3.05266667" width="2.34333333" height="29.5766667"></rect>
                <rect id="Rectangle-path" fill="#FFFFFF" x="56.7466667" y="3.05266667" width="2.34333333" height="29.5766667"></rect>
                <rect id="Rectangle-path" fill="#FFFFFF" x="62.5733333" y="3.05266667" width="2.34333333" height="29.5766667"></rect>
            </g>
        </g>
    </g>
</svg>