<?xml version="1.0" encoding="UTF-8" standalone="no"?>
<svg width="90px" height="93px" viewBox="0 0 90 93" version="1.1" xmlns="http://www.w3.org/2000/svg" xmlns:xlink="http://www.w3.org/1999/xlink" xmlns:sketch="http://www.bohemiancoding.com/sketch/ns">
    <!-- Generator: Sketch 3.3.2 (12043) - http://www.bohemiancoding.com/sketch -->
    <title>Compute &amp; Networking copy_Elastic Load Balancing</title>
    <desc>Created with Sketch.</desc>
    <defs>
        <path id="path-1" d="M89.4841071,4.23631034 L89.37,8.05572414 C88.63875,32.3415517 68.1541071,51.4386207 43.6082143,50.7042414 C19.0848214,49.9682586 -0.21375,29.6798276 0.515892857,5.394 L0.63,1.57458621 C-0.0996428571,25.8572069 19.2005357,46.1456379 43.7223214,46.8800172 C68.2698214,47.6143966 88.7528571,28.5173276 89.4841071,4.23631034 L89.4841071,4.23631034 Z"></path>
    </defs>
    <g id="Page-1" stroke="none" stroke-width="1" fill="none" fill-rule="evenodd" sketch:type="MSPage">
        <g id="Compute-&amp;-Networking-copy_Elastic-Load-Balancing" sketch:type="MSLayerGroup" transform="translate(-5.000000, -3.000000)">
            <g id="Layer_1" transform="translate(5.000000, 3.000000)">
                <path d="M46.3708929,0.607706897 C70.9151786,1.34208621 90.2153571,21.6160862 89.4841071,45.9259655 C88.7528571,70.2085862 68.2698214,89.3056552 43.7239286,88.5712759 C19.2005357,87.8368966 -0.0996428571,67.5484655 0.631607143,43.2658448 C1.36285714,18.9543621 21.8475,-0.126672414 46.3708929,0.607706897 L46.3708929,0.607706897 Z" id="Shape" fill="#F58536" sketch:type="MSShapeGroup"></path>
                <g id="Group" transform="translate(0.000000, 41.689655)">
                    <g id="SVGID_91_-link" fill="#9D5025" sketch:type="MSShapeGroup">
                        <path d="M89.4841071,4.23631034 L89.37,8.05572414 C88.63875,32.3415517 68.1541071,51.4386207 43.6082143,50.7042414 C19.0848214,49.9682586 -0.21375,29.6798276 0.515892857,5.394 L0.63,1.57458621 C-0.0996428571,25.8572069 19.2005357,46.1456379 43.7223214,46.8800172 C68.2698214,47.6143966 88.7528571,28.5173276 89.4841071,4.23631034 L89.4841071,4.23631034 Z" id="SVGID_91_"></path>
                    </g>
                    <g id="Clipped">
                        <mask id="mask-2" sketch:name="SVGID_91_" fill="white">
                            <use xlink:href="#path-1"></use>
                        </mask>
                        <g id="SVGID_91_"></g>
                        <g id="Group" mask="url(#mask-2)" fill="#9D5025" sketch:type="MSShapeGroup">
                            <path d="M86.985,17.5369138 L86.8708929,21.3595345 C85.9258929,24.0356897 84.7221429,26.5851724 83.2933929,28.9887414 L83.4075,25.1661207 C84.83625,22.7609483 86.0416071,20.2114655 86.985,17.5369138" id="Shape"></path>
                            <path d="M83.4075,25.1645172 L83.2933929,28.9871379 C75.3380357,42.3967759 60.4253571,51.2045172 43.6082143,50.7026379 C19.0848214,49.9682586 -0.21375,29.6798276 0.515892857,5.394 L0.63,1.57458621 C-0.0996428571,25.8572069 19.2005357,46.1456379 43.7223214,46.8800172 C60.5410714,47.3835 75.4521429,38.5789655 83.4075,25.1645172" id="Shape"></path>
                            <path d="M89.4841071,4.23631034 L89.37,8.05572414 C89.3057143,10.1915172 89.08875,12.2808103 88.72875,14.3252069 L88.8444643,10.5025862 C89.2028571,8.45658621 89.4198214,6.36889655 89.4841071,4.23631034" id="Shape"></path>
                            <path d="M88.8428571,10.5025862 L88.7271429,14.3252069 C88.2964286,16.7432069 87.6776786,19.1002759 86.8708929,21.3595345 L86.985,17.5369138 C87.7917857,15.2760517 88.4121429,12.9237931 88.8428571,10.5025862" id="Shape"></path>
                        </g>
                    </g>
                </g>
                <path d="M73.9173214,29.6637931 L59.4530357,29.6637931 L59.4530357,26.7920172 L54.9610714,32.4441724 L52.8958929,29.5323103 L32.5108929,42.4913793 L49.8101786,42.4913793 L49.8101786,39.4095517 L59.4530357,43.0076897 L59.4530357,37.6810345 L73.9173214,37.6810345 L73.9173214,52.112069 L59.4530357,52.112069 L59.4530357,46.7854138 L49.8101786,50.3835517 L49.8101786,47.3017241 L32.5141071,47.3017241 L53.0839286,60.2591897 L54.9610714,57.2479138 L59.4530357,63.0010862 L59.4530357,60.1293103 L73.9173214,60.1293103 L73.9173214,74.5603448 L59.4530357,74.5603448 L59.4530357,68.7911379 L49.4598214,66.3923793 L50.8258929,63.4981552 L25.7030357,47.2824828 L25.7030357,56.9224138 L9.63160714,56.9224138 L9.63160714,32.8706897 L25.7030357,32.8706897 L25.7030357,42.5074138 L51.0123214,26.2933448 L49.4614286,23.4007241 L59.4530357,21.0019655 L59.4530357,15.2327586 L73.9173214,15.2327586 L73.9173214,29.6637931 L73.9173214,29.6637931 Z" id="Shape" fill="#FFFFFF" sketch:type="MSShapeGroup"></path>
            </g>
        </g>
    </g>
</svg>