<?xml version="1.0" encoding="UTF-8"?>
<svg width="92px" height="92px" viewBox="0 0 92 92" version="1.1" xmlns="http://www.w3.org/2000/svg" xmlns:xlink="http://www.w3.org/1999/xlink">
    <!-- Generator: Sketch 47.1 (45422) - http://www.bohemiancoding.com/sketch -->
    <title>blank</title>
    <desc>Created with Sketch.</desc>
    <defs></defs>
    <g id="Page-1" stroke="none" stroke-width="1" fill="none" fill-rule="evenodd">
        <g id="blank" transform="translate(1.000000, 1.000000)" fill-rule="nonzero">
            <circle id="Oval-1" stroke="#979797" fill="#FFFFFF" stroke-dasharray="3,2" cx="45" cy="45" r="45"></circle>
            <g id="Compute_AmazonVPC" transform="translate(18.000000, 12.000000)">
                <polygon id="Shape" fill="#FBBF93" points="36.2414535 37.794312 27.5308877 37.2605169 0.0647024387 39.0236584 7.81281948 56.5175802"></polygon>
                <polygon id="Shape" fill="#9D5025" points="7.70767801 9.87520971 0.0647024387 13.7330926 0.0647024387 33.1599998 7.70767801 33.1599998 18.5210731 23.3575804"></polygon>
                <polygon id="Shape" fill="#F58536" points="36.2414535 37.794312 7.81281948 40.1640388 7.81281948 56.5175802 36.2414535 48.777551"></polygon>
                <polygon id="Shape" fill="#F58536" points="21.5620877 33.1599998 7.70767801 33.1599998 7.70767801 9.87520971 21.5620877 13.6279512"></polygon>
                <polygon id="Shape" fill="#9D5025" points="41.4742632 33.1438242 51.4222632 33.1599998 51.4222632 14.0646926 41.4742632 15.7146048"></polygon>
                <polygon id="Shape" fill="#6B3A19" points="21.9988292 17.6395024 30.9520291 8.65395118 51.4222632 20.4540584 41.4742632 21.8532487"></polygon>
                <polygon id="Shape" fill="#9D5025" points="12.8434341 33.1599998 27.4661852 33.1599998 35.1334242 17.8255219 27.4661852 0 12.8434341 7.31137558"></polygon>
                <polygon id="Shape" fill="#F58536" points="27.4661852 0 27.4661852 33.1599998 35.683395 33.1599998 35.683395 15.7307804 51.4222632 20.4540584 51.4222632 33.1599998 54.9323705 33.1599998 54.9323705 13.7330926"></polygon>
                <polygon id="Shape" fill="#9D5025" points="0.0647024387 39.0236584 7.81281948 40.1640388 7.81281948 56.5175802 0.0647024387 52.6516095"></polygon>
                <polygon id="Shape" fill="#FBBF93" points="54.9323705 38.9508681 41.7249852 38.1339998 12.8434341 40.9323803 27.4661852 66.3199997"></polygon>
                <polygon id="Shape" fill="#F58536" points="54.9323705 38.9508681 27.4661852 43.0675608 27.4661852 66.3199997 54.9323705 52.5869071"></polygon>
                <polygon id="Shape" fill="#9D5025" points="12.8434341 40.9323803 27.4661852 43.0675608 27.4661852 66.3199997 12.8434341 59.0247997"></polygon>
            </g>
        </g>
    </g>
</svg>