<?xml version="1.0" encoding="UTF-8"?>
<svg width="92px" height="92px" viewBox="0 0 92 92" version="1.1" xmlns="http://www.w3.org/2000/svg" xmlns:xlink="http://www.w3.org/1999/xlink">
    <!-- Generator: Sketch 43.2 (39069) - http://www.bohemiancoding.com/sketch -->
    <title>workspaces</title>
    <desc>Created with Sketch.</desc>
    <defs>
        <linearGradient x1="50%" y1="0.517647059%" x2="50%" y2="99.8352941%" id="linearGradient-1">
            <stop stop-color="#F58536" offset="0%"></stop>
            <stop stop-color="#D16929" offset="100%"></stop>
        </linearGradient>
    </defs>
    <g id="Page-1" stroke="none" stroke-width="1" fill="none" fill-rule="evenodd">
        <g id="workspaces" transform="translate(1.000000, 1.000000)">
            <g id="Page-1" fill="#FFFFFF" stroke="#979797">
                <g id="blank">
                    <g id="Page-1">
                        <g id="Compute-&amp;-Networking-copy_Amazon-EC2-Instance">
                            <g id="Layer_1">
                                <circle id="Oval-1" cx="45" cy="45" r="45"></circle>
                            </g>
                        </g>
                    </g>
                </g>
            </g>
            <g id="DesktopAppStreaming_AmazonWorkSpaces" transform="translate(8.000000, 2.000000)" fill-rule="nonzero">
                <polygon id="Shape" fill="url(#linearGradient-1)" points="0 21.7 37 0.5 74 21.7 74 64.2 37 85.5 0 64.2"></polygon>
                <path d="M24.4,23.4 L24.4,33.3 L13.2,33.3 C12.150659,33.3 11.3,34.150659 11.3,35.2 L11.3,35.2 L11.3,61.5 L11.3,61.5 C11.3,62.549341 12.150659,63.4 13.2,63.4 L32.2,63.4 C33.249341,63.4 34.1,62.549341 34.1,61.5 L34.1,61.5 L34.1,58.7 L56.5,58.7 L56.5,56.7 C56.5,55.4 51.9,54.3 45.7,54 L45.7,51 L61.8,51 L61.8,23.4 L24.4,23.4 Z M22.7,62.5 C21.8163444,62.5 21.1,61.7836556 21.1,60.9 C21.1,60.0163444 21.8163444,59.3 22.7,59.3 C23.5836556,59.3 24.3,60.0163444 24.3,60.9 C24.3054272,61.325987 24.1385997,61.7361142 23.8373569,62.0373569 C23.5361142,62.3385997 23.125987,62.5054272 22.7,62.5 L22.7,62.5 Z M30.3,58.4 L15.2,58.4 L15.2,37.2 L30.3,37.2 L30.3,58.4 Z M40.4,54 C38.2897661,54.0719088 36.1858709,54.2722798 34.1,54.6 L34.1,50.9 L40.4,50.9 L40.4,54 Z M58,47.1 L34.2,47.1 L34.2,35.2 L34.2,35.2 C34.2,34.150659 33.349341,33.3 32.3,33.3 L28.4,33.3 L28.4,27.4 L58.1,27.4 L58.1,47.1 L58,47.1 Z" id="Shape" fill="#FFFFFF"></path>
            </g>
        </g>
    </g>
</svg>