<?xml version="1.0" encoding="UTF-8"?>
<svg width="92px" height="92px" viewBox="0 0 92 92" version="1.1" xmlns="http://www.w3.org/2000/svg" xmlns:xlink="http://www.w3.org/1999/xlink">
    <!-- Generator: Sketch 47.1 (45422) - http://www.bohemiancoding.com/sketch -->
    <title>Compute_AmazonVPC_elasticnetworkinterface</title>
    <desc>Created with Sketch.</desc>
    <defs></defs>
    <g id="Page-1" stroke="none" stroke-width="1" fill="none" fill-rule="evenodd">
        <g id="Compute_AmazonVPC_elasticnetworkinterface" fill-rule="nonzero">
            <ellipse id="Oval" fill="#9D5025" cx="46" cy="47.796875" rx="45.1541935" ry="43.743125"></ellipse>
            <rect id="Rectangle-path" fill="#9D5025" x="0.845806452" y="44.203125" width="90.3083871" height="3.59375"></rect>
            <ellipse id="Oval" fill="#F58536" cx="46" cy="44.203125" rx="45.1541935" ry="43.743125"></ellipse>
            <polygon id="Shape" fill="#FFFFFF" points="15.2096774 25.515625 15.2096774 25.515625 15.2096774 28.75 19.32 28.75 19.32 63.25 15.2096774 63.25 15.2096774 66.484375 23.1632258 66.484375 23.1632258 25.515625 15.2096774 25.515625 15.2096774 25.515625"></polygon>
            <polygon id="Shape" fill="#FFFFFF" points="76.7903226 29.98625 76.7903226 29.98625 26.7541935 29.98625 26.7541935 57.054375 31.636129 57.054375 31.636129 62.5025 52.9296774 62.5025 52.9296774 57.054375 60.616129 57.054375 60.616129 62.5025 69.8606452 62.5025 69.8606452 57.054375 76.7903226 57.054375 76.7903226 29.98625 76.7903226 29.98625"></polygon>
            <polygon id="Shape" fill="#D9A741" points="32.1406452 33.968125 32.1406452 33.968125 70.6322581 33.968125 70.6322581 52.828125 32.1406452 52.828125 32.1406452 33.968125 32.1406452 33.968125"></polygon>
            <polygon id="Shape" fill="#FFFFFF" points="36.2509677 36.94375 36.2509677 36.94375 49.5909677 36.94375 49.5909677 49.59375 36.2509677 49.59375 36.2509677 36.94375 36.2509677 36.94375"></polygon>
            <polygon id="Shape" fill="#FFFFFF" points="53.7012903 36.94375 53.7012903 36.94375 67.0412903 36.94375 67.0412903 49.59375 53.7012903 49.59375 53.7012903 36.94375 53.7012903 36.94375"></polygon>
        </g>
    </g>
</svg>