<?xml version="1.0" encoding="UTF-8" standalone="no"?>
<svg width="90px" height="93px" viewBox="0 0 90 93" version="1.1" xmlns="http://www.w3.org/2000/svg" xmlns:xlink="http://www.w3.org/1999/xlink" xmlns:sketch="http://www.bohemiancoding.com/sketch/ns">
    <!-- Generator: Sketch 3.3.2 (12043) - http://www.bohemiancoding.com/sketch -->
    <title>Compute &amp; Networking copy_Amazon VPC Internet Gateway</title>
    <desc>Created with Sketch.</desc>
    <defs>
        <path id="path-1" d="M89.4455357,1.302 L89.4455357,5.12301724 C89.4455357,29.4184655 69.5442857,49.1200345 44.98875,49.1200345 C20.4541071,49.1200345 0.554464286,29.4184655 0.554464286,5.12301724 L0.554464286,1.302 C0.554464286,25.5942414 20.4557143,45.2974138 44.98875,45.2974138 C69.5442857,45.2958103 89.4455357,25.5942414 89.4455357,1.302 L89.4455357,1.302 Z"></path>
    </defs>
    <g id="Page-1" stroke="none" stroke-width="1" fill="none" fill-rule="evenodd" sketch:type="MSPage">
        <g id="Compute-&amp;-Networking-copy_Amazon-VPC-Internet-Gateway" sketch:type="MSLayerGroup" transform="translate(-5.000000, -3.000000)">
            <g id="Layer_1" transform="translate(5.000000, 3.000000)">
                <g id="Group">
                    <path d="M44.98875,0.586862069 C69.5442857,0.586862069 89.4455357,20.2723966 89.4455357,44.5935 C89.4455357,68.8857414 69.5442857,88.5889138 44.98875,88.5889138 C20.4541071,88.5889138 0.554464286,68.8873448 0.554464286,44.5935 C0.554464286,20.274 20.4557143,0.586862069 44.98875,0.586862069 L44.98875,0.586862069 Z" id="Shape" fill="#F58536" sketch:type="MSShapeGroup"></path>
                    <g transform="translate(0.000000, 43.293103)">
                        <g id="SVGID_97_-link" fill="#9D5025" sketch:type="MSShapeGroup">
                            <path d="M89.4455357,1.302 L89.4455357,5.12301724 C89.4455357,29.4184655 69.5442857,49.1200345 44.98875,49.1200345 C20.4541071,49.1200345 0.554464286,29.4184655 0.554464286,5.12301724 L0.554464286,1.302 C0.554464286,25.5942414 20.4557143,45.2974138 44.98875,45.2974138 C69.5442857,45.2958103 89.4455357,25.5942414 89.4455357,1.302 L89.4455357,1.302 Z" id="SVGID_97_"></path>
                        </g>
                        <g id="Clipped">
                            <mask id="mask-2" sketch:name="SVGID_97_" fill="white">
                                <use xlink:href="#path-1"></use>
                            </mask>
                            <g id="SVGID_97_"></g>
                            <g id="Group" mask="url(#mask-2)" fill="#9D5025" sketch:type="MSShapeGroup">
                                <path d="M87.3498214,14.6699483 L87.3498214,18.4941724 C86.4867857,21.1975862 85.3601786,23.7807414 84.00375,26.226 L84.00375,22.4017759 C85.3585714,19.9565172 86.4851786,17.3733621 87.3498214,14.6699483" id="Shape"></path>
                                <path d="M84.00375,22.4033793 L84.00375,26.2276034 C76.455,39.8697414 61.8139286,49.1200345 44.9903571,49.1200345 C20.4557143,49.1200345 0.556071429,29.4184655 0.556071429,5.12301724 L0.556071429,1.302 C0.556071429,25.5942414 20.4573214,45.2974138 44.9903571,45.2974138 C61.8139286,45.2958103 76.4533929,36.0471207 84.00375,22.4033793" id="Shape"></path>
                                <path id="Shape" d="M89.4455357,1.302 L89.4455357,5.12301724 C89.4455357,7.25881034 89.29125,9.35451724 88.9939286,11.4085345 L88.9939286,7.58431034 C89.2928571,5.52868966 89.4455357,3.43458621 89.4455357,1.302"></path>
                                <path d="M88.9939286,7.5827069 L88.9939286,11.406931 C88.6355357,13.8377586 88.0875,16.2108621 87.3498214,18.4941724 L87.3498214,14.6699483 C88.0875,12.3882414 88.6355357,10.0167414 88.9939286,7.5827069" id="Shape"></path>
                            </g>
                        </g>
                    </g>
                    <path d="M8.13214286,49.3413103 L8.13214286,48.1707931 C8.13214286,43.3893103 11.7883929,37.0556897 17.1883929,34.7226724 C17.6094643,24.287431 26.31375,15.9286552 36.9482143,15.9286552 C44.0292857,15.9286552 50.5430357,19.7111897 54.0530357,25.7161034 C55.4126786,25.1308448 56.8816071,24.8261897 58.3907143,24.8261897 C63.7858929,24.8261897 68.2473214,28.6343793 69.1633929,33.7509828 C76.53375,35.1972931 81.86625,42.2412414 81.86625,48.1691897 L81.86625,49.3397069 C81.86625,56.558431 74.3705357,62.8904483 65.8285714,62.8904483 L24.1714286,62.8904483 C15.6278571,62.8936552 8.13214286,56.5600345 8.13214286,49.3413103 L8.13214286,49.3413103 Z" id="Shape" fill="#FFFFFF" sketch:type="MSShapeGroup"></path>
                    <path d="M55.0494643,30.8551552 L51.9332143,32.9877414 L50.3855357,29.5579655 C48.0069643,24.3098793 42.7323214,20.9201897 36.9482143,20.9201897 C33.0091071,20.9201897 29.3142857,22.445069 26.53875,25.217431 C23.74875,27.9913966 22.2171429,31.7065862 22.2171429,35.6366379 L22.2798214,38.3608966 L19.9639286,39.027931 C16.2032143,40.1054483 13.1705357,44.9125862 13.1705357,48.1691897 L13.1705357,49.3397069 C13.1705357,53.2986207 17.9758929,57.9021207 24.1730357,57.9021207 L65.8301786,57.9021207 C72.0241071,57.9021207 76.8294643,53.2986207 76.8294643,49.3397069 L76.8294643,48.1691897 C76.8294643,44.1862241 72.3776786,38.9429483 67.1769643,38.502 L64.3869643,38.2695 L64.2953571,35.4923276 C64.1925,32.3175 61.5953571,29.8177241 58.3907143,29.8177241 C57.1901786,29.8193276 56.0314286,30.1752931 55.0494643,30.8551552 L55.0494643,30.8551552 Z" id="Shape" fill="#F58536" sketch:type="MSShapeGroup"></path>
                </g>
            </g>
        </g>
    </g>
</svg>