<?xml version="1.0" encoding="UTF-8" standalone="no"?>
<svg width="92px" height="92px" viewBox="0 0 92 92" version="1.1" xmlns="http://www.w3.org/2000/svg" xmlns:xlink="http://www.w3.org/1999/xlink">
    <!-- Generator: Sketch 41.2 (35397) - http://www.bohemiancoding.com/sketch -->
    <title>Compute-&amp;-Networking-copy_Amazon-EC2-Instance</title>
    <desc>Created with Sketch.</desc>
    <defs></defs>
    <g id="Page-1" stroke="none" stroke-width="1" fill="none" fill-rule="evenodd">
        <g id="blank">
            <g id="Page-1">
                <g id="blank">
                    <g id="Page-1">
                        <g id="Compute-&amp;-Networking-copy_Amazon-EC2-Instance">
                            <g id="Layer_1" transform="translate(1.000000, 1.000000)" stroke="#979797">
                                <circle id="Oval-1" cx="45" cy="45" r="45"></circle>
                            </g>
                            <g id="Layer_1">
                                <ellipse id="Oval" fill="#9D5025" cx="46" cy="47.86875" rx="45.1096774" ry="43.7"></ellipse>
                                <ellipse id="Oval" fill="#F58536" cx="46" cy="44.13125" rx="45.1096774" ry="43.7"></ellipse>
                                <path d="M58.1677419,43.9875 L58.1677419,35.21875 C57.5741935,29.46875 52.3806452,24.86875 46.1483871,24.86875 C39.916129,24.86875 34.7225806,29.325 34.1290323,35.21875 L34.1290323,43.9875 L27.8967742,43.9875 L27.8967742,63.5375 L64.2516129,63.5375 L64.2516129,43.9875 L58.1677419,43.9875 Z M52.2322581,43.9875 L39.916129,43.9875 L39.916129,35.21875 C39.916129,35.21875 39.916129,29.75625 46.1483871,29.75625 C52.083871,29.75625 52.3806452,35.21875 52.3806452,35.21875 L52.2322581,43.9875 Z" id="Shape" fill="#FFFFFF"></path>
                            </g>
                        </g>
                    </g>
                </g>
            </g>
        </g>
    </g>
</svg>