<?xml version="1.0" encoding="UTF-8" standalone="no"?>
<svg width="92px" height="92px" viewBox="0 0 92 92" version="1.1" xmlns="http://www.w3.org/2000/svg" xmlns:xlink="http://www.w3.org/1999/xlink" xmlns:sketch="http://www.bohemiancoding.com/sketch/ns">
    <!-- Generator: Sketch 3.3.2 (12043) - http://www.bohemiancoding.com/sketch -->
    <title>Compute-&amp;-Networking-copy_Amazon-EC2-Instance</title>
    <desc>Created with Sketch.</desc>
    <defs></defs>
    <g id="Page-1" stroke="none" stroke-width="1" fill="none" fill-rule="evenodd" sketch:type="MSPage">
        <g id="instance" sketch:type="MSLayerGroup" transform="translate(1.000000, 1.000000)">
            <g id="Page-1" sketch:type="MSShapeGroup">
                <g id="Compute-&amp;-Networking-copy_Amazon-EC2-Instance">
                    <g id="Layer_1" stroke="#979797" fill="#FFFFFF">
                        <circle id="Oval-1" cx="45" cy="45" r="45"></circle>
                    </g>
                    <g id="Group" transform="translate(5.000000, 6.333333)">
                        <rect id="Rectangle-path" fill="#9D5125" x="23.7933333" y="17.1733333" width="5.99733333" height="3.39333333"></rect>
                        <rect id="Rectangle-path" fill="#9D5125" x="49.9653333" y="17.1733333" width="5.992" height="3.39333333"></rect>
                        <path d="M49.9653333,28.0426667 L49.9653333,31.436 L41.8506667,39.804 L41.8506667,36.408 L49.9653333,28.0426667 Z" id="Shape" fill="#9D5125"></path>
                        <path d="M38.2533333,36.408 L38.2533333,39.804 L29.7906667,31.1573333 L29.7906667,27.7613333 L38.2533333,36.408 Z" id="Shape" fill="#9D5125"></path>
                        <rect id="Rectangle-path" fill="#9D5125" x="65.184" y="44.2693333" width="13.896" height="3.396"></rect>
                        <rect id="Rectangle-path" fill="#9D5125" x="0.92" y="44.2693333" width="13.896" height="3.396"></rect>
                        <path d="M65.184,52.3893333 L65.184,55.788 L48.8706667,39.7173333 L48.8706667,36.3213333 L65.184,52.3893333 Z" id="Shape" fill="#9D5125"></path>
                        <path d="M14.816,20.444 L31.1293333,36.4986667 L14.816,52.3893333 L14.816,44.2693333 L0.92,44.2693333 L0.92,28.548 L14.816,28.548 L14.816,20.444 Z" id="Shape" fill="#F48334"></path>
                        <path d="M31.1293333,36.4986667 L31.1293333,39.892 L14.816,55.788 L14.816,52.3893333 L31.1293333,36.4986667 Z" id="Shape" fill="#9D5125"></path>
                        <path d="M65.184,20.444 L65.184,28.5666667 L79.08,28.5666667 L79.08,44.2693333 L65.184,44.2693333 L65.184,52.3893333 L48.8706667,36.3213333 L65.184,20.444 Z" id="Shape" fill="#F48334"></path>
                        <path d="M55.9573333,56.7666667 L55.9573333,60.1626667 L39.788,76.356 L39.0226667,72.2093333 L55.9573333,56.7666667 Z" id="Shape" fill="#9D5125"></path>
                        <path d="M39.788,72.9573333 L39.788,76.356 L23.7933333,60.1626667 L23.7933333,56.7666667 L39.788,72.9573333 Z" id="Shape" fill="#9D5125"></path>
                        <path d="M39.9653333,0.977333333 L55.9573333,17.1733333 L49.9653333,17.1733333 L49.9653333,28.0426667 L41.8506667,36.408 L49.9653333,45.004 L49.9653333,56.7666667 L55.9573333,56.7666667 L39.788,72.9573333 L23.7933333,56.7666667 L29.7906667,56.7666667 L29.7906667,45.1266667 L38.2533333,36.408 L29.7906667,27.7613333 L29.7906667,17.1733333 L23.7933333,17.1733333 L39.9653333,0.977333333 Z" id="Shape" fill="#F48334"></path>
                    </g>
                </g>
            </g>
        </g>
    </g>
</svg>