<?xml version="1.0" encoding="UTF-8"?>
<svg width="92px" height="92px" viewBox="0 0 92 92" version="1.1" xmlns="http://www.w3.org/2000/svg" xmlns:xlink="http://www.w3.org/1999/xlink">
    <!-- Generator: Sketch 43.2 (39069) - http://www.bohemiancoding.com/sketch -->
    <title>s3_bucket</title>
    <desc>Created with Sketch.</desc>
    <defs></defs>
    <g id="Page-1" stroke="none" stroke-width="1" fill="none" fill-rule="evenodd">
        <g id="s3_bucket" transform="translate(1.000000, 1.000000)">
            <g id="Layer_1" stroke="#979797" fill="#FFFFFF">
                <circle id="Oval-1" cx="45" cy="45" r="45"></circle>
            </g>
            <g id="Layer_1" transform="translate(18.000000, 17.000000)" fill-rule="nonzero">
                <path d="M27,3.1 L53.5,7 L53.5,9.3 C53.5,12.8 41.6,15.5 27,15.5 C12.4,15.5 0.5,12.7 0.5,9.3 L0.5,6.8 L27,3.1 Z" id="Shape" fill="#8C3123"></path>
                <path d="M27,19.8 C38.1,19.8 47.6,18.2 51.5,15.9 L52.8,13.7 L53.3,11.7 L53.3,14.2 L44.6,51.2 C44.6,53.5 36.7,55.3 26.9,55.3 C17.1,55.3 9.2,53.5 9.2,51.2 L0.5,14.2 L0.5,11.7 L2.5,15.9 C6.7,18.3 16.1,19.8 27,19.8 Z" id="Shape" fill="#8C3123"></path>
                <path d="M27,0.6 C41.6,0.6 53.5,3.4 53.5,6.8 C53.5,10.3 41.6,13 27,13 C12.4,13 0.5,10.2 0.5,6.8 C0.5,3.4 12.4,0.6 27,0.6 Z" id="Shape" fill="#E05243"></path>
                <path d="M27,17.3 C40.6,17.3 51.9,14.9 53.3,11.8 L44.6,48.8 C44.6,51.1 36.7,52.9 26.9,52.9 C17.1,52.9 9.2,51.1 9.2,48.8 L0.5,11.8 C2.1,14.9 13.4,17.3 27,17.3 Z" id="Shape" fill="#E05243"></path>
            </g>
        </g>
    </g>
</svg>