<?xml version="1.0" encoding="UTF-8" standalone="no"?>
<svg width="92px" height="92px" viewBox="0 0 92 92" version="1.1" xmlns="http://www.w3.org/2000/svg" xmlns:xlink="http://www.w3.org/1999/xlink">
    <!-- Generator: Sketch 41.2 (35397) - http://www.bohemiancoding.com/sketch -->
    <title>Compute-&amp;-Networking-copy_Amazon-EC2-Instance</title>
    <desc>Created with Sketch.</desc>
    <defs></defs>
    <g id="Page-1" stroke="none" stroke-width="1" fill="none" fill-rule="evenodd">
        <g id="blank">
            <g id="Page-1">
                <g id="blank">
                    <g id="Page-1">
                        <g id="Compute-&amp;-Networking-copy_Amazon-EC2-Instance">
                            <g id="Layer_1" transform="translate(1.000000, 1.000000)" stroke="#979797">
                                <circle id="Oval-1" cx="45" cy="45" r="45"></circle>
                            </g>
                            <g id="Layer_1">
                                <ellipse id="Oval" fill="#9D5025" cx="46" cy="47.86875" rx="45.1096774" ry="43.7"></ellipse>
                                <ellipse id="Oval" fill="#F58536" cx="46" cy="44.13125" rx="45.1096774" ry="43.7"></ellipse>
                                <g id="Group" transform="translate(8.903226, 11.500000)" fill="#FFFFFF">
                                    <path d="M37.0967742,65.2625 L36.3548387,64.975 C36.0580645,64.83125 29.3806452,62.53125 22.5548387,55.05625 C18.6967742,50.74375 15.5806452,45.56875 13.3548387,39.675 C10.683871,32.34375 9.2,23.8625 9.2,14.51875 L9.2,12.50625 L11.2774194,12.50625 C13.2064516,12.50625 16.7677419,11.93125 18.2516129,10.49375 C20.3290323,8.48125 20.6258065,4.8875 20.6258065,4.8875 L20.7741935,3.59375 L22.1096774,3.1625 C22.4064516,2.875 29.6774194,0.14375 37.0967742,0.14375 C44.2193548,0.14375 51.6387097,2.73125 52.083871,2.875 L53.4193548,3.30625 L53.5677419,4.6 C53.5677419,4.6 53.8645161,8.19375 55.9419355,10.20625 C57.2774194,11.5 61.1354839,12.075 62.916129,12.075 L64.9935484,12.21875 L64.9935484,14.23125 C64.9935484,23.575 63.6580645,32.05625 60.8387097,39.3875 C58.6129032,45.28125 55.4967742,50.45625 51.6387097,54.9125 C44.9612903,62.3875 38.1354839,64.6875 37.8387097,64.83125 L37.0967742,65.2625 Z M13.6516129,16.53125 C13.9483871,31.3375 18.1032258,43.55625 25.6709677,52.18125 C30.4193548,57.5 35.316129,59.94375 37.0967742,60.80625 C38.8774194,60.0875 43.6258065,57.64375 48.5225806,52.18125 C56.0903226,43.55625 60.2451613,31.3375 60.5419355,16.3875 C58.316129,16.1 54.7548387,15.38125 52.8258065,13.36875 C50.6,11.2125 49.7096774,8.19375 49.4129032,6.46875 C47.1870968,5.75 41.9935484,4.3125 37.2451613,4.3125 C32.3483871,4.3125 27.3032258,5.75 25.0774194,6.46875 C24.7806452,8.19375 23.8903226,11.2125 21.6645161,13.36875 C19.2903226,15.525 15.8774194,16.24375 13.6516129,16.53125 Z" id="Shape"></path>
                                    <path d="M50.6,30.7625 C47.9290323,33.35 39.7677419,38.8125 36.6516129,41.83125 L36.6516129,33.20625 L0.741935484,33.20625 L0.741935484,28.03125 L36.6516129,28.03125 L36.6516129,19.55 C39.4709677,22.425 47.6322581,27.8875 50.6,30.7625 Z" id="Shape"></path>
                                </g>
                            </g>
                        </g>
                    </g>
                </g>
            </g>
        </g>
    </g>
</svg>