<?xml version="1.0" encoding="UTF-8" standalone="no"?>
<svg width="92px" height="92px" viewBox="0 0 92 92" version="1.1" xmlns="http://www.w3.org/2000/svg" xmlns:xlink="http://www.w3.org/1999/xlink" xmlns:sketch="http://www.bohemiancoding.com/sketch/ns">
    <!-- Generator: Sketch 3.3.2 (12043) - http://www.bohemiancoding.com/sketch -->
    <title>Compute &amp; Networking copy_Amazon EC2 Instance</title>
    <desc>Created with Sketch.</desc>
    <defs>
        <path id="path-1" d="M9.423,0.17 L9.423,3.315 C9.423,8.292 5.373,12.327 0.359,12.327 L0.359,9.182 C5.373,9.182 9.423,5.146 9.423,0.17 L9.423,0.17 Z"></path>
        <path id="path-3" d="M9.657,9.182 L9.657,12.327 C4.643,12.327 0.577,8.292 0.577,3.315 L0.577,0.17 C0.577,5.146 4.644,9.182 9.657,9.182 L9.657,9.182 Z"></path>
    </defs>
    <g id="Page-1" stroke="none" stroke-width="1" fill="none" fill-rule="evenodd" sketch:type="MSPage">
        <g id="Compute-&amp;-Networking-copy_Amazon-EC2-Instance" sketch:type="MSLayerGroup" transform="translate(-4.000000, -4.000000)">
            <g id="Layer_1" transform="translate(5.000000, 5.000000)">
                <circle id="Oval-1" stroke="#979797" fill="#FFFFFF" sketch:type="MSShapeGroup" cx="45" cy="45" r="45"></circle>
                <g id="Group" transform="translate(18.000000, 16.000000)">
                    <path d="M44.358,0.674 C49.373,0.674 53.422,4.711 53.422,9.686 L53.422,45.17 C53.422,50.147 49.372,54.182 44.358,54.182 L9.657,54.182 C4.643,54.182 0.577,50.147 0.577,45.17 L0.577,9.686 C0.577,4.711 4.643,0.674 9.657,0.674 L44.358,0.674 L44.358,0.674 Z" id="Shape" fill="#F58536" sketch:type="MSShapeGroup"></path>
                    <g transform="translate(44.000000, 45.000000)">
                        <g id="SVGID_1_-link" fill="#9D5025" sketch:type="MSShapeGroup">
                            <path d="M9.423,0.17 L9.423,3.315 C9.423,8.292 5.373,12.327 0.359,12.327 L0.359,9.182 C5.373,9.182 9.423,5.146 9.423,0.17 L9.423,0.17 Z" id="SVGID_1_"></path>
                        </g>
                        <g id="Clipped">
                            <mask id="mask-2" sketch:name="SVGID_1_" fill="white">
                                <use xlink:href="#path-1"></use>
                            </mask>
                            <g id="SVGID_1_"></g>
                            <g id="Group" mask="url(#mask-2)" fill="#9D5025" sketch:type="MSShapeGroup">
                                <path id="Shape" d="M9.423,0.17 L9.423,3.315 C9.423,3.753 9.39,4.184 9.331,4.606 L9.331,1.461 C9.39,1.039 9.423,0.607 9.423,0.17"></path>
                                <path id="Shape" d="M9.331,1.461 L9.331,4.606 C9.257,5.106 9.143,5.592 8.994,6.063 L8.994,2.918 C9.144,2.447 9.257,1.961 9.331,1.461"></path>
                                <path d="M8.994,2.918 L8.994,6.063 C8.815,6.618 8.586,7.147 8.307,7.649 L8.307,4.503 C8.586,4.002 8.815,3.473 8.994,2.918" id="Shape"></path>
                                <path d="M8.308,4.502 L8.308,7.648 C6.77,10.435 3.79,12.326 0.359,12.326 L0.359,9.181 C3.79,9.182 6.77,7.291 8.308,4.502" id="Shape"></path>
                            </g>
                        </g>
                    </g>
                    <rect id="Rectangle-path" fill="#9D5025" sketch:type="MSShapeGroup" x="9.282" y="54.182" width="35.139" height="3.145"></rect>
                    <g transform="translate(0.000000, 45.000000)">
                        <g id="SVGID_3_-link" fill="#9D5025" sketch:type="MSShapeGroup">
                            <path d="M9.657,9.182 L9.657,12.327 C4.643,12.327 0.577,8.292 0.577,3.315 L0.577,0.17 C0.577,5.146 4.644,9.182 9.657,9.182 L9.657,9.182 Z" id="SVGID_3_"></path>
                        </g>
                        <g id="Clipped">
                            <mask id="mask-4" sketch:name="SVGID_3_" fill="white">
                                <use xlink:href="#path-3"></use>
                            </mask>
                            <g id="SVGID_3_"></g>
                            <path d="M10.032,9.182 L10.032,12.327 C5.018,12.327 0.577,8.292 0.577,3.315 L0.577,0.17 C0.577,5.147 4.643,9.182 9.657,9.182" id="Shape" fill="#9D5025" sketch:type="MSShapeGroup" mask="url(#mask-4)"></path>
                        </g>
                    </g>
                </g>
            </g>
        </g>
    </g>
</svg>