<?xml version="1.0" encoding="UTF-8" standalone="no"?>
<svg width="92px" height="92px" viewBox="0 0 92 92" version="1.1" xmlns="http://www.w3.org/2000/svg" xmlns:xlink="http://www.w3.org/1999/xlink">
    <!-- Generator: Sketch 41.2 (35397) - http://www.bohemiancoding.com/sketch -->
    <title>Networking_AmazonVPC_VPCNATgateway</title>
    <desc>Created with Sketch.</desc>
    <defs></defs>
    <g id="Page-1" stroke="none" stroke-width="1" fill="none" fill-rule="evenodd">
        <g id="Networking_AmazonVPC_VPCNATgateway">
            <g id="Layer_1">
                <ellipse id="Oval" fill="#9D5025" cx="46" cy="47.86875" rx="45.1096774" ry="43.7"></ellipse>
                <ellipse id="Oval" fill="#F58536" cx="46" cy="44.13125" rx="45.1096774" ry="43.7"></ellipse>
                <rect id="Rectangle-path" fill="#FFFFFF" x="58.1677419" y="23.8625" width="4.7483871" height="40.68125"></rect>
                <polygon id="Shape" fill="#FFFFFF" points="71.6709677 34.2125 84.1354839 43.9875 71.6709677 54.19375"></polygon>
                <polygon id="Shape" fill="#FFFFFF" points="27.6 41.83125 30.2709677 43.9875 27.3032258 46.575 73.7483871 46.575 73.7483871 41.83125"></polygon>
                <polygon id="Shape" fill="#FFFFFF" points="27.3032258 26.1625 63.0645161 26.1625 63.0645161 21.5625 27.6 21.5625 30.2709677 23.71875"></polygon>
                <polygon id="Shape" fill="#FFFFFF" points="30.2709677 64.4 27.3032258 66.84375 63.0645161 66.84375 63.0645161 62.24375 27.6 62.24375"></polygon>
                <polygon id="Shape" fill="#FFFFFF" points="17.3612903 36.225 27.3032258 43.9875 17.3612903 52.18125"></polygon>
                <polygon id="Shape" fill="#FFFFFF" points="17.3612903 15.8125 27.3032258 23.71875 17.3612903 31.9125"></polygon>
                <polygon id="Shape" fill="#FFFFFF" points="17.3612903 56.49375 27.3032258 64.4 17.3612903 72.59375"></polygon>
            </g>
        </g>
    </g>
</svg>