<?xml version="1.0" encoding="UTF-8" standalone="no"?>
<svg width="92px" height="92px" viewBox="0 0 92 92" version="1.1" xmlns="http://www.w3.org/2000/svg" xmlns:xlink="http://www.w3.org/1999/xlink">
    <!-- Generator: Sketch 41.2 (35397) - http://www.bohemiancoding.com/sketch -->
    <title>Compute-&amp;-Networking-copy_Amazon-EC2-Instance</title>
    <desc>Created with Sketch.</desc>
    <defs></defs>
    <g id="Page-1" stroke="none" stroke-width="1" fill="none" fill-rule="evenodd">
        <g id="blank">
            <g id="Page-1">
                <g id="blank">
                    <g id="Page-1">
                        <g id="Compute-&amp;-Networking-copy_Amazon-EC2-Instance">
                            <g id="Layer_1" transform="translate(1.000000, 1.000000)" stroke="#979797">
                                <circle id="Oval-1" cx="45" cy="45" r="45"></circle>
                            </g>
                            <g id="Layer_1">
                                <ellipse id="Oval" fill="#9D5025" cx="46" cy="47.86875" rx="45.1096774" ry="43.7"></ellipse>
                                <ellipse id="Oval" fill="#F58536" cx="46" cy="44.13125" rx="45.1096774" ry="43.7"></ellipse>
                                <polygon id="Shape" fill="#FFFFFF" points="89.0322581 44.41875 73.0064516 35.3625 73.0064516 40.825 49.7096774 40.825 49.7096774 18.1125 55.2 18.1125 46 2.5875 36.8 18.1125 42.2903226 18.1125 42.2903226 40.825 18.9935484 40.825 18.9935484 35.3625 2.96774194 44.41875 18.9935484 53.33125 18.9935484 48.0125 42.2903226 48.0125 42.2903226 70.58125 36.8 70.58125 46 86.10625 55.2 70.58125 49.7096774 70.58125 49.7096774 48.0125 73.0064516 48.0125 73.0064516 53.33125"></polygon>
                                <g id="Group" transform="translate(23.741935, 28.750000)">
                                    <path d="M9.94193548,26.01875 C5.34193548,26.01875 1.92903226,22.7125 1.92903226,19.69375 L1.92903226,18.975 C1.92903226,16.53125 4.15483871,13.08125 6.97419355,12.3625 L7.27096774,12.21875 L7.27096774,11.7875 C7.27096774,9.05625 8.30967742,6.6125 10.2387097,4.74375 C12.1677419,2.875 14.6903226,1.86875 17.5096774,1.86875 C21.516129,1.86875 25.2258065,4.16875 26.8580645,7.7625 L27.0064516,8.19375 L27.4516129,7.90625 C28.3419355,7.33125 29.2322581,7.04375 30.2709677,7.04375 C32.9419355,7.04375 35.1677419,9.05625 35.316129,11.64375 L35.316129,11.93125 L35.6129032,11.93125 C39.6193548,12.21875 42.7354839,15.95625 42.7354839,18.975 L42.7354839,19.69375 C42.7354839,22.7125 39.3225806,26.01875 34.7225806,26.01875 L9.94193548,26.01875 Z" id="Shape" fill="#F58536"></path>
                                    <path d="M17.5096774,3.30625 C20.9225806,3.30625 24.0387097,5.31875 25.5225806,8.3375 L26.4129032,10.35 L28.1935484,9.05625 C28.7870968,8.625 29.5290323,8.48125 30.1225806,8.48125 C32.0516129,8.48125 33.5354839,9.91875 33.683871,11.7875 L33.683871,13.36875 L35.316129,13.5125 C38.4322581,13.8 41.1032258,16.81875 41.1032258,19.11875 L41.1032258,19.8375 C41.1032258,22.1375 38.283871,24.725 34.5741935,24.725 L9.94193548,24.725 C6.23225806,24.725 3.41290323,22.1375 3.41290323,19.8375 L3.41290323,19.11875 C3.41290323,17.25 5.19354839,14.51875 7.41935484,13.8 L8.75483871,13.36875 L8.75483871,11.7875 C8.75483871,9.4875 9.64516129,7.33125 11.2774194,5.75 C12.9096774,4.16875 15.1354839,3.30625 17.5096774,3.30625 L17.5096774,3.30625 Z M17.5096774,0.43125 C14.3935484,0.43125 11.4258065,1.58125 9.2,3.7375 C7.12258065,5.75 5.93548387,8.3375 5.78709677,11.2125 C2.52258065,12.50625 0.44516129,16.24375 0.44516129,18.975 L0.44516129,19.69375 C0.44516129,23.8625 4.89677419,27.45625 9.94193548,27.45625 L34.7225806,27.45625 C39.7677419,27.45625 44.2193548,23.8625 44.2193548,19.69375 L44.2193548,18.975 C44.2193548,15.525 41.1032258,11.5 36.6516129,10.6375 C36.0580645,7.7625 33.5354839,5.4625 30.2709677,5.4625 C29.3806452,5.4625 28.4903226,5.60625 27.7483871,6.0375 C25.5225806,2.5875 21.6645161,0.43125 17.5096774,0.43125 L17.5096774,0.43125 Z" id="Shape" fill="#FFFFFF"></path>
                                </g>
                            </g>
                        </g>
                    </g>
                </g>
            </g>
        </g>
    </g>
</svg>