<?xml version="1.0" encoding="UTF-8" standalone="no"?>
<svg width="62px" height="61px" viewBox="0 0 62 61" version="1.1" xmlns="http://www.w3.org/2000/svg" xmlns:xlink="http://www.w3.org/1999/xlink" xmlns:sketch="http://www.bohemiancoding.com/sketch/ns">
  <!-- Generator: Sketch 3.3.3 (12081) - http://www.bohemiancoding.com/sketch -->
  <title>autoscaling_group</title>
  <desc>Created with Sketch.</desc>
  <defs></defs>
  <g id="Page-1" stroke="none" stroke-width="1" fill="none" fill-rule="evenodd" sketch:type="MSPage">
    <g id="autoscaling_group" sketch:type="MSLayerGroup" transform="translate(1.000000, 1.000000)">
      <g id="Page-1" stroke="#979797" fill="#FFFFFF" sketch:type="MSShapeGroup">
        <g id="autoscaling_group">
          <g id="Page-1">
            <g id="hava-icon">
              <g id="Hava">
                <g id="Oval-3">
                  <path d="M29.925926,59.27531 C46.289919,59.27531 59.555556,46.009673 59.555556,29.645681 C59.555556,13.281688 46.289919,0.016051 29.925926,0.016051 C13.561933,0.016051 0.296296,13.281688 0.296296,29.645681 C0.296296,46.009673 13.561933,59.27531 29.925926,59.27531 L29.925926,59.27531 L29.925926,59.27531 Z" id="Shape"></path>
                </g>
              </g>
            </g>
          </g>
        </g>
      </g>
      <g id="Layer_1" transform="translate(15.000000, 15.000000)" sketch:type="MSShapeGroup">
        <g id="Group">
          <g id="Shape">
            <g transform="translate(29.851852, 24.107143)" fill="#19486F">
              <path d="M0.808814815,0.473035714 L0.808814815,1.87392857 C0.808814815,2.06839286 0.783814815,2.26017857 0.734814815,2.44714286 L0.734814815,1.04732143 C0.782814815,0.859285714 0.808814815,0.668571429 0.808814815,0.473035714"></path>
              <path d="M0.734240741,1.04732143 L0.734240741,2.44714286 C0.698648148,2.66892857 0.644685185,2.88535714 0.574074074,3.09375 L0.574074074,1.69392857 C0.644685185,1.48446429 0.698648148,1.26803571 0.734240741,1.04732143"></path>
              <path d="M0.574074074,1.69392857 L0.574074074,3.09375 C0.490259259,3.33964286 0.378888889,3.57589286 0.246851852,3.79875 L0.246851852,2.39892857 C0.378888889,2.17553571 0.490259259,1.93982143 0.574074074,1.69392857"></path>
            </g>
            <path d="M30.6291481,24.5801786 L30.6291481,25.9810714 C30.6291481,28.1973214 28.6882037,29.9957143 26.295463,29.9957143 L26.295463,28.5948214 C28.6882037,28.5948214 30.6291481,26.7964286 30.6291481,24.5801786 L30.6291481,24.5801786 Z" fill="#19486F"></path>
            <path d="M26.9487593,28.1657143 L26.295463,29.9957143 L4.69822222,29.9957143 L4.69822222,28.5948214 L26.9487593,28.1657143 Z" fill="#19486F"></path>
            <path d="M4.69822222,28.5948214 L4.69822222,29.9957143 C2.30662963,29.9957143 0.371425926,28.1973214 0.371425926,25.9810714 L0.371425926,24.5801786 C0.370851852,26.7964286 2.30662963,28.5948214 4.69822222,28.5948214 L4.69822222,28.5948214 Z" fill="#19486F"></path>
            <path d="M26.295463,0.00428571429 C28.6882037,0.00428571429 30.6291481,1.79464286 30.6291481,4.01142857 L30.6291481,24.5801786 C30.6291481,26.7964286 28.6882037,28.5948214 26.295463,28.5948214 L4.69822222,28.5948214 C2.30662963,28.5948214 0.371425926,26.7964286 0.371425926,24.5801786 L0.371425926,4.01142857 C0.371425926,1.79410714 2.30662963,0.00428571429 4.69822222,0.00428571429 L26.295463,0.00428571429 L26.295463,0.00428571429 Z" fill="#2E73B7"></path>
          </g>
          <g transform="translate(4.018519, 3.214286)" id="Shape" fill="#FFFFFF">
            <path d="M4.46801852,4.1475 L4.46801852,4.27178571 C4.46801852,5.34428571 4.00187037,6.39160714 2.49377778,6.39160714 C0.879481481,6.39160714 0.376592593,5.42785714 0.376592593,3.30696429 C0.376592593,1.18714286 0.878907407,0.222321429 2.50353704,0.222321429 C4.3245,0.222321429 4.4307037,1.46946429 4.4307037,2.085 L4.4307037,2.19267857 L3.40942593,2.19267857 L3.40942593,2.09303571 C3.40942593,1.545 3.22916667,0.912857143 2.4932037,0.938035714 C1.74059259,0.938035714 1.40016667,1.37035714 1.40016667,3.28178571 C1.40016667,5.19428571 1.74116667,5.67696429 2.4932037,5.67696429 C3.34627778,5.67696429 3.44616667,4.79517857 3.44616667,4.24660714 L3.44616667,4.14696429 L4.46801852,4.14696429 L4.46801852,4.1475 Z"></path>
            <path d="M6.39575926,0.340178571 L7.70522222,0.340178571 L9.3907037,6.27589286 L8.32407407,6.27589286 L7.92853704,4.82035714 L6.05475926,4.82035714 L5.64085185,6.27589286 L4.5747963,6.27589286 L6.39575926,0.340178571 L6.39575926,0.340178571 Z M7.75803704,4.06392857 L7.02264815,1.13839286 L7.00485185,1.13839286 L6.24248148,4.06392857 L7.75803704,4.06392857 L7.75803704,4.06392857 Z"></path>
            <path d="M13.7754815,4.1475 L13.7754815,4.27178571 C13.7754815,5.34428571 13.3093333,6.39160714 11.8018148,6.39160714 C10.1875185,6.39160714 9.68462963,5.42785714 9.68462963,3.30696429 C9.68462963,1.18714286 10.1869444,0.222321429 11.8115741,0.222321429 C13.632537,0.222321429 13.7398889,1.46946429 13.7398889,2.085 L13.7398889,2.19267857 L12.7157407,2.19267857 L12.7157407,2.09303571 C12.7157407,1.545 12.5372037,0.912857143 11.8018148,0.938035714 C11.0474815,0.938035714 10.7076296,1.37035714 10.7076296,3.28178571 C10.7076296,5.19428571 11.0474815,5.67696429 11.8018148,5.67696429 C12.6548889,5.67696429 12.7524815,4.79517857 12.7524815,4.24660714 L12.7524815,4.14696429 L13.7754815,4.14696429 L13.7754815,4.1475 Z"></path>
            <path d="M14.4907778,0.340178571 L15.5143519,0.340178571 L15.5143519,2.71767857 L17.3978889,2.71767857 L17.3978889,0.340178571 L18.4191667,0.340178571 L18.4191667,6.27589286 L17.3978889,6.27589286 L17.3978889,3.51589286 L15.5143519,3.51589286 L15.5143519,6.27589286 L14.4907778,6.27589286 L14.4907778,0.340178571 L14.4907778,0.340178571 Z"></path>
            <path d="M19.4771852,0.340178571 L22.9405741,0.340178571 L22.9405741,1.13839286 L20.5007593,1.13839286 L20.5007593,2.78410714 L22.7959074,2.78410714 L22.7959074,3.58232143 L20.5007593,3.58232143 L20.5007593,5.47714286 L23.0111852,5.47714286 L23.0111852,6.27535714 L19.4771852,6.27535714 L19.4771852,0.340178571 L19.4771852,0.340178571 Z"></path>
          </g>
        </g>
      </g>
    </g>
  </g>
</svg>