<?xml version="1.0" encoding="UTF-8" standalone="no"?>
<svg width="92px" height="92px" viewBox="0 0 92 92" version="1.1" xmlns="http://www.w3.org/2000/svg" xmlns:xlink="http://www.w3.org/1999/xlink">
    <!-- Generator: Sketch 41.2 (35397) - http://www.bohemiancoding.com/sketch -->
    <title>Compute-&amp;-Networking-copy_Amazon-EC2-Instance</title>
    <desc>Created with Sketch.</desc>
    <defs></defs>
    <g id="Page-1" stroke="none" stroke-width="1" fill="none" fill-rule="evenodd">
        <g id="blank" transform="translate(1.000000, 1.000000)">
            <g id="Page-1">
                <g id="blank">
                    <g id="Page-1">
                        <g id="Compute-&amp;-Networking-copy_Amazon-EC2-Instance">
                            <g id="Layer_1" stroke="#979797">
                                <circle id="Oval-1" cx="45" cy="45" r="45"></circle>
                            </g>
                            <g id="Networking_AmazonVPC_VPNconnection" transform="translate(18.000000, 24.000000)">
                                <g id="Layer_1">
                                    <path d="M53.1,15.8 L53.1,13.3 L44.2,13 L38.7,13 L38.7,12.5 C38.7,6.2 33.1,2.7 26.9,2.7 C20.8,2.7 15.7,6.6 15,13 L9.6,13 L0.7,13.3 L0.7,15.8 L9.6,21.9 L9.6,18.4 L15,18.4 L15,25 L11.1,25 L11.1,41.9 L42.5,41.9 L42.5,25 L38.6,25 L38.6,18.4 L44.1,18.4 L44.1,21.9 L53.1,15.8 Z M32.2,25 L20.9,25 L20.9,18.4 L32.2,18.4 L32.2,25 Z M20.9,13.1 C20.9,12.1 21.1,7.8 26.5,7.8 L26.5,7.8 C31.7,7.8 32.1,12.1 32.2,13.1 L20.9,13.1 Z" id="Shape" fill="#9D5025"></path>
                                    <path d="M53.1,13.4 L44.2,7.3 L44.2,10.6 L38.7,10.6 L38.7,10.1 C38.7,3.8 33.1,0.3 26.9,0.3 C20.8,0.3 15.7,4.2 15,10.6 L9.6,10.6 L9.6,7.3 L0.7,13.4 L9.6,19.5 L9.6,16 L15,16 L15,22.6 L11.1,22.6 L11.1,39.5 L42.5,39.5 L42.5,22.5 L38.6,22.5 L38.6,16 L44.1,16 L44.1,19.5 L53.1,13.4 Z M32.2,22.5 L20.9,22.5 L20.9,16 L32.2,16 L32.2,22.5 Z M20.9,10.6 C20.9,9.6 21.1,5.3 26.5,5.3 L26.5,5.3 C31.7,5.3 32.1,9.6 32.2,10.6 L20.9,10.6 Z" id="Shape" fill="#F58536"></path>
                                </g>
                            </g>
                        </g>
                    </g>
                </g>
            </g>
        </g>
    </g>
</svg>